<svg xmlns="http://www.w3.org/2000/svg" width="108" height="108" viewBox="0 0 108 108">
  <g fill="none" fill-rule="evenodd">
    <g transform="translate(18 18)">
      <path fill="#D0933A" d="M5.56604657,32.5107851 L8.2142097,28.8028159 C8.2142097,28.8304873 8.0486995,34.1433984 8.0486995,34.1433984 L8.79349538,30.1310436 C11.000298,34.6138124 16.4069644,40.8122088 21.3446852,44.1327782 C21.8688008,44.4925066 22.3101613,44.8799063 22.6135967,45.2673061 C23.2480524,45.5163488 23.8825082,45.6547059 24.5169639,45.7653915 C24.8479843,45.8207344 25.2065898,45.8484058 25.5376101,45.8760772 C25.8686305,45.9037486 26.227236,45.9037486 26.5582564,45.9037486 C26.8892767,45.9037486 27.2202971,45.8760772 27.5513175,45.8484058 C27.8823379,45.8207344 28.2133583,45.7653915 28.5443787,45.7100487 C28.8753991,45.6547059 29.2064195,45.5993631 29.5098548,45.4886774 C29.8408752,45.4056632 30.1443106,45.3226489 30.475331,45.2119633 C30.7787663,45.1289491 31.1097867,44.990592 31.4132221,44.8799063 C31.7166574,44.7415493 32.0200928,44.6308636 32.3235282,44.4648352 C32.6269635,44.2988067 32.9303989,44.1604496 33.2062492,43.9944212 C33.5096846,43.8560641 33.7855349,43.6623642 34.0889702,43.4963357 C34.3924056,43.3303073 34.6682559,43.1366074 34.9716913,42.9705789 C35.2751266,42.8045504 35.550977,42.6108505 35.8268273,42.4448221 C36.1026776,42.2511222 36.406113,42.0850937 36.6819633,41.8913938 C36.9578136,41.6976939 37.261249,41.5316655 37.5646843,41.3379656 L37.8405347,41.1719371 L37.9784598,41.2549513 L39.9645822,42.5831791 L37.9508748,42.0574223 C37.7577796,42.2787936 37.5646843,42.5001649 37.3440041,42.7215362 C37.0957388,42.9705789 36.8198885,43.2196216 36.5716232,43.4686643 C36.2957728,43.6900356 36.0199225,43.9390783 35.7164872,44.1327782 C35.4130518,44.3541495 35.1372015,44.5478494 34.8061811,44.7415493 C34.1993104,45.1289491 33.5372696,45.461006 32.8476438,45.7377201 C32.5166234,45.8760772 32.158018,46.0144342 31.8269976,46.1251199 C31.4683922,46.2358055 31.1373718,46.3464912 30.7787663,46.4295054 C30.4201609,46.5125197 30.0615555,46.5955339 29.7029501,46.6508767 C29.3443446,46.7062196 28.9857392,46.733891 28.6271338,46.7892338 C27.9099229,46.8169052 27.1651271,46.8169052 26.4479162,46.7062196 C26.0893108,46.6508767 25.7307054,46.5955339 25.3721,46.5125197 C25.0134945,46.4295054 24.6824741,46.3188198 24.3514537,46.2081341 C23.7721681,45.9867628 23.1928824,45.7100487 22.6687668,45.3779918 C22.6687668,45.3779918 20.7653995,45.6547059 21.5377804,47.0936193 C22.3101613,48.5325328 23.4687327,48.3941757 22.9170321,50.0821318 C22.5308416,50.9952884 21.9791409,51.8807736 21.3722702,52.710916 C20.1033587,54.4265436 18.1172364,55.9484712 18.3103316,56.8616278 C27.3306373,68.013207 47.6608063,66.4636079 55.3846154,56.5018995 C55.2742753,55.062986 53.0123026,54.3712007 51.4399557,50.8569314 C51.8813162,50.9952884 52.543357,51.1889883 52.543357,51.1613169 C52.543357,51.1336455 50.6675748,48.0897902 50.5848197,47.7854046 L51.7985612,47.8684189 C51.7985612,47.8684189 50.1986293,45.8760772 50.1434592,45.6823773 L51.7709761,45.461006 C51.7709761,45.461006 49.7296837,43.108936 49.7020987,42.9152361 L51.7709761,43.247293 L49.5090034,40.5078232 L50.5848197,40.5078232 L49.3159082,38.6538386 C49.095228,38.5708244 48.8745477,38.5154815 48.6538674,38.4601387 C48.3780171,38.3771245 48.1021668,38.2941102 47.8263165,38.211096 C44.7367928,37.2425966 41.8127794,36.3571114 38.999106,34.586141 C35.0544464,32.1233853 31.5235622,29.1072014 28.8753991,26.7551314 L23.5514878,24.1540186 C18.4482568,23.7666188 13.6484611,23.9049759 10.7244477,24.4860756 L12.6002299,21.2761917 L9.73138649,24.7351183 C9.53829126,24.6797754 9.4831212,24.5690898 9.4831212,24.5690898 L9.67621642,20.3076923 L8.76591035,24.1540186 C8.49006002,24.0156615 8.15903963,23.9603187 7.82801924,23.9603187 C6.55910774,23.9603187 5.53846154,24.984161 5.53846154,26.2570459 C5.53846154,27.4192452 6.39359755,28.3877447 7.52458388,28.5261017 L5.56604657,32.5107851 L5.56604657,32.5107851 L5.56604657,32.5107851 L5.56604657,32.5107851 Z"/>
      <path fill="#FFCC86" d="M8.66806053,22.3888112 C8.39826752,22.2545455 8.0745159,22.1538462 7.77774358,22.1538462 C6.5366957,22.1538462 5.53846154,23.3958042 5.53846154,24.9398601 C5.53846154,26.2825175 6.32086129,27.4237762 7.34607475,27.6923077 C7.37305405,27.6923077 7.37305405,27.6923077 7.40003335,27.6923077 C8.0745159,27.4237762 9.42348098,25.1748252 9.20764657,23.765035 C9.12670866,23.2615385 8.93785355,22.7916084 8.66806053,22.3888112 L8.66806053,22.3888112 L8.66806053,22.3888112 L8.66806053,22.3888112 Z"/>
      <path fill="#FDD321" d="M28.7647068,21.238805 C28.3404418,20.0308261 28.4535791,18.4692924 29.0475501,16.9961473 C29.8960799,14.9632072 31.5082867,13.6079138 33.0356405,13.6079138 C33.3467681,13.6079138 33.6296114,13.6668396 33.9124547,13.7846912 C34.7892689,12.95973 35.8075047,12.2820833 36.9388779,11.8106769 C43.1897147,9.21794163 52.325553,13.843617 54.6731524,20.2370664 C55.8045255,23.3306709 55.4651136,26.7189045 54.5034464,29.812509 C53.7114852,32.3463185 50.8264836,35.9997181 51.9012881,38.7692308 C51.4770232,38.6513792 42.5391751,35.7640149 40.0501541,34.1140925 C36.0620637,31.5213573 32.4699539,28.339364 29.7829426,25.8644804 L29.6980896,25.7760917 L20.6188199,21.2977308 C20.5056826,21.238805 20.3925453,21.1798792 20.3076923,21.1209534 C21.6087715,21.1209534 26.5585291,21.7396743 28.7647068,21.238805"/>
      <g fill-rule="nonzero" transform="translate(29.538 12.923)">
        <path fill="#FFF" d="M2.64615385,6.76526055 C2.36923077,6.76526055 2.12307692,6.71761787 1.93846154,6.64615385 C1.44615385,6.47940447 1.07692308,6.16972705 0.830769231,5.69330025 C0.4,4.88337469 0.523076923,3.76377171 1.10769231,2.71563275 C1.87692308,1.35781638 3.32307692,0.404962779 4.64615385,0.404962779 C4.89230769,0.404962779 5.13846154,0.452605459 5.38461538,0.524069479 C6.03076923,0.738461538 6.49230769,1.23870968 6.64615385,1.95334988 C6.83076923,2.71563275 6.67692308,3.59702233 6.18461538,4.43076923 C5.41538462,5.78858561 3.93846154,6.76526055 2.64615385,6.76526055 Z"/>
        <path fill="#1D2A3A" d="M4.61538462,0.786104218 C4.8,0.786104218 4.98461538,0.809925558 5.16923077,0.881389578 C5.66153846,1.04813896 6.03076923,1.47692308 6.15384615,2.04863524 C6.30769231,2.73945409 6.18461538,3.54937965 5.72307692,4.31166253 C5.04615385,5.52655087 3.72307692,6.40794045 2.61538462,6.40794045 C2.43076923,6.40794045 2.24615385,6.38411911 2.09230769,6.33647643 L2.09230769,6.33647643 L2.09230769,6.33647643 C1.63076923,6.19354839 1.38461538,5.86004963 1.26153846,5.59801489 C0.892307692,4.88337469 0.984615385,3.83523573 1.50769231,2.88238213 C2.21538462,1.6674938 3.50769231,0.786104218 4.61538462,0.786104218 M4.61538462,0.0714640199 C3.13846154,0.0714640199 1.50769231,1.11960298 0.646153846,2.62034739 C-1.2101431e-13,3.73995037 -0.0923076923,4.95483871 0.369230769,5.88387097 C0.646153846,6.43176179 1.10769231,6.81290323 1.69230769,7.02729529 C1.96923077,7.12258065 2.27692308,7.17022333 2.61538462,7.17022333 C4.09230769,7.17022333 5.72307692,6.12208437 6.55384615,4.62133995 C7.07692308,3.71612903 7.23076923,2.76327543 7.04615385,1.92952854 C6.86153846,1.09578164 6.30769231,0.500248139 5.50769231,0.2382134 C5.26153846,0.1191067 4.95384615,0.0714640199 4.61538462,0.0714640199 L4.61538462,0.0714640199 Z"/>
      </g>
      <circle cx="36" cy="36" r="36"/>
    </g>
  </g>
</svg>
