<svg xmlns="http://www.w3.org/2000/svg" width="108" height="108" viewBox="0 0 108 108">
  <g fill="none" fill-rule="evenodd">
    <g transform="translate(18 18)">
      <path d="M4.05059992e-15,36 C4.05059992e-15,55.8954869 16.1330166,72 36,72 C55.8669834,72 72,55.8954869 72,36 C72,16.1045131 55.8954869,4.05059992e-15 36,4.05059992e-15 C16.1045131,4.05059992e-15 4.05059992e-15,16.1045131 4.05059992e-15,36 L4.05059992e-15,36 L4.05059992e-15,36 L4.05059992e-15,36 Z"/>
      <path fill="#D0933A" d="M4.81710214,31.695962 L7.55344418,27.8764846 C7.55344418,27.9049881 7.3824228,33.3776722 7.3824228,33.3776722 L8.152019,29.2446556 C10.432304,33.8622328 16.0190024,40.2470309 21.1211401,43.6674584 C21.6627078,44.0380048 22.1187648,44.4370546 22.432304,44.8361045 C23.087886,45.0926366 23.7434679,45.2351544 24.3990499,45.3491686 C24.7410926,45.4061758 25.111639,45.4346793 25.4536817,45.4631829 C25.7957245,45.4916865 26.1662708,45.4916865 26.5083135,45.4916865 C26.8503563,45.4916865 27.192399,45.4631829 27.5344418,45.4346793 C27.8764846,45.4061758 28.2185273,45.3491686 28.5605701,45.2921615 C28.9026128,45.2351544 29.2446556,45.1781473 29.5581948,45.064133 C29.9002375,44.9786223 30.2137767,44.8931116 30.5558195,44.7790974 C30.8693587,44.6935867 31.2114014,44.5510689 31.5249406,44.4370546 C31.8384798,44.2945368 32.152019,44.1805226 32.4655582,44.0095012 C32.7790974,43.8384798 33.0926366,43.695962 33.3776722,43.5249406 C33.6912114,43.3824228 33.976247,43.1828979 34.2897862,43.0118765 C34.6033254,42.8408551 34.888361,42.6413302 35.2019002,42.4703088 C35.5154394,42.2992874 35.8004751,42.0997625 36.0855107,41.9287411 C36.3705463,41.7292162 36.6840855,41.5581948 36.9691211,41.3586698 C37.2541568,41.1591449 37.567696,40.9881235 37.8812352,40.7885986 L38.1662708,40.6175772 L38.3087886,40.7030879 L40.3610451,42.0712589 L38.280285,41.5296912 C38.0807601,41.7577197 37.8812352,41.9857482 37.6532067,42.2137767 C37.3966746,42.4703088 37.111639,42.7268409 36.8551069,42.9833729 C36.5700713,43.2114014 36.2850356,43.4679335 35.9714964,43.6674584 C35.6579572,43.8954869 35.3729216,44.0950119 35.0308789,44.2945368 C34.4038005,44.6935867 33.719715,45.0356295 33.0071259,45.3206651 C32.6650831,45.4631829 32.2945368,45.6057007 31.9524941,45.719715 C31.5819477,45.8337292 31.239905,45.9477435 30.8693587,46.0332542 C30.4988124,46.1187648 30.128266,46.2042755 29.7577197,46.2612827 C29.3871734,46.3182898 29.0166271,46.3467933 28.6460808,46.4038005 C27.9049881,46.432304 27.1353919,46.432304 26.3942993,46.3182898 C26.023753,46.2612827 25.6532067,46.2042755 25.2826603,46.1187648 C24.912114,46.0332542 24.5700713,45.9192399 24.2280285,45.8052257 C23.6294537,45.5771971 23.0308789,45.2921615 22.4893112,44.9501188 C22.4893112,44.9501188 20.5225653,45.2351544 21.3206651,46.7173397 C22.1187648,48.1995249 23.3159145,48.0570071 22.7458432,49.7957245 C22.3467933,50.736342 21.7767221,51.6484561 21.1496437,52.5035629 C19.8384798,54.2707838 17.7862233,55.8384798 17.9857482,56.7790974 C27.3064133,68.2660333 48.3135392,66.6698337 56.2945368,56.4085511 C56.1805226,54.9263658 53.8432304,54.2137767 52.2185273,50.5938242 C52.6745843,50.736342 53.3586698,50.935867 53.3586698,50.9073634 C53.3586698,50.8788599 51.4204276,47.7434679 51.3349169,47.4299287 L52.5890736,47.5154394 C52.5890736,47.5154394 50.935867,45.4631829 50.8788599,45.263658 L52.5605701,45.0356295 C52.5605701,45.0356295 50.4513064,42.6128266 50.4228029,42.4133017 L52.5605701,42.7553444 L50.2232779,39.9334917 L51.3349169,39.9334917 L50.023753,38.023753 C49.7957245,37.9382423 49.567696,37.8812352 49.3396675,37.824228 C49.0546318,37.7387173 48.7695962,37.6532067 48.4845606,37.567696 C45.2921615,36.5700713 42.2707838,35.6579572 39.3634204,33.8337292 C35.2874109,31.2969121 31.6389549,28.1900238 28.9026128,25.7672209 L23.4014252,23.087886 C18.128266,22.6888361 13.1686461,22.8313539 10.1472684,23.4299287 L12.0855107,20.1235154 L9.12114014,23.6864608 C8.9216152,23.6294537 8.86460808,23.5154394 8.86460808,23.5154394 L9.06413302,19.1258907 L8.12351544,23.087886 C7.83847981,22.9453682 7.49643705,22.888361 7.1543943,22.888361 C5.8432304,22.888361 4.78859857,23.9429929 4.78859857,25.2541568 C4.78859857,26.4513064 5.67220903,27.4489311 6.84085511,27.5914489 L4.81710214,31.695962 L4.81710214,31.695962 L4.81710214,31.695962 L4.81710214,31.695962 Z"/>
      <path fill="#FFCC86" d="M8.12351544,23.0308789 C7.83847981,22.9168646 7.49643705,22.8313539 7.18289786,22.8313539 C5.87173397,22.8313539 4.81710214,23.8859857 4.81710214,25.1971496 C4.81710214,26.3372922 5.64370546,27.3064133 6.72684086,27.5344418 C6.75534442,27.5344418 6.75534442,27.5344418 6.78384798,27.5344418 C7.49643705,27.3064133 8.9216152,25.3966746 8.6935867,24.1995249 C8.60807601,23.7719715 8.40855107,23.3729216 8.12351544,23.0308789 L8.12351544,23.0308789 L8.12351544,23.0308789 L8.12351544,23.0308789 Z"/>
      <path fill="#FDD321" d="M28.9026128,19.9809976 C28.4750594,18.8123515 28.5890736,17.3016627 29.1876485,15.8764846 C30.0427553,13.9097387 31.6674584,12.5985748 33.2066508,12.5985748 C33.52019,12.5985748 33.8052257,12.6555819 34.0902613,12.7695962 C34.9738717,11.9714964 36,11.3159145 37.1401425,10.8598575 C43.4394299,8.35154394 52.6460808,12.8266033 55.0118765,19.0118765 C56.152019,22.0047506 55.8099762,25.2826603 54.8408551,28.2755344 C54.0427553,30.7268409 51.1353919,34.2612827 52.2185273,36.9406176 C51.7909739,36.8266033 42.783848,34.0332542 40.2755344,32.4370546 C36.2565321,29.9287411 32.6365796,26.8503563 29.9287411,24.456057 L29.8432304,24.3705463 L20.6935867,20.0380048 C20.5795724,19.9809976 20.4655582,19.9239905 20.3800475,19.8669834 C21.6912114,19.8669834 26.6793349,20.4655582 28.9026128,19.9809976"/>
      <g fill-rule="nonzero" transform="translate(29.234 12.998)">
        <path fill="#FFF" d="M2.37648456,8.00950119 C2.11995249,8.00950119 1.89192399,7.95249406 1.72090261,7.86698337 C1.26484561,7.66745843 0.92280285,7.29691211 0.694774347,6.72684086 C0.295724466,5.75771971 0.409738717,4.41805226 0.951306413,3.16389549 C1.66389549,1.5391924 3.00356295,0.399049881 4.22921615,0.399049881 C4.45724466,0.399049881 4.68527316,0.456057007 4.91330166,0.541567696 C5.51187648,0.798099762 5.93942993,1.39667458 6.08194774,2.25178147 C6.25296912,3.16389549 6.11045131,4.21852732 5.6543943,5.21615202 C4.94180523,6.84085511 3.5736342,8.00950119 2.37648456,8.00950119 Z"/>
        <path fill="#1D2A3A" d="M4.20071259,0.855106888 C4.37173397,0.855106888 4.54275534,0.883610451 4.71377672,0.96912114 C5.16983373,1.16864608 5.51187648,1.68171021 5.62589074,2.36579572 C5.76840855,3.19239905 5.6543943,4.16152019 5.22684086,5.0736342 C4.59976247,6.52731591 3.37410926,7.58194774 2.347981,7.58194774 C2.17695962,7.58194774 2.00593824,7.55344418 1.86342043,7.49643705 L1.86342043,7.49643705 L1.86342043,7.49643705 C1.43586698,7.32541568 1.20783848,6.9263658 1.09382423,6.6128266 C0.751781473,5.75771971 0.837292162,4.50356295 1.32185273,3.36342043 C1.97743468,1.90973872 3.17458432,0.855106888 4.20071259,0.855106888 M4.20071259,-4.05059992e-15 C2.83254157,-4.05059992e-15 1.32185273,1.25415677 0.523752969,3.04988124 C-0.0748218527,4.38954869 -0.160332542,5.8432304 0.267220903,6.95486936 C0.523752969,7.61045131 0.951306413,8.06650831 1.49287411,8.32304038 C1.74940618,8.43705463 2.03444181,8.49406176 2.347981,8.49406176 C3.71615202,8.49406176 5.22684086,7.23990499 5.99643705,5.44418052 C6.48099762,4.36104513 6.62351544,3.22090261 6.45249406,2.22327791 C6.28147268,1.22565321 5.76840855,0.513064133 5.02731591,0.199524941 C4.79928741,0.0570071259 4.51425178,-4.05059992e-15 4.20071259,-4.05059992e-15 L4.20071259,-4.05059992e-15 Z"/>
      </g>
    </g>
  </g>
</svg>
