<?xml version="1.0" encoding="utf-8"?>
<svg version="1.1" id="mullvad-vpn-logo-square" xmlns="http://www.w3.org/2000/svg" xmlns:xlink="http://www.w3.org/1999/xlink"
	 x="0px" y="0px" viewBox="0 0 252 252" style="enable-background:new 0 0 252 252;" xml:space="preserve">
<style type="text/css">
	.background{fill:#192E45;}
	.fur{fill-rule:evenodd;clip-rule:evenodd;fill:#D2943B;}
	.nose{fill-rule:evenodd;clip-rule:evenodd;fill:#FFCD86;}
	.helmet{fill-rule:evenodd;clip-rule:evenodd;fill:#FFD524;}
	.lamp-light{fill:#FFFFFF;}
	.lamp-ring{fill:#192E45;}
</style>
<rect id="background" y="0" class="background" width="252" height="252"/>
<g id="mole" transform="translate(26.591 37.207)">
	<g id="body" transform="translate(0 30.763)">
		<path id="fur" class="fur" d="M7.2,29.2l-7,14.1l9.4-13.1c0,0.1-0.6,18.9-0.6,18.9l2.6-14.2C18.8,48.3,34.4,69,56.2,84.4
			c1.6,1.2,3.1,2.5,4.5,4c0,0,20.9,10.6,53-13.9c0.3-0.2,0.7-0.4,1-0.6l0.5,0.3l7.1,4.7c-2.5-0.7-7.2-1.9-7.2-1.9
			C99.7,94.9,74.5,97.8,60.9,88.8c-0.6-0.4-3.9,1-4.5,2.9c-0.3,1.1-0.1,2.2,0.5,3.1c2.7,5.1,6.9,4.6,4.9,10.6
			c-1.5,3.3-3.3,6.4-5.5,9.3c-4.5,6.1-11.6,11.5-10.9,14.7c32,39.4,104,33.9,131.5-1.3c-0.4-5.1-8.4-7.5-14-20
			c1.3,0.4,2.6,0.8,3.9,1.1c0-0.1-6.7-10.9-7-12l4.3,0.3c0,0-5.7-7.1-5.9-7.7l5.8-0.8c0,0-7.3-8.3-7.4-9l7.4,1.2l-8-9.7h3.8
			l-4.5-6.6l-36.6-14.4c-14-8.7-26.5-19.4-35.9-27.6L64,13.7c-18.1-1.4-35.1-0.9-45.5,1.2l6.7-11.4l-9.7,11.6
			c-0.6-0.2-1.3-0.4-1.3-0.4L14.9,0l-3.2,13.7L7.2,29.2z"/>
		<path id="nose" class="nose" d="M11.6,13.7c-4.1-1.9-8.9-0.2-10.8,3.9c-1.9,4.1-0.2,8.9,3.9,10.8c0.8,0.4,1.6,0.6,2.5,0.7
			C12.1,26.2,16.3,18.3,11.6,13.7z"/>
	</g>
	<g id="helmet" transform="translate(53.885)">
		<path id="helmet-2" class="helmet" d="M29.1,33.8c-1.5-4-1.1-9.2,1-14.1C33,12.9,38.6,8.4,43.9,8.4c1,0,2.1,0.2,3,0.6
			c3.1-2.8,6.6-5,10.5-6.6c21.6-8.6,53.2,6.8,61.4,27.9c3.9,10.3,2.7,21.5-0.6,31.8c-2.7,8.4-12.7,20.6-9,29.7
			c-1.5-0.4-32.2-10.8-41-15.5C54.4,67.7,42.1,57.1,32.7,49l-0.3-0.3L1.1,33.8c-0.4-0.2-0.7-0.4-1.1-0.6
			C4.3,33.4,21.5,35.5,29.1,33.8"/>
		<g id="lamp" transform="translate(28.842 9.097)">
			<path id="lamp-light" class="lamp-light" d="M5.3,12.2c3-6.7,8.6-10.8,12.6-9s4.9,8.6,1.9,15.4s-8.6,10.8-12.6,9S2.4,19,5.3,12.2z"/>
			<path id="lamp-ring" class="lamp-ring" d="M18.8,1.4C13.6-0.9,6.6,3.5,3.2,11.3S1.4,27.1,6.6,29.4c5.2,2.3,12.2-2.2,15.6-9.9
				S24,3.7,18.8,1.4z M19.3,18.3c-2.7,6.2-7.9,9.9-11.6,8.3C4,25,3.2,18.7,6,12.5c2.7-6.2,7.9-9.9,11.7-8.3
				C21.3,5.8,22,12.2,19.3,18.3z"/>
		</g>
	</g>
</g>
</svg>
