<?xml version="1.0" encoding="utf-8"?>
<svg version="1.1" id="Mullvad_VPN_Logo_BW_Android"
	 xmlns="http://www.w3.org/2000/svg" xmlns:xlink="http://www.w3.org/1999/xlink" x="0px" y="0px" viewBox="0 0 252 252"
	 style="enable-background:new 0 0 252 252;" xml:space="preserve">
<style type="text/css">
	.st1{fill-rule:evenodd;clip-rule:evenodd;fill:#000000;}
</style>
<path class="st1" d="M35.1,81.7c10.5-2.1,28-2.5,46.6-1.1l19.3,9.5c9.5,8.4,22.4,19.3,36.8,28.4l37.1,14.4c-2.5,10.9,3.9,33.7,7.7,44.2
	c4.9,13,14,15.1,14.4,20.3c-28,36.1-101.6,41.7-134.2,1.4c-0.7-3.2,6.7-8.8,11.2-15.1c2.1-3.2,4.2-6.3,5.6-9.5
	c2.1-6-2.1-5.6-4.9-10.9c-0.4-1.1-1.1-2.1-0.4-3.2c0.7-2.1,3.9-3.5,4.6-3.2c13.7,9.1,39.6,6.3,55.4-11.9c0,0,4.9,1.1,7.4,1.8
	l-7.4-4.9l-0.4-0.4c-0.4,0.4-0.7,0.4-1.1,0.7c-32.9,24.9-54.3,14.4-54.3,14.4c-0.7-0.7-2.8-2.8-4.6-4.2
	c-22.4-15.8-38.2-36.8-45.6-50.5l-2.1-3.9l-2.5-2.1c-5.3-0.7-8.4-6-7-10.2c1.1-4.6,6.7-7.7,11.6-5.6l3.2,1.1L35.1,81.7z M192.1,98.5
	c-2.8,8.8-13,21-9.1,30.5c-1.4-0.4-32.9-10.9-41.7-15.8c-14-8.8-26.6-19.6-36.1-28.1l-0.4-0.4L72.2,69.8c-0.4-0.4-0.7-0.4-1.1-0.7
	c4.6,0.4,22.1,2.5,29.8,0.7c-1.4-4.2-1.1-9.5,1.1-14.4c3.2-7,8.8-11.6,14-11.6c1.1,0,2.1,0.4,3.2,0.7c3.2-2.8,6.7-5.3,10.9-6.7
	c22.1-8.8,54.3,7,62.7,28.4C196.6,76.8,195.6,88,192.1,98.5z M119.2,47.3c-4.9-2.1-11.2,1.8-14,9.1c-3.2,7-1.8,14.4,3.2,16.5
	c4.6,2.1,11.2-1.8,14-9.1C125.2,56.8,123.8,49.1,119.2,47.3z"/>
</svg>
