<?xml version="1.0" encoding="utf-8"?>
<svg version="1.1" id="Mullvad_VPN_Logo_BW_Android"
	 xmlns="http://www.w3.org/2000/svg" xmlns:xlink="http://www.w3.org/1999/xlink" x="0px" y="0px" viewBox="0 0 108 108"
	 style="enable-background:new 0 0 108 108;" xml:space="preserve">
<style type="text/css">
       .st1{fill-rule:evenodd;clip-rule:evenodd;fill:#000000;}
</style>
<path class="st1" d="M74.2,74.5c-8,10.3-29,11.9-38.3,0.4c-0.2-0.9,1.9-2.5,3.2-4.3c0.6-0.9,1.2-1.8,1.6-2.7c0.6-1.7-0.6-1.6-1.4-3.1
	c-0.1-0.3-0.3-0.6-0.1-0.9c0.2-0.6,1.1-1,1.3-0.9c3.9,2.6,11.3,1.8,15.8-3.4c0,0,1.4,0.3,2.1,0.5l-2.1-1.4l-0.1-0.1
	c-0.1,0.1-0.2,0.1-0.3,0.2c-9.4,7.1-15.5,4.1-15.5,4.1c-0.2-0.2-0.8-0.8-1.3-1.2c-6.4-4.5-10.9-10.5-13-14.4l-0.8,4.1l0.2-5.5
	l-2.7,3.8l2-4.1c-1.5-0.2-2.4-1.7-2-2.9c0.3-1.3,1.9-2.2,3.3-1.6l0.9-4l-0.2,4.3c0,0,0.2,0.1,0.4,0.1l2.8-3.4l-1.9,3.3
	c3-0.6,8-0.7,13.3-0.3l5.5,2.7c2.7,2.4,6.4,5.5,10.5,8.1L67.9,56l1.3,1.9h-1.1l2.3,2.8l-2.1-0.3c0,0.2,2.1,2.6,2.1,2.6l-1.7,0.2
	c0.1,0.2,1.7,2.3,1.7,2.3l-1.3-0.1c0.1,0.3,2,3.5,2,3.5s-0.7-0.2-1.1-0.3C71.7,72.3,74.1,73,74.2,74.5z M72.8,46.2
	c-0.8,2.5-3.7,6-2.6,8.7c-0.4-0.1-9.4-3.1-11.9-4.5c-4-2.5-7.6-5.6-10.3-8l-0.1-0.1L38.6,38c-0.1-0.1-0.2-0.1-0.3-0.2
	c1.3,0.1,6.3,0.7,8.5,0.2c-0.4-1.2-0.3-2.7,0.3-4.1c0.9-2,2.5-3.3,4-3.3c0.3,0,0.6,0.1,0.9,0.2c0.9-0.8,1.9-1.5,3.1-1.9
	c6.3-2.5,15.5,2,17.9,8.1C74.1,40,73.8,43.2,72.8,46.2z M52,31.6c-1.4-0.6-3.2,0.5-4,2.6c-0.9,2-0.5,4.1,0.9,4.7
	c1.3,0.6,3.2-0.5,4-2.6C53.7,34.3,53.3,32.1,52,31.6z"/>
</svg>
