<?xml version="1.0" encoding="utf-8"?>
<svg version="1.1" id="logo_00000183244726354177486890000003471613280854675596_"
	 xmlns="http://www.w3.org/2000/svg" xmlns:xlink="http://www.w3.org/1999/xlink" x="0px" y="0px" viewBox="0 0 252 252"
	 style="enable-background:new 0 0 252 252;" xml:space="preserve">
<style type="text/css">
	.background{fill-rule:evenodd;clip-rule:evenodd;fill:#192E45;}
	.fur{fill-rule:evenodd;clip-rule:evenodd;fill:#D2943B;}
	.nose{fill-rule:evenodd;clip-rule:evenodd;fill:#FFCD86;}
	.helmet{fill-rule:evenodd;clip-rule:evenodd;fill:#FFD524;}
	.lamp-light{fill:#FFFFFF;}
	.lamp-ring{fill:#192E45;}
</style>
<g id="mole">
	<path id="bg" class="background" d="M0,126c0,69.6,56.5,126,126,126s126-56.4,126-126S195.6,0,126,0S0,56.4,0,126L0,126L0,126L0,126z"/>
	<g id="body">
		<path id="fur" class="fur" d="M23.9,96.6L16.8,111l9.6-13.4c0,0.1-0.6,19.3-0.6,19.3l2.7-14.5c7.2,13.7,23.1,34.8,45.4,50.5
			c1.7,1.2,3.9,3.3,4.6,4.1c0,0,21.3,10.8,54.1-14.2c0.3-0.2,0.7-0.4,1-0.6l0.5,0.3l7.2,4.8c-2.5-0.7-7.3-1.9-7.3-1.9
			c-15.8,18.2-41.5,21.2-55.3,12c-0.6-0.4-4,1-4.6,3c-0.4,1.1,0,2.3,0.5,3.2c2.8,5.2,7,4.7,5,10.8c-1.4,3.3-3.4,6.5-5.6,9.5
			c-4.6,6.2-11.8,11.7-11.1,15c32.6,40.2,106.1,34.6,134.1-1.3c-0.4-5.2-8.6-7.7-14.3-20.4c1.6,0.5,4,1.2,4,1.1
			c0-0.1-6.8-11.1-7.1-12.2l4.4,0.3c0,0-5.8-7.2-6-7.9l5.9-0.8c0,0-7.4-8.5-7.5-9.2l7.5,1.2l-8.2-9.9h3.9l-4.6-6.7l-37.3-14.7
			c-14.3-8.9-27-19.8-36.6-28.2l-19.3-9.4C63.3,79.4,46,79.9,35.4,82l6.8-11.6l-9.9,11.8C31.7,82,31,81.8,31,81.8l0.7-15l-3.3,14
			L23.9,96.6z"/>
		<path id="nose" class="nose" d="M28.4,80.8c-4.9-2.3-10.6,1-11.6,5.5c-1.2,4.3,1.8,9.6,7.1,10.3C28.9,93.5,33.2,85.5,28.4,80.8z"/>
	</g>
	<g id="helmet">
		<path id="helmet" class="helmet" d="M101.2,69.9c-1.5-4.1-1.1-9.4,1-14.4c3-6.9,8.7-11.5,14.1-11.5c1.1,0,2.1,0.2,3.1,0.6
			c3.1-2.8,6.7-5.1,10.7-6.7c22-8.8,54.3,6.9,62.6,28.5c4,10.5,2.8,21.9-0.6,32.4c-2.8,8.6-13,21-9.2,30.3
			c-1.5-0.4-32.8-11-41.8-15.8c-14.1-8.8-26.7-19.6-36.2-27.9l-0.3-0.3l-32-15.2c-0.4-0.2-0.8-0.4-1.1-0.6
			C75.9,69.5,93.4,71.6,101.2,69.9"/>
		<g id="lamp">

				<ellipse id="lamp-light" transform="matrix(0.4007 -0.9162 0.9162 0.4007 12.8553 140.4693)" class="lamp-light" cx="113.8" cy="60.4" rx="13.6" ry="8.1"/>
			<path id="lamp-ring" class="lamp-ring" d="M120.1,46.1c-5.3-2.3-12.4,2.2-15.9,10.1s-1.9,16.1,3.4,18.5c5.3,2.3,12.4-2.2,15.9-10.1
				S125.4,48.5,120.1,46.1z M120.6,63.4c-2.8,6.3-8.1,10.1-11.8,8.5c-3.8-1.7-4.6-8.1-1.8-14.5c2.8-6.3,8.1-10.1,11.9-8.5
				C122.6,50.6,123.4,57.1,120.6,63.4z"/>
		</g>
	</g>
</g>
</svg>
