<svg width="32" height="32" viewBox="0 0 32 32" fill="none" xmlns="http://www.w3.org/2000/svg">
<mask id="mask0_4714_1057" style="mask-type:alpha" maskUnits="userSpaceOnUse" x="0" y="0" width="32" height="32">
<path d="M32 0H0V32H32V0Z" fill="#D9D9D9"/>
</mask>
<g mask="url(#mask0_4714_1057)">
<path fill-rule="evenodd" clip-rule="evenodd" d="M30 16C30 23.732 23.732 30 16 30C8.26801 30 2 23.732 2 16C2 8.26801 8.26801 2 16 2C23.732 2 30 8.26801 30 16ZM17.4 23C17.4 23.7732 16.7732 24.4 16 24.4C15.2268 24.4 14.6 23.7732 14.6 23C14.6 22.2268 15.2268 21.6 16 21.6C16.7732 21.6 17.4 22.2268 17.4 23ZM17.4 17.4V9C17.4 8.2268 16.7732 7.6 16 7.6C15.2268 7.6 14.6 8.2268 14.6 9V17.4C14.6 18.1732 15.2268 18.8 16 18.8C16.7732 18.8 17.4 18.1732 17.4 17.4Z" fill="#E34039"/>
</g>
</svg>