<svg width="18" height="18" viewBox="0 0 18 18" fill="none" xmlns="http://www.w3.org/2000/svg">
<mask id="mask0_10156_10742" style="mask-type:alpha" maskUnits="userSpaceOnUse" x="0" y="0" width="18" height="18">
<rect width="18" height="18" fill="#D9D9D9"/>
</mask>
<g mask="url(#mask0_10156_10742)">
<path d="M9 15.9938C8.825 15.9938 8.65 15.9625 8.475 15.9C8.3 15.8375 8.14375 15.7438 8.00625 15.6188C7.19375 14.8688 6.475 14.1375 5.85 13.425C5.225 12.7125 4.70312 12.0219 4.28437 11.3531C3.86562 10.6844 3.54688 10.0406 3.32812 9.42188C3.10937 8.80313 3 8.2125 3 7.65C3 6.3625 3.325 5.20625 3.975 4.18125C4.625 3.15625 5.54375 2.40625 6.73125 1.93125C7.05625 1.79375 7.41562 1.6875 7.80937 1.6125C8.20312 1.5375 8.59375 1.49375 8.98125 1.48125C9.19375 1.48125 9.37188 1.55 9.51562 1.6875C9.65937 1.825 9.73125 2 9.73125 2.2125C9.73125 2.425 9.65937 2.60938 9.51562 2.76562C9.37188 2.92187 9.19375 3 8.98125 3C8.68125 3 8.3875 3.02813 8.1 3.08438C7.8125 3.14063 7.525 3.225 7.2375 3.3375C6.3625 3.7 5.6875 4.275 5.2125 5.0625C4.7375 5.85 4.5 6.7125 4.5 7.65C4.5 8.5375 4.86875 9.55312 5.60625 10.6969C6.34375 11.8406 7.475 13.1125 9 14.5125C9.7625 13.8125 10.425 13.1469 10.9875 12.5156C11.55 11.8844 12.0188 11.2813 12.3938 10.7063C12.6438 10.3188 12.8625 9.92188 13.05 9.51562C13.2375 9.10937 13.3688 8.6875 13.4438 8.25C13.4938 7.9625 13.6031 7.7625 13.7719 7.65C13.9406 7.5375 14.1187 7.49375 14.3062 7.51875C14.4937 7.54375 14.6531 7.61875 14.7844 7.74375C14.9156 7.86875 14.9688 8.0375 14.9438 8.25C14.8438 9.025 14.6219 9.75313 14.2781 10.4344C13.9344 11.1156 13.5313 11.7687 13.0688 12.3937C12.5313 13.1062 11.9781 13.7406 11.4094 14.2969C10.8406 14.8531 10.3687 15.2938 9.99375 15.6188C9.85625 15.7438 9.7 15.8375 9.525 15.9C9.35 15.9625 9.175 15.9938 9 15.9938ZM9 9C9.4125 9 9.76563 8.85313 10.0594 8.55938C10.3531 8.26563 10.5 7.9125 10.5 7.5C10.5 7.0875 10.3531 6.73438 10.0594 6.44063C9.76563 6.14688 9.4125 6 9 6C8.5875 6 8.23438 6.14688 7.94063 6.44063C7.64688 6.73438 7.5 7.0875 7.5 7.5C7.5 7.9125 7.64688 8.26563 7.94063 8.55938C8.23438 8.85313 8.5875 9 9 9ZM13.5 3.75V5.25C13.5 5.4625 13.5719 5.64063 13.7156 5.78438C13.8594 5.92813 14.0375 6 14.25 6C14.4625 6 14.6406 5.92813 14.7844 5.78438C14.9281 5.64063 15 5.4625 15 5.25V3.75H16.5C16.7125 3.75 16.8906 3.67813 17.0344 3.53438C17.1781 3.39063 17.25 3.2125 17.25 3C17.25 2.7875 17.1781 2.60938 17.0344 2.46563C16.8906 2.32188 16.7125 2.25 16.5 2.25H15V0.75C15 0.5375 14.9281 0.359375 14.7844 0.215625C14.6406 0.071875 14.4625 0 14.25 0C14.0375 0 13.8594 0.071875 13.7156 0.215625C13.5719 0.359375 13.5 0.5375 13.5 0.75V2.25H12C11.7875 2.25 11.6094 2.32188 11.4656 2.46563C11.3219 2.60938 11.25 2.7875 11.25 3C11.25 3.2125 11.3219 3.39063 11.4656 3.53438C11.6094 3.67813 11.7875 3.75 12 3.75H13.5Z" fill="white"/>
</g>
</svg>
