<svg width="24px" height="24px" viewBox="0 0 24 24" version="1.1" xmlns="http://www.w3.org/2000/svg" xmlns:xlink="http://www.w3.org/1999/xlink">
    <title>icon-nearest</title>
    <desc>Mullvad VPN app</desc>
    <defs></defs>
        <path d="M20.9450712,11 L23,11 C23.5522847,11 24,11.4477153 24,12 C24,12.5522847 23.5522847,13 23,13 L20.9450712,13 C20.4839224,17.1716166 17.1716166,20.4839224 13,20.9450712 L13,23 C13,23.5522847 12.5522847,24 12,24 C11.4477153,24 11,23.5522847 11,23 L11,20.9450712 C6.82838339,20.4839224 3.5160776,17.1716166 3.05492878,13 L1,13 C0.44771525,13 0,12.5522847 0,12 C0,11.4477153 0.44771525,11 1,11 L3.05492878,11 C3.5160776,6.82838339 6.82838339,3.5160776 11,3.05492878 L11,1 C11,0.44771525 11.4477153,0 12,0 C12.5522847,0 13,0.44771525 13,1 L13,3.05492878 C17.1716166,3.5160776 20.4839224,6.82838339 20.9450712,11 Z M18.9291111,11 C18.4905984,7.93430884 16.0656912,5.50940162 13,5.07088886 L13,7 C13,7.55228475 12.5522847,8 12,8 C11.4477153,8 11,7.55228475 11,7 L11,5.07088886 C7.93430884,5.50940162 5.50940162,7.93430884 5.07088886,11 L7,11 C7.55228475,11 8,11.4477153 8,12 C8,12.5522847 7.55228475,13 7,13 L5.07088886,13 C5.50940162,16.0656912 7.93430884,18.4905984 11,18.9291111 L11,17 C11,16.4477153 11.4477153,16 12,16 C12.5522847,16 13,16.4477153 13,17 L13,18.9291111 C16.0656912,18.4905984 18.4905984,16.0656912 18.9291111,13 L17,13 C16.4477153,13 16,12.5522847 16,12 C16,11.4477153 16.4477153,11 17,11 L18.9291111,11 Z" id="icon-nearest" fill="#FFFFFF" fill-rule="nonzero"></path>
</svg>
