<?xml version="1.0" encoding="UTF-8"?>
<svg width="24px" height="24px" viewBox="0 0 24 24" version="1.1" xmlns="http://www.w3.org/2000/svg" xmlns:xlink="http://www.w3.org/1999/xlink">
    <title>icon-fastest</title>
    <desc>Mullvad VPN app</desc>
    <defs></defs>
        <path fill="#FFFFFF" d="M21.1507481,6.83280665 C24.8128031,10.5070481 24.963038,16.3056835 21.4959142,20.1552329 C18.0287905,24.0047824 12.1077149,24.6135147 7.89218032,21.5538019 C7.56927452,21.3111241 7.40378985,20.9190527 7.4580628,20.5252773 C7.51233574,20.131502 7.77812095,19.7958465 8.15529969,19.644749 C8.53247843,19.4936516 8.96374829,19.5500675 9.28665406,19.7927454 C11.5190533,21.5357122 14.5521978,21.9470531 17.1883493,20.8643366 C19.8245009,19.7816201 21.6398874,17.3788972 21.917643,14.604963 C22.1953986,11.8310288 20.890873,9.13180475 18.5192016,7.57316921 C17.4963669,6.86336234 16.3093972,6.41068921 15.0637596,6.25537178 C13.0068849,5.98676172 10.9251308,6.53023229 9.28173528,7.76484883 C8.78601466,8.13151903 8.08013307,8.04356746 7.69509115,7.56715586 C7.31004923,7.09074425 7.38788476,6.40161565 7.87004581,6.01816824 C9.32618858,4.91172269 11.0690124,4.22078431 12.9044157,4.02230413 L12.9044157,2.72367467 L11.7017744,2.72367467 C11.3810313,2.7211743 11.0761771,2.58728319 10.861863,2.354788 C10.647549,2.12229281 10.543565,1.81266216 10.5753741,1.50171705 C10.6494879,0.921669603 11.1609089,0.489587303 11.7607997,0.500191003 L16.3672359,0.500191003 C16.6892225,0.500064398 16.9962796,0.632463774 17.2126847,0.864738483 C17.4290898,1.09701319 17.5347009,1.40754432 17.5034738,1.71975262 C17.42936,2.29980007 16.917939,2.73188237 16.3180481,2.72127867 L15.1744321,2.72127867 L15.1744321,4.01990814 C17.4372686,4.26696772 19.5456874,5.2593463 21.1507481,6.83280665 Z M18.3814758,10.6663992 C18.6486569,10.3452379 18.6236955,9.87935381 18.323645,9.58703751 C18.0235945,9.29472121 17.5453839,9.27040316 17.2157252,9.53069739 L14.3111864,11.804497 C13.4337266,11.681255 12.5738342,12.1191557 12.1768555,12.8914065 C11.7798767,13.6636572 11.9349913,14.5967747 12.561864,15.2074889 C13.1887368,15.8182032 14.1465429,15.9693195 14.9392261,15.5825734 C15.7319094,15.1958273 16.1813962,14.3580998 16.0548935,13.5032576 L18.3888539,10.6663992 L18.3814758,10.6663992 Z M8.48981192,11.3252979 C9.03312521,11.3252979 9.47356765,10.8962084 9.47356765,10.3668998 C9.47356765,9.83759109 9.03312521,9.40850163 8.48981192,9.40850163 L0.983755727,9.40850163 C0.440442441,9.40850163 5.46094129e-17,9.83759109 0,10.3668998 C-5.46094129e-17,10.8962084 0.440442441,11.3252979 0.983755727,11.3252979 L8.48981192,11.3252979 Z M8.48981192,12.822795 L2.83321649,12.822795 C2.28990321,12.822795 1.84946077,13.2518844 1.84946077,13.7811931 C1.84946077,14.3105018 2.28990321,14.7395912 2.83321649,14.7395912 L8.48981192,14.7395912 C9.03312521,14.7395912 9.47356765,14.3105018 9.47356765,13.7811931 C9.47356765,13.2518844 9.03312521,12.822795 8.48981192,12.822795 Z M9.47356765,17.1859025 C9.47356765,16.6565938 9.03312521,16.2275043 8.48981192,16.2275043 L4.36541604,16.2275043 C3.82210275,16.2275043 3.38166031,16.6565938 3.38166031,17.1859025 C3.38166031,17.7152111 3.82210275,18.1443006 4.36541604,18.1443006 L8.48981192,18.1443006 C8.75072118,18.1430328 9.00042697,18.0408412 9.18399521,17.8602073 C9.36756345,17.6795734 9.46995668,17.4352944 9.46864887,17.1811105 L9.47356765,17.1859025 Z" fill-rule="nonzero"></path>
</svg>