<svg height="24" viewBox="0 0 24 24" width="24" xmlns="http://www.w3.org/2000/svg"  xmlns:xlink="http://www.w3.org/1999/xlink">
  <title>alert</title>
  <path d="m12 24c-6.627417 0-12-5.372583-12-12s5.372583-12 12-12 12 5.372583 12 12-5.372583 12-12 12zm0-19.5c-.8284271 0-1.5.67157288-1.5 1.5v7.5c0 .8284271.6715729 1.5 1.5 1.5s1.5-.6715729 1.5-1.5v-7.5c0-.82842712-.6715729-1.5-1.5-1.5zm0 12c-.8284271 0-1.5.6715729-1.5 1.5s.6715729 1.5 1.5 1.5 1.5-.6715729 1.5-1.5-.6715729-1.5-1.5-1.5z" fill="currentColor" />
</svg>
