<?xml version="1.0" encoding="UTF-8" standalone="no"?>
<svg xmlns:dc="http://purl.org/dc/elements/1.1/" xmlns:cc="http://creativecommons.org/ns#" xmlns:rdf="http://www.w3.org/1999/02/22-rdf-syntax-ns#" xmlns:svg="http://www.w3.org/2000/svg" xmlns="http://www.w3.org/2000/svg" xmlns:xlink="http://www.w3.org/1999/xlink" id="svg3830" version="1.1" viewBox="0 0 50 50" height="50" width="50"><metadata id="metadata3834"><rdf:RDF><cc:Work rdf:about=""><dc:format>image/svg+xml</dc:format><dc:type rdf:resource="http://purl.org/dc/dcmitype/StillImage"/><dc:title>Elements/Logo Icon</dc:title></cc:Work></rdf:RDF></metadata><title id="title3777">Elements/Logo Icon</title><defs id="defs3788"><path id="a" d="M 0.1,6.833 1.567,4.786 C 1.571,4.796 1.475,7.733 1.475,7.733 l 0.413,-2.22 c 1.225,2.474 4.217,5.897 6.96,7.718 0.296,0.197 0.528,0.406 0.707,0.625 0.346,0.133 0.703,0.212 1.059,0.27 0.187,0.034 0.379,0.048 0.565,0.065 a 7.42,7.42 0 0 0 1.12,-0.016 6.92,6.92 0 0 0 0.554,-0.077 6.959,6.959 0 0 0 1.075,-0.273 c 0.175,-0.053 0.35,-0.119 0.52,-0.186 0.173,-0.07 0.341,-0.144 0.508,-0.224 0.167,-0.084 0.333,-0.162 0.496,-0.252 0.166,-0.082 0.325,-0.178 0.49,-0.269 0.166,-0.084 0.318,-0.192 0.482,-0.283 0.163,-0.092 0.317,-0.2 0.481,-0.293 0.159,-0.102 0.317,-0.205 0.482,-0.303 0.158,-0.105 0.322,-0.205 0.491,-0.302 l 0.152,-0.09 0.08,0.054 1.107,0.73 -1.117,-0.29 a 7.07,7.07 0 0 1 -0.331,0.367 c -0.14,0.142 -0.288,0.277 -0.436,0.409 -0.154,0.129 -0.31,0.252 -0.471,0.373 -0.164,0.114 -0.329,0.232 -0.502,0.334 a 6.948,6.948 0 0 1 -1.08,0.548 9.333,9.333 0 0 1 -1.155,0.379 c -0.195,0.05 -0.397,0.084 -0.596,0.117 -0.201,0.03 -0.403,0.051 -0.604,0.07 -0.405,0.02 -0.813,0.01 -1.211,-0.042 A 6.27,6.27 0 0 1 11.119,14.562 5.09,5.09 0 0 1 10.546,14.389 4.14,4.14 0 0 1 9.61,13.926 c -0.002,0.004 -1.06,0.148 -0.633,0.941 0.428,0.79 1.073,0.72 0.769,1.651 A 7.54,7.54 0 0 1 8.89,17.964 c -0.697,0.952 -1.8,1.782 -1.692,2.283 5.01,6.149 16.283,5.293 20.565,-0.191 -0.065,-0.794 -1.314,-1.173 -2.19,-3.11 0.241,0.075 0.607,0.185 0.607,0.171 0,-0.014 -1.045,-1.694 -1.08,-1.862 l 0.669,0.045 c 0,0 -0.895,-1.1 -0.911,-1.202 l 0.898,-0.114 c 0,0 -1.13,-1.298 -1.15,-1.401 l 1.15,0.182 -1.258,-1.513 h 0.592 l -0.707,-1.025 a 30.02,30.02 0 0 0 -0.36,-0.113 C 23.869,10.064 23.715,10.018 23.563,9.97 21.841,9.44 20.232,8.94 18.669,7.967 16.481,6.601 14.519,4.944 13.048,3.644 L 10.09,2.212 C 7.259,2.002 4.592,2.071 2.974,2.391 L 4.015,0.613 2.424,2.522 C 2.311,2.497 2.284,2.426 2.284,2.426 L 2.394,0.076 1.891,2.2 A 1.274,1.274 0 0 0 0.1,3.36 C 0.1,4 0.577,4.532 1.198,4.618 Z"/><path id="c" d="M 1.887,0.156 A 1.274,1.274 0 0 0 0.1,1.319 c 0,0.617 0.443,1.133 1.031,1.246 A 0.26,0.26 0 0 0 1.158,2.558 C 1.542,2.431 2.309,1.41 2.18,0.772 A 1.38,1.38 0 0 0 1.886,0.156 Z"/><path id="e" d="M 4.594,5.277 C 4.366,4.651 4.422,3.835 4.75,3.08 5.207,2.032 6.075,1.33 6.907,1.33 c 0.169,0 0.33,0.03 0.481,0.087 A 5.507,5.507 0 0 1 9.023,0.392 c 3.378,-1.34 8.319,1.054 9.59,4.366 0.61,1.597 0.423,3.363 -0.1,4.955 -0.433,1.316 -1.99,3.213 -1.414,4.645 C 16.863,14.302 12.037,12.793 10.686,11.952 8.534,10.607 6.59,8.96 5.136,7.676 L 5.094,7.636 0.184,5.308 C 0.126,5.278 0.069,5.253 0.011,5.224 c 0.705,0 3.387,0.311 4.583,0.053"/><path id="g" d="m 0.199,3.717 c 0.138,0.348 0.368,0.6 0.664,0.728 0.136,0.061 0.29,0.092 0.452,0.092 0.743,0 1.55,-0.669 1.966,-1.626 C 3.536,2.331 3.621,1.717 3.519,1.186 3.421,0.653 3.15,0.267 2.756,0.097 A 1.154,1.154 0 0 0 2.302,0.005 C 1.562,0.005 0.754,0.673 0.334,1.63 0.02,2.355 -0.03,3.134 0.2,3.717 Z"/><linearGradient gradientUnits="userSpaceOnUse" gradientTransform="scale(1.1538026,0.86669937)" id="i" y2="8.9759237" x2="5.3222008" y1="14.671754" x1="21.89319"><stop id="stop3783" offset="0%" stop-color="#FFF"/><stop id="stop3785" offset="100%" stop-opacity="0" stop-color="#FFF"/></linearGradient></defs><g style="fill:none;fill-rule:evenodd" id="g3828" transform="translate(-2,-1.9316544)"><path style="fill:#192e45;fill-rule:nonzero" id="path3790" d="M 6,27 C 6,38.598 15.402,48 27,48 38.598,48 48,38.598 48,27 48,15.402 38.598,6 27,6 15.402,6 6,15.402 6,27 Z M 5,27 C 5,14.85 14.85,5 27,5 39.15,5 49,14.85 49,27 49,39.15 39.15,49 27,49 14.85,49 5,39.15 5,27 Z"/><path style="fill:#192e45" id="path3792" d="M 8,27 C 8,37.493 16.507,46 27,46 37.493,46 46,37.493 46,27 46,16.507 37.493,8 27,8 16.507,8 8,16.507 8,27 Z"/><g id="g3799" transform="translate(9.851,18.375)"><mask fill="#fff" id="b"><use height="100%" width="100%" y="0" x="0" id="use3794" xlink:href="#a"/></mask><path style="fill:#d0933a;fill-rule:nonzero" id="path3797" d="M -0.54,-0.562 H 28.404 V 25.161 H -0.54 Z" mask="url(#b)"/></g><g id="g3806" transform="translate(9.851,20.417)"><mask fill="#fff" id="d"><use height="100%" width="100%" y="0" x="0" id="use3801" xlink:href="#c"/></mask><path style="fill:#ffcc86;fill-rule:nonzero" id="path3804" d="M -0.54,-0.59 H 2.835 V 3.204 H -0.54 Z" mask="url(#d)"/></g><g id="g3813" transform="translate(18.295,13.654)"><mask fill="#fff" id="f"><use height="100%" width="100%" y="0" x="0" id="use3808" xlink:href="#e"/></mask><path style="fill:#fdd321;fill-rule:nonzero" id="path3811" d="m -0.628,-0.625 h 20.263 v 15.62 H -0.628 Z" mask="url(#f)"/></g><g id="g3824" transform="translate(23.029,15.185)"><mask fill="#fff" id="h"><use height="100%" width="100%" y="0" x="0" id="use3815" xlink:href="#g"/></mask><g style="fill-rule:nonzero" id="g3822" mask="url(#h)"><path style="fill:#ffffff" id="path3818" d="M 1.315,4.346 A 0.898,0.898 0 0 1 0.942,4.271 C 0.69,4.162 0.496,3.947 0.377,3.647 0.166,3.111 0.216,2.387 0.511,1.707 0.9,0.817 1.637,0.197 2.302,0.197 c 0.132,0 0.26,0.025 0.379,0.076 0.332,0.144 0.563,0.48 0.65,0.948 0.094,0.495 0.013,1.068 -0.226,1.613 -0.386,0.89 -1.122,1.512 -1.79,1.512 z"/><path style="fill:#1d2a3a" id="path3820" d="m 2.302,0.388 c 0.106,0 0.208,0.02 0.302,0.06 0.272,0.119 0.463,0.405 0.538,0.81 0.087,0.456 0.011,0.989 -0.214,1.5 -0.35,0.81 -1.029,1.396 -1.613,1.396 A 0.718,0.718 0 0 1 1.021,4.096 L 1.018,4.095 1.015,4.093 C 0.815,4.007 0.655,3.828 0.556,3.576 0.363,3.087 0.412,2.417 0.686,1.784 1.041,0.975 1.72,0.388 2.302,0.388 Z m 0,-0.383 C 1.562,0.005 0.754,0.673 0.334,1.63 0.02,2.355 -0.03,3.134 0.2,3.717 0.338,4.065 0.568,4.317 0.864,4.445 1,4.506 1.154,4.537 1.316,4.537 2.058,4.537 2.866,3.868 3.282,2.911 3.537,2.331 3.621,1.717 3.52,1.186 3.422,0.653 3.15,0.267 2.757,0.097 A 1.152,1.152 0 0 0 2.303,0.005 Z"/></g></g><path style="opacity:0.3;fill:url(#i);fill-rule:nonzero" id="path3826" d="m 26.62,15.114 c 0,0 1.094,1.924 -0.024,3.583 -1.12,1.659 -2.52,1.66 -2.52,1.66 L 0.25,12.672 c 0,0 -0.952,-4.115 0.85,-7.526 C 2.899,1.733 6.837,0 6.837,0 Z"/></g></svg>
