<svg width="24" height="24" viewBox="0 0 24 24" fill="none" xmlns="http://www.w3.org/2000/svg">
<mask id="mask0_9294_11418" style="mask-type:alpha" maskUnits="userSpaceOnUse" x="0" y="0" width="24" height="24">
<path d="M24 0H0V24H24V0Z" fill="#D9D9D9"/>
</mask>
<g mask="url(#mask0_9294_11418)">
<path d="M22 12C22 17.5098 17.5196 22 12 22C6.49019 22 2 17.5098 2 12C2 6.48039 6.49019 2 12 2C17.5196 2 22 6.48039 22 12ZM10.4019 10.1863C9.99018 10.1863 9.66666 10.5098 9.66666 10.902C9.66666 11.3235 9.99018 11.6274 10.4019 11.6274H11.4804V16.2353H10.2353C9.81371 16.2353 9.49019 16.5589 9.49019 16.951C9.49019 17.3725 9.81371 17.6764 10.2353 17.6764H14.3431C14.7646 17.6764 15.0882 17.3725 15.0882 16.951C15.0882 16.5589 14.7646 16.2353 14.3431 16.2353H13.098V11.1078C13.098 10.5588 12.8235 10.1863 12.3039 10.1863H10.4019ZM10.5882 7.18627C10.5882 7.93136 11.1765 8.5196 11.9118 8.5196C12.6471 8.5196 13.2254 7.93136 13.2254 7.18627C13.2254 6.44117 12.6471 5.85294 11.9118 5.85294C11.1765 5.85294 10.5882 6.44117 10.5882 7.18627Z" fill="white"/>
</g>
</svg>
