<svg xmlns="http://www.w3.org/2000/svg" width="24" height="24" viewBox="0 0 24 24" fill="none">
  <mask id="mask0_519_2674" style="mask-type:alpha" maskUnits="userSpaceOnUse" x="0" y="0" width="24" height="24">
    <rect width="24" height="24" fill="#D9D9D9"/>
  </mask>
  <g mask="url(#mask0_519_2674)">
    <path d="M14.0574 22H9.94487C9.82552 22.0017 9.7095 21.9606 9.6178 21.8842C9.52609 21.8078 9.46476 21.7011 9.44487 21.5834L9.05404 18.9326C8.43311 18.683 7.84779 18.3526 7.31321 17.95L4.75321 18.9501C4.69568 18.9705 4.63508 18.9809 4.57404 18.9809C4.48399 18.9826 4.3951 18.9603 4.31647 18.9164C4.23784 18.8725 4.1723 18.8085 4.12654 18.7309L2.07071 15.27C2.0102 15.1665 1.98944 15.0444 2.01228 14.9267C2.03513 14.8089 2.10003 14.7035 2.19487 14.63L4.36154 12.98C4.31687 12.6552 4.29321 12.3279 4.29071 12C4.29343 11.6725 4.31737 11.3454 4.36237 11.0209L2.19571 9.37088C2.0985 9.29903 2.0318 9.19332 2.00881 9.07465C1.98582 8.95598 2.0082 8.833 2.07154 8.73005L4.12654 5.27005C4.17041 5.19235 4.23426 5.12781 4.31149 5.08312C4.38871 5.03842 4.47649 5.01521 4.56571 5.01588C4.62982 5.01602 4.69336 5.02788 4.75321 5.05088L7.31321 6.05088C7.84873 5.65203 8.43252 5.32247 9.05071 5.07005L9.44154 2.41672C9.46142 2.29901 9.52276 2.19231 9.61446 2.11589C9.70617 2.03947 9.82218 1.99838 9.94154 2.00005H14.0574C14.1767 1.99838 14.2927 2.03947 14.3845 2.11589C14.4762 2.19231 14.5375 2.29901 14.5574 2.41672L14.9482 5.06672C15.5691 5.31679 16.1544 5.6474 16.689 6.05005L19.249 5.05005C19.3066 5.02962 19.3672 5.0192 19.4282 5.01922C19.5183 5.01751 19.6071 5.03975 19.6858 5.08368C19.7644 5.12761 19.83 5.19164 19.8757 5.26922L21.9324 8.73005C21.9919 8.83402 22.0121 8.95591 21.9893 9.07352C21.9665 9.19114 21.9022 9.29666 21.8082 9.37088L19.6415 11.0209C19.6857 11.3454 19.7091 11.6725 19.7115 12C19.7086 12.3279 19.6847 12.6552 19.6399 12.98L21.8065 14.63C21.9014 14.7035 21.9663 14.8089 21.9891 14.9267C22.012 15.0444 21.9912 15.1665 21.9307 15.27L19.874 18.7309C19.8301 18.8087 19.7661 18.8733 19.6887 18.918C19.6114 18.9627 19.5234 18.9859 19.434 18.9851C19.3699 18.985 19.3064 18.9731 19.2465 18.9501L16.6865 17.95C16.1512 18.3487 15.5673 18.6777 14.949 18.9292L14.5607 21.5834C14.5407 21.7017 14.4789 21.8088 14.3865 21.8853C14.2941 21.9618 14.1773 22.0025 14.0574 22ZM11.999 7.83338C11.175 7.83338 10.3694 8.07775 9.68416 8.53559C8.99896 8.99343 8.46491 9.64418 8.14954 10.4055C7.83418 11.1669 7.75166 12.0047 7.91244 12.8129C8.07321 13.6212 8.47004 14.3636 9.05276 14.9463C9.63548 15.529 10.3779 15.9259 11.1862 16.0867C11.9944 16.2474 12.8322 16.1649 13.5936 15.8495C14.3549 15.5342 15.0057 15.0001 15.4635 14.3149C15.9213 13.6297 16.1657 12.8241 16.1657 12C16.1646 10.8953 15.7253 9.83615 14.9441 9.05499C14.1629 8.27383 13.1038 7.83449 11.999 7.83338Z" fill="white"/>
  </g>
</svg>