<svg xmlns="http://www.w3.org/2000/svg" width="24" height="24" viewBox="0 0 24 24" fill="none">
  <mask id="mask0_519_2675" style="mask-type:alpha" maskUnits="userSpaceOnUse" x="0" y="0" width="24" height="24">
    <rect width="24" height="24" fill="#D9D9D9"/>
  </mask>
  <g mask="url(#mask0_519_2675)">
    <path d="M15.789 2H5.684C5.23778 2.00142 4.81021 2.19342 4.49469 2.53405C4.17916 2.87468 4.00132 3.33626 4 3.81799V16.546C4.00121 16.6587 4.02423 16.7699 4.06757 16.8724C4.11091 16.9749 4.17362 17.0665 4.25168 17.1413C4.32973 17.2161 4.42141 17.2725 4.52083 17.3068C4.62025 17.3411 4.72522 17.3526 4.829 17.3406C5.03911 17.3536 5.24569 17.278 5.40519 17.1298C5.56469 16.9816 5.66465 16.7723 5.684 16.546V3.81799H15.789C16.0033 3.80121 16.205 3.7022 16.3576 3.53885C16.5102 3.37549 16.6037 3.15859 16.621 2.92735C16.6095 2.69036 16.5189 2.46588 16.3659 2.29542C16.213 2.12495 16.008 2.02001 15.789 2ZM18.315 5.63597H9.053C8.60643 5.63711 8.17846 5.82913 7.86269 6.17002C7.54692 6.51092 7.36906 6.97294 7.368 7.45504V20.182C7.36932 20.6637 7.54716 21.1253 7.86269 21.466C8.17822 21.8066 8.60578 21.9986 9.052 22H18.315C18.7614 21.9989 19.1892 21.807 19.505 21.4663C19.8207 21.1257 19.9987 20.6639 20 20.182V7.45504C19.9989 6.97313 19.8212 6.51127 19.5057 6.1704C19.1901 5.82954 18.7614 5.6374 18.315 5.63597ZM18.315 20.182H9.053V7.45504H18.316L18.315 20.182Z" fill="white"/>
  </g>
</svg>