<svg width="18" height="18" viewBox="0 0 18 18" fill="none" xmlns="http://www.w3.org/2000/svg">
<mask id="mask0_12635_10030" style="mask-type:alpha" maskUnits="userSpaceOnUse" x="0" y="0" width="18" height="18">
<rect width="18" height="18" fill="#D9D9D9"/>
</mask>
<g mask="url(#mask0_12635_10030)">
<path d="M9 12.75C9.2125 12.75 9.39063 12.6781 9.53438 12.5344C9.67813 12.3906 9.75 12.2125 9.75 12C9.75 11.7875 9.67813 11.6094 9.53438 11.4656C9.39063 11.3219 9.2125 11.25 9 11.25C8.7875 11.25 8.60938 11.3219 8.46563 11.4656C8.32188 11.6094 8.25 11.7875 8.25 12C8.25 12.2125 8.32188 12.3906 8.46563 12.5344C8.60938 12.6781 8.7875 12.75 9 12.75ZM9 9.75C9.2125 9.75 9.39063 9.67813 9.53438 9.53438C9.67813 9.39063 9.75 9.2125 9.75 9V6C9.75 5.7875 9.67813 5.60938 9.53438 5.46562C9.39063 5.32187 9.2125 5.25 9 5.25C8.7875 5.25 8.60938 5.32187 8.46563 5.46562C8.32188 5.60938 8.25 5.7875 8.25 6V9C8.25 9.2125 8.32188 9.39063 8.46563 9.53438C8.60938 9.67813 8.7875 9.75 9 9.75ZM9 16.5C7.9625 16.5 6.9875 16.3031 6.075 15.9094C5.1625 15.5156 4.36875 14.9813 3.69375 14.3063C3.01875 13.6313 2.48438 12.8375 2.09063 11.925C1.69687 11.0125 1.5 10.0375 1.5 9C1.5 7.9625 1.69687 6.9875 2.09063 6.075C2.48438 5.1625 3.01875 4.36875 3.69375 3.69375C4.36875 3.01875 5.1625 2.48438 6.075 2.09063C6.9875 1.69687 7.9625 1.5 9 1.5C10.0375 1.5 11.0125 1.69687 11.925 2.09063C12.8375 2.48438 13.6313 3.01875 14.3063 3.69375C14.9813 4.36875 15.5156 5.1625 15.9094 6.075C16.3031 6.9875 16.5 7.9625 16.5 9C16.5 10.0375 16.3031 11.0125 15.9094 11.925C15.5156 12.8375 14.9813 13.6313 14.3063 14.3063C13.6313 14.9813 12.8375 15.5156 11.925 15.9094C11.0125 16.3031 10.0375 16.5 9 16.5ZM9 15C10.675 15 12.0938 14.4187 13.2563 13.2563C14.4187 12.0938 15 10.675 15 9C15 7.325 14.4187 5.90625 13.2563 4.74375C12.0938 3.58125 10.675 3 9 3C7.325 3 5.90625 3.58125 4.74375 4.74375C3.58125 5.90625 3 7.325 3 9C3 10.675 3.58125 12.0938 4.74375 13.2563C5.90625 14.4187 7.325 15 9 15Z" fill="#EB5D40"/>
</g>
</svg>
