<svg width="24" height="24" viewBox="0 0 24 24" fill="none" xmlns="http://www.w3.org/2000/svg">
<mask id="mask0_9294_11785" style="mask-type:alpha" maskUnits="userSpaceOnUse" x="0" y="0" width="24" height="24">
<rect width="24" height="24" fill="#D9D9D9"/>
</mask>
<g mask="url(#mask0_9294_11785)">
<path d="M11.7106 1.99399C11.8773 1.99399 12.0398 1.99816 12.1981 2.00649C12.3564 2.01483 12.5273 2.03566 12.7106 2.06899V4.09399C12.5439 4.06066 12.3773 4.03566 12.2106 4.01899C12.0439 4.00233 11.8773 3.99399 11.7106 3.99399C10.0273 3.99399 8.60644 4.57316 7.4481 5.73149C6.28977 6.88983 5.7106 8.37733 5.7106 10.194C5.7106 11.3773 6.20227 12.7315 7.1856 14.2565C8.16894 15.7815 9.67727 17.4773 11.7106 19.344C13.7439 17.4773 15.2523 15.7815 16.2356 14.2565C17.2189 12.7315 17.7106 11.3773 17.7106 10.194C17.7106 10.1607 17.7064 10.1273 17.6981 10.094C17.6898 10.0607 17.6856 10.0273 17.6856 9.99399H19.6856C19.6856 10.0273 19.6898 10.0607 19.6981 10.094C19.7064 10.1273 19.7106 10.1607 19.7106 10.194C19.7106 11.7607 19.1439 13.4357 18.0106 15.219C16.8773 17.0023 15.2189 18.869 13.0356 20.819C12.8523 20.9857 12.6439 21.1107 12.4106 21.194C12.1773 21.2773 11.9439 21.319 11.7106 21.319C11.4773 21.319 11.2439 21.2773 11.0106 21.194C10.7773 21.1107 10.5689 20.9857 10.3856 20.819C9.30227 19.819 8.34394 18.844 7.5106 17.894C6.67727 16.944 5.98144 16.0232 5.4231 15.1315C4.86477 14.2398 4.43977 13.3815 4.1481 12.5565C3.85644 11.7315 3.7106 10.944 3.7106 10.194C3.7106 7.69399 4.51477 5.70233 6.1231 4.21899C7.73144 2.73566 9.59394 1.99399 11.7106 1.99399ZM18.6856 5.94399L20.0856 7.34399C20.2689 7.52733 20.5023 7.61899 20.7856 7.61899C21.0689 7.61899 21.3023 7.52733 21.4856 7.34399C21.6689 7.16066 21.7606 6.92733 21.7606 6.64399C21.7606 6.36066 21.6689 6.12733 21.4856 5.94399L20.0856 4.54399L21.4856 3.14399C21.6689 2.96066 21.7606 2.72733 21.7606 2.44399C21.7606 2.16066 21.6689 1.92733 21.4856 1.74399C21.3023 1.56066 21.0689 1.46899 20.7856 1.46899C20.5023 1.46899 20.2689 1.56066 20.0856 1.74399L18.6856 3.14399L17.2856 1.74399C17.1023 1.56066 16.8689 1.46899 16.5856 1.46899C16.3023 1.46899 16.0689 1.56066 15.8856 1.74399C15.7023 1.92733 15.6106 2.16066 15.6106 2.44399C15.6106 2.72733 15.7023 2.96066 15.8856 3.14399L17.2856 4.54399L15.8856 5.94399C15.7023 6.12733 15.6106 6.36066 15.6106 6.64399C15.6106 6.92733 15.7023 7.16066 15.8856 7.34399C16.0689 7.52733 16.3023 7.61899 16.5856 7.61899C16.8689 7.61899 17.1023 7.52733 17.2856 7.34399L18.6856 5.94399ZM11.7106 11.994C12.2606 11.994 12.7314 11.7982 13.1231 11.4065C13.5148 11.0148 13.7106 10.544 13.7106 9.99399C13.7106 9.44399 13.5148 8.97316 13.1231 8.58149C12.7314 8.18983 12.2606 7.99399 11.7106 7.99399C11.1606 7.99399 10.6898 8.18983 10.2981 8.58149C9.90644 8.97316 9.7106 9.44399 9.7106 9.99399C9.7106 10.544 9.90644 11.0148 10.2981 11.4065C10.6898 11.7982 11.1606 11.994 11.7106 11.994Z" fill="white"/>
</g>
</svg>
