<svg width="24" height="24" viewBox="0 0 24 24" fill="none" xmlns="http://www.w3.org/2000/svg">
<path d="M9.56787 18.5452C9.38525 18.5452 9.23861 18.4926 9.12793 18.3875C9.01725 18.2768 8.95915 18.1329 8.95361 17.9558L8.70459 9.3894C8.69906 9.21232 8.75163 9.07121 8.8623 8.96606C8.97298 8.85539 9.11963 8.80005 9.30225 8.80005C9.48486 8.80005 9.63151 8.85539 9.74219 8.96606C9.8584 9.07121 9.91927 9.20955 9.9248 9.3811L10.1738 17.9475C10.1738 18.1246 10.1185 18.2685 10.0078 18.3792C9.89714 18.4898 9.75049 18.5452 9.56787 18.5452ZM12 18.5452C11.8174 18.5452 11.668 18.4926 11.5518 18.3875C11.4411 18.2768 11.3857 18.1329 11.3857 17.9558V9.3894C11.3857 9.21232 11.4411 9.07121 11.5518 8.96606C11.668 8.85539 11.8174 8.80005 12 8.80005C12.1882 8.80005 12.3376 8.85539 12.4482 8.96606C12.5645 9.07121 12.6226 9.21232 12.6226 9.3894V17.9558C12.6226 18.1329 12.5645 18.2768 12.4482 18.3875C12.3376 18.4926 12.1882 18.5452 12 18.5452ZM14.4404 18.5452C14.2523 18.5452 14.1029 18.4898 13.9922 18.3792C13.8815 18.2685 13.8289 18.1246 13.8345 17.9475L14.0835 9.3894C14.089 9.21232 14.1471 9.07121 14.2578 8.96606C14.3685 8.85539 14.5151 8.80005 14.6978 8.80005C14.8859 8.80005 15.0326 8.85539 15.1377 8.96606C15.2484 9.07121 15.3009 9.21232 15.2954 9.3894L15.0547 17.9558C15.0492 18.1329 14.9883 18.2768 14.8721 18.3875C14.7614 18.4926 14.6175 18.5452 14.4404 18.5452ZM8.13184 6.37622V4.61646C8.13184 3.96346 8.33105 3.45435 8.72949 3.08911C9.13346 2.72388 9.69515 2.54126 10.4146 2.54126H13.5771C14.2965 2.54126 14.8555 2.72388 15.2539 3.08911C15.6579 3.45435 15.8599 3.96346 15.8599 4.61646V6.37622H14.1665V4.69116C14.1665 4.49748 14.1001 4.34253 13.9673 4.22632C13.84 4.10457 13.6685 4.0437 13.4526 4.0437H10.5391C10.3232 4.0437 10.1489 4.10457 10.0161 4.22632C9.88883 4.34253 9.8252 4.49748 9.8252 4.69116V6.37622H8.13184ZM4.5293 7.46362C4.30241 7.46362 4.10872 7.38615 3.94824 7.2312C3.78776 7.07625 3.70752 6.88257 3.70752 6.65015C3.70752 6.42326 3.78776 6.23234 3.94824 6.07739C4.10872 5.92244 4.30241 5.84497 4.5293 5.84497H19.479C19.7059 5.84497 19.8968 5.92244 20.0518 6.07739C20.2122 6.22681 20.2925 6.41772 20.2925 6.65015C20.2925 6.88257 20.215 7.07625 20.0601 7.2312C19.9051 7.38615 19.7114 7.46362 19.479 7.46362H4.5293ZM8.18164 21.4587C7.51204 21.4587 6.97803 21.2734 6.57959 20.9026C6.18115 20.5318 5.9681 20.0116 5.94043 19.342L5.37598 7.29761H7.04443L7.60059 19.01C7.61165 19.2535 7.68636 19.45 7.82471 19.5994C7.96859 19.7488 8.15397 19.8235 8.38086 19.8235H15.6108C15.8433 19.8235 16.0286 19.7488 16.167 19.5994C16.3109 19.4555 16.3883 19.259 16.3994 19.01L16.939 7.29761H18.6323L18.0679 19.3337C18.0402 20.0089 17.8244 20.5318 17.4204 20.9026C17.022 21.2734 16.4907 21.4587 15.8267 21.4587H8.18164Z" fill="white"/>
</svg>
