<svg xmlns="http://www.w3.org/2000/svg" width="24" height="24" viewBox="0 0 24 24" fill="none">
  <mask id="mask0_122_2130" style="mask-type:alpha" maskUnits="userSpaceOnUse" x="0" y="0" width="24" height="24">
    <path d="M24 0H0V24H24V0Z" fill="#D9D9D9"/>
  </mask>
  <g mask="url(#mask0_122_2130)">
    <path fill-rule="evenodd" clip-rule="evenodd" d="M12 22C17.5228 22 22 17.5228 22 12C22 6.47715 17.5228 2 12 2C6.47715 2 2 6.47715 2 12C2 17.5228 6.47715 22 12 22ZM12.7929 7.29289C13.1834 6.90237 13.8166 6.90237 14.2071 7.29289C14.5976 7.68342 14.5976 8.31658 14.2071 8.70711L10.9142 12L14.2071 15.2929C14.5976 15.6834 14.5976 16.3166 14.2071 16.7071C13.8166 17.0976 13.1834 17.0976 12.7929 16.7071L8.79289 12.7071C8.40237 12.3166 8.40237 11.6834 8.79289 11.2929L12.7929 7.29289Z" fill="white"/>
  </g>
</svg>