<svg width="24" height="24" viewBox="0 0 24 24" fill="none" xmlns="http://www.w3.org/2000/svg">
<mask id="mask0_8337_9233" style="mask-type:alpha" maskUnits="userSpaceOnUse" x="0" y="0" width="24" height="24">
<rect width="24" height="24" fill="#D9D9D9"/>
</mask>
<g mask="url(#mask0_8337_9233)">
<path d="M19.0754 21.9002L2.07539 4.9252C1.87539 4.7252 1.77539 4.4877 1.77539 4.2127C1.77539 3.9377 1.87539 3.7002 2.07539 3.5002C2.27539 3.3002 2.51289 3.2002 2.78789 3.2002C3.06289 3.2002 3.30039 3.3002 3.50039 3.5002L20.5004 20.5002C20.7004 20.7002 20.8004 20.9335 20.8004 21.2002C20.8004 21.4669 20.7004 21.7002 20.5004 21.9002C20.3004 22.1002 20.0629 22.2002 19.7879 22.2002C19.5129 22.2002 19.2754 22.1002 19.0754 21.9002ZM16.2504 13.0002C15.9671 13.0002 15.7254 12.9044 15.5254 12.7127C15.3254 12.521 15.2254 12.2835 15.2254 12.0002C15.2254 11.7335 15.3212 11.5002 15.5129 11.3002C15.7046 11.1002 15.9504 11.0002 16.2504 11.0002H17.0004C17.2837 11.0002 17.5212 11.096 17.7129 11.2877C17.9046 11.4794 18.0004 11.7169 18.0004 12.0002C18.0004 12.2835 17.9046 12.521 17.7129 12.7127C17.5212 12.9044 17.2837 13.0002 17.0004 13.0002H16.2504ZM11.2504 8.0002C10.9671 8.0002 10.7254 7.90436 10.5254 7.7127C10.3254 7.52103 10.2254 7.28353 10.2254 7.0002C10.2254 6.73353 10.3212 6.5002 10.5129 6.3002C10.7046 6.1002 10.9504 6.0002 11.2504 6.0002H20.0004C20.2837 6.0002 20.5212 6.09603 20.7129 6.2877C20.9046 6.47936 21.0004 6.71686 21.0004 7.0002C21.0004 7.28353 20.9046 7.52103 20.7129 7.7127C20.5212 7.90436 20.2837 8.0002 20.0004 8.0002H11.2504ZM11.0004 18.0002C10.7171 18.0002 10.4796 17.9044 10.2879 17.7127C10.0962 17.521 10.0004 17.2835 10.0004 17.0002C10.0004 16.7169 10.0962 16.4794 10.2879 16.2877C10.4796 16.096 10.7171 16.0002 11.0004 16.0002H13.0004C13.2837 16.0002 13.5212 16.096 13.7129 16.2877C13.9046 16.4794 14.0004 16.7169 14.0004 17.0002C14.0004 17.2835 13.9046 17.521 13.7129 17.7127C13.5212 17.9044 13.2837 18.0002 13.0004 18.0002H11.0004ZM7.00039 13.0002C6.71706 13.0002 6.47956 12.9044 6.28789 12.7127C6.09622 12.521 6.00039 12.2835 6.00039 12.0002C6.00039 11.7169 6.09622 11.4794 6.28789 11.2877C6.47956 11.096 6.71706 11.0002 7.00039 11.0002H10.1504V13.0002H7.00039ZM4.00039 8.0002C3.71706 8.0002 3.47956 7.90436 3.28789 7.7127C3.09622 7.52103 3.00039 7.28353 3.00039 7.0002C3.00039 6.71686 3.09622 6.47936 3.28789 6.2877C3.47956 6.09603 3.71706 6.0002 4.00039 6.0002H5.15039V8.0002H4.00039Z" fill="white"/>
</g>
</svg>
