<svg width="24" height="24" viewBox="0 0 24 24" fill="none" xmlns="http://www.w3.org/2000/svg">
<mask id="mask0_10868_6021" style="mask-type:alpha" maskUnits="userSpaceOnUse" x="0" y="0" width="24" height="24">
<rect width="24" height="24" fill="white"/>
</mask>
<g mask="url(#mask0_10868_6021)">
<path d="M16.3848 15.4268C16.4718 15.4268 16.5538 15.438 16.6309 15.46L17.2197 16.0488C17.2437 16.1298 17.2559 16.2157 17.2559 16.3066C17.2559 16.5445 17.1704 16.7494 16.999 16.9209C16.8331 17.0923 16.628 17.1786 16.3848 17.1787H7.63574C7.39779 17.1787 7.19531 17.0924 7.0293 16.9209C6.86328 16.7438 6.78027 16.5391 6.78027 16.3066C6.78027 16.0632 6.86101 15.8561 7.02148 15.6846C7.1875 15.513 7.39225 15.4268 7.63574 15.4268H16.3848Z" fill="white"/>
<path d="M14.0498 12.8789H5.9668C5.72884 12.8789 5.52409 12.7926 5.35254 12.6211C5.18652 12.4495 5.10352 12.2448 5.10352 12.0068C5.10352 11.7689 5.18652 11.5641 5.35254 11.3926C5.52409 11.2155 5.72884 11.127 5.9668 11.127H12.2979L14.0498 12.8789Z" fill="white"/>
<path d="M18.0615 11.127C18.2993 11.1271 18.5011 11.2133 18.667 11.3848C18.8328 11.5563 18.916 11.7635 18.916 12.0068C18.916 12.2448 18.833 12.4495 18.667 12.6211C18.5011 12.7925 18.2993 12.8788 18.0615 12.8789H17.5391L15.7871 11.127H18.0615Z" fill="white"/>
<path d="M9.75781 8.58691H4.26562L4.17969 8.58301C3.98296 8.56431 3.8093 8.48011 3.65918 8.33008C3.49316 8.15299 3.41016 7.94499 3.41016 7.70703C3.41016 7.46908 3.49316 7.26432 3.65918 7.09277C3.8252 6.91569 4.02767 6.82715 4.26562 6.82715H7.99805L9.75781 8.58691Z" fill="white"/>
<path d="M19.7217 6.82715C19.9705 6.82726 20.1756 6.91352 20.3359 7.08496C20.5016 7.25641 20.585 7.46378 20.585 7.70703C20.585 7.95052 20.502 8.15853 20.3359 8.33008C20.17 8.50151 19.965 8.5868 19.7217 8.58691H13.2471L11.4873 6.82715H19.7217Z" fill="white"/>
<path d="M4.24847 5.48552C4.08413 5.32117 4.00195 5.11769 4.00195 4.87508C4.00978 4.63248 4.09782 4.42704 4.26608 4.25878C4.43434 4.09052 4.63782 4.00443 4.87651 4.00052C5.11912 3.9927 5.32456 4.07291 5.49282 4.24117L19.4219 18.1703C19.598 18.3463 19.6821 18.5518 19.6743 18.7866C19.6704 19.0252 19.5823 19.2307 19.4102 19.4029C19.238 19.575 19.0325 19.6631 18.7939 19.667C18.5552 19.6709 18.3497 19.5868 18.1776 19.4146L4.24847 5.48552Z" fill="white"/>
<path d="M4.00195 4.87508C4.00195 5.11769 4.08413 5.32117 4.24847 5.48552L18.1776 19.4146C18.3497 19.5868 18.5552 19.6709 18.7939 19.667C19.0325 19.6631 19.238 19.575 19.4102 19.4029C19.5823 19.2307 19.6704 19.0252 19.6743 18.7866C19.6821 18.5518 19.598 18.3463 19.4219 18.1703L5.49282 4.24117C5.32456 4.07291 5.11912 3.9927 4.87651 4.00052C4.63782 4.00443 4.43434 4.09052 4.26608 4.25878C4.09782 4.42704 4.00978 4.63248 4.00195 4.87508Z" fill="white"/>
</g>
</svg>
