<svg width="24" height="24" viewBox="0 0 24 24" fill="none" xmlns="http://www.w3.org/2000/svg">
<mask id="mask0_8162_36044" style="mask-type:alpha" maskUnits="userSpaceOnUse" x="0" y="0" width="24" height="24">
<path d="M24 0H0V24H24V0Z" fill="#D9D9D9"/>
</mask>
<g mask="url(#mask0_8162_36044)">
<path fill-rule="evenodd" clip-rule="evenodd" d="M5 12C5 11.4477 5.44772 11 6 11H11V6C11 5.44772 11.4477 5 12 5C12.5523 5 13 5.44772 13 6V11H18C18.5523 11 19 11.4477 19 12C19 12.5523 18.5523 13 18 13H13V18C13 18.5523 12.5523 19 12 19C11.4477 19 11 18.5523 11 18V13H6C5.44772 13 5 12.5523 5 12Z" fill="white"/>
</g>
</svg>
