<svg xmlns="http://www.w3.org/2000/svg" width="24" height="24" viewBox="0 0 24 24" fill="none">
  <mask id="mask0_519_2676" style="mask-type:alpha" maskUnits="userSpaceOnUse" x="0" y="0" width="24" height="24">
    <rect width="24" height="24" fill="#D9D9D9"/>
  </mask>
  <g mask="url(#mask0_519_2676)">
    <path d="M12 7.2334C13.6716 7.2281 15.3108 7.67263 16.7292 8.51588C18.1476 9.35913 19.2876 10.5669 20.0182 12.0003C19.2832 13.4303 18.1421 14.6351 16.7247 15.4778C15.3073 16.3204 13.6704 16.7671 12 16.7671C10.3296 16.7671 8.69269 16.3204 7.27529 15.4778C5.85789 14.6351 4.71684 13.4303 3.98182 12.0003C4.71238 10.5669 5.85239 9.35913 7.2708 8.51588C8.68921 7.67263 10.3284 7.2281 12 7.2334ZM12 5.5C9.84134 5.50123 7.73305 6.1219 5.94951 7.28125C4.16597 8.4406 2.78976 10.0849 2 12.0003C2.78879 13.9162 4.16477 15.5611 5.94855 16.7205C7.73232 17.8799 9.84112 18.5 12 18.5C14.1589 18.5 16.2677 17.8799 18.0515 16.7205C19.8352 15.5611 21.2112 13.9162 22 12.0003C21.2102 10.0849 19.834 8.4406 18.0505 7.28125C16.2669 6.1219 14.1587 5.50123 12 5.5ZM12 9.8335C12.4495 9.8335 12.8889 9.96058 13.2627 10.1987C13.6364 10.4367 13.9277 10.7751 14.0997 11.1711C14.2717 11.567 14.3168 12.0027 14.2291 12.423C14.1414 12.8433 13.9249 13.2294 13.6071 13.5324C13.2892 13.8354 12.8843 14.0418 12.4434 14.1254C12.0025 14.209 11.5456 14.1661 11.1303 14.0021C10.715 13.8381 10.36 13.5604 10.1103 13.204C9.86057 12.8477 9.72727 12.4288 9.72727 12.0003C9.72727 11.4256 9.96672 10.8745 10.3929 10.4681C10.8192 10.0618 11.3972 9.8335 12 9.8335ZM12 8.1001C11.1909 8.1001 10.4 8.32884 9.72721 8.75739C9.05447 9.18595 8.53012 9.79507 8.22049 10.5077C7.91086 11.2204 7.82985 12.0046 7.9877 12.7611C8.14555 13.5177 8.53517 14.2126 9.10729 14.7581C9.67942 15.3035 10.4083 15.675 11.2019 15.8255C11.9955 15.976 12.818 15.8987 13.5655 15.6035C14.313 15.3083 14.952 14.8084 15.4015 14.1671C15.851 13.5257 16.0909 12.7716 16.0909 12.0003C16.0892 10.9664 15.6577 9.97527 14.8909 9.2442C14.124 8.51313 13.0845 8.10171 12 8.1001Z" fill="white"/>
  </g>
</svg>