<?xml version="1.0" encoding="UTF-8"?>
<svg width="24px" height="24px" viewBox="0 0 24 24" version="1.1" xmlns="http://www.w3.org/2000/svg" xmlns:xlink="http://www.w3.org/1999/xlink">
    <title>icon-nearest</title>
    <desc>Mullvad VPN app</desc>
    <defs></defs>
        <path fill="#FFFFFF" d="M44.9450712,27 L47,27 C47.5522847,27 48,27.4477153 48,28 C48,28.5522847 47.5522847,29 47,29 L44.9450712,29 C44.4839224,33.1716166 41.1716166,36.4839224 37,36.9450712 L37,39 C37,39.5522847 36.5522847,40 36,40 C35.4477153,40 35,39.5522847 35,39 L35,36.9450712 C30.8283834,36.4839224 27.5160776,33.1716166 27.0549288,29 L25,29 C24.4477153,29 24,28.5522847 24,28 C24,27.4477153 24.4477153,27 25,27 L27.0549288,27 C27.5160776,22.8283834 30.8283834,19.5160776 35,19.0549288 L35,17 C35,16.4477153 35.4477153,16 36,16 C36.5522847,16 37,16.4477153 37,17 L37,19.0549288 C41.1716166,19.5160776 44.4839224,22.8283834 44.9450712,27 Z M42.9291111,27 C42.4905984,23.9343088 40.0656912,21.5094016 37,21.0708889 L37,23 C37,23.5522847 36.5522847,24 36,24 C35.4477153,24 35,23.5522847 35,23 L35,21.0708889 C31.9343088,21.5094016 29.5094016,23.9343088 29.0708889,27 L31,27 C31.5522847,27 32,27.4477153 32,28 C32,28.5522847 31.5522847,29 31,29 L29.0708889,29 C29.5094016,32.0656912 31.9343088,34.4905984 35,34.9291111 L35,33 C35,32.4477153 35.4477153,32 36,32 C36.5522847,32 37,32.4477153 37,33 L37,34.9291111 C40.0656912,34.4905984 42.4905984,32.0656912 42.9291111,29 L41,29 C40.4477153,29 40,28.5522847 40,28 C40,27.4477153 40.4477153,27 41,27 L42.9291111,27 Z"></path>
</svg>