<?xml version="1.0" encoding="UTF-8"?>
<svg width="24px" height="18px" viewBox="0 0 24 18" version="1.1" xmlns="http://www.w3.org/2000/svg" xmlns:xlink="http://www.w3.org/1999/xlink">
    <title>icon-email</title>
    <desc>Mullvad VPN app</desc>
    <defs></defs>
        <path d="M22.8081217,1.14484464 L22.9938849,0.959340903 L22.9932138,1.33948986 C23.6195494,2.04395659 24,2.97212502 24,3.99005301 L24,14.009947 C24,16.2135924 22.2157067,18 20.009947,18 L3.99005301,18 C1.78640758,18 0,16.2157067 0,14.009947 L0,3.99005301 C0,1.78640758 1.78429328,0 3.99005301,0 L20.009947,0 C21.1000072,0 22.0879732,0.436600073 22.8081217,1.14484464 Z M2.38685682,2.80995288 L9.47216952,9.88536826 C10.7387839,11.1502133 12.7891324,11.1498385 14.0553715,9.88536826 L21.3928053,2.55818394 C21.0348963,2.21248348 20.5474834,2 20.009947,2 L3.99005301,2 C3.33184409,2 2.74897789,2.31852151 2.38685682,2.80995288 Z M22,5.01521983 L15.5892053,11.4170595 C13.4759789,13.5273339 10.0521888,13.5279598 7.93833574,11.4170595 L2,5.48701884 L2,14.009947 C2,15.1102431 2.89008272,16 3.99005301,16 L20.009947,16 C21.1102431,16 22,15.1099173 22,14.009947 L22,5.01521983 Z" id="icon-email" fill="#FFFFFF" fill-rule="nonzero"></path>
</svg>