<?xml version="1.0" encoding="UTF-8"?>
<svg width="24px" height="16px" viewBox="0 0 24 16" version="1.1" xmlns="http://www.w3.org/2000/svg" xmlns:xlink="http://www.w3.org/1999/xlink">
    <title>icon-arrow</title>
    <desc>Mullvad VPN app</desc>
    <defs></defs>
        <path fill="#FFFFFF" d="M18.7015867,9 L14.4331381,12.762659 C13.851665,13.2752305 13.8579999,14.1003943 14.4392669,14.612784 C15.0245863,15.1287461 15.9602099,15.1275926 16.5380921,14.6181865 L23.5668627,8.42228969 C23.8565791,8.16690324 24.000373,7.83391619 23.999837,7.50067932 L24,7.4966702 C23.999589,7.16348359 23.8547954,6.83138119 23.5668627,6.57756713 L16.5380921,0.381670278 C15.956619,-0.130901228 15.0205338,-0.125317014 14.4392669,0.387072772 C13.8539474,0.903034846 13.8552559,1.72779176 14.4331381,2.23719784 L18.7017491,6 L1.50909424,6 C0.66354084,6 0,6.67157288 0,7.5 C0,8.33420277 0.675644504,9 1.50909424,9 L18.7015867,9 Z" id="icon-arrow"></path>
</svg>