<svg width="16px" height="12px" viewBox="0 0 16 12" version="1.1" xmlns="http://www.w3.org/2000/svg" xmlns:xlink="http://www.w3.org/1999/xlink">
    <title>path</title>
    <desc>Mullvad VPN app</desc>
    <defs></defs>
    <path d="M3.80277564,2 L8,4.79814957 L8,4.79814957 L12.1972244,2 L3.80277564,2 Z M14,3.20185043 L8.57398104,6.8191964 C8.40423955,6.93806521 8.20219416,7.00036557 7.98908928,7.00003642 C7.7891813,6.9976758 7.59213144,6.93552384 7.42601896,6.8191964 L2,3.20185043 L2,10 L14,10 L14,3.20185043 Z M0,1.00247329 C0,0.448822582 0.444630861,0 1.00087166,0 L14.9991283,0 C15.5518945,0 16,0.455760956 16,1.00247329 L16,10.9975267 C16,11.5511774 15.5553691,12 14.9991283,12 L1.00087166,12 C0.448105505,12 0,11.544239 0,10.9975267 L0,1.00247329 Z" id="path" fill="#FFFFFF" fill-rule="evenodd"></path>
</svg>