<svg width="49" height="50" viewBox="0 0 49 50" xmlns="http://www.w3.org/2000/svg" xmlns:xlink="http://www.w3.org/1999/xlink"><title>Elements/Logo Icon</title><defs><path d="M.1 6.833l1.467-2.047c.004.01-.092 2.947-.092 2.947l.413-2.22c1.225 2.474 4.217 5.897 6.96 7.718.296.197.528.406.707.625.346.133.703.212 1.059.27.187.034.379.048.565.065a7.42 7.42 0 0 0 1.12-.016 6.92 6.92 0 0 0 .554-.077 6.959 6.959 0 0 0 1.075-.273c.175-.053.35-.119.52-.186.173-.07.341-.144.508-.224.167-.084.333-.162.496-.252.166-.082.325-.178.49-.269.166-.084.318-.192.482-.283.163-.092.317-.2.481-.293.159-.102.317-.205.482-.303.158-.105.322-.205.491-.302l.152-.09.08.054 1.107.73-1.117-.29a7.07 7.07 0 0 1-.331.367c-.14.142-.288.277-.436.409-.154.129-.31.252-.471.373-.164.114-.329.232-.502.334a6.948 6.948 0 0 1-1.08.548 9.333 9.333 0 0 1-1.155.379c-.195.05-.397.084-.596.117-.201.03-.403.051-.604.07-.405.02-.813.01-1.211-.042a6.27 6.27 0 0 1-.595-.11 5.09 5.09 0 0 1-.573-.173 4.14 4.14 0 0 1-.936-.463c-.002.004-1.06.148-.633.941.428.79 1.073.72.769 1.651a7.54 7.54 0 0 1-.856 1.446c-.697.952-1.8 1.782-1.692 2.283 5.01 6.149 16.283 5.293 20.565-.191-.065-.794-1.314-1.173-2.19-3.11.241.075.607.185.607.171 0-.014-1.045-1.694-1.08-1.862l.669.045s-.895-1.1-.911-1.202l.898-.114s-1.13-1.298-1.15-1.401l1.15.182-1.258-1.513h.592l-.707-1.025a30.02 30.02 0 0 0-.36-.113c-.154-.05-.308-.096-.46-.144-1.722-.53-3.331-1.03-4.894-2.003-2.188-1.366-4.15-3.023-5.621-4.323L10.09 2.212c-2.831-.21-5.498-.141-7.116.179L4.015.613 2.424 2.522c-.113-.025-.14-.096-.14-.096l.11-2.35L1.891 2.2A1.274 1.274 0 0 0 .1 3.36c0 .64.477 1.172 1.098 1.258L.1 6.833z" id="a"/><path d="M1.887.156A1.274 1.274 0 0 0 .1 1.319c0 .617.443 1.133 1.031 1.246a.26.26 0 0 0 .027-.007C1.542 2.431 2.309 1.41 2.18.772a1.38 1.38 0 0 0-.294-.616z" id="c"/><path d="M4.594 5.277c-.228-.626-.172-1.442.156-2.197.457-1.048 1.325-1.75 2.157-1.75.169 0 .33.03.481.087A5.507 5.507 0 0 1 9.023.392c3.378-1.34 8.319 1.054 9.59 4.366.61 1.597.423 3.363-.1 4.955-.433 1.316-1.99 3.213-1.414 4.645-.236-.056-5.062-1.565-6.413-2.406-2.152-1.345-4.096-2.992-5.55-4.276l-.042-.04-4.91-2.328c-.058-.03-.115-.055-.173-.084.705 0 3.387.311 4.583.053" id="e"/><path d="M.199 3.717c.138.348.368.6.664.728.136.061.29.092.452.092.743 0 1.55-.669 1.966-1.626.255-.58.34-1.194.238-1.725C3.421.653 3.15.267 2.756.097a1.154 1.154 0 0 0-.454-.092C1.562.005.754.673.334 1.63.02 2.355-.03 3.134.2 3.717z" id="g"/><linearGradient x1="93.215%" y1="62.465%" x2="22.664%" y2="38.215%" id="i"><stop stop-color="#FFF" offset="0%"/><stop stop-color="#FFF" stop-opacity="0" offset="100%"/></linearGradient></defs><g transform="translate(0 .5)" fill="none" fill-rule="evenodd"><path d="M6 27c0 11.598 9.402 21 21 21s21-9.402 21-21S38.598 6 27 6 6 15.402 6 27zm-1 0C5 14.85 14.85 5 27 5s22 9.85 22 22-9.85 22-22 22S5 39.15 5 27z" fill="#192E45" fill-rule="nonzero"/><path d="M8 27c0 10.493 8.507 19 19 19s19-8.507 19-19S37.493 8 27 8 8 16.507 8 27z" fill="#192E45"/><g transform="translate(9.851 18.375)"><mask id="b" fill="#fff"><use xlink:href="#a"/></mask><path fill="#D0933A" fill-rule="nonzero" mask="url(#b)" d="M-0.54 -0.562H28.404V25.160999999999998H-0.54z"/></g><g transform="translate(9.851 20.417)"><mask id="d" fill="#fff"><use xlink:href="#c"/></mask><path fill="#FFCC86" fill-rule="nonzero" mask="url(#d)" d="M-0.54 -0.59H2.835V3.204H-0.54z"/></g><g transform="translate(18.295 13.654)"><mask id="f" fill="#fff"><use xlink:href="#e"/></mask><path fill="#FDD321" fill-rule="nonzero" mask="url(#f)" d="M-0.628 -0.625H19.635V14.995H-0.628z"/></g><g transform="translate(23.029 15.185)"><mask id="h" fill="#fff"><use xlink:href="#g"/></mask><g mask="url(#h)" fill-rule="nonzero"><path d="M1.315 4.346a.898.898 0 0 1-.373-.075C.69 4.162.496 3.947.377 3.647c-.211-.536-.161-1.26.134-1.94C.9.817 1.637.197 2.302.197c.132 0 .26.025.379.076.332.144.563.48.65.948.094.495.013 1.068-.226 1.613-.386.89-1.122 1.512-1.79 1.512z" fill="#FFF"/><path d="M2.302.388c.106 0 .208.02.302.06.272.119.463.405.538.81.087.456.011.989-.214 1.5-.35.81-1.029 1.396-1.613 1.396a.718.718 0 0 1-.294-.058l-.003-.001-.003-.002c-.2-.086-.36-.265-.459-.517-.193-.489-.144-1.159.13-1.792C1.041.975 1.72.388 2.302.388zm0-.383C1.562.005.754.673.334 1.63.02 2.355-.03 3.134.2 3.717c.138.348.368.6.664.728.136.061.29.092.452.092.742 0 1.55-.669 1.966-1.626.255-.58.339-1.194.238-1.725-.098-.533-.37-.919-.763-1.089a1.152 1.152 0 0 0-.454-.092z" fill="#1D2A3A"/></g></g><path d="M26.62 15.114s1.094 1.924-.024 3.583c-1.12 1.659-2.52 1.66-2.52 1.66L.25 12.672s-.952-4.115.85-7.526C2.899 1.733 6.837 0 6.837 0L26.62 15.114z" fill="url(#i)" fill-rule="nonzero" opacity=".3"/></g></svg>