<?xml version="1.0" encoding="UTF-8"?>
<svg width="49px" height="50px" viewBox="0 0 49 50" version="1.1" xmlns="http://www.w3.org/2000/svg" xmlns:xlink="http://www.w3.org/1999/xlink">
    <title>logo-icon</title>
    <desc>Mullvad Logo</desc>
    <defs>
        <path d="M44.7802287,22.369367 C44.7802287,34.6923268 34.7558875,44.6820661 22.3902442,44.6820661 C10.0239517,44.6823248 -9.23705556e-14,34.6924562 -9.23705556e-14,22.3696258 C-9.23705556e-14,10.0462779 10.0243411,0.0566679936 22.3899845,0.0566679936 C34.7560174,0.0566679936 44.7802287,10.0462779 44.7802287,22.369367 Z" id="path-1"></path>
        <path d="M3.43963962,0.959603901 C3.29981582,0.606140525 3.06612701,0.350228901 2.76583689,0.221496815 C2.62796049,0.159006768 2.47151882,0.127826433 2.30663838,0.127826433 C1.5536411,0.127826433 0.733523208,0.805772293 0.312234215,1.77689092 C0.053488772,2.36530653 -0.0321971249,2.98684315 0.0701066429,3.52557723 C0.170073523,4.06599323 0.445566664,4.45684713 0.844265739,4.62943869 C0.990321245,4.69179936 1.14676292,4.72323846 1.30541166,4.72323846 C2.0563317,4.72323846 2.87631977,4.0452926 3.30215271,3.07443272 C3.62113793,2.34020701 3.67345826,1.55034833 3.43976945,0.959603901 L3.43963962,0.959603901 Z" id="path-3"></path>
        <path d="M3.43963962,0.959603901 C3.29981582,0.606140525 3.06612701,0.350228901 2.76583689,0.221496815 C2.62796049,0.159006768 2.47151882,0.127826433 2.30663838,0.127826433 C1.5536411,0.127826433 0.733523208,0.805772293 0.312234215,1.77689092 C0.053488772,2.36530653 -0.0321971249,2.98684315 0.07023647,3.52557723 C0.17020335,4.06599323 0.445696491,4.45684713 0.844395566,4.62943869 C0.990451072,4.69179936 1.14689275,4.72323846 1.30554148,4.72323846 C2.05646153,4.72323846 2.87644959,4.0452926 3.30228254,3.07443272 C3.62126776,2.34020701 3.67358809,1.55034833 3.43989928,0.959603901 L3.43963962,0.959603901 Z" id="path-5"></path>
    </defs>
    <g id="Symbols" stroke="none" stroke-width="1" fill="none" fill-rule="evenodd">
        <g id="logo-icon">
            <g id="Mole" transform="translate(26.500000, 27.416401) scale(-1, 1) translate(-26.500000, -27.416401) translate(4.000000, 4.916401)">
                <g id="outer-circle">
                    <mask id="mask-2" fill="white">
                        <use xlink:href="#path-1"></use>
                    </mask>
                    <g id="a"></g>
                    <g id="a-link" opacity="0.4" mask="url(#mask-2)" stroke="#000000" stroke-width="8.98479137">
                        <path d="M44.7802287,22.369367 C44.7802287,34.6923268 34.7558875,44.6820661 22.3902442,44.6820661 C10.0239517,44.6823248 0,34.6924562 0,22.3696258 C0,10.0462779 10.0243411,0.0566679936 22.3899845,0.0566679936 C34.7560174,0.0566679936 44.7802287,10.0462779 44.7802287,22.369367 Z" id="a"></path>
                    </g>
                </g>
                <path d="M42.0098478,22.369367 C42.0098478,33.1675955 33.2257451,41.9213774 22.3901143,41.9213774 C11.5547432,41.9213774 2.77064049,33.1675955 2.77064049,22.369367 C2.77051067,11.5711385 11.5546134,2.81735669 22.3899845,2.81735669 C33.2257451,2.81735669 42.0098478,11.5711385 42.0098478,22.369367 L42.0098478,22.369367 Z" id="inner-circle" fill="#000000" opacity="0.4"></path>
                <g id="body" transform="translate(11.424786, 13.714172)">
                    <g id="e-link" transform="translate(-0.000000, 0.000000)" fill="#D2943B">
                        <path d="M28.0781,6.92138734 L26.5883338,4.84614849 C26.5841793,4.85649881 26.6821988,7.83402667 26.6821988,7.83402667 L26.2632467,5.58438495 C25.0195029,8.09213774 21.9836256,11.5622114 19.2003919,13.4088376 C18.899972,13.6080812 18.6644656,13.8202627 18.4827076,14.0427946 C18.1321744,14.1777369 17.7691778,14.2570462 17.4082584,14.317078 C17.2183213,14.3503284 17.0239701,14.3649482 16.8344225,14.3817675 C16.6446153,14.3940585 16.4527308,14.4005275 16.2627937,14.396258 C16.0732462,14.3919885 15.8849968,14.3835788 15.6972668,14.365207 C15.5074596,14.3483877 15.3218068,14.3194068 15.1364137,14.2879678 C14.9503714,14.2547174 14.7667959,14.2193969 14.5852976,14.1717854 C14.4039291,14.1236564 14.2221711,14.0738455 14.0448273,14.0113555 C13.8673536,13.9575338 13.6900098,13.891033 13.5170801,13.8222034 C13.3415538,13.7515625 13.1707013,13.6769108 13.0016664,13.5955314 C12.8325017,13.5104001 12.6634668,13.4312201 12.4987162,13.340008 C12.3295514,13.2568173 12.1689553,13.1591361 12.0022573,13.0674064 C11.8332224,12.9822751 11.6789877,12.8723029 11.5115108,12.7807026 C11.3470198,12.6870322 11.1905781,12.5770601 11.0236205,12.4835191 C10.8630243,12.3796278 10.702558,12.2756071 10.5354705,12.1758559 C10.3747445,12.0697651 10.207657,11.9675557 10.0369344,11.870004 L9.88244011,11.778533 L9.80103851,11.8324841 L8.67842343,12.5725318 L9.8115545,12.2794885 C9.91827239,12.4062799 10.0309623,12.5308718 10.1478067,12.651453 C10.2893183,12.7950637 10.4399177,12.9322054 10.5899979,13.0654658 C10.7464396,13.1961385 10.9049585,13.321248 11.0680213,13.4438993 C11.2344597,13.5600816 11.401677,13.6788515 11.5769436,13.7828722 C11.9231926,13.9989351 12.2904735,14.1839471 12.672295,14.337908 C12.8621023,14.4148885 13.0561938,14.4854001 13.2500257,14.5498308 C13.4463243,14.6145203 13.6424931,14.6748109 13.8446339,14.7224224 C14.0430097,14.772492 14.2477471,14.8078125 14.4498879,14.8411923 C14.6543656,14.8722432 14.8588433,14.8929439 15.063321,14.9115744 C15.4743537,14.9326632 15.8874636,14.9219248 16.2922645,14.8701732 C16.4967422,14.8430036 16.6969356,14.8036724 16.8951816,14.7576135 C17.0912206,14.7101314 17.2875192,14.6538515 17.4773264,14.5829518 C17.8109821,14.4648288 18.1345113,14.3108678 18.4266223,14.1133061 C18.4286995,14.1171875 19.5032786,14.2628682 19.0692665,15.0676055 C18.6352545,15.8684614 17.980017,15.7973029 18.2890056,16.7413814 C18.5058168,17.2444068 18.8145457,17.7414809 19.1568998,18.2072452 C19.8644576,19.1720243 20.984606,20.0141521 20.8742529,20.5215764 C15.7903529,26.7566083 4.35024702,25.8892516 0.00519308466,20.3280255 C0.0716645683,19.523547 1.33851757,19.1390326 2.22705436,17.1760947 C1.98297938,17.2508758 1.61167382,17.3634355 1.61167382,17.3486863 C1.61167382,17.3344546 2.6715824,15.6311803 2.70702521,15.4606588 L2.02880835,15.506459 C2.02880835,15.506459 2.93629989,14.3918591 2.95317742,14.287709 L2.04153141,14.1716561 C2.04153141,14.1716561 3.18920312,12.8554837 3.20789822,12.751463 L2.04153141,12.9364749 L3.31825127,11.4020402 L2.71728155,11.4020402 L3.43496585,10.3624801 C3.55804195,10.3228901 3.67904083,10.2852408 3.80016953,10.2481091 C3.95674103,10.1982982 4.11305288,10.1504279 4.2678068,10.1026871 C6.01398152,9.5640824 7.64772595,9.05885748 9.23343435,8.07117834 C11.453478,6.68643511 13.4437277,5.00644904 14.9375185,3.68820661 L17.9380829,2.2368332 C20.8111569,2.02258161 23.5172734,2.09322253 25.1590671,2.41757564 L24.1035726,0.614938296 L25.7183623,2.55044785 C25.8331295,2.52586584 25.8602633,2.45302548 25.8602633,2.45302548 L25.7495208,0.0703821656 L26.2584431,2.22428344 C26.4194287,2.15377189 26.5965129,2.11237062 26.7822955,2.11237062 C27.4981622,2.11237062 28.0779701,2.69017715 28.0779701,3.40124403 C28.0779701,4.050209 27.593715,4.58868432 26.9637938,4.67601513 L28.0781,6.9216461 L28.0781,6.92138734 Z" id="e"></path>
                    </g>
                    <g id="f-link" transform="translate(25.835596, 2.070064)" fill="#FFCD86">
                        <path d="M0.428818966,0.151632166 C0.588116838,0.0824144108 0.763253618,0.0420481688 0.946829161,0.0420481688 C1.66269588,0.0420481688 2.24250378,0.619854697 2.24250378,1.33092158 C2.24250378,1.95685709 1.79226334,2.47980693 1.19505861,2.59469546 C1.18558123,2.59275478 1.17688281,2.59029658 1.16844405,2.58757962 C0.778962699,2.45820064 5.44189693e-13,1.42316879 0.129827116,0.776273885 C0.17604557,0.545720541 0.277830029,0.331727707 0.428818966,0.151632166 L0.428818966,0.151632166 Z" id="f"></path>
                    </g>
                </g>
                <path d="M26.3730804,14.2710191 C26.6045622,13.6368033 26.5479576,12.8092954 26.2144317,12.0440187 C25.7509489,10.9815585 24.8704614,10.268551 24.0255465,10.268551 C23.8544344,10.268551 23.6918908,10.2996019 23.5373966,10.3578225 C23.0492466,9.92129777 22.4961831,9.56369427 21.8785955,9.31813296 C18.4509,7.96068869 13.4372364,10.3871915 12.1476636,13.7452229 C11.5277392,15.3646596 11.7176762,17.1551354 12.2476305,18.7690088 C12.6880041,20.1035529 14.267351,22.0267715 13.6831289,23.4781449 C13.9233091,23.4217357 18.8199985,21.8916998 20.1909728,21.0393511 C22.375314,19.6751791 24.3472581,18.005414 25.8223538,16.7038615 L25.8662354,16.6624602 L30.8299155,14.2628682 L30.8486106,14.3023288 C30.9070328,14.2729598 30.965455,14.2463077 31.0238772,14.2169387 C30.3085298,14.2169387 27.5876131,14.5328822 26.3734699,14.2712779" id="helmet" fill="#FFD524"></path>
                <g id="torch" transform="translate(24.630735, 12.650363) scale(1, -1) translate(-24.630735, -12.650363) translate(22.589918, 10.099343)">
                    <g id="Clipped">
                        <mask id="mask-4" fill="white">
                            <use xlink:href="#path-3"></use>
                        </mask>
                        <g id="b"></g>
                        <g id="b-link" mask="url(#mask-4)" stroke-opacity="0.4" stroke="#000000" stroke-width="3.59391655">
                            <path d="M3.43963962,0.959603901 C3.29981582,0.606140525 3.06612701,0.350228901 2.76583689,0.221496815 C2.62796049,0.159006768 2.47151882,0.127826433 2.30663838,0.127826433 C1.5536411,0.127826433 0.733523208,0.805772293 0.312234215,1.77689092 C0.053488772,2.36530653 -0.0321971249,2.98684315 0.0701066429,3.52557723 C0.170073523,4.06599323 0.445566664,4.45684713 0.844265739,4.62943869 C0.990321245,4.69179936 1.14676292,4.72323846 1.30541166,4.72323846 C2.0563317,4.72323846 2.87631977,4.0452926 3.30215271,3.07443272 C3.62113793,2.34020701 3.67345826,1.55034833 3.43976945,0.959603901 L3.43963962,0.959603901 Z" id="b"></path>
                        </g>
                    </g>
                    <path d="M3.43963962,0.959603901 C3.29981582,0.606140525 3.06612701,0.350228901 2.76583689,0.221496815 C2.62796049,0.159006768 2.47151882,0.127826433 2.30663838,0.127826433 C1.5536411,0.127826433 0.733523208,0.805772293 0.312234215,1.77689092 C0.053488772,2.36530653 -0.0321971249,2.98684315 0.0701066429,3.52557723 C0.170073523,4.06599323 0.445566664,4.45684713 0.844265739,4.62943869 C0.990321245,4.69179936 1.14676292,4.72323846 1.30541166,4.72323846 C2.0563317,4.72323846 2.87631977,4.0452926 3.30215271,3.07443272 C3.62113793,2.34020701 3.67345826,1.55034833 3.43976945,0.959603901 L3.43963962,0.959603901 Z" id="Shape" fill-opacity="0.75" fill="#000000"></path>
                </g>
            </g>
            <g id="light" transform="translate(13.794136, 10.714286) scale(-1, 1) translate(-13.794136, -10.714286) translate(0.018626, 0.000000)">
                <g id="mullvad-light">
                    <g id="Clipped" transform="translate(1.159565, 15.266720)">
                        <mask id="mask-6" fill="white">
                            <use xlink:href="#path-5"></use>
                        </mask>
                        <g id="c"></g>
                        <g id="c-link" mask="url(#mask-6)" stroke="#000000" stroke-opacity="0.71" stroke-width="3.59391655" fill="#FFFFFF">
                            <g transform="translate(2.040816, 2.300044) scale(1, -1) translate(-2.040816, -2.300044) translate(0.000000, -0.250976)" id="c">
                                <path d="M3.43963962,0.959603901 C3.29981582,0.606140525 3.06612701,0.350228901 2.76583689,0.221496815 C2.62796049,0.159006768 2.47151882,0.127826433 2.30663838,0.127826433 C1.5536411,0.127826433 0.733523208,0.805772293 0.312234215,1.77689092 C0.053488772,2.36530653 -0.0321971249,2.98684315 0.07023647,3.52557723 C0.17020335,4.06599323 0.445696491,4.45684713 0.844395566,4.62943869 C0.990451072,4.69179936 1.14689275,4.72323846 1.30554148,4.72323846 C2.05646153,4.72323846 2.87644959,4.0452926 3.30228254,3.07443272 C3.62126776,2.34020701 3.67358809,1.55034833 3.43989928,0.959603901 L3.43963962,0.959603901 Z"></path>
                            </g>
                        </g>
                    </g>
                    <path d="M0.48603943,15.3239053 C0.48603943,15.3239053 -0.623982416,17.2745521 0.510966236,18.9564789 C1.64825178,20.6384057 3.06907974,20.6406051 3.06907974,20.6406051 L27.2447064,12.8475916 C27.2447064,12.8475916 28.2106202,8.67447253 26.3830438,5.21681927 C24.5576746,1.75657842 20.5619854,0 20.5619854,0 L0.485909603,15.3239053 L0.48603943,15.3239053 Z" id="Shape" fill="#FFFFFF" opacity="0.3"></path>
                </g>
            </g>
        </g>
    </g>
</svg>