<svg width="18" height="18" viewBox="0 0 18 18" fill="none" xmlns="http://www.w3.org/2000/svg">
<path d="M9.00059 14.967C10.5789 13.5181 11.7496 12.2019 12.5129 11.0185C13.2761 9.83506 13.6578 8.78383 13.6578 7.86481C13.6578 6.45472 13.2084 5.30026 12.3095 4.40142C11.4107 3.50259 10.3077 3.05291 9.00059 3.05239C7.69347 3.05188 6.59076 3.50155 5.69244 4.40142C4.79412 5.30129 4.34444 6.45576 4.34341 7.86481C4.34341 8.78331 4.72504 9.83454 5.4883 11.0185C6.25156 12.2025 7.42232 13.5186 9.00059 14.967ZM9.00059 16.5C8.81948 16.5 8.63836 16.4677 8.45725 16.403C8.27614 16.3383 8.11443 16.2413 7.97213 16.1119C7.13125 15.3357 6.38739 14.5789 5.74056 13.8415C5.09373 13.1041 4.55376 12.3895 4.12064 11.6977C3.68752 11.0058 3.35764 10.3396 3.13099 9.69896C2.90434 9.05834 2.79102 8.44696 2.79102 7.86481C2.79102 5.92432 3.41534 4.3784 4.66398 3.22704C5.91262 2.07568 7.35816 1.5 9.00059 1.5C10.643 1.5 12.0888 2.07568 13.338 3.22704C14.5871 4.3784 15.2112 5.92432 15.2102 7.86481C15.2102 8.44696 15.0971 9.05834 14.871 9.69896C14.6448 10.3396 14.3149 11.0058 13.8813 11.6977C13.4477 12.3895 12.9074 13.1041 12.2606 13.8415C11.6138 14.5789 10.8699 15.3357 10.029 16.1119C9.88675 16.2413 9.72504 16.3383 9.54393 16.403C9.36281 16.4677 9.1817 16.5 9.00059 16.5ZM9.00059 9.26197C9.4275 9.26197 9.79309 9.11009 10.0974 8.80634C10.4016 8.50259 10.5535 8.137 10.553 7.70957C10.5525 7.28215 10.4006 6.91682 10.0974 6.61358C9.79412 6.31035 9.42853 6.15821 9.00059 6.15718C8.57265 6.15614 8.20732 6.30828 7.9046 6.61358C7.60188 6.91889 7.44975 7.28422 7.4482 7.70957C7.44664 8.13493 7.59878 8.50052 7.9046 8.80634C8.21042 9.11216 8.57575 9.26404 9.00059 9.26197Z" fill="white"/>
</svg>
