<svg width="288" height="91" viewBox="0 0 288 91" fill="none" xmlns="http://www.w3.org/2000/svg">
<g clip-path="url(#clip0_8016_4576)">
<path d="M0 12C0 5.37258 5.37258 0 12 0H276C282.627 0 288 5.37258 288 12V79C288 85.6274 282.627 91 276 91H12C5.37259 91 0 85.6274 0 79V12Z" fill="#192638"/>
<path d="M29.3711 16.166L28.6582 14.1836H25.9287L25.2305 16.166H24L26.6709 8.99805H27.9404L30.6113 16.166H29.3711ZM28.3506 13.1777L27.6816 11.2344C27.6328 11.1042 27.5645 10.8991 27.4766 10.6191C27.3919 10.3392 27.3333 10.1341 27.3008 10.0039C27.2129 10.4043 27.0843 10.8421 26.915 11.3174L26.2705 13.1777H28.3506ZM32.5791 16.166H31.4316V8.56836H32.5791V16.166ZM35.3721 16.166H34.2246V8.56836H35.3721V16.166ZM40.7627 16.166H39.6152V8.56836H40.7627V16.166ZM47.1982 13.4561C47.1982 14.3382 46.972 15.0267 46.5195 15.5215C46.0671 16.0163 45.4372 16.2637 44.6299 16.2637C44.1253 16.2637 43.6794 16.1497 43.292 15.9219C42.9046 15.694 42.6068 15.3669 42.3984 14.9404C42.1901 14.514 42.0859 14.0192 42.0859 13.4561C42.0859 12.5804 42.3105 11.8968 42.7598 11.4053C43.209 10.9137 43.8421 10.668 44.6592 10.668C45.4404 10.668 46.0589 10.9202 46.5146 11.4248C46.9704 11.9261 47.1982 12.6032 47.1982 13.4561ZM43.2676 13.4561C43.2676 14.7028 43.7282 15.3262 44.6494 15.3262C45.5609 15.3262 46.0166 14.7028 46.0166 13.4561C46.0166 12.2223 45.5576 11.6055 44.6396 11.6055C44.1579 11.6055 43.8079 11.765 43.5898 12.084C43.375 12.403 43.2676 12.8604 43.2676 13.4561ZM50.6992 16.2637C49.8822 16.2637 49.2604 16.026 48.834 15.5508C48.4108 15.0723 48.1992 14.387 48.1992 13.4951C48.1992 12.5869 48.4206 11.8887 48.8633 11.4004C49.3092 10.9121 49.9521 10.668 50.792 10.668C51.3617 10.668 51.8743 10.7738 52.3301 10.9854L51.9834 11.9082C51.4984 11.7194 51.098 11.625 50.7822 11.625C49.848 11.625 49.3809 12.2451 49.3809 13.4854C49.3809 14.0908 49.4964 14.5465 49.7275 14.8525C49.9619 15.1553 50.3037 15.3066 50.7529 15.3066C51.264 15.3066 51.7474 15.1797 52.2031 14.9258V15.9268C51.998 16.0472 51.7783 16.1335 51.5439 16.1855C51.3128 16.2376 51.0312 16.2637 50.6992 16.2637ZM56.8516 16.166L56.6221 15.4141H56.583C56.3226 15.7428 56.0605 15.9674 55.7969 16.0879C55.5332 16.2051 55.1947 16.2637 54.7812 16.2637C54.2507 16.2637 53.8356 16.1204 53.5361 15.834C53.2399 15.5475 53.0918 15.1423 53.0918 14.6182C53.0918 14.0615 53.2985 13.6416 53.7119 13.3584C54.1253 13.0752 54.7552 12.9206 55.6016 12.8945L56.5342 12.8652V12.5771C56.5342 12.2321 56.4528 11.9749 56.29 11.8057C56.1305 11.6331 55.8815 11.5469 55.543 11.5469C55.2663 11.5469 55.001 11.5876 54.7471 11.6689C54.4932 11.7503 54.249 11.8464 54.0146 11.957L53.6436 11.1367C53.9365 10.9837 54.2572 10.8682 54.6055 10.79C54.9538 10.7087 55.2826 10.668 55.5918 10.668C56.2786 10.668 56.7962 10.8177 57.1445 11.1172C57.4961 11.4167 57.6719 11.887 57.6719 12.5283V16.166H56.8516ZM55.1426 15.3848C55.5592 15.3848 55.8929 15.2692 56.1436 15.0381C56.3975 14.8037 56.5244 14.4766 56.5244 14.0566V13.5879L55.8311 13.6172C55.2907 13.6367 54.8968 13.7279 54.6494 13.8906C54.4053 14.0501 54.2832 14.2959 54.2832 14.6279C54.2832 14.8688 54.3548 15.056 54.498 15.1895C54.6413 15.3197 54.8561 15.3848 55.1426 15.3848ZM61.2852 15.3359C61.5651 15.3359 61.8451 15.292 62.125 15.2041V16.0684C61.998 16.1237 61.8337 16.1693 61.6318 16.2051C61.4333 16.2441 61.2266 16.2637 61.0117 16.2637C59.9245 16.2637 59.3809 15.6908 59.3809 14.5449V11.6348H58.6436V11.127L59.4346 10.707L59.8252 9.56445H60.5332V10.7656H62.0713V11.6348H60.5332V14.5254C60.5332 14.8021 60.6016 15.0072 60.7383 15.1406C60.8783 15.2708 61.0605 15.3359 61.2852 15.3359ZM64.3564 16.166H63.209V10.7656H64.3564V16.166ZM63.1406 9.33496C63.1406 9.12988 63.196 8.97201 63.3066 8.86133C63.4206 8.75065 63.5817 8.69531 63.79 8.69531C63.9919 8.69531 64.1481 8.75065 64.2588 8.86133C64.3727 8.97201 64.4297 9.12988 64.4297 9.33496C64.4297 9.53027 64.3727 9.6849 64.2588 9.79883C64.1481 9.90951 63.9919 9.96484 63.79 9.96484C63.5817 9.96484 63.4206 9.90951 63.3066 9.79883C63.196 9.6849 63.1406 9.53027 63.1406 9.33496ZM70.792 13.4561C70.792 14.3382 70.5658 15.0267 70.1133 15.5215C69.6608 16.0163 69.0309 16.2637 68.2236 16.2637C67.7191 16.2637 67.2731 16.1497 66.8857 15.9219C66.4984 15.694 66.2005 15.3669 65.9922 14.9404C65.7839 14.514 65.6797 14.0192 65.6797 13.4561C65.6797 12.5804 65.9043 11.8968 66.3535 11.4053C66.8027 10.9137 67.4359 10.668 68.2529 10.668C69.0342 10.668 69.6527 10.9202 70.1084 11.4248C70.5641 11.9261 70.792 12.6032 70.792 13.4561ZM66.8613 13.4561C66.8613 14.7028 67.3219 15.3262 68.2432 15.3262C69.1546 15.3262 69.6104 14.7028 69.6104 13.4561C69.6104 12.2223 69.1514 11.6055 68.2334 11.6055C67.7516 11.6055 67.4017 11.765 67.1836 12.084C66.9688 12.403 66.8613 12.8604 66.8613 13.4561ZM76.8662 16.166H75.7139V12.8457C75.7139 12.429 75.6292 12.1182 75.46 11.9131C75.2939 11.708 75.0286 11.6055 74.6641 11.6055C74.179 11.6055 73.8242 11.7487 73.5996 12.0352C73.375 12.3216 73.2627 12.8018 73.2627 13.4756V16.166H72.1152V10.7656H73.0137L73.1748 11.4736H73.2334C73.3962 11.2165 73.6273 11.0179 73.9268 10.8779C74.2262 10.738 74.5583 10.668 74.9229 10.668C76.2184 10.668 76.8662 11.3271 76.8662 12.6455V16.166ZM82.0908 14.6279C82.0908 15.1553 81.8988 15.5605 81.5146 15.8438C81.1305 16.1237 80.5804 16.2637 79.8643 16.2637C79.1449 16.2637 78.5671 16.1546 78.1309 15.9365V14.9453C78.7656 15.2383 79.3564 15.3848 79.9033 15.3848C80.6097 15.3848 80.9629 15.1715 80.9629 14.7451C80.9629 14.6084 80.9238 14.4945 80.8457 14.4033C80.7676 14.3122 80.639 14.2178 80.46 14.1201C80.2809 14.0225 80.0319 13.9118 79.7129 13.7881C79.0911 13.5472 78.6696 13.3063 78.4482 13.0654C78.2301 12.8245 78.1211 12.512 78.1211 12.1279C78.1211 11.6657 78.3066 11.3076 78.6777 11.0537C79.0521 10.7965 79.5599 10.668 80.2012 10.668C80.8359 10.668 81.4365 10.7965 82.0029 11.0537L81.6318 11.918C81.0492 11.6771 80.5592 11.5566 80.1621 11.5566C79.5566 11.5566 79.2539 11.7292 79.2539 12.0742C79.2539 12.2435 79.332 12.3867 79.4883 12.5039C79.6478 12.6211 79.9928 12.7822 80.5234 12.9873C80.9694 13.1598 81.2933 13.3177 81.4951 13.4609C81.6969 13.6042 81.8467 13.7702 81.9443 13.959C82.042 14.1445 82.0908 14.3675 82.0908 14.6279Z" fill="white"/>
<path d="M264.001 12.249L264.001 13.0823L89.668 13.0824L89.668 12.249L264.001 12.249Z" fill="white" fill-opacity="0.2"/>
<g clip-path="url(#clip1_8016_4576)">
<g clip-path="url(#clip2_8016_4576)">
<g clip-path="url(#clip3_8016_4576)">
<rect width="198.333" height="40" transform="translate(24 25.999)" fill="#294D73"/>
<path d="M66.9303 43.999L66.0986 41.6862H62.9142L62.0996 43.999H60.6641L63.7801 35.6364H65.2612L68.3773 43.999H66.9303ZM65.7397 40.5127L64.9593 38.2454C64.9023 38.0935 64.8226 37.8543 64.7201 37.5277C64.6213 37.2011 64.553 36.9618 64.515 36.8099C64.4124 37.277 64.2624 37.7878 64.0649 38.3423L63.313 40.5127H65.7397ZM73.7777 43.999L73.5897 43.173H73.5213C73.3352 43.4654 73.0694 43.6952 72.7238 43.8623C72.382 44.0294 71.9908 44.113 71.5503 44.113C70.7869 44.113 70.2173 43.9231 69.8413 43.5433C69.4653 43.1635 69.2773 42.5882 69.2773 41.8172V37.6986H70.6274V41.5837C70.6274 42.066 70.7262 42.4287 70.9237 42.6717C71.1211 42.911 71.4307 43.0306 71.8522 43.0306C72.4143 43.0306 72.8263 42.8635 73.0884 42.5293C73.3542 42.1913 73.4871 41.6273 73.4871 40.8374V37.6986H74.8315V43.999H73.7777ZM79.0869 43.0306C79.4135 43.0306 79.7401 42.9793 80.0667 42.8768V43.8851C79.9186 43.9497 79.7268 44.0028 79.4914 44.0446C79.2597 44.0902 79.0186 44.113 78.7679 44.113C77.4995 44.113 76.8652 43.4446 76.8652 42.1077V38.7126H76.005V38.1201L76.9279 37.6302L77.3836 36.2972H78.2096V37.6986H80.0041V38.7126H78.2096V42.085C78.2096 42.4078 78.2894 42.647 78.4489 42.8027C78.6122 42.9546 78.8249 43.0306 79.0869 43.0306ZM86.9198 40.8374C86.9198 41.8666 86.6558 42.6698 86.1279 43.2471C85.6 43.8243 84.8652 44.113 83.9233 44.113C83.3347 44.113 82.8144 43.98 82.3625 43.7142C81.9105 43.4484 81.563 43.0667 81.32 42.5692C81.0769 42.0717 80.9554 41.4944 80.9554 40.8374C80.9554 39.8158 81.2174 39.0183 81.7415 38.4448C82.2656 37.8714 83.0043 37.5846 83.9575 37.5846C84.869 37.5846 85.5905 37.879 86.1222 38.4676C86.6539 39.0525 86.9198 39.8424 86.9198 40.8374ZM82.334 40.8374C82.334 42.2919 82.8714 43.0192 83.9461 43.0192C85.0095 43.0192 85.5412 42.2919 85.5412 40.8374C85.5412 39.3981 85.0057 38.6784 83.9347 38.6784C83.3727 38.6784 82.9644 38.8645 82.71 39.2367C82.4593 39.6088 82.334 40.1424 82.334 40.8374ZM93.7728 43.999H92.4284V40.1139C92.4284 39.6316 92.3372 39.2727 92.1549 39.0373C91.9727 38.798 91.6878 38.6784 91.3005 38.6784C90.784 38.6784 90.4042 38.8474 90.1611 39.1854C89.9219 39.5196 89.8022 40.0779 89.8022 40.8602V43.999H88.4635V37.6986H89.5117L89.6997 38.5246H89.7681C89.9428 38.2246 90.1953 37.9929 90.5257 37.8296C90.8599 37.6663 91.2264 37.5846 91.6252 37.5846C92.5936 37.5846 93.2354 37.915 93.5506 38.5758H93.6418C93.8279 38.2644 94.0899 38.0214 94.4279 37.8467C94.7659 37.672 95.1533 37.5846 95.59 37.5846C96.342 37.5846 96.8888 37.7745 97.2306 38.1543C97.5762 38.5341 97.749 39.1132 97.749 39.8918V43.999H96.4103V40.1139C96.4103 39.6316 96.3173 39.2727 96.1312 39.0373C95.9489 38.798 95.6641 38.6784 95.2767 38.6784C94.7564 38.6784 94.3747 38.8417 94.1317 39.1683C93.8924 39.4911 93.7728 39.9886 93.7728 40.6608V43.999ZM103.56 43.999L103.292 43.1217H103.246C102.942 43.5053 102.637 43.7674 102.329 43.9079C102.021 44.0446 101.627 44.113 101.144 44.113C100.525 44.113 100.041 43.9459 99.6916 43.6117C99.346 43.2775 99.1732 42.8046 99.1732 42.1932C99.1732 41.5438 99.4143 41.0539 99.8966 40.7235C100.379 40.3931 101.114 40.2127 102.101 40.1823L103.189 40.1481V39.812C103.189 39.4095 103.094 39.1094 102.904 38.9119C102.718 38.7107 102.428 38.61 102.033 38.61C101.71 38.61 101.401 38.6575 101.104 38.7524C100.808 38.8474 100.523 38.9594 100.25 39.0885L99.8169 38.1315C100.159 37.953 100.533 37.8182 100.939 37.7271C101.345 37.6321 101.729 37.5846 102.09 37.5846C102.891 37.5846 103.495 37.7593 103.901 38.1087C104.312 38.4581 104.517 39.0069 104.517 39.755V43.999H103.56ZM101.566 43.0876C102.052 43.0876 102.441 42.9527 102.734 42.6831C103.03 42.4097 103.178 42.028 103.178 41.5381V40.9912L102.369 41.0254C101.739 41.0482 101.279 41.1545 100.99 41.3444C100.706 41.5305 100.563 41.8172 100.563 42.2046C100.563 42.4856 100.647 42.704 100.814 42.8597C100.981 43.0116 101.232 43.0876 101.566 43.0876ZM108.732 43.0306C109.059 43.0306 109.385 42.9793 109.712 42.8768V43.8851C109.564 43.9497 109.372 44.0028 109.137 44.0446C108.905 44.0902 108.664 44.113 108.413 44.113C107.145 44.113 106.51 43.4446 106.51 42.1077V38.7126H105.65V38.1201L106.573 37.6302L107.029 36.2972H107.855V37.6986H109.649V38.7126H107.855V42.085C107.855 42.4078 107.935 42.647 108.094 42.8027C108.257 42.9546 108.47 43.0306 108.732 43.0306ZM112.315 43.999H110.977V37.6986H112.315V43.999ZM110.897 36.0295C110.897 35.7902 110.961 35.606 111.09 35.4769C111.223 35.3478 111.411 35.2832 111.654 35.2832C111.89 35.2832 112.072 35.3478 112.201 35.4769C112.334 35.606 112.401 35.7902 112.401 36.0295C112.401 36.2573 112.334 36.4377 112.201 36.5706C112.072 36.6998 111.89 36.7643 111.654 36.7643C111.411 36.7643 111.223 36.6998 111.09 36.5706C110.961 36.4377 110.897 36.2573 110.897 36.0295ZM116.776 44.113C115.822 44.113 115.097 43.8357 114.6 43.2813C114.106 42.723 113.859 41.9236 113.859 40.883C113.859 39.8234 114.117 39.0088 114.634 38.4391C115.154 37.8695 115.904 37.5846 116.884 37.5846C117.549 37.5846 118.147 37.7081 118.678 37.9549L118.274 39.0316C117.708 38.8113 117.241 38.7012 116.873 38.7012C115.783 38.7012 115.238 39.4246 115.238 40.8716C115.238 41.578 115.372 42.1096 115.642 42.4666C115.916 42.8198 116.314 42.9964 116.838 42.9964C117.435 42.9964 117.999 42.8483 118.53 42.5521V43.7199C118.291 43.8604 118.035 43.961 117.761 44.0218C117.492 44.0826 117.163 44.113 116.776 44.113Z" fill="#44AD4D"/>
<path d="M66.4054 56.999H65.2132L62.2876 52.2586H62.255L62.2754 52.5231C62.3134 53.0277 62.3324 53.4888 62.3324 53.9066V56.999H61.4494V51.0501H62.6294L65.5469 55.7661H65.5713C65.5659 55.7037 65.555 55.4772 65.5387 55.0866C65.5225 54.6933 65.5143 54.3867 65.5143 54.167V51.0501H66.4054V56.999ZM71.866 54.7407C71.866 55.4759 71.6775 56.0496 71.3005 56.4619C70.9234 56.8742 70.3985 57.0804 69.7257 57.0804C69.3053 57.0804 68.9336 56.9855 68.6108 56.7956C68.288 56.6057 68.0398 56.3331 67.8662 55.9777C67.6926 55.6223 67.6058 55.21 67.6058 54.7407C67.6058 54.011 67.793 53.4414 68.1673 53.0317C68.5417 52.6221 69.0693 52.4173 69.7502 52.4173C70.4012 52.4173 70.9166 52.6276 71.2964 53.048C71.6762 53.4658 71.866 54.03 71.866 54.7407ZM68.5905 54.7407C68.5905 55.7797 68.9743 56.2992 69.742 56.2992C70.5016 56.2992 70.8813 55.7797 70.8813 54.7407C70.8813 53.7126 70.4989 53.1986 69.7339 53.1986C69.3324 53.1986 69.0408 53.3315 68.859 53.5973C68.68 53.8632 68.5905 54.2443 68.5905 54.7407ZM75.2515 52.4173C75.4441 52.4173 75.6028 52.4309 75.7275 52.458L75.634 53.3491C75.4983 53.3166 75.3573 53.3003 75.2108 53.3003C74.8283 53.3003 74.5177 53.4251 74.279 53.6746C74.043 53.9242 73.925 54.2484 73.925 54.6471V56.999H72.9687V52.4987H73.7174L73.8436 53.2922H73.8924C74.0416 53.0236 74.2356 52.8107 74.4743 52.6533C74.7157 52.496 74.9748 52.4173 75.2515 52.4173ZM80.2563 56.999L79.6745 54.8994C79.6039 54.677 79.4765 54.1602 79.292 53.3491H79.2554C79.098 54.0815 78.9733 54.601 78.881 54.9076L78.2829 56.999H77.2249L75.9635 52.4987H76.9401L77.5138 54.7163C77.644 55.2643 77.7363 55.7336 77.7905 56.1242H77.8149C77.8421 55.9262 77.8828 55.6997 77.937 55.4447C77.994 55.187 78.0428 54.9944 78.0835 54.8669L78.7671 52.4987H79.8169L80.4801 54.8669C80.5208 54.9998 80.571 55.2032 80.6307 55.4772C80.6931 55.7512 80.7297 55.9641 80.7406 56.116H80.7731C80.8138 55.7824 80.9087 55.3158 81.0579 54.7163L81.6398 52.4987H82.6001L81.3306 56.999H80.2563ZM86.193 56.999L86.0018 56.3724H85.9692C85.7522 56.6464 85.5339 56.8336 85.3141 56.9339C85.0944 57.0316 84.8123 57.0804 84.4678 57.0804C84.0256 57.0804 83.6797 56.961 83.4302 56.7223C83.1833 56.4836 83.0599 56.1459 83.0599 55.7091C83.0599 55.2453 83.2321 54.8953 83.5767 54.6593C83.9212 54.4233 84.4461 54.2945 85.1514 54.2728L85.9285 54.2484V54.0083C85.9285 53.7208 85.8607 53.5065 85.7251 53.3654C85.5922 53.2216 85.3847 53.1497 85.1025 53.1497C84.872 53.1497 84.6509 53.1836 84.4393 53.2515C84.2277 53.3193 84.0242 53.3993 83.8289 53.4915L83.5197 52.8079C83.7638 52.6804 84.031 52.5841 84.3213 52.519C84.6115 52.4512 84.8855 52.4173 85.1432 52.4173C85.7156 52.4173 86.1469 52.5421 86.4372 52.7917C86.7301 53.0412 86.8766 53.4332 86.8766 53.9676V56.999H86.193ZM84.7689 56.348C85.1161 56.348 85.3942 56.2517 85.603 56.0591C85.8146 55.8638 85.9204 55.5911 85.9204 55.2412V54.8506L85.3426 54.875C84.8923 54.8913 84.5641 54.9672 84.3579 55.1029C84.1545 55.2358 84.0527 55.4406 84.0527 55.7173C84.0527 55.918 84.1124 56.074 84.2318 56.1852C84.3511 56.2937 84.5302 56.348 84.7689 56.348ZM87.5277 52.4987H88.5693L89.4849 55.05C89.6232 55.4135 89.7154 55.7553 89.7616 56.0754H89.7941C89.8185 55.9262 89.8633 55.7458 89.9284 55.5342C89.9935 55.3199 90.338 54.3081 90.9619 52.4987H91.9954L90.0708 57.5972C89.7209 58.533 89.1376 59.001 88.3211 59.001C88.1095 59.001 87.9034 58.9779 87.7026 58.9318V58.175C87.8464 58.2075 88.0105 58.2238 88.195 58.2238C88.6561 58.2238 88.9803 57.9566 89.1675 57.4222L89.3343 56.999L87.5277 52.4987ZM93.6719 56.1242C93.5417 56.6287 93.303 57.2784 92.9557 58.0732H92.2518C92.439 57.3408 92.5787 56.6599 92.6709 56.0306H93.6108L93.6719 56.1242ZM100.605 55.3836C100.605 55.9126 100.414 56.3276 100.032 56.6287C99.6492 56.9299 99.1216 57.0804 98.4489 57.0804C97.7761 57.0804 97.2255 56.976 96.7969 56.7671V55.8475C97.0681 55.975 97.3557 56.0754 97.6595 56.1486C97.966 56.2218 98.2509 56.2585 98.514 56.2585C98.8992 56.2585 99.1827 56.1852 99.3644 56.0387C99.5489 55.8923 99.6411 55.6956 99.6411 55.4487C99.6411 55.2263 99.557 55.0378 99.3888 54.8831C99.2206 54.7285 98.8734 54.5454 98.3472 54.3338C97.8046 54.1141 97.4221 53.8632 97.1997 53.5811C96.9773 53.2989 96.866 52.9599 96.866 52.5638C96.866 52.0674 97.0424 51.6768 97.395 51.3919C97.7477 51.1071 98.221 50.9647 98.8151 50.9647C99.3848 50.9647 99.9517 51.0895 100.516 51.339L100.207 52.1325C99.6777 51.91 99.2057 51.7988 98.7907 51.7988C98.476 51.7988 98.2373 51.868 98.0745 52.0063C97.9118 52.142 97.8304 52.3224 97.8304 52.5475C97.8304 52.7021 97.863 52.8351 97.9281 52.9463C97.9932 53.0548 98.1003 53.1579 98.2495 53.2555C98.3987 53.3532 98.6673 53.482 99.0552 53.6421C99.4919 53.8238 99.812 53.9934 100.015 54.1507C100.219 54.3081 100.368 54.4857 100.463 54.6838C100.558 54.8818 100.605 55.1151 100.605 55.3836ZM103.332 56.3073C103.565 56.3073 103.798 56.2707 104.032 56.1974V56.9176C103.926 56.9638 103.789 57.0017 103.621 57.0316C103.455 57.0641 103.283 57.0804 103.104 57.0804C102.198 57.0804 101.745 56.603 101.745 55.6481V53.223H101.13V52.7998L101.79 52.4499L102.115 51.4977H102.705V52.4987H103.987V53.223H102.705V55.6318C102.705 55.8624 102.762 56.0333 102.876 56.1445C102.993 56.253 103.145 56.3073 103.332 56.3073ZM107.751 56.999L107.559 56.3724H107.527C107.31 56.6464 107.091 56.8336 106.872 56.9339C106.652 57.0316 106.37 57.0804 106.025 57.0804C105.583 57.0804 105.237 56.961 104.988 56.7223C104.741 56.4836 104.618 56.1459 104.618 55.7091C104.618 55.2453 104.79 54.8953 105.134 54.6593C105.479 54.4233 106.004 54.2945 106.709 54.2728L107.486 54.2484V54.0083C107.486 53.7208 107.418 53.5065 107.283 53.3654C107.15 53.2216 106.942 53.1497 106.66 53.1497C106.43 53.1497 106.208 53.1836 105.997 53.2515C105.785 53.3193 105.582 53.3993 105.387 53.4915L105.077 52.8079C105.321 52.6804 105.589 52.5841 105.879 52.519C106.169 52.4512 106.443 52.4173 106.701 52.4173C107.273 52.4173 107.705 52.5421 107.995 52.7917C108.288 53.0412 108.434 53.4332 108.434 53.9676V56.999H107.751ZM106.326 56.348C106.674 56.348 106.952 56.2517 107.161 56.0591C107.372 55.8638 107.478 55.5911 107.478 55.2412V54.8506L106.9 54.875C106.45 54.8913 106.122 54.9672 105.916 55.1029C105.712 55.2358 105.61 55.4406 105.61 55.7173C105.61 55.918 105.67 56.074 105.789 56.1852C105.909 56.2937 106.088 56.348 106.326 56.348ZM110.794 56.999L109.085 52.4987H110.094L111.01 55.1151C111.167 55.5545 111.262 55.9099 111.295 56.1812H111.327C111.352 55.9858 111.447 55.6305 111.612 55.1151L112.528 52.4987H113.545L111.828 56.999H110.794ZM117.044 56.999L116.853 56.3724H116.82C116.603 56.6464 116.385 56.8336 116.165 56.9339C115.946 57.0316 115.664 57.0804 115.319 57.0804C114.877 57.0804 114.531 56.961 114.281 56.7223C114.035 56.4836 113.911 56.1459 113.911 55.7091C113.911 55.2453 114.083 54.8953 114.428 54.6593C114.772 54.4233 115.297 54.2945 116.003 54.2728L116.78 54.2484V54.0083C116.78 53.7208 116.712 53.5065 116.576 53.3654C116.443 53.2216 116.236 53.1497 115.954 53.1497C115.723 53.1497 115.502 53.1836 115.291 53.2515C115.079 53.3193 114.875 53.3993 114.68 53.4915L114.371 52.8079C114.615 52.6804 114.882 52.5841 115.173 52.519C115.463 52.4512 115.737 52.4173 115.994 52.4173C116.567 52.4173 116.998 52.5421 117.288 52.7917C117.581 53.0412 117.728 53.4332 117.728 53.9676V56.999H117.044ZM115.62 56.348C115.967 56.348 116.245 56.2517 116.454 56.0591C116.666 55.8638 116.772 55.5911 116.772 55.2412V54.8506L116.194 54.875C115.744 54.8913 115.415 54.9672 115.209 55.1029C115.006 55.2358 114.904 55.4406 114.904 55.7173C114.904 55.918 114.964 56.074 115.083 56.1852C115.202 56.2937 115.381 56.348 115.62 56.348ZM123.022 56.999H122.061V54.2321C122.061 53.8849 121.991 53.6258 121.85 53.4549C121.711 53.284 121.49 53.1986 121.187 53.1986C120.782 53.1986 120.487 53.3179 120.299 53.5566C120.112 53.7954 120.019 54.1955 120.019 54.757V56.999H119.062V52.4987H119.811L119.945 53.0887H119.994C120.13 52.8744 120.323 52.7089 120.572 52.5923C120.822 52.4756 121.098 52.4173 121.402 52.4173C122.482 52.4173 123.022 52.9666 123.022 54.0653V56.999ZM128.153 52.4987V53.0236L127.384 53.166C127.454 53.261 127.512 53.3776 127.559 53.516C127.605 53.6543 127.628 53.8008 127.628 53.9554C127.628 54.4193 127.468 54.7841 127.148 55.05C126.828 55.3158 126.387 55.4487 125.825 55.4487C125.681 55.4487 125.551 55.4379 125.435 55.4162C125.228 55.5437 125.125 55.6929 125.125 55.8638C125.125 55.9669 125.173 56.0442 125.268 56.0957C125.365 56.1472 125.543 56.173 125.801 56.173H126.586C127.083 56.173 127.46 56.2788 127.717 56.4904C127.975 56.702 128.104 57.0072 128.104 57.4059C128.104 57.9159 127.894 58.3092 127.473 58.5859C127.053 58.8626 126.445 59.001 125.65 59.001C125.037 59.001 124.569 58.8925 124.246 58.6755C123.924 58.4584 123.762 58.1492 123.762 57.7477C123.762 57.471 123.849 57.2377 124.023 57.0479C124.199 56.8607 124.444 56.7305 124.759 56.6572C124.632 56.603 124.526 56.5162 124.442 56.3968C124.36 56.2747 124.32 56.1472 124.32 56.0143C124.32 55.8461 124.367 55.7037 124.462 55.5871C124.557 55.4704 124.698 55.3551 124.885 55.2412C124.652 55.1408 124.462 54.9781 124.316 54.7529C124.172 54.5251 124.1 54.2592 124.1 53.9554C124.1 53.4671 124.253 53.0887 124.56 52.8201C124.869 52.5516 125.308 52.4173 125.878 52.4173C126.006 52.4173 126.139 52.4268 126.277 52.4458C126.418 52.4621 126.524 52.4797 126.594 52.4987H128.153ZM124.617 57.6989C124.617 57.9051 124.709 58.0637 124.893 58.175C125.081 58.2862 125.342 58.3418 125.679 58.3418C126.2 58.3418 126.587 58.2672 126.842 58.118C127.097 57.9688 127.225 57.7708 127.225 57.5239C127.225 57.3286 127.154 57.1889 127.013 57.1048C126.875 57.0234 126.616 56.9827 126.236 56.9827H125.512C125.238 56.9827 125.02 57.0465 124.857 57.174C124.697 57.3042 124.617 57.4792 124.617 57.6989ZM125.028 53.9554C125.028 54.2375 125.1 54.4545 125.243 54.6064C125.39 54.7584 125.599 54.8343 125.87 54.8343C126.423 54.8343 126.7 54.5386 126.7 53.9473C126.7 53.6543 126.631 53.4291 126.493 53.2718C126.357 53.1118 126.149 53.0317 125.87 53.0317C125.593 53.0317 125.383 53.1104 125.239 53.2677C125.098 53.4251 125.028 53.6543 125.028 53.9554ZM130.956 57.0804C130.256 57.0804 129.708 56.877 129.312 56.4701C128.919 56.0604 128.722 55.4976 128.722 54.7814C128.722 54.0463 128.905 53.4685 129.272 53.048C129.638 52.6276 130.141 52.4173 130.781 52.4173C131.375 52.4173 131.845 52.5977 132.189 52.9585C132.534 53.3193 132.706 53.8157 132.706 54.4478V54.9645H129.707C129.721 55.4013 129.839 55.7376 130.061 55.9736C130.283 56.2069 130.597 56.3236 131.001 56.3236C131.267 56.3236 131.514 56.2992 131.742 56.2503C131.972 56.1988 132.219 56.1147 132.482 55.998V56.7752C132.249 56.8864 132.013 56.9651 131.774 57.0112C131.535 57.0573 131.263 57.0804 130.956 57.0804ZM130.781 53.1416C130.477 53.1416 130.233 53.2379 130.049 53.4305C129.867 53.6231 129.759 53.9039 129.723 54.2728H131.766C131.761 53.9012 131.671 53.6204 131.497 53.4305C131.324 53.2379 131.085 53.1416 130.781 53.1416ZM136.075 52.4173C136.268 52.4173 136.426 52.4309 136.551 52.458L136.458 53.3491C136.322 53.3166 136.181 53.3003 136.034 53.3003C135.652 53.3003 135.341 53.4251 135.103 53.6746C134.867 53.9242 134.749 54.2484 134.749 54.6471V56.999H133.792V52.4987H134.541L134.667 53.2922H134.716C134.865 53.0236 135.059 52.8107 135.298 52.6533C135.539 52.496 135.798 52.4173 136.075 52.4173Z" fill="white" fill-opacity="0.6"/>
<mask id="mask0_8016_4576" style="mask-type:alpha" maskUnits="userSpaceOnUse" x="37" y="35" width="21" height="21">
<rect x="37.332" y="35.999" width="20" height="20" fill="white"/>
</mask>
<g mask="url(#mask0_8016_4576)">
<path fill-rule="evenodd" clip-rule="evenodd" d="M53.3367 41.2431C53.6621 41.5685 53.6621 42.0962 53.3367 42.4216L45.8367 49.9216C45.5247 50.2336 45.0235 50.2483 44.6938 49.9552L40.9438 46.6219C40.5998 46.3161 40.5688 45.7894 40.8746 45.4454C41.1803 45.1014 41.7071 45.0704 42.051 45.3762L45.2138 48.1875L52.1581 41.2431C52.4836 40.9177 53.0112 40.9177 53.3367 41.2431Z" fill="#44AD4D"/>
</g>
</g>
<rect width="40" height="40" transform="translate(224 25.999)" fill="#294D73"/>
<mask id="mask1_8016_4576" style="mask-type:alpha" maskUnits="userSpaceOnUse" x="234" y="35" width="20" height="21">
<path d="M254 35.999H234V55.999H254V35.999Z" fill="white"/>
</mask>
<g mask="url(#mask1_8016_4576)">
<path fill-rule="evenodd" clip-rule="evenodd" d="M244.001 54.3327C248.604 54.3327 252.335 50.6017 252.335 45.9993C252.335 41.397 248.604 37.666 244.001 37.666C239.399 37.666 235.668 41.397 235.668 45.9993C235.668 50.6017 239.399 54.3327 244.001 54.3327ZM244.835 41.8327C244.835 42.2929 244.462 42.666 244.001 42.666C243.541 42.666 243.168 42.2929 243.168 41.8327C243.168 41.3724 243.541 40.9993 244.001 40.9993C244.462 40.9993 244.835 41.3724 244.835 41.8327ZM244.835 50.166C244.835 50.6263 244.462 50.9993 244.001 50.9993C243.541 50.9993 243.168 50.6263 243.168 50.166V45.166C243.168 44.7058 243.541 44.3327 244.001 44.3327C244.462 44.3327 244.835 44.7058 244.835 45.166V50.166Z" fill="white"/>
</g>
</g>
</g>
<g clip-path="url(#clip4_8016_4576)">
<g clip-path="url(#clip5_8016_4576)">
<g clip-path="url(#clip6_8016_4576)">
<rect width="198.333" height="40" transform="translate(24 69.333)" fill="#294D73"/>
<path d="M43.5983 93.833L42.7666 91.5202H39.5822L38.7676 93.833H37.332L40.4481 85.4704H41.9292L45.0452 93.833H43.5983ZM42.4077 90.3467L41.6273 88.0794C41.5703 87.9275 41.4906 87.6883 41.388 87.3617C41.2893 87.035 41.2209 86.7958 41.1829 86.6439C41.0804 87.111 40.9304 87.6218 40.7329 88.1763L39.981 90.3467H42.4077ZM47.341 93.833H46.0023V84.9691H47.341V93.833ZM52.4793 87.4186C53.2655 87.4186 53.8769 87.7035 54.3136 88.2731C54.7542 88.8428 54.9744 89.6422 54.9744 90.6714C54.9744 91.7044 54.7523 92.5095 54.3079 93.0868C53.8636 93.6602 53.2465 93.9469 52.4565 93.9469C51.659 93.9469 51.04 93.6602 50.5994 93.0868H50.5083L50.2633 93.833H49.2607V84.9691H50.5994V87.0768C50.5994 87.2325 50.5919 87.4642 50.5767 87.7718C50.5615 88.0794 50.5501 88.275 50.5425 88.3586H50.5994C51.0248 87.7319 51.6514 87.4186 52.4793 87.4186ZM52.1318 88.5124C51.5926 88.5124 51.2033 88.6719 50.964 88.9909C50.7286 89.3061 50.607 89.8359 50.5994 90.5802V90.6714C50.5994 91.4385 50.721 91.9949 50.964 92.3405C51.2071 92.6823 51.6039 92.8532 52.1546 92.8532C52.6293 92.8532 52.9882 92.6652 53.2313 92.2892C53.4781 91.9132 53.6016 91.3702 53.6016 90.66C53.6016 89.2282 53.1117 88.5124 52.1318 88.5124ZM60.4717 93.833L60.2039 92.9557H60.1584C59.8545 93.3393 59.5488 93.6013 59.2412 93.7419C58.9336 93.8786 58.5386 93.9469 58.0563 93.9469C57.4373 93.9469 56.9531 93.7798 56.6037 93.4456C56.2581 93.1114 56.0853 92.6386 56.0853 92.0272C56.0853 91.3778 56.3264 90.8879 56.8088 90.5575C57.2911 90.2271 58.0259 90.0467 59.0133 90.0163L60.1014 89.9821V89.646C60.1014 89.2434 60.0065 88.9434 59.8166 88.7459C59.6305 88.5447 59.34 88.444 58.945 88.444C58.6222 88.444 58.3127 88.4915 58.0164 88.5864C57.7202 88.6814 57.4354 88.7934 57.1619 88.9225L56.729 87.9655C57.0708 87.787 57.4449 87.6522 57.8512 87.561C58.2576 87.4661 58.6412 87.4186 59.002 87.4186C59.8033 87.4186 60.4071 87.5933 60.8135 87.9427C61.2236 88.2921 61.4287 88.8409 61.4287 89.589V93.833H60.4717ZM58.4779 92.9215C58.964 92.9215 59.3532 92.7867 59.6457 92.5171C59.9419 92.2437 60.09 91.862 60.09 91.3721V90.8252L59.2811 90.8594C58.6507 90.8822 58.1911 90.9885 57.9025 91.1784C57.6177 91.3645 57.4753 91.6512 57.4753 92.0386C57.4753 92.3196 57.5588 92.538 57.7259 92.6937C57.893 92.8456 58.1437 92.9215 58.4779 92.9215ZM68.84 93.833H67.4956V89.9593C67.4956 89.4732 67.3969 89.1105 67.1994 88.8713C67.0057 88.632 66.6962 88.5124 66.2708 88.5124C65.705 88.5124 65.291 88.6795 65.029 89.0137C64.7669 89.3479 64.6359 89.908 64.6359 90.6942V93.833H63.2972V87.5326H64.3454L64.5334 88.3586H64.6017C64.7916 88.0585 65.0613 87.8269 65.4106 87.6636C65.76 87.5003 66.1474 87.4186 66.5728 87.4186C68.0843 87.4186 68.84 88.1877 68.84 89.7257V93.833ZM72.0415 93.833H70.7028V87.5326H72.0415V93.833ZM70.623 85.8634C70.623 85.6242 70.6876 85.44 70.8167 85.3109C70.9497 85.1817 71.1376 85.1172 71.3807 85.1172C71.6162 85.1172 71.7984 85.1817 71.9276 85.3109C72.0605 85.44 72.127 85.6242 72.127 85.8634C72.127 86.0913 72.0605 86.2717 71.9276 86.4046C71.7984 86.5337 71.6162 86.5983 71.3807 86.5983C71.1376 86.5983 70.9497 86.5337 70.8167 86.4046C70.6876 86.2717 70.623 86.0913 70.623 85.8634ZM77.9033 93.833L77.6356 92.9557H77.59C77.2862 93.3393 76.9805 93.6013 76.6729 93.7419C76.3652 93.8786 75.9703 93.9469 75.488 93.9469C74.8689 93.9469 74.3847 93.7798 74.0353 93.4456C73.6897 93.1114 73.5169 92.6386 73.5169 92.0272C73.5169 91.3778 73.7581 90.8879 74.2404 90.5575C74.7227 90.2271 75.4576 90.0467 76.445 90.0163L77.533 89.9821V89.646C77.533 89.2434 77.4381 88.9434 77.2482 88.7459C77.0621 88.5447 76.7716 88.444 76.3766 88.444C76.0538 88.444 75.7443 88.4915 75.4481 88.5864C75.1519 88.6814 74.867 88.7934 74.5936 88.9225L74.1606 87.9655C74.5024 87.787 74.8765 87.6522 75.2829 87.561C75.6892 87.4661 76.0728 87.4186 76.4336 87.4186C77.2349 87.4186 77.8388 87.5933 78.2451 87.9427C78.6553 88.2921 78.8603 88.8409 78.8603 89.589V93.833H77.9033ZM75.9095 92.9215C76.3956 92.9215 76.7849 92.7867 77.0773 92.5171C77.3735 92.2437 77.5216 91.862 77.5216 91.3721V90.8252L76.7127 90.8594C76.0823 90.8822 75.6228 90.9885 75.3341 91.1784C75.0493 91.3645 74.9069 91.6512 74.9069 92.0386C74.9069 92.3196 74.9905 92.538 75.1576 92.6937C75.3247 92.8456 75.5753 92.9215 75.9095 92.9215Z" fill="white"/>
</g>
<rect width="40" height="40" transform="translate(224 69.333)" fill="#294D73"/>
<mask id="mask2_8016_4576" style="mask-type:alpha" maskUnits="userSpaceOnUse" x="234" y="79" width="20" height="21">
<rect x="234" y="79.333" width="20" height="20" fill="white"/>
</mask>
<g mask="url(#mask2_8016_4576)">
<path fill-rule="evenodd" clip-rule="evenodd" d="M247.924 87.0771C247.598 86.7516 247.071 86.7516 246.745 87.0771L244.001 89.8212L241.257 87.0771C240.932 86.7516 240.404 86.7516 240.079 87.0771C239.753 87.4025 239.753 87.9302 240.079 88.2556L243.412 91.5889C243.737 91.9144 244.265 91.9144 244.591 91.5889L247.924 88.2556C248.249 87.9302 248.249 87.4025 247.924 87.0771Z" fill="white"/>
</g>
</g>
</g>
<g opacity="0.8">
<circle cx="284" cy="38" r="350" fill="url(#paint0_linear_8016_4576)"/>
<circle cx="350" cy="350" r="350" transform="matrix(1 0 0 -1 -66 404)" fill="url(#paint1_linear_8016_4576)"/>
</g>
</g>
<path d="M12 1H276C282.075 1 287 5.92487 287 12V79C287 85.0751 282.075 90 276 90H12C5.92487 90 1 85.0751 1 79V12C1 5.92487 5.92487 1 12 1Z" stroke="#304358" stroke-width="2"/>
<defs>
<linearGradient id="paint0_linear_8016_4576" x1="284" y1="-71" x2="284" y2="38" gradientUnits="userSpaceOnUse">
<stop stop-color="#101823"/>
<stop offset="0.745192" stop-color="#101823" stop-opacity="0.5"/>
<stop offset="1" stop-color="#101823" stop-opacity="0"/>
</linearGradient>
<linearGradient id="paint1_linear_8016_4576" x1="350" y1="241" x2="350" y2="350" gradientUnits="userSpaceOnUse">
<stop stop-color="#101823"/>
<stop offset="0.502414" stop-color="#101823" stop-opacity="0.5"/>
<stop offset="1" stop-color="#101823" stop-opacity="0"/>
</linearGradient>
<clipPath id="clip0_8016_4576">
<path d="M0 12C0 5.37258 5.37258 0 12 0H276C282.627 0 288 5.37258 288 12V79C288 85.6274 282.627 91 276 91H12C5.37259 91 0 85.6274 0 79V12Z" fill="white"/>
</clipPath>
<clipPath id="clip1_8016_4576">
<rect width="240" height="40" fill="white" transform="translate(24 25.999)"/>
</clipPath>
<clipPath id="clip2_8016_4576">
<path d="M24 39.3324C24 31.9686 29.9695 25.999 37.3333 25.999H250.667C258.03 25.999 264 31.9686 264 39.3324V52.6657C264 60.0295 258.03 65.999 250.667 65.999H37.3333C29.9695 65.999 24 60.0295 24 52.6657V39.3324Z" fill="white"/>
</clipPath>
<clipPath id="clip3_8016_4576">
<rect width="198.333" height="40" fill="white" transform="translate(24 25.999)"/>
</clipPath>
<clipPath id="clip4_8016_4576">
<rect width="240" height="40" fill="white" transform="translate(24 69.333)"/>
</clipPath>
<clipPath id="clip5_8016_4576">
<path d="M24 82.6663C24 75.3025 29.9695 69.333 37.3333 69.333H250.667C258.03 69.333 264 75.3025 264 82.6663V95.9997C264 103.363 258.03 109.333 250.667 109.333H37.3333C29.9695 109.333 24 103.363 24 95.9997V82.6663Z" fill="white"/>
</clipPath>
<clipPath id="clip6_8016_4576">
<rect width="198.333" height="40" fill="white" transform="translate(24 69.333)"/>
</clipPath>
</defs>
</svg>
