<svg width="343" height="108" viewBox="0 0 343 108" fill="none" xmlns="http://www.w3.org/2000/svg">
<g clip-path="url(#clip0_7537_48973)">
<path d="M0 12C0 5.37258 5.37258 0 12 0H331C337.627 0 343 5.37258 343 12V96C343 102.627 337.627 108 331 108H12C5.37258 108 0 102.627 0 96V12Z" fill="#192638"/>
<path d="M36.9093 18.3179L39.8612 9.99837H41.095V11.5435H40.6511L38.466 18.3179H36.9093ZM38.3968 16.1674L38.7831 15.0201H42.5998L42.9861 16.1674H38.3968ZM42.9342 18.3179L40.7491 11.5435V9.99837H41.5332L44.4909 18.3179H42.9342ZM45.5136 18.3179V9.57749H46.9492V18.3179H45.5136ZM48.4965 18.3179V9.57749H49.9321V18.3179H48.4965ZM54.3125 18.3179V9.57749H55.7481V18.3179H54.3125ZM59.9591 18.4447C59.3326 18.4447 58.7926 18.314 58.339 18.0527C57.8855 17.7875 57.5357 17.4108 57.2897 16.9226C57.0476 16.4345 56.9265 15.8503 56.9265 15.17V15.1584C56.9265 14.4858 57.0495 13.9054 57.2955 13.4173C57.5415 12.9253 57.8893 12.5486 58.339 12.2872C58.7926 12.0259 59.3326 11.8952 59.9591 11.8952C60.5856 11.8952 61.1237 12.0259 61.5734 12.2872C62.027 12.5486 62.3767 12.9234 62.6227 13.4115C62.8687 13.8996 62.9917 14.4819 62.9917 15.1584V15.17C62.9917 15.8503 62.8687 16.4345 62.6227 16.9226C62.3806 17.4108 62.0327 17.7875 61.5792 18.0527C61.1295 18.314 60.5895 18.4447 59.9591 18.4447ZM59.9591 17.2801C60.2897 17.2801 60.5702 17.1975 60.8009 17.0322C61.0353 16.8631 61.2141 16.6228 61.337 16.3115C61.46 15.9963 61.5215 15.6177 61.5215 15.1757V15.1642C61.5215 14.7183 61.46 14.3397 61.337 14.0284C61.2141 13.7132 61.0353 13.473 60.8009 13.3077C60.5702 13.1386 60.2897 13.054 59.9591 13.054C59.6286 13.054 59.3461 13.1386 59.1116 13.3077C58.8771 13.473 58.6984 13.7132 58.5754 14.0284C58.4524 14.3397 58.3909 14.7183 58.3909 15.1642V15.1757C58.3909 15.6177 58.4524 15.9963 58.5754 16.3115C58.6984 16.6267 58.8752 16.8669 59.1058 17.0322C59.3403 17.1975 59.6247 17.2801 59.9591 17.2801ZM66.8222 18.4447C66.188 18.4447 65.646 18.314 65.1963 18.0527C64.7466 17.7913 64.4026 17.4146 64.1643 16.9226C63.926 16.4307 63.8069 15.8426 63.8069 15.1584V15.1469C63.8069 14.4666 63.926 13.8843 64.1643 13.4C64.4026 12.9157 64.7466 12.5448 65.1963 12.2872C65.646 12.0259 66.1861 11.8952 66.8164 11.8952C67.3584 11.8952 67.8235 11.9894 68.2117 12.1777C68.6037 12.3622 68.9131 12.6197 69.1399 12.9503C69.3705 13.277 69.5127 13.6594 69.5665 14.0976V14.1206H68.2117L68.2059 14.1033C68.1406 13.7959 67.9906 13.5441 67.7562 13.3481C67.5256 13.1521 67.2142 13.054 66.8222 13.054C66.4955 13.054 66.2149 13.1367 65.9804 13.302C65.7498 13.4672 65.573 13.7055 65.45 14.0169C65.327 14.3282 65.2655 14.7049 65.2655 15.1469V15.1584C65.2655 15.6043 65.327 15.9867 65.45 16.3057C65.5769 16.6209 65.7556 16.8631 65.9862 17.0322C66.2168 17.1975 66.4955 17.2801 66.8222 17.2801C67.195 17.2801 67.4948 17.1955 67.7216 17.0264C67.9522 16.8573 68.1117 16.6075 68.2001 16.2769L68.2117 16.2539L69.5608 16.2481L69.555 16.3C69.4858 16.7266 69.3359 17.1014 69.1053 17.4242C68.8785 17.7471 68.5749 17.9989 68.1944 18.1795C67.8138 18.3563 67.3565 18.4447 66.8222 18.4447ZM72.3362 18.4216C71.9403 18.4216 71.5847 18.3448 71.2696 18.191C70.9582 18.0373 70.7122 17.8201 70.5316 17.5395C70.3548 17.2551 70.2664 16.9207 70.2664 16.5364V16.5248C70.2664 16.152 70.3586 15.8311 70.5431 15.562C70.7276 15.2891 70.9986 15.0758 71.356 14.922C71.7135 14.7683 72.1478 14.678 72.659 14.6511L74.9883 14.5069V15.4525L72.8608 15.5908C72.4572 15.6139 72.1594 15.6984 71.9672 15.8445C71.775 15.9906 71.6789 16.1943 71.6789 16.4556V16.4672C71.6789 16.7362 71.7808 16.9457 71.9845 17.0956C72.192 17.2455 72.4553 17.3205 72.7743 17.3205C73.0626 17.3205 73.3201 17.2628 73.5469 17.1475C73.7737 17.0322 73.9524 16.8765 74.0831 16.6805C74.2138 16.4806 74.2791 16.2558 74.2791 16.0059V14.0111C74.2791 13.6959 74.1792 13.4557 73.9793 13.2904C73.7794 13.1213 73.4835 13.0367 73.0914 13.0367C72.7647 13.0367 72.4976 13.0944 72.29 13.2097C72.0825 13.3212 71.9422 13.4807 71.8692 13.6882L71.8634 13.7113H70.5085L70.5143 13.6594C70.5604 13.3058 70.6988 12.9964 70.9294 12.7312C71.16 12.466 71.4656 12.2603 71.8461 12.1143C72.2266 11.9682 72.6648 11.8952 73.1606 11.8952C73.7064 11.8952 74.1676 11.9798 74.5443 12.1489C74.921 12.3141 75.2073 12.5563 75.4034 12.8753C75.5994 13.1905 75.6974 13.5691 75.6974 14.0111V18.3179H74.2791V17.4531H74.1811C74.0658 17.6529 73.9159 17.8259 73.7314 17.9719C73.5507 18.118 73.3432 18.2295 73.1087 18.3063C72.8743 18.3832 72.6167 18.4216 72.3362 18.4216ZM79.5855 18.3467C78.8629 18.3467 78.3421 18.2141 78.0231 17.9489C77.7041 17.6837 77.5446 17.2493 77.5446 16.6459V13.129H76.5644V12.0163H77.5446V10.4711H79.0032V12.0163H80.3293V13.129H79.0032V16.3057C79.0032 16.6171 79.0686 16.8458 79.1992 16.9918C79.3338 17.134 79.549 17.2051 79.845 17.2051C79.9487 17.2051 80.0333 17.2032 80.0986 17.1994C80.1678 17.1917 80.2447 17.184 80.3293 17.1763V18.2833C80.2293 18.3025 80.114 18.3179 79.9833 18.3294C79.8565 18.3409 79.7239 18.3467 79.5855 18.3467ZM81.4673 18.3179V12.0163H82.8971V18.3179H81.4673ZM82.188 10.9612C81.9535 10.9612 81.7517 10.8786 81.5826 10.7133C81.4135 10.548 81.3289 10.3501 81.3289 10.1194C81.3289 9.88114 81.4135 9.68127 81.5826 9.51984C81.7517 9.35456 81.9535 9.27193 82.188 9.27193C82.4224 9.27193 82.6223 9.35456 82.7876 9.51984C82.9567 9.68127 83.0412 9.88114 83.0412 10.1194C83.0412 10.3501 82.9567 10.548 82.7876 10.7133C82.6223 10.8786 82.4224 10.9612 82.188 10.9612ZM87.0735 18.4447C86.447 18.4447 85.907 18.314 85.4534 18.0527C84.9999 17.7875 84.6501 17.4108 84.4041 16.9226C84.162 16.4345 84.0409 15.8503 84.0409 15.17V15.1584C84.0409 14.4858 84.1639 13.9054 84.4099 13.4173C84.6559 12.9253 85.0037 12.5486 85.4534 12.2872C85.907 12.0259 86.447 11.8952 87.0735 11.8952C87.7 11.8952 88.2381 12.0259 88.6878 12.2872C89.1414 12.5486 89.4911 12.9234 89.7371 13.4115C89.9831 13.8996 90.1061 14.4819 90.1061 15.1584V15.17C90.1061 15.8503 89.9831 16.4345 89.7371 16.9226C89.495 17.4108 89.1471 17.7875 88.6936 18.0527C88.2439 18.314 87.7039 18.4447 87.0735 18.4447ZM87.0735 17.2801C87.404 17.2801 87.6846 17.1975 87.9152 17.0322C88.1497 16.8631 88.3284 16.6228 88.4514 16.3115C88.5744 15.9963 88.6359 15.6177 88.6359 15.1757V15.1642C88.6359 14.7183 88.5744 14.3397 88.4514 14.0284C88.3284 13.7132 88.1497 13.473 87.9152 13.3077C87.6846 13.1386 87.404 13.054 87.0735 13.054C86.7429 13.054 86.4604 13.1386 86.226 13.3077C85.9915 13.473 85.8128 13.7132 85.6898 14.0284C85.5668 14.3397 85.5053 14.7183 85.5053 15.1642V15.1757C85.5053 15.6177 85.5668 15.9963 85.6898 16.3115C85.8128 16.6267 85.9896 16.8669 86.2202 17.0322C86.4547 17.1975 86.7391 17.2801 87.0735 17.2801ZM91.2326 18.3179V12.0163H92.6682V12.9849H92.7662C92.9161 12.6428 93.1429 12.3756 93.4465 12.1835C93.7502 11.9913 94.1288 11.8952 94.5823 11.8952C95.2857 11.8952 95.8238 12.0989 96.1966 12.5063C96.5695 12.9138 96.7559 13.4922 96.7559 14.2417V18.3179H95.3203V14.5761C95.3203 14.0841 95.2165 13.7151 95.0089 13.4692C94.8052 13.2232 94.4862 13.1002 94.0519 13.1002C93.7675 13.1002 93.5215 13.1636 93.3139 13.2904C93.1064 13.4173 92.9469 13.596 92.8354 13.8266C92.7239 14.0572 92.6682 14.3301 92.6682 14.6453V18.3179H91.2326ZM100.517 18.4447C99.9829 18.4447 99.5217 18.3698 99.1335 18.2199C98.7491 18.0661 98.4454 17.8547 98.2225 17.5857C97.9996 17.3128 97.867 16.9976 97.8247 16.6401V16.6286H99.2488L99.2545 16.6401C99.3314 16.8592 99.4755 17.0379 99.6869 17.1763C99.8983 17.3147 100.183 17.3839 100.54 17.3839C100.779 17.3839 100.988 17.3512 101.169 17.2859C101.349 17.2167 101.492 17.1225 101.595 17.0034C101.699 16.8842 101.751 16.7458 101.751 16.5882V16.5767C101.751 16.3922 101.676 16.2385 101.526 16.1155C101.376 15.9886 101.128 15.8868 100.782 15.8099L99.7619 15.5793C99.3621 15.4909 99.0316 15.3679 98.7702 15.2103C98.5089 15.0527 98.3128 14.8586 98.1822 14.628C98.0553 14.3974 97.9919 14.1283 97.9919 13.8208V13.8151C97.9919 13.4346 98.0976 13.1002 98.309 12.8119C98.5242 12.5236 98.8221 12.2988 99.2026 12.1373C99.5832 11.9759 100.021 11.8952 100.517 11.8952C101.028 11.8952 101.468 11.9721 101.837 12.1258C102.206 12.2796 102.495 12.491 102.702 12.76C102.91 13.0291 103.029 13.3346 103.06 13.6767V13.6882H101.711L101.705 13.6709C101.651 13.4711 101.522 13.302 101.319 13.1636C101.119 13.0214 100.85 12.9503 100.511 12.9503C100.3 12.9503 100.11 12.9829 99.9406 13.0483C99.7753 13.1136 99.6447 13.2059 99.5486 13.325C99.4563 13.4403 99.4102 13.5768 99.4102 13.7344V13.7401C99.4102 13.8631 99.4409 13.9707 99.5024 14.063C99.5678 14.1552 99.6696 14.236 99.808 14.3051C99.9464 14.3743 100.129 14.4358 100.356 14.4896L101.376 14.7145C101.995 14.8529 102.452 15.0585 102.748 15.3314C103.044 15.6043 103.192 15.9713 103.192 16.4326V16.4441C103.192 16.8438 103.077 17.1936 102.846 17.4934C102.616 17.7932 102.299 18.0277 101.895 18.1968C101.492 18.3621 101.032 18.4447 100.517 18.4447Z" fill="white"/>
<path d="M306.5 13.9243L306.5 14.7115L110.797 14.7115L110.797 13.9243L306.5 13.9243Z" fill="white" fill-opacity="0.2"/>
<g clip-path="url(#clip1_7537_48973)">
<g clip-path="url(#clip2_7537_48973)">
<g clip-path="url(#clip3_7537_48973)">
<rect width="224.344" height="44.0816" transform="translate(36.5 31.6357)" fill="#294D73"/>
<path d="M71.5967 50.1768L74.9422 40.748H76.3405V42.4991H75.8374L73.361 50.1768H71.5967ZM73.2825 47.7395L73.7203 46.4392H78.0459L78.4837 47.7395H73.2825ZM78.4249 50.1768L75.9485 42.4991V40.748H76.8371L80.1891 50.1768H78.4249ZM83.3243 50.3205C82.7929 50.3205 82.3464 50.2181 81.9848 50.0134C81.6232 49.8043 81.351 49.5016 81.168 49.1052C80.9851 48.7044 80.8936 48.2209 80.8936 47.6546V43.0349H82.5206V47.2821C82.5206 47.8354 82.6295 48.2514 82.8473 48.5302C83.0651 48.8089 83.4201 48.9483 83.9124 48.9483C84.1737 48.9483 84.4046 48.9091 84.605 48.8307C84.8097 48.748 84.9796 48.6303 85.1146 48.4779C85.2497 48.3254 85.3521 48.1425 85.4218 47.929C85.4915 47.7112 85.5263 47.4673 85.5263 47.1972V43.0349H87.1533V50.1768H85.5263V49.0921H85.4152C85.3063 49.3447 85.1539 49.5647 84.9578 49.752C84.7618 49.935 84.5266 50.0766 84.2521 50.1768C83.9777 50.2726 83.6684 50.3205 83.3243 50.3205ZM91.6345 50.2094C90.8155 50.2094 90.2253 50.0591 89.8637 49.7586C89.5022 49.458 89.3214 48.9658 89.3214 48.2819V44.296H88.2106V43.0349H89.3214V41.2838H90.9745V43.0349H92.4774V44.296H90.9745V47.8963C90.9745 48.2492 91.0486 48.5084 91.1967 48.6739C91.3492 48.8351 91.5931 48.9157 91.9285 48.9157C92.0461 48.9157 92.142 48.9135 92.216 48.9091C92.2944 48.9004 92.3816 48.8917 92.4774 48.883V50.1376C92.3641 50.1593 92.2335 50.1768 92.0854 50.1898C91.9416 50.2029 91.7913 50.2094 91.6345 50.2094ZM96.8083 50.3205C96.0983 50.3205 95.4862 50.1724 94.9722 49.8762C94.4582 49.5756 94.0618 49.1487 93.783 48.5955C93.5086 48.0423 93.3713 47.3801 93.3713 46.6091V46.596C93.3713 45.8337 93.5107 45.176 93.7895 44.6227C94.0683 44.0652 94.4625 43.6383 94.9722 43.342C95.4862 43.0458 96.0983 42.8977 96.8083 42.8977C97.5183 42.8977 98.1282 43.0458 98.6379 43.342C99.1519 43.6383 99.5483 44.063 99.8271 44.6162C100.106 45.1694 100.245 45.8294 100.245 46.596V46.6091C100.245 47.3801 100.106 48.0423 99.8271 48.5955C99.5526 49.1487 99.1584 49.5756 98.6444 49.8762C98.1347 50.1724 97.5227 50.3205 96.8083 50.3205ZM96.8083 49.0006C97.1829 49.0006 97.5009 48.907 97.7623 48.7196C98.028 48.528 98.2306 48.2557 98.37 47.9029C98.5094 47.5457 98.5791 47.1166 98.5791 46.6156V46.6026C98.5791 46.0973 98.5094 45.6682 98.37 45.3154C98.2306 44.9582 98.028 44.6859 97.7623 44.4986C97.5009 44.3069 97.1829 44.2111 96.8083 44.2111C96.4337 44.2111 96.1135 44.3069 95.8478 44.4986C95.5821 44.6859 95.3795 44.9582 95.2401 45.3154C95.1007 45.6682 95.031 46.0973 95.031 46.6026V46.6156C95.031 47.1166 95.1007 47.5457 95.2401 47.9029C95.3795 48.2601 95.5799 48.5323 95.8413 48.7196C96.107 48.907 96.4293 49.0006 96.8083 49.0006ZM101.564 50.1768V43.0349H103.191V44.1457H103.302C103.454 43.7493 103.701 43.4422 104.04 43.2244C104.385 43.0066 104.792 42.8977 105.262 42.8977C105.585 42.8977 105.874 42.95 106.131 43.0545C106.393 43.1591 106.617 43.3072 106.804 43.4989C106.992 43.6905 107.135 43.9192 107.236 44.1849H107.353C107.471 43.9279 107.634 43.7036 107.843 43.5119C108.057 43.3159 108.305 43.1656 108.588 43.0611C108.876 42.9522 109.185 42.8977 109.516 42.8977C109.995 42.8977 110.405 42.9936 110.744 43.1852C111.089 43.3725 111.352 43.6426 111.535 43.9955C111.722 44.3483 111.816 44.7708 111.816 45.2631V50.1768H110.189V45.6617C110.189 45.348 110.141 45.0888 110.045 44.8841C109.954 44.6794 109.812 44.5247 109.621 44.4202C109.429 44.3156 109.187 44.2634 108.895 44.2634C108.612 44.2634 108.366 44.3287 108.157 44.4594C107.948 44.5857 107.784 44.7578 107.667 44.9756C107.554 45.1934 107.497 45.4395 107.497 45.7139V50.1768H105.87V45.5441C105.87 45.2783 105.818 45.0496 105.713 44.858C105.613 44.6663 105.465 44.5204 105.269 44.4202C105.077 44.3156 104.848 44.2634 104.583 44.2634C104.317 44.2634 104.077 44.3331 103.864 44.4725C103.655 44.6075 103.489 44.7948 103.367 45.0344C103.25 45.2696 103.191 45.5353 103.191 45.8316V50.1768H101.564ZM115.363 50.2944C114.914 50.2944 114.511 50.2073 114.154 50.033C113.801 49.8588 113.522 49.6126 113.318 49.2946C113.117 48.9723 113.017 48.5933 113.017 48.1577V48.1446C113.017 47.7221 113.122 47.3584 113.331 47.0534C113.54 46.7442 113.847 46.5024 114.252 46.3281C114.657 46.1539 115.149 46.0515 115.729 46.021L118.369 45.8577V46.9293L115.957 47.0861C115.5 47.1122 115.162 47.2081 114.945 47.3736C114.727 47.5391 114.618 47.77 114.618 48.0662V48.0793C114.618 48.3842 114.733 48.6216 114.964 48.7915C115.199 48.9614 115.498 49.0464 115.859 49.0464C116.186 49.0464 116.478 48.981 116.735 48.8503C116.992 48.7196 117.195 48.5432 117.343 48.3211C117.491 48.0945 117.565 47.8397 117.565 47.5566V45.2958C117.565 44.9386 117.452 44.6663 117.225 44.479C116.999 44.2873 116.663 44.1915 116.219 44.1915C115.849 44.1915 115.546 44.2568 115.311 44.3875C115.075 44.5138 114.916 44.6946 114.834 44.9298L114.827 44.956H113.291L113.298 44.8972C113.35 44.4964 113.507 44.1457 113.768 43.8452C114.03 43.5446 114.376 43.3116 114.807 43.146C115.239 42.9805 115.735 42.8977 116.297 42.8977C116.916 42.8977 117.438 42.9936 117.865 43.1852C118.292 43.3725 118.617 43.647 118.839 44.0085C119.061 44.3657 119.172 44.7948 119.172 45.2958V50.1768H117.565V49.1966H117.454C117.323 49.4232 117.153 49.6192 116.944 49.7847C116.739 49.9502 116.504 50.0766 116.238 50.1637C115.973 50.2508 115.681 50.2944 115.363 50.2944ZM123.621 50.2094C122.802 50.2094 122.212 50.0591 121.85 49.7586C121.488 49.458 121.308 48.9658 121.308 48.2819V44.296H120.197V43.0349H121.308V41.2838H122.961V43.0349H124.464V44.296H122.961V47.8963C122.961 48.2492 123.035 48.5084 123.183 48.6739C123.335 48.8351 123.579 48.9157 123.915 48.9157C124.032 48.9157 124.128 48.9135 124.202 48.9091C124.281 48.9004 124.368 48.8917 124.464 48.883V50.1376C124.35 50.1593 124.22 50.1768 124.072 50.1898C123.928 50.2029 123.778 50.2094 123.621 50.2094ZM125.795 50.1768V43.0349H127.416V50.1768H125.795ZM126.612 41.8392C126.346 41.8392 126.118 41.7455 125.926 41.5582C125.734 41.3709 125.639 41.1466 125.639 40.8852C125.639 40.6151 125.734 40.3886 125.926 40.2057C126.118 40.0183 126.346 39.9247 126.612 39.9247C126.878 39.9247 127.104 40.0183 127.292 40.2057C127.483 40.3886 127.579 40.6151 127.579 40.8852C127.579 41.1466 127.483 41.3709 127.292 41.5582C127.104 41.7455 126.878 41.8392 126.612 41.8392ZM132.171 50.3205C131.453 50.3205 130.839 50.1724 130.329 49.8762C129.819 49.58 129.429 49.1531 129.159 48.5955C128.889 48.0379 128.754 47.3714 128.754 46.596V46.583C128.754 45.812 128.889 45.152 129.159 44.6031C129.429 44.0543 129.819 43.6339 130.329 43.342C130.839 43.0458 131.451 42.8977 132.165 42.8977C132.779 42.8977 133.306 43.0044 133.746 43.2179C134.191 43.427 134.541 43.7188 134.798 44.0935C135.06 44.4637 135.221 44.8972 135.282 45.3938V45.4199H133.746L133.74 45.4003C133.666 45.0518 133.496 44.7665 133.23 44.5443C132.969 44.3222 132.616 44.2111 132.171 44.2111C131.801 44.2111 131.483 44.3047 131.217 44.4921C130.956 44.6794 130.756 44.9494 130.616 45.3023C130.477 45.6551 130.407 46.082 130.407 46.583V46.596C130.407 47.1014 130.477 47.5348 130.616 47.8963C130.76 48.2535 130.963 48.528 131.224 48.7196C131.485 48.907 131.801 49.0006 132.171 49.0006C132.594 49.0006 132.934 48.9048 133.191 48.7131C133.452 48.5214 133.633 48.2383 133.733 47.8637L133.746 47.8375L135.275 47.831L135.269 47.8898C135.19 48.3733 135.02 48.7981 134.759 49.164C134.502 49.5299 134.158 49.8152 133.727 50.0199C133.295 50.2203 132.777 50.3205 132.171 50.3205Z" fill="#44AD4D"/>
<path d="M72.0222 66.1768V58.9665H73.1415L77.0089 64.3879L76.1195 63.9332H76.7641V58.9665H78.0033V66.1768H76.889L73.0216 60.7503L73.911 61.205H73.2664V66.1768H72.0222ZM81.7008 66.2867C81.1578 66.2867 80.6898 66.1734 80.2967 65.9469C79.9036 65.7171 79.6005 65.3906 79.3873 64.9676C79.1774 64.5445 79.0725 64.0382 79.0725 63.4486V63.4386C79.0725 62.8556 79.1791 62.3526 79.3923 61.9296C79.6055 61.5032 79.9069 61.1767 80.2967 60.9502C80.6898 60.7237 81.1578 60.6104 81.7008 60.6104C82.2437 60.6104 82.7101 60.7237 83.0998 60.9502C83.4929 61.1767 83.796 61.5015 84.0092 61.9246C84.2224 62.3476 84.329 62.8523 84.329 63.4386V63.4486C84.329 64.0382 84.2224 64.5445 84.0092 64.9676C83.7994 65.3906 83.4979 65.7171 83.1048 65.9469C82.7151 66.1734 82.2471 66.2867 81.7008 66.2867ZM81.7008 65.2774C81.9872 65.2774 82.2304 65.2057 82.4303 65.0625C82.6335 64.9159 82.7884 64.7077 82.895 64.4379C83.0016 64.1648 83.0549 63.8366 83.0549 63.4536V63.4436C83.0549 63.0572 83.0016 62.729 82.895 62.4592C82.7884 62.1861 82.6335 61.9779 82.4303 61.8346C82.2304 61.6881 81.9872 61.6148 81.7008 61.6148C81.4143 61.6148 81.1694 61.6881 80.9662 61.8346C80.763 61.9779 80.6081 62.1861 80.5015 62.4592C80.3949 62.729 80.3416 63.0572 80.3416 63.4436V63.4536C80.3416 63.8366 80.3949 64.1648 80.5015 64.4379C80.6081 64.7111 80.7614 64.9193 80.9612 65.0625C81.1644 65.2057 81.4109 65.2774 81.7008 65.2774ZM85.2633 66.1768V60.7154H86.5075V61.5548H86.5924C86.6857 61.2617 86.8523 61.0335 87.0921 60.8703C87.3353 60.707 87.6368 60.6254 87.9965 60.6254C88.0898 60.6254 88.1814 60.6321 88.2713 60.6454C88.3646 60.6554 88.4412 60.6687 88.5012 60.6854V61.7997C88.4012 61.7763 88.2996 61.7597 88.1964 61.7497C88.0964 61.7364 87.9915 61.7297 87.8816 61.7297C87.6051 61.7297 87.3636 61.7813 87.1571 61.8846C86.9505 61.9879 86.7906 62.1361 86.6774 62.3293C86.5641 62.5192 86.5075 62.744 86.5075 63.0039V66.1768H85.2633ZM90.2899 66.1768L88.8059 60.7154H90.0551L90.9595 64.8227H91.0494L92.0987 60.7154H93.2829L94.3372 64.8227H94.4272L95.3316 60.7154H96.5658L95.0818 66.1768H93.7826L92.7183 62.2194H92.6334L91.5741 66.1768H90.2899ZM98.6643 66.2667C98.3212 66.2667 98.0131 66.2001 97.7399 66.0668C97.4701 65.9336 97.2569 65.7454 97.1003 65.5022C96.9471 65.2557 96.8705 64.9659 96.8705 64.6328V64.6228C96.8705 64.2997 96.9504 64.0215 97.1103 63.7883C97.2702 63.5518 97.5051 63.3669 97.8149 63.2337C98.1247 63.1005 98.5011 63.0222 98.9441 62.9989L100.963 62.8739V63.6934L99.119 63.8133C98.7692 63.8333 98.5111 63.9066 98.3445 64.0332C98.178 64.1598 98.0947 64.3363 98.0947 64.5628V64.5728C98.0947 64.806 98.183 64.9875 98.3595 65.1175C98.5394 65.2474 98.7676 65.3123 99.0441 65.3123C99.2939 65.3123 99.5171 65.2624 99.7136 65.1624C99.9102 65.0625 100.065 64.9276 100.178 64.7577C100.292 64.5845 100.348 64.3896 100.348 64.1731V62.4442C100.348 62.1711 100.262 61.9629 100.088 61.8196C99.9152 61.6731 99.6587 61.5998 99.3189 61.5998C99.0357 61.5998 98.8042 61.6497 98.6243 61.7497C98.4445 61.8463 98.3229 61.9845 98.2596 62.1644L98.2546 62.1844H97.0804L97.0854 62.1394C97.1253 61.833 97.2452 61.5648 97.4451 61.335C97.645 61.1051 97.9098 60.9269 98.2396 60.8003C98.5694 60.6737 98.9491 60.6104 99.3788 60.6104C99.8519 60.6104 100.252 60.6837 100.578 60.8303C100.904 60.9735 101.153 61.1834 101.323 61.4599C101.492 61.733 101.577 62.0611 101.577 62.4442V66.1768H100.348V65.4273H100.263C100.163 65.6005 100.033 65.7504 99.8735 65.877C99.7169 66.0035 99.5371 66.1001 99.3339 66.1668C99.1307 66.2334 98.9075 66.2667 98.6643 66.2667ZM103.171 68.0955C103.095 68.0955 103.015 68.0938 102.931 68.0905C102.851 68.0872 102.773 68.0822 102.697 68.0755V67.1211C102.747 67.1278 102.805 67.1311 102.871 67.1311C102.938 67.1345 103.003 67.1361 103.066 67.1361C103.323 67.1361 103.528 67.0795 103.681 66.9662C103.837 66.8563 103.949 66.6781 104.016 66.4316L104.081 66.1818L102.127 60.7154H103.486L104.925 65.5522L104.585 64.9825H105.015L104.685 65.5522L106.124 60.7154H107.433L105.475 66.2967C105.318 66.7497 105.138 67.1078 104.935 67.371C104.732 67.6341 104.487 67.8207 104.201 67.9306C103.917 68.0405 103.574 68.0955 103.171 68.0955ZM107.293 68.0805L107.728 65.0775H109.007L108.143 68.0805H107.293ZM115.558 66.3566C114.998 66.3566 114.512 66.27 114.099 66.0968C113.689 65.9236 113.366 65.6821 113.129 65.3723C112.893 65.0625 112.76 64.7011 112.73 64.288L112.725 64.2181H113.974L113.979 64.268C113.999 64.4712 114.079 64.6478 114.219 64.7977C114.362 64.9476 114.552 65.0658 114.788 65.1524C115.025 65.2357 115.295 65.2774 115.598 65.2774C115.888 65.2774 116.144 65.2324 116.367 65.1424C116.59 65.0525 116.765 64.9292 116.892 64.7727C117.019 64.6128 117.082 64.4296 117.082 64.223V64.2181C117.082 63.9582 116.98 63.7467 116.777 63.5835C116.574 63.4169 116.239 63.2837 115.773 63.1837L114.998 63.0238C114.259 62.8673 113.721 62.6174 113.384 62.2743C113.051 61.9279 112.885 61.4865 112.885 60.9502V60.9452C112.885 60.5155 112.998 60.1391 113.224 59.816C113.454 59.4928 113.769 59.2413 114.169 59.0615C114.572 58.8782 115.033 58.7866 115.553 58.7866C116.086 58.7866 116.547 58.8766 116.937 59.0565C117.327 59.233 117.633 59.4745 117.856 59.781C118.08 60.0874 118.204 60.4339 118.231 60.8203L118.236 60.8853H117.007L116.997 60.8253C116.967 60.6354 116.889 60.4705 116.762 60.3306C116.639 60.1874 116.474 60.0741 116.267 59.9908C116.061 59.9076 115.819 59.8659 115.543 59.8659C115.28 59.8659 115.045 59.9076 114.838 59.9908C114.632 60.0708 114.469 60.1841 114.349 60.3306C114.232 60.4772 114.174 60.6537 114.174 60.8603V60.8653C114.174 61.1184 114.272 61.3283 114.469 61.4949C114.668 61.6614 114.993 61.7913 115.443 61.8846L116.217 62.0495C116.724 62.1561 117.135 62.2977 117.452 62.4742C117.768 62.6508 118 62.8706 118.146 63.1338C118.296 63.3936 118.371 63.7067 118.371 64.0731V64.0781C118.371 64.5445 118.256 64.9476 118.026 65.2873C117.8 65.6271 117.475 65.8903 117.052 66.0768C116.632 66.2634 116.134 66.3566 115.558 66.3566ZM121.524 66.2017C120.898 66.2017 120.446 66.0868 120.17 65.857C119.893 65.6271 119.755 65.2507 119.755 64.7277V61.6797H118.906V60.7154H119.755V59.3763H121.019V60.7154H122.168V61.6797H121.019V64.4329C121.019 64.7027 121.076 64.9009 121.189 65.0275C121.306 65.1508 121.492 65.2124 121.749 65.2124C121.839 65.2124 121.912 65.2107 121.969 65.2074C122.028 65.2007 122.095 65.1941 122.168 65.1874V66.1468C122.082 66.1634 121.982 66.1768 121.869 66.1868C121.759 66.1967 121.644 66.2017 121.524 66.2017ZM124.587 66.2667C124.244 66.2667 123.935 66.2001 123.662 66.0668C123.393 65.9336 123.179 65.7454 123.023 65.5022C122.87 65.2557 122.793 64.9659 122.793 64.6328V64.6228C122.793 64.2997 122.873 64.0215 123.033 63.7883C123.193 63.5518 123.427 63.3669 123.737 63.2337C124.047 63.1005 124.423 63.0222 124.867 62.9989L126.885 62.8739V63.6934L125.041 63.8133C124.692 63.8333 124.433 63.9066 124.267 64.0332C124.1 64.1598 124.017 64.3363 124.017 64.5628V64.5728C124.017 64.806 124.105 64.9875 124.282 65.1175C124.462 65.2474 124.69 65.3123 124.966 65.3123C125.216 65.3123 125.439 65.2624 125.636 65.1624C125.833 65.0625 125.987 64.9276 126.101 64.7577C126.214 64.5845 126.271 64.3896 126.271 64.1731V62.4442C126.271 62.1711 126.184 61.9629 126.011 61.8196C125.838 61.6731 125.581 61.5998 125.241 61.5998C124.958 61.5998 124.727 61.6497 124.547 61.7497C124.367 61.8463 124.245 61.9845 124.182 62.1644L124.177 62.1844H123.003L123.008 62.1394C123.048 61.833 123.168 61.5648 123.368 61.335C123.567 61.1051 123.832 60.9269 124.162 60.8003C124.492 60.6737 124.872 60.6104 125.301 60.6104C125.774 60.6104 126.174 60.6837 126.5 60.8303C126.827 60.9735 127.075 61.1834 127.245 61.4599C127.415 61.733 127.5 62.0611 127.5 62.4442V66.1768H126.271V65.4273H126.186C126.086 65.6005 125.956 65.7504 125.796 65.877C125.639 66.0035 125.459 66.1001 125.256 66.1668C125.053 66.2334 124.83 66.2667 124.587 66.2667ZM129.978 66.1768L128.034 60.7154H129.363L130.623 64.9626H130.713L131.967 60.7154H133.276L131.337 66.1768H129.978ZM135.319 66.2667C134.976 66.2667 134.668 66.2001 134.395 66.0668C134.125 65.9336 133.912 65.7454 133.756 65.5022C133.602 65.2557 133.526 64.9659 133.526 64.6328V64.6228C133.526 64.2997 133.606 64.0215 133.765 63.7883C133.925 63.5518 134.16 63.3669 134.47 63.2337C134.78 63.1005 135.156 63.0222 135.599 62.9989L137.618 62.8739V63.6934L135.774 63.8133C135.424 63.8333 135.166 63.9066 135 64.0332C134.833 64.1598 134.75 64.3363 134.75 64.5628V64.5728C134.75 64.806 134.838 64.9875 135.015 65.1175C135.195 65.2474 135.423 65.3123 135.699 65.3123C135.949 65.3123 136.172 65.2624 136.369 65.1624C136.565 65.0625 136.72 64.9276 136.833 64.7577C136.947 64.5845 137.003 64.3896 137.003 64.1731V62.4442C137.003 62.1711 136.917 61.9629 136.744 61.8196C136.57 61.6731 136.314 61.5998 135.974 61.5998C135.691 61.5998 135.459 61.6497 135.279 61.7497C135.1 61.8463 134.978 61.9845 134.915 62.1644L134.91 62.1844H133.736L133.741 62.1394C133.78 61.833 133.9 61.5648 134.1 61.335C134.3 61.1051 134.565 60.9269 134.895 60.8003C135.225 60.6737 135.604 60.6104 136.034 60.6104C136.507 60.6104 136.907 60.6837 137.233 60.8303C137.56 60.9735 137.808 61.1834 137.978 61.4599C138.148 61.733 138.233 62.0611 138.233 62.4442V66.1768H137.003V65.4273H136.918C136.818 65.6005 136.689 65.7504 136.529 65.877C136.372 66.0035 136.192 66.1001 135.989 66.1668C135.786 66.2334 135.563 66.2667 135.319 66.2667ZM139.412 66.1768V60.7154H140.656V61.5548H140.741C140.871 61.2583 141.067 61.0268 141.33 60.8603C141.594 60.6937 141.922 60.6104 142.315 60.6104C142.924 60.6104 143.391 60.787 143.714 61.1401C144.037 61.4932 144.199 61.9945 144.199 62.6441V66.1768H142.954V62.9339C142.954 62.5075 142.864 62.1877 142.685 61.9745C142.508 61.7613 142.231 61.6547 141.855 61.6547C141.609 61.6547 141.395 61.7097 141.215 61.8196C141.036 61.9296 140.897 62.0845 140.801 62.2843C140.704 62.4842 140.656 62.7207 140.656 62.9939V66.1768H139.412ZM147.701 68.0955C147.221 68.0955 146.807 68.0322 146.457 67.9056C146.111 67.779 145.837 67.5992 145.638 67.366C145.438 67.1361 145.316 66.868 145.273 66.5615L145.278 66.5465H146.517L146.527 66.5615C146.567 66.7347 146.688 66.8763 146.892 66.9862C147.098 67.0995 147.375 67.1561 147.721 67.1561C148.148 67.1561 148.477 67.0612 148.71 66.8713C148.947 66.6814 149.065 66.4116 149.065 66.0618V65.0125H148.98C148.877 65.2091 148.742 65.3756 148.576 65.5122C148.412 65.6488 148.224 65.752 148.011 65.822C147.801 65.8886 147.57 65.9219 147.316 65.9219C146.857 65.9219 146.459 65.812 146.122 65.5921C145.786 65.369 145.526 65.0608 145.343 64.6678C145.163 64.2747 145.073 63.82 145.073 63.3037V63.2937C145.073 62.7673 145.164 62.3043 145.348 61.9046C145.531 61.5048 145.791 61.1917 146.127 60.9652C146.467 60.7387 146.872 60.6254 147.341 60.6254C147.595 60.6254 147.826 60.6654 148.036 60.7453C148.249 60.8253 148.436 60.9386 148.596 61.0851C148.759 61.2317 148.892 61.4082 148.995 61.6148H149.06V60.7154H150.304V66.0418C150.304 66.4616 150.198 66.8247 149.985 67.1311C149.775 67.4409 149.475 67.6791 149.085 67.8457C148.695 68.0122 148.234 68.0955 147.701 68.0955ZM147.701 64.9326C147.988 64.9326 148.234 64.8643 148.441 64.7277C148.647 64.5878 148.805 64.3963 148.915 64.1531C149.029 63.9099 149.085 63.6268 149.085 63.3037V63.2937C149.085 62.9705 149.029 62.6874 148.915 62.4442C148.805 62.1977 148.647 62.0062 148.441 61.8696C148.234 61.7297 147.988 61.6597 147.701 61.6597C147.411 61.6597 147.165 61.7297 146.962 61.8696C146.762 62.0062 146.609 62.1977 146.502 62.4442C146.399 62.6874 146.347 62.9705 146.347 63.2937V63.3037C146.347 63.6234 146.399 63.9066 146.502 64.1531C146.609 64.3963 146.762 64.5878 146.962 64.7277C147.165 64.8643 147.411 64.9326 147.701 64.9326ZM153.852 66.2867C153.309 66.2867 152.843 66.1718 152.453 65.9419C152.067 65.7121 151.768 65.3856 151.559 64.9626C151.349 64.5395 151.244 64.0382 151.244 63.4586V63.4536C151.244 62.8806 151.347 62.3809 151.554 61.9545C151.763 61.5282 152.06 61.1984 152.443 60.9652C152.826 60.7287 153.276 60.6104 153.792 60.6104C154.312 60.6104 154.758 60.7254 155.131 60.9552C155.508 61.1817 155.797 61.4998 156.001 61.9096C156.204 62.3193 156.305 62.799 156.305 63.3486V63.7584H151.868V62.9239H155.696L155.106 63.7034V63.2087C155.106 62.8456 155.051 62.5442 154.941 62.3043C154.831 62.0645 154.678 61.8846 154.482 61.7647C154.288 61.6448 154.064 61.5848 153.807 61.5848C153.551 61.5848 153.322 61.6481 153.122 61.7747C152.926 61.8979 152.769 62.0811 152.653 62.3243C152.54 62.5641 152.483 62.859 152.483 63.2087V63.7084C152.483 64.0448 152.54 64.333 152.653 64.5728C152.766 64.8093 152.926 64.9925 153.132 65.1225C153.342 65.249 153.591 65.3123 153.877 65.3123C154.1 65.3123 154.292 65.2807 154.452 65.2174C154.615 65.1508 154.746 65.0725 154.846 64.9825C154.946 64.8893 155.016 64.801 155.056 64.7177L155.071 64.6827H156.25L156.24 64.7277C156.197 64.9043 156.117 65.0841 156.001 65.2674C155.887 65.4472 155.732 65.6155 155.536 65.772C155.343 65.9253 155.106 66.0502 154.826 66.1468C154.547 66.24 154.222 66.2867 153.852 66.2867ZM157.235 66.1768V60.7154H158.479V61.5548H158.564C158.657 61.2617 158.824 61.0335 159.063 60.8703C159.307 60.707 159.608 60.6254 159.968 60.6254C160.061 60.6254 160.153 60.6321 160.243 60.6454C160.336 60.6554 160.413 60.6687 160.473 60.6854V61.7997C160.373 61.7763 160.271 61.7597 160.168 61.7497C160.068 61.7364 159.963 61.7297 159.853 61.7297C159.576 61.7297 159.335 61.7813 159.128 61.8846C158.922 61.9879 158.762 62.1361 158.649 62.3293C158.535 62.5192 158.479 62.744 158.479 63.0039V66.1768H157.235Z" fill="white" fill-opacity="0.6"/>
<mask id="mask0_7537_48973" style="mask-type:alpha" maskUnits="userSpaceOnUse" x="49" y="44" width="19" height="20">
<rect x="49.0938" y="44.2305" width="18.8921" height="18.8921" fill="white"/>
</mask>
<g mask="url(#mask0_7537_48973)">
<path fill-rule="evenodd" clip-rule="evenodd" d="M64.2128 49.1842C64.5202 49.4916 64.5202 49.99 64.2128 50.2974L57.1283 57.3819C56.8335 57.6767 56.3602 57.6906 56.0487 57.4137L52.5064 54.265C52.1815 53.9762 52.1522 53.4786 52.441 53.1537C52.7299 52.8287 53.2274 52.7995 53.5523 53.0883L56.5399 55.7439L63.0996 49.1842C63.407 48.8768 63.9054 48.8768 64.2128 49.1842Z" fill="#44AD4D"/>
</g>
</g>
<rect width="44.0816" height="44.0816" transform="translate(262.418 31.6357)" fill="#294D73"/>
<mask id="mask1_7537_48973" style="mask-type:alpha" maskUnits="userSpaceOnUse" x="275" y="44" width="19" height="20">
<path d="M293.904 44.2305H275.012V63.1226H293.904V44.2305Z" fill="white"/>
</mask>
<g mask="url(#mask1_7537_48973)">
<path d="M292.329 53.6764C292.329 58.0135 288.803 61.5481 284.458 61.5481C280.12 61.5481 276.586 58.0135 276.586 53.6764C276.586 49.3315 280.12 45.8047 284.458 45.8047C288.803 45.8047 292.329 49.3315 292.329 53.6764ZM283.2 52.2487C282.876 52.2487 282.621 52.5034 282.621 52.8121C282.621 53.1439 282.876 53.3831 283.2 53.3831H284.049V57.0103H283.069C282.737 57.0103 282.482 57.265 282.482 57.5737C282.482 57.9055 282.737 58.1447 283.069 58.1447H286.302C286.634 58.1447 286.889 57.9055 286.889 57.5737C286.889 57.265 286.634 57.0103 286.302 57.0103H285.322V52.9741C285.322 52.5419 285.106 52.2487 284.697 52.2487H283.2ZM283.346 49.8872C283.346 50.4737 283.809 50.9367 284.388 50.9367C284.967 50.9367 285.422 50.4737 285.422 49.8872C285.422 49.3007 284.967 48.8376 284.388 48.8376C283.809 48.8376 283.346 49.3007 283.346 49.8872Z" fill="white"/>
</g>
</g>
</g>
<g clip-path="url(#clip4_7537_48973)">
<g clip-path="url(#clip5_7537_48973)">
<g clip-path="url(#clip6_7537_48973)">
<rect width="224.344" height="44.0816" transform="translate(36.5 78.7173)" fill="#294D73"/>
<path d="M49.5577 104.758L52.9032 95.3295H54.3015V97.0807H53.7983L51.3219 104.758H49.5577ZM51.2435 102.321L51.6813 101.021H56.0069L56.4447 102.321H51.2435ZM56.3859 104.758L53.9094 97.0807V95.3295H54.7981L58.1501 104.758H56.3859ZM59.3511 104.758V94.8525H60.9781V104.758H59.3511ZM66.6812 104.876C66.3458 104.876 66.0387 104.828 65.7599 104.732C65.4811 104.632 65.235 104.49 65.0215 104.307C64.8124 104.12 64.6426 103.898 64.5119 103.641H64.4008V104.758H62.7738V94.8525H64.4008V98.7534H64.5119C64.6382 98.4964 64.8081 98.2743 65.0215 98.0869C65.235 97.8996 65.4833 97.7559 65.7664 97.6557C66.0496 97.5511 66.3545 97.4989 66.6812 97.4989C67.2823 97.4989 67.8007 97.6492 68.2363 97.9497C68.6763 98.2459 69.0161 98.6707 69.2557 99.2239C69.4952 99.7727 69.615 100.426 69.615 101.184V101.197C69.615 101.946 69.4931 102.598 69.2491 103.151C69.0095 103.704 68.6698 104.131 68.2298 104.432C67.7942 104.728 67.278 104.876 66.6812 104.876ZM66.1715 103.504C66.5418 103.504 66.8598 103.412 67.1255 103.229C67.3912 103.042 67.596 102.776 67.7397 102.432C67.8835 102.088 67.9554 101.676 67.9554 101.197V101.184C67.9554 100.705 67.8835 100.293 67.7397 99.9492C67.596 99.6007 67.3912 99.335 67.1255 99.152C66.8598 98.9647 66.5418 98.871 66.1715 98.871C65.8056 98.871 65.4876 98.9647 65.2176 99.152C64.9475 99.3393 64.7384 99.605 64.5903 99.9492C64.4465 100.293 64.3747 100.705 64.3747 101.184V101.197C64.3747 101.672 64.4465 102.084 64.5903 102.432C64.7384 102.776 64.9453 103.042 65.211 103.229C65.4811 103.412 65.8013 103.504 66.1715 103.504ZM72.8743 104.876C72.4257 104.876 72.0227 104.789 71.6655 104.615C71.3127 104.44 71.0339 104.194 70.8292 103.876C70.6288 103.554 70.5286 103.175 70.5286 102.739V102.726C70.5286 102.304 70.6331 101.94 70.8422 101.635C71.0513 101.326 71.3584 101.084 71.7635 100.91C72.1687 100.735 72.6609 100.633 73.2403 100.603L75.88 100.439V101.511L73.4689 101.668C73.0116 101.694 72.674 101.79 72.4562 101.955C72.2384 102.121 72.1294 102.352 72.1294 102.648V102.661C72.1294 102.966 72.2449 103.203 72.4758 103.373C72.711 103.543 73.0094 103.628 73.3709 103.628C73.6976 103.628 73.9895 103.563 74.2465 103.432C74.5035 103.301 74.7061 103.125 74.8542 102.903C75.0023 102.676 75.0763 102.421 75.0763 102.138V99.8773C75.0763 99.5201 74.9631 99.2478 74.7366 99.0605C74.5101 98.8689 74.1746 98.773 73.7303 98.773C73.36 98.773 73.0573 98.8384 72.8221 98.969C72.5868 99.0954 72.4278 99.2762 72.3451 99.5114L72.3385 99.5375H70.803L70.8096 99.4787C70.8618 99.078 71.0186 98.7273 71.28 98.4267C71.5414 98.1261 71.8877 97.8931 72.3189 97.7276C72.7502 97.562 73.2468 97.4793 73.8087 97.4793C74.4273 97.4793 74.95 97.5751 75.3769 97.7668C75.8038 97.9541 76.1283 98.2285 76.3505 98.5901C76.5727 98.9473 76.6837 99.3763 76.6837 99.8773V104.758H75.0763V103.778H74.9653C74.8346 104.005 74.6647 104.201 74.4556 104.366C74.2509 104.532 74.0156 104.658 73.7499 104.745C73.4842 104.832 73.1923 104.876 72.8743 104.876ZM78.3226 104.758V97.6165H79.9496V98.7142H80.0607C80.2306 98.3265 80.4876 98.0238 80.8317 97.806C81.1758 97.5882 81.6049 97.4793 82.1189 97.4793C82.9161 97.4793 83.5259 97.7101 83.9485 98.1719C84.371 98.6336 84.5823 99.2892 84.5823 100.139V104.758H82.9553V100.518C82.9553 99.9601 82.8377 99.5419 82.6025 99.2631C82.3716 98.9843 82.01 98.8449 81.5178 98.8449C81.1954 98.8449 80.9166 98.9168 80.6814 99.0605C80.4462 99.2043 80.2654 99.4068 80.1391 99.6682C80.0128 99.9296 79.9496 100.239 79.9496 100.596V104.758H78.3226ZM86.2081 104.758V97.6165H87.8285V104.758H86.2081ZM87.0248 96.4207C86.7591 96.4207 86.5304 96.3271 86.3387 96.1398C86.1471 95.9525 86.0512 95.7281 86.0512 95.4667C86.0512 95.1967 86.1471 94.9702 86.3387 94.7872C86.5304 94.5999 86.7591 94.5062 87.0248 94.5062C87.2906 94.5062 87.5171 94.5999 87.7044 94.7872C87.8961 94.9702 87.9919 95.1967 87.9919 95.4667C87.9919 95.7281 87.8961 95.9525 87.7044 96.1398C87.5171 96.3271 87.2906 96.4207 87.0248 96.4207ZM91.4668 104.876C91.0181 104.876 90.6152 104.789 90.258 104.615C89.9052 104.44 89.6264 104.194 89.4216 103.876C89.2213 103.554 89.1211 103.175 89.1211 102.739V102.726C89.1211 102.304 89.2256 101.94 89.4347 101.635C89.6438 101.326 89.9509 101.084 90.356 100.91C90.7611 100.735 91.2534 100.633 91.8327 100.603L94.4725 100.439V101.511L92.0614 101.668C91.604 101.694 91.2664 101.79 91.0486 101.955C90.8308 102.121 90.7219 102.352 90.7219 102.648V102.661C90.7219 102.966 90.8374 103.203 91.0682 103.373C91.3035 103.543 91.6019 103.628 91.9634 103.628C92.2901 103.628 92.582 103.563 92.839 103.432C93.096 103.301 93.2986 103.125 93.4467 102.903C93.5948 102.676 93.6688 102.421 93.6688 102.138V99.8773C93.6688 99.5201 93.5556 99.2478 93.3291 99.0605C93.1025 98.8689 92.7671 98.773 92.3228 98.773C91.9525 98.773 91.6498 98.8384 91.4146 98.969C91.1793 99.0954 91.0203 99.2762 90.9376 99.5114L90.931 99.5375H89.3955L89.402 99.4787C89.4543 99.078 89.6111 98.7273 89.8725 98.4267C90.1339 98.1261 90.4802 97.8931 90.9114 97.7276C91.3427 97.562 91.8393 97.4793 92.4012 97.4793C93.0198 97.4793 93.5425 97.5751 93.9694 97.7668C94.3963 97.9541 94.7208 98.2285 94.943 98.5901C95.1651 98.9473 95.2762 99.3763 95.2762 99.8773V104.758H93.6688V103.778H93.5577C93.4271 104.005 93.2572 104.201 93.0481 104.366C92.8433 104.532 92.6081 104.658 92.3424 104.745C92.0767 104.832 91.7848 104.876 91.4668 104.876Z" fill="white"/>
</g>
<rect width="44.0816" height="44.0816" transform="translate(262.418 78.7173)" fill="#294D73"/>
<mask id="mask2_7537_48973" style="mask-type:alpha" maskUnits="userSpaceOnUse" x="275" y="91" width="19" height="20">
<rect x="275.012" y="91.312" width="18.8921" height="18.8921" fill="white"/>
</mask>
<g mask="url(#mask2_7537_48973)">
<path fill-rule="evenodd" clip-rule="evenodd" d="M288.164 98.627C287.857 98.3196 287.358 98.3196 287.051 98.627L284.459 101.219L281.867 98.627C281.559 98.3196 281.061 98.3196 280.753 98.627C280.446 98.9345 280.446 99.4329 280.753 99.7403L283.902 102.889C284.209 103.196 284.708 103.196 285.015 102.889L288.164 99.7403C288.471 99.4329 288.471 98.9345 288.164 98.627Z" fill="white"/>
</g>
</g>
</g>
<path d="M172 -314C375.241 -314 540 -149.241 540 54C540 257.241 375.241 422 172 422C-31.2408 422 -196 257.241 -196 54C-196 -149.241 -31.2408 -314 172 -314ZM53 26C37.536 26 25 38.536 25 54C25 69.464 37.536 82 53 82H291C306.464 82 319 69.464 319 54C319 38.536 306.464 26 291 26H53Z" fill="black" fill-opacity="0.4"/>
</g>
<path d="M12 1H331C337.075 1 342 5.92487 342 12V96C342 102.075 337.075 107 331 107H12C5.92487 107 1 102.075 1 96V12C1 5.92487 5.92487 1 12 1Z" stroke="#304358" stroke-width="2"/>
<defs>
<clipPath id="clip0_7537_48973">
<path d="M0 12C0 5.37258 5.37258 0 12 0H331C337.627 0 343 5.37258 343 12V96C343 102.627 337.627 108 331 108H12C5.37258 108 0 102.627 0 96V12Z" fill="white"/>
</clipPath>
<clipPath id="clip1_7537_48973">
<rect width="270" height="44.0816" fill="white" transform="translate(36.5 31.6357)"/>
</clipPath>
<clipPath id="clip2_7537_48973">
<path d="M36.5 44.2305C36.5 37.2746 42.1389 31.6357 49.0948 31.6357H293.905C300.861 31.6357 306.5 37.2746 306.5 44.2305V63.1226C306.5 70.0785 300.861 75.7174 293.905 75.7174H49.0947C42.1389 75.7174 36.5 70.0785 36.5 63.1226V44.2305Z" fill="white"/>
</clipPath>
<clipPath id="clip3_7537_48973">
<rect width="224.344" height="44.0816" fill="white" transform="translate(36.5 31.6357)"/>
</clipPath>
<clipPath id="clip4_7537_48973">
<rect width="270" height="44.0816" fill="white" transform="translate(36.5 78.7173)"/>
</clipPath>
<clipPath id="clip5_7537_48973">
<path d="M36.5 91.312C36.5 84.3561 42.1389 78.7173 49.0948 78.7173H293.905C300.861 78.7173 306.5 84.3561 306.5 91.312V110.204C306.5 117.16 300.861 122.799 293.905 122.799H49.0947C42.1389 122.799 36.5 117.16 36.5 110.204V91.312Z" fill="white"/>
</clipPath>
<clipPath id="clip6_7537_48973">
<rect width="224.344" height="44.0816" fill="white" transform="translate(36.5 78.7173)"/>
</clipPath>
</defs>
</svg>
