<svg xmlns="http://www.w3.org/2000/svg" width="48" height="48" viewBox="0 0 48 48" fill="none">
  <mask id="mask0_146_119" style="mask-type:alpha" maskUnits="userSpaceOnUse" x="0" y="0" width="48" height="48">
    <path d="M48 0H0V48H48V0Z" fill="#D9D9D9"/>
  </mask>
  <g mask="url(#mask0_146_119)">
    <path fill-rule="evenodd" clip-rule="evenodd" d="M44 24C44 35.0457 35.0457 44 24 44C12.9543 44 4 35.0457 4 24C4 12.9543 12.9543 4 24 4C35.0457 4 44 12.9543 44 24ZM16.5858 16.5858C17.3668 15.8047 18.6332 15.8047 19.4142 16.5858L24 21.1716L28.5858 16.5858C29.3668 15.8047 30.6332 15.8047 31.4142 16.5858C32.1953 17.3668 32.1953 18.6332 31.4142 19.4142L26.8284 24L31.4142 28.5858C32.1953 29.3668 32.1953 30.6332 31.4142 31.4142C30.6332 32.1953 29.3668 32.1953 28.5858 31.4142L24 26.8284L19.4142 31.4142C18.6332 32.1953 17.3668 32.1953 16.5858 31.4142C15.8047 30.6332 15.8047 29.3668 16.5858 28.5858L21.1716 24L16.5858 19.4142C15.8047 18.6332 15.8047 17.3668 16.5858 16.5858Z" fill="white"/>
  </g>
</svg>