<svg xmlns="http://www.w3.org/2000/svg" width="24" height="24" viewBox="0 0 24 24" fill="none">
  <mask id="mask0_519_2680" style="mask-type:alpha" maskUnits="userSpaceOnUse" x="0" y="0" width="24" height="24">
    <rect width="24" height="24" fill="#D9D9D9"/>
  </mask>
  <g mask="url(#mask0_519_2680)">
    <path fill-rule="evenodd" clip-rule="evenodd" d="M7 10C7 7.79086 8.79086 6 11 6C13.2091 6 15 7.79086 15 10C15 11.2998 14.38 12.4548 13.4196 13.1855C13.4066 13.1947 13.3938 13.2044 13.3812 13.2143C12.7159 13.708 11.8921 14 11 14C8.79086 14 7 12.2091 7 10ZM13.861 15.2752C13.0106 15.7374 12.036 16 11 16C7.68629 16 5 13.3137 5 10C5 6.68629 7.68629 4 11 4C14.3137 4 17 6.68629 17 10C17 11.5515 16.4111 12.9654 15.4447 14.0305L19.7071 18.2929C20.0976 18.6834 20.0976 19.3166 19.7071 19.7071C19.3166 20.0976 18.6834 20.0976 18.2929 19.7071L13.861 15.2752Z" fill="white"/>
  </g>
</svg>