<svg xmlns="http://www.w3.org/2000/svg" width="24" height="24" viewBox="0 0 24 24" fill="none">
  <mask id="mask0_519_2660" style="mask-type:alpha" maskUnits="userSpaceOnUse" x="0" y="0" width="24" height="24">
    <rect width="24" height="24" fill="#D9D9D9"/>
  </mask>
  <g mask="url(#mask0_519_2660)">
    <path fill-rule="evenodd" clip-rule="evenodd" d="M12 22C17.5228 22 22 17.5228 22 12C22 6.47715 17.5228 2 12 2C6.47715 2 2 6.47715 2 12C2 17.5228 6.47715 22 12 22ZM11.9949 11.8129C11.3452 11.8137 10.6978 11.8946 10.0669 12.0536C9.37813 12.2327 8.70677 12.4753 8.06039 12.7785C7.75379 12.9252 7.49057 13.1529 7.29734 13.4384C7.09459 13.7466 6.99107 14.1123 7.0006 14.4843V15.0316C6.99962 15.159 7.02328 15.2853 7.07027 15.4032C7.11726 15.5211 7.18627 15.6283 7.27368 15.7184C7.36109 15.8085 7.46526 15.8798 7.57962 15.9282C7.65126 15.9584 7.72618 15.9793 7.80242 15.9905C7.8481 15.9971 7.89411 16.0003 7.94011 16H16.0602C16.1837 16.0007 16.3063 15.9762 16.4207 15.9277C16.535 15.8793 16.6389 15.808 16.7263 15.718C16.7674 15.6757 16.8045 15.6297 16.837 15.5805C16.8738 15.5251 16.9047 15.4655 16.9297 15.4031C16.9767 15.2852 17.0007 15.1589 16.9997 15.0316V14.4843C17.0066 14.1111 16.8991 13.7452 16.6924 13.4384C16.4953 13.1494 16.2255 12.9213 15.912 12.7785C15.2653 12.4856 14.5969 12.2459 13.9133 12.0619C13.2863 11.8972 12.6419 11.8136 11.9949 11.8129ZM11.9949 6.00227C11.6837 5.98804 11.3728 6.0408 11.0823 6.15707C10.7918 6.27342 10.528 6.45083 10.3078 6.67795C10.0876 6.90515 9.91541 7.17706 9.8027 7.4765C9.68999 7.77593 9.63872 8.09628 9.65285 8.41714C9.63905 8.73792 9.69031 9.05818 9.80303 9.35745C9.91607 9.6568 10.0879 9.92854 10.3081 10.1557C10.5286 10.3827 10.7922 10.56 11.0827 10.6764C11.3728 10.7926 11.6837 10.8455 11.9949 10.8313C12.3061 10.8452 12.6166 10.7923 12.9068 10.6759C13.197 10.5595 13.4608 10.3822 13.681 10.1552C13.9012 9.92812 14.0734 9.65646 14.1861 9.35719C14.2991 9.05801 14.3504 8.73792 14.3369 8.41714C14.3507 8.09637 14.2995 7.7761 14.1867 7.47683C14.0737 7.17757 13.9018 6.90574 13.6813 6.67862C13.4612 6.45159 13.1973 6.27427 12.9071 6.15792C12.6166 6.04165 12.3061 5.98813 11.9949 6.00227Z" fill="white"/>
  </g>
</svg>