<svg xmlns="http://www.w3.org/2000/svg" width="24" height="24" viewBox="0 0 24 24" fill="none">
  <mask id="mask0_125_2190" style="mask-type:alpha" maskUnits="userSpaceOnUse" x="0" y="0" width="24" height="24">
    <path d="M24 0H0V24H24V0Z" fill="#D9D9D9"/>
  </mask>
  <g mask="url(#mask0_125_2190)">
    <path fill-rule="evenodd" clip-rule="evenodd" d="M12 22C17.5228 22 22 17.5228 22 12C22 6.47715 17.5228 2 12 2C6.47715 2 2 6.47715 2 12C2 17.5228 6.47715 22 12 22ZM7.29289 12.7929L11.2929 8.79289C11.6834 8.40237 12.3166 8.40237 12.7071 8.79289L16.7071 12.7929C17.0976 13.1834 17.0976 13.8166 16.7071 14.2071C16.3166 14.5976 15.6834 14.5976 15.2929 14.2071L12 10.9142L8.70711 14.2071C8.31658 14.5976 7.68342 14.5976 7.29289 14.2071C6.90237 13.8166 6.90237 13.1834 7.29289 12.7929Z" fill="white"/>
  </g>
</svg>