<svg xmlns="http://www.w3.org/2000/svg" width="16" height="16" viewBox="0 0 16 16">
    <g fill="#44AD4D" fill-rule="evenodd" transform="translate(2 0)">
        <path d="M11,7 C11.5522847,7 12,7.44771525 12,8 L12,15 C12,15.5522847 11.5522847,16 11,16 L1,16 C0.44771525,16 6.76353751e-17,15.5522847 0,15 L0,8 C-6.76353751e-17,7.44771525 0.44771525,7 1,7 L11,7 Z M6,8.57952401 C4.38706565,8.57952401 3.07952401,9.88706565 3.07952401,11.5 C3.07952401,13.1129344 4.38706565,14.420476 6,14.420476 C7.61293435,14.420476 8.92047599,13.1129344 8.92047599,11.5 C8.92047599,9.88706565 7.61293435,8.57952401 6,8.57952401 Z"/>
        <path d="M7.999991,7.01 C7.999991,7.556 8.444,8 8.999991,8 C9.552,8 9.999991,7.547 9.999991,7.003 L9.999991,0.997 C9.999991,0.447 9.547,0 9.003,0 L2.997,0 C2.447,0 1.999991,0.453 1.999991,0.997 L1.999991,7.003 C1.9989282,7.36026559 2.18853675,7.69096441 2.49740192,7.8705254 C2.8062671,8.0500864 3.18746495,8.05123 3.49740192,7.8735254 C3.8073389,7.69582081 3.9989282,7.36626559 3.999991,7.009 L3.999991,2 L7.999991,2 L7.999991,7.01 Z"/>
    </g>
</svg>
