<svg width="24" height="24" viewBox="0 0 24 24" fill="none" xmlns="http://www.w3.org/2000/svg">
<mask id="mask0_9294_11784" style="mask-type:alpha" maskUnits="userSpaceOnUse" x="0" y="0" width="24" height="24">
<rect width="24" height="24" fill="#D9D9D9"/>
</mask>
<g mask="url(#mask0_9294_11784)">
<path d="M13 19.95C13 20.2333 12.9 20.4792 12.7 20.6875C12.5 20.8958 12.2583 21 11.975 21C10.9583 20.9833 9.99167 20.8208 9.075 20.5125C8.15833 20.2042 7.28333 19.725 6.45 19.075C5.7 18.4917 5.05833 17.8083 4.525 17.025C3.99167 16.2417 3.59167 15.375 3.325 14.425C3.24167 14.1583 3.275 13.9083 3.425 13.675C3.575 13.4417 3.78333 13.2833 4.05 13.2C4.31667 13.1167 4.56667 13.1458 4.8 13.2875C5.03333 13.4292 5.19167 13.6333 5.275 13.9C5.475 14.65 5.79167 15.3375 6.225 15.9625C6.65833 16.5875 7.16667 17.125 7.75 17.575C8.35 18.0417 9.01667 18.3958 9.75 18.6375C10.4833 18.8792 11.225 19 11.975 19C12.2583 19 12.5 19.0917 12.7 19.275C12.9 19.4583 13 19.6833 13 19.95ZM18.5 18.925L17.1 20.3C16.9167 20.4833 16.6875 20.5792 16.4125 20.5875C16.1375 20.5958 15.9 20.5 15.7 20.3C15.5167 20.1167 15.425 19.8833 15.425 19.6C15.425 19.3167 15.5167 19.0833 15.7 18.9L17.1 17.5L15.7 16.1C15.5167 15.9167 15.425 15.6833 15.425 15.4C15.425 15.1167 15.5167 14.8833 15.7 14.7C15.8833 14.5167 16.1167 14.425 16.4 14.425C16.6833 14.425 16.9167 14.5167 17.1 14.7L18.5 16.1L19.9 14.7C20.0833 14.5167 20.3125 14.4208 20.5875 14.4125C20.8625 14.4042 21.1 14.5 21.3 14.7C21.4833 14.8833 21.575 15.1167 21.575 15.4C21.575 15.6833 21.4833 15.9167 21.3 16.1L19.925 17.5L21.3 18.9C21.4833 19.0833 21.5792 19.3125 21.5875 19.5875C21.5958 19.8625 21.5 20.1 21.3 20.3C21.1167 20.4833 20.8833 20.575 20.6 20.575C20.3167 20.575 20.0833 20.4833 19.9 20.3L18.5 18.925ZM12 5C10.85 5 9.775 5.26667 8.775 5.8C7.775 6.33333 6.93333 7.06667 6.25 8H8C8.28333 8 8.52083 8.09583 8.7125 8.2875C8.90417 8.47917 9 8.71667 9 9C9 9.28333 8.90417 9.52083 8.7125 9.7125C8.52083 9.90417 8.28333 10 8 10H4C3.71667 10 3.47917 9.90417 3.2875 9.7125C3.09583 9.52083 3 9.28333 3 9V5C3 4.71667 3.09583 4.47917 3.2875 4.2875C3.47917 4.09583 3.71667 4 4 4C4.28333 4 4.52083 4.09583 4.7125 4.2875C4.90417 4.47917 5 4.71667 5 5V6.35C5.85 5.28333 6.8875 4.45833 8.1125 3.875C9.3375 3.29167 10.6333 3 12 3C13.25 3 14.4208 3.23333 15.5125 3.7C16.6042 4.16667 17.5583 4.80833 18.375 5.625C19.0417 6.29167 19.6 7.05833 20.05 7.925C20.5 8.79167 20.7917 9.71667 20.925 10.7C20.9583 10.9833 20.8958 11.2375 20.7375 11.4625C20.5792 11.6875 20.3583 11.8167 20.075 11.85C19.7917 11.8833 19.5375 11.8208 19.3125 11.6625C19.0875 11.5042 18.9583 11.2833 18.925 11C18.8083 10.2333 18.5833 9.51667 18.25 8.85C17.9167 8.18333 17.4833 7.58333 16.95 7.05C16.3167 6.41667 15.5792 5.91667 14.7375 5.55C13.8958 5.18333 12.9833 5 12 5ZM13 11.6L14.2 12.8C14.4333 13.0333 14.5375 13.2792 14.5125 13.5375C14.4875 13.7958 14.3833 14.0167 14.2 14.2C14.0167 14.3833 13.7958 14.4875 13.5375 14.5125C13.2792 14.5375 13.0333 14.4333 12.8 14.2L11.3 12.7C11.2 12.6 11.125 12.4875 11.075 12.3625C11.025 12.2375 11 12.1083 11 11.975V8C11 7.71667 11.0958 7.47917 11.2875 7.2875C11.4792 7.09583 11.7167 7 12 7C12.2833 7 12.5208 7.09583 12.7125 7.2875C12.9042 7.47917 13 7.71667 13 8V11.6Z" fill="white"/>
</g>
</svg>
