<svg xmlns="http://www.w3.org/2000/svg" width="24" height="24" viewBox="0 0 24 24" fill="none">
  <mask id="mask0_125_2166" style="mask-type:alpha" maskUnits="userSpaceOnUse" x="0" y="0" width="24" height="24">
    <path d="M24 0H0V24H24V0Z" fill="#D9D9D9"/>
  </mask>
  <g mask="url(#mask0_125_2166)">
    <path fill-rule="evenodd" clip-rule="evenodd" d="M12 22C17.5228 22 22 17.5228 22 12C22 6.47715 17.5228 2 12 2C6.47715 2 2 6.47715 2 12C2 17.5228 6.47715 22 12 22ZM15.2929 9.79289C15.6834 9.40237 16.3166 9.40237 16.7071 9.79289C17.0976 10.1834 17.0976 10.8166 16.7071 11.2071L12.7071 15.2071C12.3166 15.5976 11.6834 15.5976 11.2929 15.2071L7.29289 11.2071C6.90237 10.8166 6.90237 10.1834 7.29289 9.79289C7.68342 9.40237 8.31658 9.40237 8.70711 9.79289L12 13.0858L15.2929 9.79289Z" fill="white"/>
  </g>
</svg>