<svg xmlns="http://www.w3.org/2000/svg" width="24" height="24" viewBox="0 0 24 24" fill="none">
  <mask id="mask0_122_2108" style="mask-type:alpha" maskUnits="userSpaceOnUse" x="0" y="0" width="24" height="24">
    <path d="M24 0H0V24H24V0Z" fill="#D9D9D9"/>
  </mask>
  <g mask="url(#mask0_122_2108)">
    <path fill-rule="evenodd" clip-rule="evenodd" d="M12 22C17.5228 22 22 17.5228 22 12C22 6.47715 17.5228 2 12 2C6.47715 2 2 6.47715 2 12C2 17.5228 6.47715 22 12 22ZM11.2071 7.29289C10.8166 6.90237 10.1834 6.90237 9.79289 7.29289C9.40237 7.68342 9.40237 8.31658 9.79289 8.70711L13.0858 12L9.79289 15.2929C9.40237 15.6834 9.40237 16.3166 9.79289 16.7071C10.1834 17.0976 10.8166 17.0976 11.2071 16.7071L15.2071 12.7071C15.5976 12.3166 15.5976 11.6834 15.2071 11.2929L11.2071 7.29289Z" fill="white"/>
  </g>
</svg>