<svg width="24" height="24" viewBox="0 0 24 24" fill="none" xmlns="http://www.w3.org/2000/svg">
    <mask id="mask0_8337_9223" style="mask-type:alpha" maskUnits="userSpaceOnUse" x="0" y="0" width="24" height="24">
        <rect width="24" height="24" fill="white"/>
    </mask>
    <g mask="url(#mask0_8337_9223)">
        <path d="M13 16C13.2833 16 13.5212 16.0954 13.7129 16.2871C13.9046 16.4788 14 16.7167 14 17C14 17.2833 13.9046 17.5212 13.7129 17.7129C13.5212 17.9046 13.2833 18 13 18H11C10.7167 18 10.4788 17.9046 10.2871 17.7129C10.0954 17.5212 10 17.2833 10 17C10 16.7167 10.0954 16.4788 10.2871 16.2871C10.4788 16.0954 10.7167 16 11 16H13ZM15.6836 11C16.3683 11.4551 17.1518 11.7718 17.9951 11.9141C17.9971 11.9423 18 11.9708 18 12C18 12.2833 17.9046 12.5212 17.7129 12.7129C17.5212 12.9046 17.2833 13 17 13H7C6.71667 13 6.47878 12.9046 6.28711 12.7129C6.09544 12.5212 6 12.2833 6 12C6 11.7167 6.09544 11.4788 6.28711 11.2871C6.47878 11.0954 6.71667 11 7 11H15.6836ZM13 6C13 6.70143 13.1216 7.37432 13.3428 8H4C3.71667 8 3.47878 7.90456 3.28711 7.71289C3.09544 7.52122 3 7.28333 3 7C3 6.71667 3.09544 6.47878 3.28711 6.28711C3.47878 6.09544 3.71667 6 4 6H13Z" fill="white"/>
        <path d="M22 6C22 7.65685 20.6569 9 19 9C17.3431 9 16 7.65685 16 6C16 4.34315 17.3431 3 19 3C20.6569 3 22 4.34315 22 6Z" fill="white"/>
    </g>
</svg>
