<svg xmlns="http://www.w3.org/2000/svg" width="24" height="24" viewBox="0 0 24 24" fill="none">
  <mask id="mask0_151_181" style="mask-type:alpha" maskUnits="userSpaceOnUse" x="0" y="0" width="24" height="24">
    <path d="M24 0H0V24H24V0Z" fill="#D9D9D9"/>
  </mask>
  <g mask="url(#mask0_151_181)">
    <path fill-rule="evenodd" clip-rule="evenodd" d="M22 12C22 17.5228 17.5228 22 12 22C6.47715 22 2 17.5228 2 12C2 6.47715 6.47715 2 12 2C17.5228 2 22 6.47715 22 12ZM7.86583 16.1343C7.95754 16.226 8.07119 16.2719 8.20676 16.2719H9.12405C9.25315 16.2719 9.37621 16.2471 9.49322 16.1976C9.61022 16.148 9.71216 16.0798 9.79904 15.9929L15.0035 10.7927L13.2109 9L8.00721 14.2011C7.92033 14.288 7.85212 14.3899 7.80258 14.5069C7.75303 14.6239 7.72825 14.747 7.72825 14.8761V15.7934C7.72825 15.929 7.77411 16.0426 7.86583 16.1343ZM14.7112 7.50003C14.7912 7.42732 14.8796 7.37113 14.9763 7.33147C15.0731 7.2918 15.1745 7.27197 15.2807 7.27197C15.3868 7.27197 15.4896 7.29081 15.5891 7.32849C15.6886 7.36616 15.7767 7.42605 15.8534 7.50817L16.4999 8.1628C16.5821 8.2395 16.6406 8.32775 16.6755 8.42756C16.7105 8.52737 16.728 8.62717 16.728 8.72697C16.728 8.83343 16.7098 8.93502 16.6734 9.03176C16.6371 9.1285 16.5793 9.2169 16.4999 9.29695L15.7902 10.01L14.0002 8.21002L14.7112 7.50003Z" fill="white"/>
  </g>
</svg>