<svg xmlns="http://www.w3.org/2000/svg" width="24" height="24" viewBox="0 0 24 24" fill="none">
  <mask id="mask0_605_13351" style="mask-type:alpha" maskUnits="userSpaceOnUse" x="0" y="0" width="24" height="24">
    <rect width="24" height="24" fill="#D9D9D9"/>
  </mask>
  <g mask="url(#mask0_605_13351)">
    <path fill-rule="evenodd" clip-rule="evenodd" d="M6 12C6 8.68629 8.68629 6 12 6C13.7762 6 15.3729 6.77144 16.4724 8H15C14.4477 8 14 8.44772 14 9C14 9.55228 14.4477 10 15 10H19C19.5523 10 20 9.55228 20 9V5C20 4.44772 19.5523 4 19 4C18.4477 4 18 4.44772 18 5V6.70853C16.535 5.04867 14.3903 4 12 4C7.58172 4 4 7.58172 4 12C4 16.4183 7.58172 20 12 20C14.13 20 16.0674 19.1663 17.5001 17.8094C17.9011 17.4296 17.9183 16.7967 17.5386 16.3957C17.1588 15.9947 16.5259 15.9775 16.1249 16.3572C15.0487 17.3764 13.5983 18 12 18C8.68629 18 6 15.3137 6 12Z" fill="white"/>
  </g>
</svg>