<svg xmlns="http://www.w3.org/2000/svg" width="24" height="24" viewBox="0 0 24 24" fill="none">
  <mask id="mask0_1903_1526" style="mask-type:alpha" maskUnits="userSpaceOnUse" x="0" y="0" width="24" height="24">
    <rect width="24" height="24" fill="#D9D9D9"/>
  </mask>
  <g mask="url(#mask0_1903_1526)">
    <path d="M4.32165 16.2682C4.09707 16.2682 3.90261 16.1833 3.73828 16.0135C3.57943 15.8437 3.5 15.6438 3.5 15.4137C3.5 15.1891 3.57943 14.9947 3.73828 14.8304C3.89713 14.666 4.09159 14.5839 4.32165 14.5839H19.6783C19.9029 14.5839 20.0947 14.666 20.2535 14.8304C20.4178 14.9947 20.5 15.1891 20.5 15.4137C20.5 15.6438 20.4178 15.8437 20.2535 16.0135C20.0947 16.1833 19.9029 16.2682 19.6783 16.2682H4.32165ZM4.32165 12.464C4.09707 12.464 3.90261 12.3818 3.73828 12.2175C3.57943 12.0477 3.5 11.8505 3.5 11.6259C3.5 11.3958 3.57943 11.1986 3.73828 11.0343C3.89713 10.8645 4.09159 10.7796 4.32165 10.7796H19.6783C19.9029 10.7796 20.0947 10.8645 20.2535 11.0343C20.4178 11.1986 20.5 11.3958 20.5 11.6259C20.5 11.8505 20.4178 12.0477 20.2535 12.2175C20.0947 12.3818 19.9029 12.464 19.6783 12.464H4.32165ZM4.32165 8.67617C4.09707 8.67617 3.90261 8.59401 3.73828 8.42968C3.57943 8.25987 3.5 8.06267 3.5 7.83809C3.5 7.60802 3.57943 7.41083 3.73828 7.2465C3.89713 7.08217 4.09159 7 4.32165 7H19.6783C19.9029 7 20.0947 7.08217 20.2535 7.2465C20.4178 7.41083 20.5 7.60802 20.5 7.83809C20.5 8.06267 20.4178 8.25987 20.2535 8.42968C20.0947 8.59401 19.9029 8.67617 19.6783 8.67617H4.32165Z" fill="white"/>
  </g>
</svg>