<svg xmlns="http://www.w3.org/2000/svg" width="24" height="24" viewBox="0 0 24 24" fill="none">
  <mask id="mask0_150_85" style="mask-type:alpha" maskUnits="userSpaceOnUse" x="0" y="0" width="24" height="24">
    <path d="M24 0H0V24H24V0Z" fill="#D9D9D9"/>
  </mask>
  <g mask="url(#mask0_150_85)">
    <path fill-rule="evenodd" clip-rule="evenodd" d="M12 22C17.5228 22 22 17.5228 22 12C22 6.47715 17.5228 2 12 2C6.47715 2 2 6.47715 2 12C2 17.5228 6.47715 22 12 22ZM15.2601 8.82733C15.6316 8.41867 16.264 8.38855 16.6727 8.76006C17.0813 9.13157 17.1114 9.76402 16.7399 10.1727L11.7399 15.6727C11.3797 16.0689 10.7712 16.1111 10.3598 15.7682L7.35982 13.2682C6.93554 12.9147 6.87821 12.2841 7.23178 11.8598C7.58534 11.4355 8.21591 11.3782 8.64018 11.7318L10.9044 13.6186L15.2601 8.82733Z" fill="white"/>
  </g>
</svg>