<svg xmlns="http://www.w3.org/2000/svg" width="24" height="24" viewBox="0 0 24 24" fill="none">
  <mask id="mask0_519_2677" style="mask-type:alpha" maskUnits="userSpaceOnUse" x="0" y="0" width="24" height="24">
    <rect width="24" height="24" fill="#D9D9D9"/>
  </mask>
  <g mask="url(#mask0_519_2677)">
    <path d="M12 6.98676C13.6716 6.98116 15.3108 7.45108 16.7292 8.34251C18.1476 9.23393 19.2876 10.5107 20.0182 12.0259C19.4909 13.1206 18.745 14.0938 17.8273 14.8845L19.1091 16.1764C20.3856 15.0435 21.3765 13.6208 22 12.0259C20.9982 9.4607 19.0645 7.37638 16.5922 6.1969C14.1198 5.01743 11.2945 4.83137 8.69091 5.67658L10.1909 7.18833C10.7858 7.06097 11.3918 6.99345 12 6.98676ZM11.0273 8.03124L12.9091 9.92781C13.4287 10.1585 13.8438 10.5769 14.0727 11.1006L15.9545 12.9971C16.0343 12.6764 16.0771 12.3474 16.0818 12.0168C16.0827 11.4763 15.9776 10.941 15.7728 10.4415C15.568 9.942 15.2673 9.48816 14.8882 9.10599C14.509 8.72382 14.0586 8.42084 13.563 8.2144C13.0674 8.00796 12.5363 7.90213 12 7.90297C11.6717 7.90384 11.3448 7.94695 11.0273 8.03124ZM2.91818 5.03523L5.35455 7.49068C3.85484 8.67366 2.69659 10.2396 2 12.0259C2.78976 14.0507 4.16597 15.7889 5.94951 17.0145C7.73305 18.2401 9.84134 18.8962 12 18.8975C13.3444 18.8988 14.6769 18.6439 15.9273 18.1462L19.0364 21.2797C19.2103 21.4298 19.434 21.5082 19.6628 21.4993C19.8916 21.4904 20.1086 21.3948 20.2705 21.2316C20.4324 21.0685 20.5273 20.8497 20.5361 20.6191C20.5449 20.3886 20.4671 20.1631 20.3182 19.9878C20 19.6369 4.53727 4.03381 4.2 3.7342C4.02018 3.58289 3.79335 3.5 3.55909 3.5C3.32483 3.5 3.098 3.58289 2.91818 3.7342C2.75557 3.91119 2.66524 4.14351 2.66524 4.38472C2.66524 4.62592 2.75557 4.85824 2.91818 5.03523ZM9.73636 11.9068L12.1091 14.2981C12.0736 14.3087 12.037 14.3149 12 14.3165C11.3972 14.3165 10.8192 14.0751 10.3929 13.6456C9.96672 13.216 9.72727 12.6334 9.72727 12.0259C9.72727 11.9801 9.73636 11.9526 9.73636 11.9068ZM6.64545 8.7917L8.23636 10.3951C8.02082 10.9114 7.90957 11.4658 7.90909 12.0259C7.90982 12.7078 8.07814 13.3788 8.39902 13.9791C8.7199 14.5794 9.18333 15.0902 9.74791 15.4659C10.3125 15.8416 10.9606 16.0705 11.6344 16.1321C12.3082 16.1938 12.9866 16.0862 13.6091 15.8191L14.5 16.7169C13.6858 16.9447 12.845 17.0618 12 17.0651C10.3284 17.0707 8.68921 16.6008 7.2708 15.7094C5.85239 14.8179 4.71238 13.5412 3.98182 12.0259C4.60619 10.7525 5.51856 9.64472 6.64545 8.7917Z" fill="white"/>
  </g>
</svg>