<?xml version="1.0" encoding="UTF-8"?>
<svg width="60px" height="60px" viewBox="0 0 60 60" version="1.1" xmlns="http://www.w3.org/2000/svg" xmlns:xlink="http://www.w3.org/1999/xlink">
    <title>icon-fail</title>
    <desc>Mullvad VPN app</desc>
    <defs></defs>
        <circle id="bg-circle" fill="#FFFFFF" fill-rule="nonzero" cx="30" cy="30" r="22"></circle>
        <path d="M33.2371523,30 L41.337119,21.9033278 C42.2203329,21.020473 42.223948,19.5681264 41.3300331,18.6745751 C40.429886,17.774794 38.9899682,17.7778525 38.0999667,18.6674921 L30,26.7641643 L21.9000333,18.6674921 C21.0100318,17.7778525 19.570114,17.774794 18.6699669,18.6745751 C17.776052,19.5681264 17.7796671,21.020473 18.662881,21.9033278 L26.7628477,30 L18.662881,38.0966722 C17.7796671,38.979527 17.776052,40.4318736 18.6699669,41.3254249 C19.570114,42.225206 21.0100318,42.2221475 21.9000333,41.3325079 L30,33.2358357 L38.0999667,41.3325079 C38.9899682,42.2221475 40.429886,42.225206 41.3300331,41.3254249 C42.223948,40.4318736 42.2203329,38.979527 41.337119,38.0966722 L33.2371523,30 Z" id="icon" fill="#D0021B" fill-rule="nonzero"></path>
</svg>