<svg width="24" height="24" viewBox="0 0 24 24" fill="none" xmlns="http://www.w3.org/2000/svg">
<mask id="mask0_10868_6020" style="mask-type:alpha" maskUnits="userSpaceOnUse" x="0" y="0" width="24" height="24">
<rect width="24" height="24" fill="white"/>
</mask>
<g mask="url(#mask0_10868_6020)">
<path d="M16.3828 15.4268C16.6261 15.4269 16.8312 15.5131 16.9971 15.6846C17.1683 15.856 17.2539 16.0634 17.2539 16.3066C17.2539 16.5445 17.1685 16.7494 16.9971 16.9209C16.8312 17.0923 16.6261 17.1786 16.3828 17.1787H7.63379C7.39583 17.1787 7.19336 17.0924 7.02734 16.9209C6.86133 16.7438 6.77832 16.5391 6.77832 16.3066C6.77832 16.0632 6.85906 15.8561 7.01953 15.6846C7.18555 15.513 7.3903 15.4268 7.63379 15.4268H16.3828ZM15.8809 11.127C16.7666 11.667 17.8035 11.9813 18.9131 11.9971C18.9131 12.0003 18.9141 12.0036 18.9141 12.0068C18.9141 12.2448 18.8311 12.4495 18.665 12.6211C18.4991 12.7925 18.2973 12.8788 18.0596 12.8789H5.96484C5.72689 12.8789 5.52214 12.7926 5.35059 12.6211C5.18457 12.4495 5.10156 12.2448 5.10156 12.0068C5.10156 11.7689 5.18457 11.5641 5.35059 11.3926C5.52214 11.2155 5.72689 11.127 5.96484 11.127H15.8809ZM13.0586 6.82715C13.1444 7.44918 13.3237 8.04098 13.585 8.58691H4.26367C4.03136 8.58691 3.82872 8.50146 3.65723 8.33008C3.49121 8.15299 3.4082 7.94499 3.4082 7.70703C3.4082 7.46908 3.49121 7.26432 3.65723 7.09277C3.82324 6.91569 4.02572 6.82715 4.26367 6.82715H13.0586Z" fill="white"/>
<path d="M22 6C22 7.65685 20.6569 9 19 9C17.3431 9 16 7.65685 16 6C16 4.34315 17.3431 3 19 3C20.6569 3 22 4.34315 22 6Z" fill="white"/>
</g>
</svg>
