<svg xmlns="http://www.w3.org/2000/svg" width="16" height="16" viewBox="0 0 16 16">
    <g fill-rule="evenodd" transform="translate(2 0)">
        <rect fill="#44AD4D" width="12" height="9" y="7" rx="1"/>
        <path d="M7.99999548,7.01 C7.99999548,7.556 8.444,8 8.99999548,8 C9.552,8 9.99999548,7.547 9.99999548,7.003 L9.99999548,0.997 C9.99999548,0.447 9.547,0 9.003,0 L2.997,0 C2.447,0 1.99999548,0.453 1.99999548,0.997 L1.99999548,7.003 C1.9989282,7.36026559 2.18853675,7.69096441 2.49740192,7.8705254 C2.8062671,8.0500864 3.18746495,8.05123 3.49740192,7.8735254 C3.8073389,7.69582081 3.9989282,7.36626559 3.99999548,7.009 L3.99999548,2 L7.99999548,2 L7.99999548,7.01 Z" fill="#44AD4D"/>
        <circle fill="#D0021B" cx="6" cy="11.5" r="2.92047599"/>
    </g>
</svg>
