<svg id="brand" xmlns="http://www.w3.org/2000/svg" xmlns:xlink="http://www.w3.org/1999/xlink" viewBox="0 0 180.7 191.61"><defs><style>.cls-1{fill:#fff;}.cls-2{fill:#5f8a43;fill-rule:evenodd;}.cls-3{mask:url(#mask);}</style><mask id="mask" x="-1090.5" y="-1109.31" width="2000" height="2000" maskUnits="userSpaceOnUse"><g transform="translate(-16.8 -35.61)"><g id="Helmet_Lamp" data-name="Helmet Lamp"><rect class="cls-1" x="-1073.7" y="-1073.7" width="2000" height="2000"/><path d="M110.9,73.7a5.21,5.21,0,0,1-2.3-.5,6.85,6.85,0,0,1-3.6-4c-1.4-3.4-1-8.1.9-12.5,2.5-5.7,7.2-9.7,11.5-9.7a6.87,6.87,0,0,1,2.4.5c2.1.9,3.6,3,4.1,6a17.61,17.61,0,0,1-1.5,10.4C119.9,69.6,115.1,73.7,110.9,73.7Z"/></g></g></mask></defs><g id="Logo"><path id="Mullvad_Fur" data-name="Mullvad Fur" class="cls-2" d="M16.9,111.2l9.6-13.4c0,.1-.6,19.3-.6,19.3l2.7-14.5c8,16.2,27.6,38.6,45.5,50.6a20.88,20.88,0,0,1,4.6,4.1,35.12,35.12,0,0,0,6.9,1.8c1.2.2,2.5.3,3.7.4s2.5.1,3.7.1,2.4-.1,3.6-.2,2.4-.3,3.6-.5a19.82,19.82,0,0,0,3.5-.8c1.2-.3,2.3-.6,3.5-1s2.3-.8,3.4-1.2,2.2-.9,3.3-1.5,2.2-1.1,3.2-1.7,2.1-1.2,3.2-1.8,2.1-1.3,3.2-1.9,2.1-1.3,3.1-1.9,2.1-1.3,3.1-2,2.1-1.3,3.2-2l1-.6.5.3,7.2,4.8-7.3-1.9c-.7.8-1.4,1.6-2.2,2.4s-1.9,1.8-2.8,2.7a36.55,36.55,0,0,1-3.1,2.4,37.84,37.84,0,0,1-3.3,2.2,43,43,0,0,1-7.1,3.6c-1.2.5-2.5,1-3.7,1.4s-2.5.8-3.8,1.1-2.6.6-3.9.8-2.6.3-3.9.5a41.79,41.79,0,0,1-7.9-.3c-1.3-.2-2.6-.4-3.9-.7s-2.5-.7-3.7-1.1a34.53,34.53,0,0,1-6.1-3s-6.9,1-4.1,6.2,7,4.7,5,10.8a48.32,48.32,0,0,1-5.6,9.5c-4.6,6.2-11.8,11.7-11.1,15,32.7,40.3,106.4,34.7,134.4-1.3-.4-5.2-8.6-7.7-14.3-20.4a33.7,33.7,0,0,0,4,1.1c0-.1-6.8-11.1-7.1-12.2l4.4.3s-5.8-7.2-6-7.9l5.9-.8s-7.4-8.5-7.5-9.2l7.5,1.2-8.2-9.9h3.9l-4.6-6.7a21.72,21.72,0,0,0-2.4-.7l-3-.9c-11.2-3.5-21.8-6.7-32-13.1-14.3-8.9-27.1-19.8-36.7-28.3L82.1,81c-18.5-1.4-35.9-.9-46.5,1.2l6.8-11.6L32,83.1a1.42,1.42,0,0,1-.9-.6l.7-15.4L28.5,81a7.67,7.67,0,0,0-3.4-.7A8.29,8.29,0,0,0,24,96.8l-7.1,14.4Z" transform="translate(-16.8 -35.61)"/><path id="Mullvad_Nose" data-name="Mullvad Nose" class="cls-2" d="M28.5,80.8a9.28,9.28,0,0,0-3.3-.7,8.28,8.28,0,0,0-8.3,8.3,8.46,8.46,0,0,0,6.7,8.2h.2c2.5-.8,7.5-7.5,6.7-11.7a9.26,9.26,0,0,0-2-4.1Z" transform="translate(-16.8 -35.61)"/><g class="cls-3"><path id="Mullvad_Helmet" data-name="Mullvad Helmet" class="cls-2" d="M101.4,70.1c-1.5-4.1-1.1-9.4,1-14.4,3-6.9,8.7-11.5,14.1-11.5a8.15,8.15,0,0,1,3.1.6,35.82,35.82,0,0,1,10.7-6.7c22.1-8.8,54.4,6.9,62.7,28.6,4,10.5,2.8,22-.6,32.5-2.8,8.6-13,21-9.2,30.4-1.5-.4-33.1-10.2-41.9-15.8-14.1-8.8-26.8-19.6-36.3-28l-.3-.3L72.6,70.3a10.91,10.91,0,0,1-1.1-.6c4.6,0,22.1,2.1,29.9.4" transform="translate(-16.8 -35.61)"/></g></g></svg>