<svg width="16px" height="16px" viewBox="0 0 16 16" version="1.1" xmlns="http://www.w3.org/2000/svg" xmlns:xlink="http://www.w3.org/1999/xlink">
    <title>icon-extLink</title>
    <desc>Mullvad VPN app</desc>
    <defs></defs>
    <path d="M12.5857864,2 L8.99077797,2 C8.45097518,2 8,1.55228475 8,1 C8,0.443864822 8.4463856,0 8.99703014,0 L15.0029699,0 C15.5469637,0 16,0.446385598 16,0.997030139 L16,7.00296986 C16,7.54696369 15.5522847,8 15,8 C14.4438648,8 14,7.55641359 14,7.00922203 L14,3.41421356 L6.70710678,10.7071068 C6.31658249,11.0976311 5.68341751,11.0976311 5.29289322,10.7071068 C4.90236893,10.3165825 4.90236893,9.68341751 5.29289322,9.29289322 L12.5857864,2 Z M8.46446609,4 L6.46446609,6 L2,6 L2,14 L10,14 L10,9.53553391 L12,7.53553391 L12,14.9975267 C12,15.5511774 11.544239,16 10.9975267,16 L1.00247329,16 C0.448822582,16 0,15.544239 0,14.9975267 L0,5.00247329 C0,4.44882258 0.455760956,4 1.00247329,4 L8.46446609,4 Z" id="path" fill="currentColor" fill-rule="evenodd"></path>
</svg>