<svg data-name="icon - edit" xmlns="http://www.w3.org/2000/svg" width="24" height="24" viewBox="0 0 24 24">
    <path data-name="Rectangle 18" style="fill:none" d="M0 0h24v24H0z"/>
    <path d="M12 24A12 12 0 0 1 3.515 3.515a12 12 0 1 1 16.97 16.97A11.921 11.921 0 0 1 12 24zm2.439-16.714-8.779 8.78a.525.525 0 0 0-.124.177.507.507 0 0 0-.036.2v1.525a.516.516 0 0 0 .532.532h1.525a.531.531 0 0 0 .2-.035.543.543 0 0 0 .177-.124l8.779-8.779-2.27-2.271zM16.655 5.5a.991.991 0 0 0-.727.293l-.745.745 2.271 2.27.744-.745a1.071 1.071 0 0 0 0-1.49l-.762-.762a1.057 1.057 0 0 0-.753-.31h-.027z" style="fill:#294d73"/>
</svg>
