<svg width="24px" height="24px" viewBox="0 0 24 24" version="1.1" xmlns="http://www.w3.org/2000/svg" xmlns:xlink="http://www.w3.org/1999/xlink">
    <title>icon-close</title>
    <desc>Mullvad VPN app</desc>
    <defs></defs>
    <g id="icon" stroke="none" stroke-width="1" fill="none" fill-rule="evenodd" style="transform-origin: center; transform: rotate(45deg);">
        <path d="M12,24 C5.37312,24 -3.2900871e-16,18.62688 -7.34788079e-16,12 C-1.14056745e-15,5.37312 5.37312,0 12,0 C18.62688,0 24,5.37312 24,12 C24,18.62688 18.62688,24 12,24 Z M13.5,12 L17.2947612,8.20523878 C17.6857559,7.81424414 17.6838785,7.18387854 17.293923,6.79392296 L17.206077,6.70607704 C16.8181114,6.31811142 16.1842538,6.31574616 15.7947612,6.70523878 L12,10.5 L8.20523878,6.70523878 C7.81574616,6.31574616 7.18188858,6.31811142 6.79392296,6.70607704 L6.70607704,6.79392296 C6.31612146,7.18387854 6.31424414,7.81424414 6.70523878,8.20523878 L10.5,12 L6.70523878,15.7947612 C6.31424414,16.1857559 6.31612146,16.8161215 6.70607704,17.206077 L6.79392296,17.293923 C7.18188858,17.6818886 7.81574616,17.6842538 8.20523878,17.2947612 L12,13.5 L15.7947612,17.2947612 C16.1842538,17.6842538 16.8181114,17.6818886 17.206077,17.293923 L17.293923,17.206077 C17.6838785,16.8161215 17.6857559,16.1857559 17.2947612,15.7947612 L13.5,12 L13.5,12 Z" id="path" fill="#FFFFFF"></path>
    </g>
</svg>
