<?xml version="1.0" encoding="UTF-8"?>
<svg width="24px" height="24px" viewBox="0 0 24 24" version="1.1" xmlns="http://www.w3.org/2000/svg" xmlns:xlink="http://www.w3.org/1999/xlink">
    <title>icon-settings</title>
    <desc>Mullvad VPN app</desc>
    <defs></defs>
    <g id="Page-1" stroke="none" stroke-width="1" fill="none" fill-rule="evenodd">
        <path d="M21.2552027,12.0000012 C21.2552027,12.4080002 21.2181943,12.792001 21.1688441,13.1760007 L23.7718756,15.1560004 C24.0062723,15.3360012 24.0679568,15.6600006 23.9199162,15.924001 L21.4525887,20.0760014 C21.304548,20.3400006 20.9837951,20.4480008 20.700053,20.3400006 L17.6282305,19.1400005 C16.9867248,19.6079998 16.2958725,20.016 15.5433381,20.316 L15.0745457,23.4959999 C15.037536,23.7839996 14.7784667,24 14.4700507,24 L9.53539566,24 C9.22697972,24 8.96791028,23.7839996 8.9309007,23.4959999 L8.46210833,20.316 C7.70957385,20.016 7.01872221,19.62 6.37721707,19.1400005 L3.30539454,20.3400006 C3.03398819,20.4360005 2.700899,20.3400006 2.55285948,20.0760014 L0.0855319329,15.924001 C-0.062507572,15.6600006 -0.000824444944,15.336 0.233571734,15.1560004 L2.83660217,13.1760007 C2.78725567,12.792001 2.7502455,12.3960011 2.7502455,12.0000012 C2.7502455,11.6040012 2.78725567,11.2080012 2.83660217,10.8240016 L0.23357145,8.84400074 C-0.000824444944,8.66400004 -0.0748444934,8.34000059 0.0855319329,8.07600026 L2.55285948,3.92400037 C2.70089958,3.66000059 3.02165186,3.55200039 3.30539454,3.66000059 L6.37721765,4.86000071 C7.01872279,4.39200082 7.70957502,3.9840006 8.4621095,3.68400057 L8.93090187,0.504000134 C8.96791146,0.216000094 9.2269809,0 9.53539685,0 L14.4700519,0 C14.7784679,0 15.0375373,0.216000094 15.0745481,0.50400071 L15.5433404,3.68400114 C16.2958761,3.98400117 16.9867272,4.38000112 17.6282328,4.86000128 L20.7000554,3.66000116 C20.9714629,3.56400067 21.3045504,3.66000116 21.452591,3.92400093 L23.9199186,8.0760014 C24.0679568,8.34000175 24.0062746,8.66400233 23.7718779,8.84400188 L21.1688466,10.8240016 C21.2181919,11.2080012 21.2552027,11.5920021 21.2552027,12.0000012 Z M12,17 C14.7571433,17 17,14.7571433 17,12 C17,9.24285657 14.7571433,7 12,7 C9.24285657,7 7,9.24285657 7,12 C7,14.7571433 9.24285657,17 12,17 Z" id="icon" fill="#FFFFFF"></path>
    </g>
</svg>
