<svg id="Layer_2" data-name="Layer 2" xmlns="http://www.w3.org/2000/svg" viewBox="0 0 23.66 23.75"><defs><style>.cls-1{fill:#fff;stroke:#231f20;stroke-miterlimit:10;stroke-width:0.25px;}</style></defs><path class="cls-1" d="M23,.25H13.38a.69.69,0,0,0-.69.69V12.87a.69.69,0,0,0,.69.69H20l2.55,2.55a.66.66,0,0,0,.49.2.58.58,0,0,0,.26,0,.68.68,0,0,0,.43-.63V.94A.69.69,0,0,0,23,.25Zm-1.84,6h-.5a5.33,5.33,0,0,1-1.34,2.86A3.94,3.94,0,0,0,21,9.43a.69.69,0,0,1,0,1.38A5.25,5.25,0,0,1,18.2,10a5.31,5.31,0,0,1-2.76.78.69.69,0,0,1,0-1.38,3.91,3.91,0,0,0,1.61-.35,5.24,5.24,0,0,1-1.33-2.86h-.51a.69.69,0,1,1,0-1.38h2.3V3.69a.69.69,0,1,1,1.38,0V4.84h2.29a.69.69,0,1,1,0,1.38Z" transform="translate(-0.17 -0.12)"/><path class="cls-1" d="M18.2,8.29a3.88,3.88,0,0,0,1.08-2.07H17.11A3.83,3.83,0,0,0,18.2,8.29Z" transform="translate(-0.17 -0.12)"/><path class="cls-1" d="M4.87,15.29H6.75l-.94-2.48Z" transform="translate(-0.17 -0.12)"/><path class="cls-1" d="M10.62,7.69H1a.68.68,0,0,0-.69.68V23.06a.7.7,0,0,0,.43.64.75.75,0,0,0,.26.05.7.7,0,0,0,.49-.2L4,21h6.6a.69.69,0,0,0,.69-.69V8.37A.68.68,0,0,0,10.62,7.69Zm-2,10.51a.67.67,0,0,1-.24,0,.68.68,0,0,1-.64-.44l-.43-1.14H4.34L3.91,17.8a.69.69,0,0,1-1.29-.49L5,11H5a.82.82,0,0,1,.77-.52h0a.84.84,0,0,1,.78.52h0L9,17.31a.68.68,0,0,1-.4.89Z" transform="translate(-0.17 -0.12)"/></svg>