<svg width="24" height="24" viewBox="0 0 24 24" fill="none" xmlns="http://www.w3.org/2000/svg">
<mask id="mask0_10061_167" style="mask-type:alpha" maskUnits="userSpaceOnUse" x="0" y="0" width="24" height="24">
<rect width="24" height="24" fill="white"/>
</mask>
<g mask="url(#mask0_10061_167)">
<path d="M15 20H5C4.73478 20 4.48043 19.8947 4.29289 19.7071C4.10536 19.5196 4 19.2652 4 19V9.00001C4 8.73479 4.10536 8.48044 4.29289 8.2929C4.48043 8.10537 4.73478 8.00001 5 8.00001H12.465L10.465 10H6V18H14V13.536L16 11.536V19C16 19.2652 15.8946 19.5196 15.7071 19.7071C15.5196 19.8947 15.2652 20 15 20ZM10 15C9.80204 15.0002 9.6085 14.9416 9.44387 14.8316C9.27925 14.7217 9.15095 14.5654 9.07524 14.3825C8.99953 14.1996 8.97981 13.9983 9.01857 13.8042C9.05734 13.6101 9.15285 13.4318 9.293 13.292L16.586 6.00001H12.991C12.7258 5.99882 12.4719 5.89232 12.2852 5.70393C12.0985 5.51555 11.9943 5.26073 11.9955 4.99551C11.9967 4.73029 12.1032 4.47641 12.2916 4.28972C12.48 4.10303 12.7348 3.99882 13 4.00001H19C19.2652 4.00001 19.5196 4.10537 19.7071 4.2929C19.8946 4.48044 20 4.73479 20 5.00001V11C20.0008 11.2652 19.8962 11.5199 19.7092 11.708C19.5223 11.8961 19.2682 12.0022 19.003 12.003C18.7378 12.0038 18.4831 11.8992 18.295 11.7122C18.1069 11.5253 18.0008 11.2712 18 11.006V7.41501L10.707 14.707C10.6144 14.8002 10.5042 14.8741 10.3829 14.9244C10.2615 14.9747 10.1314 15.0004 10 15Z" fill="white"/>
</g>
</svg>
