<svg xmlns="http://www.w3.org/2000/svg" width="24" height="24" viewBox="0 0 24 24" fill="none">
  <mask id="mask0_1744_3687" style="mask-type:alpha" maskUnits="userSpaceOnUse" x="0" y="0" width="24" height="24">
    <rect width="24" height="24" fill="#D9D9D9"/>
  </mask>
  <g mask="url(#mask0_1744_3687)">
    <path d="M16 20H6C5.73478 20 5.48043 19.8947 5.29289 19.7071C5.10536 19.5196 5 19.2652 5 19V9.00001C5 8.73479 5.10536 8.48044 5.29289 8.2929C5.48043 8.10537 5.73478 8.00001 6 8.00001H13.465L11.465 10H7V18H15V13.536L17 11.536V19C17 19.2652 16.8946 19.5196 16.7071 19.7071C16.5196 19.8947 16.2652 20 16 20ZM11 15C10.802 15.0002 10.6085 14.9416 10.4439 14.8316C10.2792 14.7217 10.151 14.5654 10.0752 14.3825C9.99953 14.1996 9.97981 13.9983 10.0186 13.8042C10.0573 13.6101 10.1528 13.4318 10.293 13.292L17.586 6.00001H13.991C13.7258 5.99882 13.4719 5.89232 13.2852 5.70393C13.0985 5.51555 12.9943 5.26073 12.9955 4.99551C12.9967 4.73029 13.1032 4.47641 13.2916 4.28972C13.48 4.10303 13.7348 3.99882 14 4.00001H20C20.2652 4.00001 20.5196 4.10537 20.7071 4.2929C20.8946 4.48044 21 4.73479 21 5.00001V11C21.0008 11.2652 20.8962 11.5199 20.7092 11.708C20.5223 11.8961 20.2682 12.0022 20.003 12.003C19.7378 12.0038 19.4831 11.8992 19.295 11.7122C19.1069 11.5253 19.0008 11.2712 19 11.006V7.41501L11.707 14.707C11.6144 14.8002 11.5042 14.8741 11.3829 14.9244C11.2615 14.9747 11.1314 15.0004 11 15Z" fill="white"/>
  </g>
</svg>