<svg width="288" height="91" viewBox="0 0 288 91" fill="none" xmlns="http://www.w3.org/2000/svg">
<g clip-path="url(#clip0_10438_2146)">
<path d="M0 12C0 5.37258 5.37258 0 12 0H276C282.627 0 288 5.37258 288 12V79C288 85.6274 282.627 91 276 91H12C5.37259 91 0 85.6274 0 79V12Z" fill="#192638"/>
<path d="M29.3613 16.166L28.6631 14.1836H25.9336L25.2354 16.166H24L26.6562 8.99805H27.9551L30.6064 16.166H29.3613ZM28.3604 13.1777L27.6816 11.2246C27.6556 11.14 27.6182 11.0212 27.5693 10.8682C27.5205 10.7119 27.4717 10.554 27.4229 10.3945C27.374 10.2318 27.3333 10.0951 27.3008 9.98438C27.2682 10.1178 27.2275 10.2676 27.1787 10.4336C27.1331 10.5964 27.0876 10.7493 27.042 10.8926C26.9997 11.0358 26.9671 11.1465 26.9443 11.2246L26.2607 13.1777H28.3604ZM32.584 16.166H31.4316V8.56836H32.584V16.166ZM35.377 16.166H34.2246V8.56836H35.377V16.166ZM40.7676 16.166H39.6152V8.56836H40.7676V16.166ZM47.1934 13.4512C47.1934 13.9004 47.1348 14.2992 47.0176 14.6475C46.9004 14.9958 46.7295 15.2904 46.5049 15.5312C46.2803 15.7689 46.0101 15.9512 45.6943 16.0781C45.3786 16.2018 45.0221 16.2637 44.625 16.2637C44.2539 16.2637 43.9137 16.2018 43.6045 16.0781C43.2952 15.9512 43.0267 15.7689 42.7988 15.5312C42.5742 15.2904 42.4001 14.9958 42.2764 14.6475C42.1527 14.2992 42.0908 13.9004 42.0908 13.4512C42.0908 12.8555 42.1934 12.3509 42.3984 11.9375C42.6068 11.5208 42.903 11.2035 43.2871 10.9854C43.6712 10.7673 44.1286 10.6582 44.6592 10.6582C45.1572 10.6582 45.5967 10.7673 45.9775 10.9854C46.3584 11.2035 46.6562 11.5208 46.8711 11.9375C47.0859 12.3542 47.1934 12.8587 47.1934 13.4512ZM43.2725 13.4512C43.2725 13.8451 43.3197 14.182 43.4141 14.4619C43.5117 14.7419 43.6615 14.9567 43.8633 15.1064C44.0651 15.2529 44.3255 15.3262 44.6445 15.3262C44.9635 15.3262 45.224 15.2529 45.4258 15.1064C45.6276 14.9567 45.7757 14.7419 45.8701 14.4619C45.9645 14.182 46.0117 13.8451 46.0117 13.4512C46.0117 13.0573 45.9645 12.7236 45.8701 12.4502C45.7757 12.1735 45.6276 11.9635 45.4258 11.8203C45.224 11.6738 44.9619 11.6006 44.6396 11.6006C44.1644 11.6006 43.8177 11.7601 43.5996 12.0791C43.3815 12.3981 43.2725 12.8555 43.2725 13.4512ZM50.6895 16.2637C50.1784 16.2637 49.7357 16.1644 49.3613 15.9658C48.987 15.7673 48.6989 15.4629 48.4971 15.0527C48.2952 14.6426 48.1943 14.1217 48.1943 13.4902C48.1943 12.8327 48.305 12.2956 48.5264 11.8789C48.7477 11.4622 49.0537 11.1546 49.4443 10.9561C49.8382 10.7575 50.2891 10.6582 50.7969 10.6582C51.1191 10.6582 51.4105 10.6908 51.6709 10.7559C51.9346 10.8177 52.1576 10.8942 52.3398 10.9854L51.998 11.9033C51.7995 11.8219 51.596 11.7536 51.3877 11.6982C51.1794 11.6429 50.9792 11.6152 50.7871 11.6152C50.4714 11.6152 50.2077 11.6852 49.9961 11.8252C49.7878 11.9652 49.6315 12.1735 49.5273 12.4502C49.4264 12.7269 49.376 13.0703 49.376 13.4805C49.376 13.8776 49.4281 14.2129 49.5322 14.4863C49.6364 14.7565 49.791 14.9616 49.9961 15.1016C50.2012 15.2383 50.4535 15.3066 50.7529 15.3066C51.0492 15.3066 51.3145 15.2708 51.5488 15.1992C51.7832 15.1276 52.0046 15.0348 52.2129 14.9209V15.917C52.0078 16.0342 51.7881 16.1204 51.5537 16.1758C51.3193 16.2344 51.0312 16.2637 50.6895 16.2637ZM55.6016 10.6582C56.2852 10.6582 56.8011 10.8096 57.1494 11.1123C57.501 11.415 57.6768 11.887 57.6768 12.5283V16.166H56.8613L56.6416 15.3994H56.6025C56.4495 15.5947 56.2917 15.7559 56.1289 15.8828C55.9661 16.0098 55.7773 16.1042 55.5625 16.166C55.3509 16.2311 55.0921 16.2637 54.7861 16.2637C54.4639 16.2637 54.1758 16.2051 53.9219 16.0879C53.668 15.9674 53.4678 15.7852 53.3213 15.541C53.1748 15.2969 53.1016 14.9876 53.1016 14.6133C53.1016 14.0566 53.3083 13.6383 53.7217 13.3584C54.1383 13.0785 54.7666 12.9238 55.6064 12.8945L56.5439 12.8604V12.5771C56.5439 12.2028 56.4561 11.9359 56.2803 11.7764C56.1077 11.6169 55.8636 11.5371 55.5479 11.5371C55.2777 11.5371 55.0156 11.5762 54.7617 11.6543C54.5078 11.7324 54.2604 11.8285 54.0195 11.9424L53.6484 11.1318C53.9121 10.9919 54.2116 10.8779 54.5469 10.79C54.8854 10.7021 55.237 10.6582 55.6016 10.6582ZM56.5391 13.583L55.8408 13.6074C55.2679 13.627 54.8659 13.7246 54.6348 13.9004C54.4036 14.0762 54.2881 14.3171 54.2881 14.623C54.2881 14.89 54.3678 15.0853 54.5273 15.209C54.6868 15.3294 54.8968 15.3896 55.1572 15.3896C55.5544 15.3896 55.8831 15.2773 56.1436 15.0527C56.4072 14.8249 56.5391 14.4912 56.5391 14.0518V13.583ZM61.2949 15.3359C61.4447 15.3359 61.5928 15.3229 61.7393 15.2969C61.8857 15.2676 62.0192 15.2334 62.1396 15.1943V16.0635C62.0127 16.1188 61.8483 16.166 61.6465 16.2051C61.4447 16.2441 61.2347 16.2637 61.0166 16.2637C60.7106 16.2637 60.4355 16.2132 60.1914 16.1123C59.9473 16.0081 59.7536 15.8307 59.6104 15.5801C59.4671 15.3294 59.3955 14.9827 59.3955 14.54V11.6348H58.6582V11.1221L59.4492 10.7168L59.8252 9.55957H60.5479V10.7607H62.0957V11.6348H60.5479V14.5254C60.5479 14.7988 60.6162 15.0023 60.7529 15.1357C60.8896 15.2692 61.0703 15.3359 61.2949 15.3359ZM64.3857 10.7607V16.166H63.2383V10.7607H64.3857ZM63.8193 8.69043C63.9951 8.69043 64.1465 8.73763 64.2734 8.83203C64.4036 8.92643 64.4688 9.08919 64.4688 9.32031C64.4688 9.54818 64.4036 9.71094 64.2734 9.80859C64.1465 9.90299 63.9951 9.9502 63.8193 9.9502C63.637 9.9502 63.4824 9.90299 63.3555 9.80859C63.2318 9.71094 63.1699 9.54818 63.1699 9.32031C63.1699 9.08919 63.2318 8.92643 63.3555 8.83203C63.4824 8.73763 63.637 8.69043 63.8193 8.69043ZM70.8164 13.4512C70.8164 13.9004 70.7578 14.2992 70.6406 14.6475C70.5234 14.9958 70.3525 15.2904 70.1279 15.5312C69.9033 15.7689 69.6331 15.9512 69.3174 16.0781C69.0016 16.2018 68.6452 16.2637 68.248 16.2637C67.877 16.2637 67.5368 16.2018 67.2275 16.0781C66.9183 15.9512 66.6497 15.7689 66.4219 15.5312C66.1973 15.2904 66.0231 14.9958 65.8994 14.6475C65.7757 14.2992 65.7139 13.9004 65.7139 13.4512C65.7139 12.8555 65.8164 12.3509 66.0215 11.9375C66.2298 11.5208 66.526 11.2035 66.9102 10.9854C67.2943 10.7673 67.7516 10.6582 68.2822 10.6582C68.7803 10.6582 69.2197 10.7673 69.6006 10.9854C69.9814 11.2035 70.2793 11.5208 70.4941 11.9375C70.709 12.3542 70.8164 12.8587 70.8164 13.4512ZM66.8955 13.4512C66.8955 13.8451 66.9427 14.182 67.0371 14.4619C67.1348 14.7419 67.2845 14.9567 67.4863 15.1064C67.6882 15.2529 67.9486 15.3262 68.2676 15.3262C68.5866 15.3262 68.847 15.2529 69.0488 15.1064C69.2507 14.9567 69.3988 14.7419 69.4932 14.4619C69.5876 14.182 69.6348 13.8451 69.6348 13.4512C69.6348 13.0573 69.5876 12.7236 69.4932 12.4502C69.3988 12.1735 69.2507 11.9635 69.0488 11.8203C68.847 11.6738 68.585 11.6006 68.2627 11.6006C67.7874 11.6006 67.4408 11.7601 67.2227 12.0791C67.0046 12.3981 66.8955 12.8555 66.8955 13.4512ZM74.9521 10.6582C75.5609 10.6582 76.0345 10.8161 76.373 11.1318C76.7148 11.4443 76.8857 11.9473 76.8857 12.6406V16.166H75.7383V12.8555C75.7383 12.4355 75.652 12.1214 75.4795 11.9131C75.307 11.7015 75.04 11.5957 74.6787 11.5957C74.1546 11.5957 73.79 11.7568 73.585 12.0791C73.3831 12.4014 73.2822 12.8685 73.2822 13.4805V16.166H72.1348V10.7607H73.0283L73.1895 11.4932H73.2529C73.3701 11.3044 73.515 11.1497 73.6875 11.0293C73.8633 10.9056 74.0586 10.8128 74.2734 10.751C74.4915 10.6891 74.7178 10.6582 74.9521 10.6582ZM82.125 14.623C82.125 14.9779 82.0387 15.2773 81.8662 15.5215C81.6937 15.7656 81.4414 15.9512 81.1094 16.0781C80.7806 16.2018 80.377 16.2637 79.8984 16.2637C79.5208 16.2637 79.1953 16.236 78.9219 16.1807C78.6517 16.1286 78.3962 16.0472 78.1553 15.9365V14.9453C78.4124 15.0658 78.7005 15.1699 79.0195 15.2578C79.3418 15.3457 79.6462 15.3896 79.9326 15.3896C80.3102 15.3896 80.582 15.3311 80.748 15.2139C80.9141 15.0934 80.9971 14.9339 80.9971 14.7354C80.9971 14.6182 80.9629 14.514 80.8945 14.4229C80.8294 14.3285 80.7057 14.2324 80.5234 14.1348C80.3444 14.0339 80.0807 13.9134 79.7324 13.7734C79.3906 13.6367 79.1025 13.5 78.8682 13.3633C78.6338 13.2266 78.4564 13.0622 78.3359 12.8701C78.2155 12.6748 78.1553 12.4258 78.1553 12.123C78.1553 11.6445 78.3441 11.2816 78.7217 11.0342C79.1025 10.7835 79.6055 10.6582 80.2305 10.6582C80.5625 10.6582 80.875 10.6924 81.168 10.7607C81.4642 10.8258 81.7539 10.9219 82.0371 11.0488L81.6758 11.9131C81.4316 11.8057 81.1859 11.7178 80.9385 11.6494C80.6943 11.5778 80.4453 11.542 80.1914 11.542C79.8952 11.542 79.6689 11.5876 79.5127 11.6787C79.3597 11.7699 79.2832 11.9001 79.2832 12.0693C79.2832 12.1963 79.3206 12.3037 79.3955 12.3916C79.4704 12.4795 79.599 12.5674 79.7812 12.6553C79.9668 12.7432 80.224 12.8522 80.5527 12.9824C80.875 13.1061 81.1533 13.2363 81.3877 13.373C81.6253 13.5065 81.8076 13.6709 81.9346 13.8662C82.0615 14.0615 82.125 14.3138 82.125 14.623Z" fill="white"/>
<path d="M264.001 12.249L264.001 13.0823L89.668 13.0824L89.668 12.249L264.001 12.249Z" fill="white" fill-opacity="0.2"/>
<g clip-path="url(#clip1_10438_2146)">
<g clip-path="url(#clip2_10438_2146)">
<g clip-path="url(#clip3_10438_2146)">
<rect width="198.333" height="40" transform="translate(24 25.999)" fill="#294D73"/>
<path d="M66.9189 43.999L66.1043 41.6862H62.9199L62.1053 43.999H60.6641L63.763 35.6364H65.2783L68.3716 43.999H66.9189ZM65.7511 40.5127L64.9593 38.234C64.9289 38.1353 64.8853 37.9967 64.8283 37.8182C64.7713 37.6359 64.7144 37.4517 64.6574 37.2656C64.6004 37.0757 64.553 36.9162 64.515 36.7871C64.477 36.9428 64.4295 37.1175 64.3726 37.3112C64.3194 37.5011 64.2662 37.6796 64.2131 37.8467C64.1637 38.0138 64.1257 38.1429 64.0991 38.234L63.3016 40.5127H65.7511ZM74.8315 37.6929V43.999H73.7777L73.5954 43.1502H73.5213C73.3884 43.3667 73.2194 43.5471 73.0143 43.6914C72.8092 43.8319 72.5814 43.9364 72.3307 44.0047C72.0801 44.0769 71.8161 44.113 71.5389 44.113C71.0642 44.113 70.6578 44.0332 70.3198 43.8737C69.9856 43.7104 69.7293 43.4597 69.5508 43.1217C69.3723 42.7837 69.283 42.347 69.283 41.8115V37.6929H70.6274V41.5609C70.6274 42.0508 70.7262 42.4173 70.9237 42.6603C71.1249 42.9034 71.4364 43.0249 71.8579 43.0249C72.2643 43.0249 72.5871 42.9414 72.8263 42.7743C73.0656 42.6072 73.2346 42.3603 73.3333 42.0337C73.4359 41.7071 73.4871 41.3064 73.4871 40.8317V37.6929H74.8315ZM79.0983 43.0306C79.273 43.0306 79.4458 43.0154 79.6167 42.985C79.7876 42.9508 79.9433 42.911 80.0838 42.8654V43.8794C79.9357 43.944 79.7439 43.999 79.5085 44.0446C79.273 44.0902 79.028 44.113 78.7736 44.113C78.4166 44.113 78.0957 44.0541 77.8109 43.9364C77.526 43.8148 77.3001 43.6079 77.133 43.3154C76.9659 43.023 76.8823 42.6185 76.8823 42.1021V38.7126H76.0221V38.1144L76.945 37.6416L77.3836 36.2915H78.2267V37.6929H80.0326V38.7126H78.2267V42.085C78.2267 42.404 78.3065 42.6413 78.466 42.797C78.6255 42.9527 78.8363 43.0306 79.0983 43.0306ZM86.9482 40.8317C86.9482 41.3558 86.8799 41.821 86.7432 42.2274C86.6064 42.6337 86.4071 42.9774 86.145 43.2585C85.883 43.5357 85.5678 43.7484 85.1994 43.8965C84.831 44.0408 84.4151 44.113 83.9518 44.113C83.5189 44.113 83.122 44.0408 82.7612 43.8965C82.4004 43.7484 82.0871 43.5357 81.8213 43.2585C81.5592 42.9774 81.3561 42.6337 81.2117 42.2274C81.0674 41.821 80.9953 41.3558 80.9953 40.8317C80.9953 40.1367 81.1149 39.5481 81.3542 39.0658C81.5972 38.5796 81.9428 38.2094 82.3909 37.9549C82.8391 37.7005 83.3727 37.5732 83.9917 37.5732C84.5728 37.5732 85.0854 37.7005 85.5298 37.9549C85.9741 38.2094 86.3216 38.5796 86.5723 39.0658C86.8229 39.5519 86.9482 40.1405 86.9482 40.8317ZM82.3739 40.8317C82.3739 41.2912 82.4289 41.6843 82.5391 42.0109C82.653 42.3375 82.8277 42.5882 83.0631 42.7629C83.2986 42.9338 83.6024 43.0192 83.9746 43.0192C84.3468 43.0192 84.6506 42.9338 84.8861 42.7629C85.1215 42.5882 85.2943 42.3375 85.4045 42.0109C85.5146 41.6843 85.5697 41.2912 85.5697 40.8317C85.5697 40.3722 85.5146 39.9829 85.4045 39.6639C85.2943 39.3411 85.1215 39.0961 84.8861 38.929C84.6506 38.7581 84.3449 38.6727 83.9689 38.6727C83.4144 38.6727 83.01 38.8588 82.7555 39.231C82.5011 39.6031 82.3739 40.1367 82.3739 40.8317ZM95.6128 37.5732C96.3192 37.5732 96.8509 37.7555 97.2078 38.1201C97.5686 38.4847 97.749 39.0696 97.749 39.8747V43.999H96.4103V40.1139C96.4103 39.6354 96.3173 39.2746 96.1312 39.0316C95.9451 38.7885 95.6622 38.667 95.2824 38.667C94.7507 38.667 94.3671 38.8379 94.1317 39.1797C93.9 39.5177 93.7842 40.0095 93.7842 40.6551V43.999H92.4455V40.1139C92.4455 39.7949 92.4037 39.5291 92.3201 39.3164C92.2404 39.0999 92.117 38.9385 91.9499 38.8322C91.7828 38.7221 91.572 38.667 91.3175 38.667C90.9492 38.667 90.6548 38.7505 90.4346 38.9176C90.2181 39.0847 90.0624 39.3316 89.9674 39.6582C89.8725 39.981 89.825 40.3779 89.825 40.8488V43.999H88.4863V37.6929H89.5288L89.7168 38.5417H89.7909C89.92 38.3214 90.0795 38.141 90.2694 38.0005C90.4631 37.8562 90.6776 37.7498 90.9131 37.6815C91.1485 37.6093 91.3935 37.5732 91.6479 37.5732C92.1189 37.5732 92.5157 37.6568 92.8385 37.8239C93.1613 37.9872 93.4025 38.2378 93.562 38.5758H93.6645C93.862 38.234 94.1374 37.9815 94.4906 37.8182C94.8437 37.6549 95.2178 37.5732 95.6128 37.5732ZM102.09 37.5732C102.887 37.5732 103.489 37.7498 103.896 38.103C104.306 38.4562 104.511 39.0069 104.511 39.755V43.999H103.56L103.303 43.1047H103.258C103.079 43.3325 102.895 43.5205 102.705 43.6686C102.515 43.8167 102.295 43.9269 102.044 43.999C101.797 44.075 101.495 44.113 101.139 44.113C100.763 44.113 100.426 44.0446 100.13 43.9079C99.834 43.7674 99.6004 43.5547 99.4295 43.2699C99.2586 42.985 99.1732 42.6242 99.1732 42.1875C99.1732 41.5381 99.4143 41.0501 99.8966 40.7235C100.383 40.3969 101.116 40.2165 102.096 40.1823L103.189 40.1424V39.812C103.189 39.3753 103.087 39.0639 102.882 38.8778C102.68 38.6917 102.396 38.5986 102.027 38.5986C101.712 38.5986 101.406 38.6442 101.11 38.7354C100.814 38.8265 100.525 38.9385 100.244 39.0715L99.8112 38.1258C100.119 37.9625 100.468 37.8296 100.859 37.7271C101.254 37.6245 101.664 37.5732 102.09 37.5732ZM103.184 40.9855L102.369 41.014C101.701 41.0368 101.232 41.1507 100.962 41.3558C100.692 41.5609 100.557 41.8419 100.557 42.1989C100.557 42.5103 100.65 42.7382 100.837 42.8825C101.023 43.023 101.268 43.0933 101.571 43.0933C102.035 43.0933 102.418 42.9622 102.722 42.7002C103.03 42.4344 103.184 42.0451 103.184 41.5324V40.9855ZM108.732 43.0306C108.907 43.0306 109.08 43.0154 109.25 42.985C109.421 42.9508 109.577 42.911 109.718 42.8654V43.8794C109.569 43.944 109.378 43.999 109.142 44.0446C108.907 44.0902 108.662 44.113 108.407 44.113C108.05 44.113 107.729 44.0541 107.445 43.9364C107.16 43.8148 106.934 43.6079 106.767 43.3154C106.6 43.023 106.516 42.6185 106.516 42.1021V38.7126H105.656V38.1144L106.579 37.6416L107.017 36.2915H107.861V37.6929H109.666V38.7126H107.861V42.085C107.861 42.404 107.94 42.6413 108.1 42.797C108.259 42.9527 108.47 43.0306 108.732 43.0306ZM112.338 37.6929V43.999H110.999V37.6929H112.338ZM111.677 35.2775C111.882 35.2775 112.059 35.3326 112.207 35.4427C112.359 35.5528 112.435 35.7427 112.435 36.0124C112.435 36.2782 112.359 36.4681 112.207 36.582C112.059 36.6922 111.882 36.7472 111.677 36.7472C111.465 36.7472 111.284 36.6922 111.136 36.582C110.992 36.4681 110.92 36.2782 110.92 36.0124C110.92 35.7427 110.992 35.5528 111.136 35.4427C111.284 35.3326 111.465 35.2775 111.677 35.2775ZM116.798 44.113C116.202 44.113 115.686 43.9971 115.249 43.7655C114.812 43.5338 114.476 43.1787 114.241 42.7002C114.005 42.2217 113.888 41.614 113.888 40.8773C113.888 40.1101 114.017 39.4835 114.275 38.9974C114.533 38.5113 114.89 38.1524 115.346 37.9207C115.805 37.6891 116.331 37.5732 116.924 37.5732C117.3 37.5732 117.64 37.6112 117.944 37.6872C118.251 37.7593 118.511 37.8486 118.724 37.9549L118.325 39.0259C118.094 38.9309 117.856 38.8512 117.613 38.7866C117.37 38.7221 117.136 38.6898 116.912 38.6898C116.544 38.6898 116.236 38.7714 115.99 38.9347C115.747 39.098 115.564 39.3411 115.443 39.6639C115.325 39.9867 115.266 40.3874 115.266 40.8659C115.266 41.3292 115.327 41.7204 115.448 42.0394C115.57 42.3546 115.75 42.5939 115.99 42.7572C116.229 42.9167 116.523 42.9964 116.873 42.9964C117.218 42.9964 117.528 42.9546 117.801 42.8711C118.075 42.7875 118.333 42.6793 118.576 42.5464V43.7085C118.337 43.8452 118.08 43.9459 117.807 44.0104C117.533 44.0788 117.197 44.113 116.798 44.113Z" fill="#44AD4D"/>
<path d="M66.4095 56.999H65.2091L62.2957 52.2505H62.2591C62.27 52.4105 62.2795 52.5801 62.2876 52.7591C62.2984 52.9382 62.3066 53.1226 62.312 53.3125C62.3201 53.5024 62.3269 53.695 62.3324 53.8903V56.999H61.4453V51.0501H62.6375L65.5469 55.7661H65.5754C65.5699 55.6278 65.5632 55.4691 65.555 55.29C65.5469 55.111 65.5387 54.9265 65.5306 54.7367C65.5252 54.5441 65.5211 54.3582 65.5184 54.1792V51.0501H66.4095V56.999ZM71.862 54.7367C71.862 55.111 71.8132 55.4433 71.7155 55.7336C71.6178 56.0238 71.4754 56.2693 71.2882 56.4701C71.1011 56.6681 70.8759 56.82 70.6128 56.9258C70.3497 57.0289 70.0526 57.0804 69.7217 57.0804C69.4124 57.0804 69.129 57.0289 68.8713 56.9258C68.6136 56.82 68.3898 56.6681 68.1999 56.4701C68.0127 56.2693 67.8676 56.0238 67.7645 55.7336C67.6614 55.4433 67.6099 55.111 67.6099 54.7367C67.6099 54.2402 67.6953 53.8198 67.8662 53.4753C68.0398 53.128 68.2867 52.8636 68.6068 52.6818C68.9269 52.5001 69.308 52.4092 69.7502 52.4092C70.1652 52.4092 70.5314 52.5001 70.8488 52.6818C71.1662 52.8636 71.4144 53.128 71.5934 53.4753C71.7725 53.8225 71.862 54.2429 71.862 54.7367ZM68.5946 54.7367C68.5946 55.0649 68.6339 55.3456 68.7126 55.5789C68.7939 55.8122 68.9187 55.9913 69.0869 56.116C69.2551 56.2381 69.4721 56.2992 69.738 56.2992C70.0038 56.2992 70.2208 56.2381 70.389 56.116C70.5572 55.9913 70.6806 55.8122 70.7593 55.5789C70.8379 55.3456 70.8773 55.0649 70.8773 54.7367C70.8773 54.4084 70.8379 54.1304 70.7593 53.9025C70.6806 53.6719 70.5572 53.497 70.389 53.3776C70.2208 53.2555 70.0024 53.1945 69.7339 53.1945C69.3378 53.1945 69.0489 53.3274 68.8672 53.5933C68.6854 53.8591 68.5946 54.2402 68.5946 54.7367ZM75.2433 52.4092C75.3193 52.4092 75.402 52.4132 75.4915 52.4214C75.5811 52.4295 75.6584 52.4404 75.7235 52.4539L75.634 53.3491C75.577 53.3328 75.5065 53.3206 75.4224 53.3125C75.341 53.3044 75.2677 53.3003 75.2026 53.3003C75.0317 53.3003 74.869 53.3288 74.7144 53.3857C74.5597 53.44 74.4227 53.5241 74.3034 53.638C74.184 53.7492 74.0904 53.8889 74.0226 54.0571C73.9548 54.2253 73.9209 54.4206 73.9209 54.6431V56.999H72.9606V52.4946H73.7093L73.8395 53.2881H73.8843C73.9738 53.128 74.085 52.9816 74.2179 52.8486C74.3509 52.7157 74.5028 52.6099 74.6737 52.5313C74.8473 52.4499 75.0372 52.4092 75.2433 52.4092ZM80.2401 56.995L79.6704 54.8994C79.6433 54.7963 79.6107 54.6715 79.5728 54.5251C79.5348 54.3786 79.4968 54.228 79.4588 54.0734C79.4208 53.9161 79.3856 53.7709 79.353 53.638C79.3232 53.5051 79.3001 53.402 79.2839 53.3288H79.2513C79.2377 53.402 79.216 53.5051 79.1862 53.638C79.1564 53.7709 79.1224 53.9161 79.0845 54.0734C79.0465 54.2307 79.0085 54.384 78.9705 54.5332C78.9353 54.6824 78.9027 54.8099 78.8729 54.9157L78.2747 56.995H77.2249L75.9635 52.4906H76.932L77.5179 54.7285C77.5559 54.8804 77.5925 55.0445 77.6278 55.2209C77.6657 55.3972 77.6983 55.5654 77.7254 55.7254C77.7525 55.8855 77.7729 56.017 77.7865 56.1201H77.819C77.8299 56.0469 77.8448 55.9546 77.8638 55.8434C77.8828 55.7295 77.9045 55.6115 77.9289 55.4894C77.9533 55.3646 77.9777 55.248 78.0021 55.1395C78.0265 55.0283 78.0496 54.9387 78.0713 54.8709L78.763 52.4906H79.8088L80.472 54.8709C80.5018 54.974 80.5344 55.1042 80.5697 55.2616C80.6049 55.4162 80.6361 55.5722 80.6632 55.7295C80.6931 55.8841 80.7121 56.013 80.7202 56.116H80.7528C80.7636 56.0238 80.7826 55.899 80.8097 55.7417C80.8396 55.5817 80.8735 55.4121 80.9115 55.2331C80.9494 55.0513 80.9888 54.8831 81.0295 54.7285L81.6276 52.4906H82.5798L81.3102 56.995H80.2401ZM85.1188 52.4092C85.6885 52.4092 86.1184 52.5353 86.4087 52.7876C86.7017 53.0399 86.8481 53.4332 86.8481 53.9676V56.999H86.1686L85.9855 56.3602H85.953C85.8255 56.5229 85.6939 56.6572 85.5583 56.763C85.4226 56.8688 85.2653 56.9475 85.0863 56.999C84.9099 57.0533 84.6943 57.0804 84.4393 57.0804C84.1707 57.0804 83.9307 57.0316 83.7191 56.9339C83.5075 56.8336 83.3407 56.6816 83.2186 56.4782C83.0965 56.2747 83.0355 56.017 83.0355 55.7051C83.0355 55.2412 83.2077 54.8926 83.5522 54.6593C83.8995 54.4261 84.423 54.2972 85.1229 54.2728L85.9041 54.2443V54.0083C85.9041 53.6963 85.8309 53.4739 85.6844 53.341C85.5406 53.2081 85.3372 53.1416 85.0741 53.1416C84.8489 53.1416 84.6305 53.1742 84.4189 53.2393C84.2074 53.3044 84.0012 53.3844 83.8005 53.4793L83.4912 52.8039C83.7109 52.6872 83.9605 52.5923 84.2399 52.519C84.522 52.4458 84.815 52.4092 85.1188 52.4092ZM85.9001 54.8465L85.3182 54.8669C84.8408 54.8831 84.5057 54.9645 84.3131 55.111C84.1205 55.2575 84.0242 55.4582 84.0242 55.7132C84.0242 55.9357 84.0907 56.0984 84.2236 56.2015C84.3566 56.3019 84.5315 56.3521 84.7485 56.3521C85.0795 56.3521 85.3535 56.2585 85.5705 56.0713C85.7902 55.8814 85.9001 55.6034 85.9001 55.2371V54.8465ZM87.5073 52.4946H88.549L89.4727 55.0662C89.5133 55.1829 89.55 55.2982 89.5825 55.4121C89.6178 55.5233 89.6476 55.6332 89.672 55.7417C89.6992 55.8502 89.7209 55.9587 89.7371 56.0672H89.7616C89.7887 55.9262 89.8267 55.7688 89.8755 55.5952C89.927 55.4189 89.984 55.2426 90.0464 55.0662L90.9334 52.4946H91.9629L90.0301 57.6175C89.9189 57.9105 89.7819 58.16 89.6191 58.3662C89.4591 58.5751 89.2692 58.7324 89.0495 58.8382C88.8298 58.9467 88.5788 59.001 88.2967 59.001C88.1611 59.001 88.0431 58.9928 87.9427 58.9766C87.8423 58.963 87.7569 58.9481 87.6864 58.9318V58.1668C87.7433 58.1804 87.8152 58.1926 87.902 58.2035C87.9888 58.2143 88.0783 58.2197 88.1706 58.2197C88.3415 58.2197 88.4893 58.1858 88.6141 58.118C88.7389 58.0502 88.8447 57.9539 88.9315 57.8291C89.0183 57.707 89.0902 57.5673 89.1471 57.41L89.3058 56.9868L87.5073 52.4946ZM93.6108 56.0306L93.6678 56.1242C93.619 56.3195 93.5566 56.5297 93.4806 56.7549C93.4047 56.98 93.3219 57.2052 93.2324 57.4303C93.1429 57.6582 93.052 57.8725 92.9598 58.0732H92.2599C92.3169 57.8535 92.3711 57.6229 92.4227 57.3815C92.4769 57.1428 92.5258 56.9068 92.5692 56.6735C92.6153 56.4375 92.6519 56.2232 92.679 56.0306H93.6108ZM100.614 55.3796C100.614 55.7322 100.527 56.036 100.353 56.291C100.182 56.546 99.9354 56.7413 99.6126 56.877C99.2925 57.0126 98.91 57.0804 98.4652 57.0804C98.2482 57.0804 98.0406 57.0682 97.8426 57.0438C97.6446 57.0194 97.4574 56.9841 97.2811 56.938C97.1075 56.8892 96.9488 56.8308 96.805 56.763V55.8434C97.0464 55.9492 97.3163 56.0455 97.6147 56.1323C97.9131 56.2164 98.217 56.2585 98.5262 56.2585C98.7785 56.2585 98.9874 56.2259 99.1528 56.1608C99.321 56.093 99.4458 55.998 99.5272 55.876C99.6086 55.7512 99.6492 55.6061 99.6492 55.4406C99.6492 55.2643 99.6018 55.1151 99.5068 54.993C99.4119 54.8709 99.2681 54.7597 99.0755 54.6593C98.8856 54.5563 98.6469 54.4464 98.3594 54.3298C98.1641 54.2511 97.9769 54.1616 97.7978 54.0612C97.6215 53.9608 97.4642 53.8428 97.3258 53.7072C97.1875 53.5716 97.0776 53.4115 96.9963 53.2271C96.9176 53.0399 96.8783 52.8201 96.8783 52.5679C96.8783 52.2315 96.9583 51.944 97.1183 51.7052C97.2811 51.4665 97.5089 51.2834 97.8019 51.1559C98.0976 51.0284 98.4421 50.9647 98.8354 50.9647C99.1474 50.9647 99.4404 50.9972 99.7144 51.0623C99.991 51.1274 100.262 51.2197 100.528 51.339L100.219 52.1243C99.9748 52.024 99.7374 51.944 99.5068 51.8843C99.279 51.8246 99.0457 51.7948 98.807 51.7948C98.6008 51.7948 98.4258 51.826 98.2821 51.8883C98.1383 51.9507 98.0284 52.0389 97.9525 52.1528C97.8792 52.2641 97.8426 52.397 97.8426 52.5516C97.8426 52.7252 97.8847 52.8717 97.9687 52.991C98.0556 53.1077 98.1885 53.2148 98.3675 53.3125C98.5493 53.4102 98.7825 53.5187 99.0674 53.638C99.3956 53.7737 99.6737 53.9161 99.9015 54.0653C100.132 54.2145 100.308 54.3935 100.43 54.6024C100.553 54.8085 100.614 55.0676 100.614 55.3796ZM103.34 56.3073C103.465 56.3073 103.588 56.2964 103.71 56.2747C103.832 56.2503 103.943 56.2218 104.044 56.1893V56.9136C103.938 56.9597 103.801 56.999 103.633 57.0316C103.465 57.0641 103.29 57.0804 103.108 57.0804C102.853 57.0804 102.624 57.0384 102.42 56.9543C102.217 56.8675 102.055 56.7196 101.936 56.5107C101.817 56.3019 101.757 56.013 101.757 55.644V53.223H101.143V52.7957L101.802 52.458L102.115 51.4937H102.717V52.4946H104.007V53.223H102.717V55.6318C102.717 55.8597 102.774 56.0292 102.888 56.1405C103.002 56.2517 103.153 56.3073 103.34 56.3073ZM106.725 52.4092C107.295 52.4092 107.725 52.5353 108.015 52.7876C108.308 53.0399 108.455 53.4332 108.455 53.9676V56.999H107.775L107.592 56.3602H107.559C107.432 56.5229 107.3 56.6572 107.165 56.763C107.029 56.8688 106.872 56.9475 106.693 56.999C106.516 57.0533 106.301 57.0804 106.046 57.0804C105.777 57.0804 105.537 57.0316 105.326 56.9339C105.114 56.8336 104.947 56.6816 104.825 56.4782C104.703 56.2747 104.642 56.017 104.642 55.7051C104.642 55.2412 104.814 54.8926 105.159 54.6593C105.506 54.4261 106.029 54.2972 106.729 54.2728L107.511 54.2443V54.0083C107.511 53.6963 107.437 53.4739 107.291 53.341C107.147 53.2081 106.944 53.1416 106.68 53.1416C106.455 53.1416 106.237 53.1742 106.025 53.2393C105.814 53.3044 105.608 53.3844 105.407 53.4793L105.098 52.8039C105.317 52.6872 105.567 52.5923 105.846 52.519C106.128 52.4458 106.421 52.4092 106.725 52.4092ZM107.507 54.8465L106.925 54.8669C106.447 54.8831 106.112 54.9645 105.92 55.111C105.727 55.2575 105.631 55.4582 105.631 55.7132C105.631 55.9357 105.697 56.0984 105.83 56.2015C105.963 56.3019 106.138 56.3521 106.355 56.3521C106.686 56.3521 106.96 56.2585 107.177 56.0713C107.397 55.8814 107.507 55.6034 107.507 55.2371V54.8465ZM110.823 56.999L109.11 52.4946H110.123L111.051 55.1395C111.11 55.3077 111.165 55.4894 111.213 55.6847C111.262 55.88 111.296 56.0442 111.315 56.1771H111.348C111.367 56.0387 111.403 55.8733 111.458 55.6807C111.512 55.4854 111.567 55.305 111.624 55.1395L112.552 52.4946H113.561L111.848 56.999H110.823ZM116.011 52.4092C116.58 52.4092 117.01 52.5353 117.301 52.7876C117.594 53.0399 117.74 53.4332 117.74 53.9676V56.999H117.061L116.877 56.3602H116.845C116.717 56.5229 116.586 56.6572 116.45 56.763C116.315 56.8688 116.157 56.9475 115.978 56.999C115.802 57.0533 115.586 57.0804 115.331 57.0804C115.063 57.0804 114.823 57.0316 114.611 56.9339C114.399 56.8336 114.233 56.6816 114.111 56.4782C113.988 56.2747 113.927 56.017 113.927 55.7051C113.927 55.2412 114.1 54.8926 114.444 54.6593C114.791 54.4261 115.315 54.2972 116.015 54.2728L116.796 54.2443V54.0083C116.796 53.6963 116.723 53.4739 116.576 53.341C116.433 53.2081 116.229 53.1416 115.966 53.1416C115.741 53.1416 115.522 53.1742 115.311 53.2393C115.099 53.3044 114.893 53.3844 114.692 53.4793L114.383 52.8039C114.603 52.6872 114.852 52.5923 115.132 52.519C115.414 52.4458 115.707 52.4092 116.011 52.4092ZM116.792 54.8465L116.21 54.8669C115.733 54.8831 115.398 54.9645 115.205 55.111C115.012 55.2575 114.916 55.4582 114.916 55.7132C114.916 55.9357 114.983 56.0984 115.116 56.2015C115.248 56.3019 115.423 56.3521 115.64 56.3521C115.971 56.3521 116.245 56.2585 116.462 56.0713C116.682 55.8814 116.792 55.6034 116.792 55.2371V54.8465ZM121.427 52.4092C121.934 52.4092 122.329 52.5407 122.611 52.8039C122.896 53.0643 123.038 53.4834 123.038 54.0612V56.999H122.082V54.2402C122.082 53.8903 122.01 53.6285 121.866 53.4549C121.722 53.2786 121.5 53.1904 121.199 53.1904C120.762 53.1904 120.458 53.3247 120.287 53.5933C120.119 53.8618 120.035 54.2511 120.035 54.7611V56.999H119.079V52.4946H119.823L119.958 53.105H120.011C120.108 52.9476 120.229 52.8188 120.373 52.7184C120.519 52.6153 120.682 52.538 120.861 52.4865C121.043 52.435 121.231 52.4092 121.427 52.4092ZM125.662 59.001C125.052 59.001 124.584 58.8911 124.259 58.6714C123.933 58.4517 123.77 58.1438 123.77 57.7477C123.77 57.471 123.857 57.2364 124.031 57.0438C124.204 56.8539 124.453 56.7223 124.775 56.6491C124.653 56.5948 124.548 56.5107 124.458 56.3968C124.371 56.2802 124.328 56.1513 124.328 56.0103C124.328 55.8421 124.375 55.6983 124.47 55.5789C124.565 55.4596 124.708 55.3443 124.897 55.2331C124.661 55.1327 124.472 54.9699 124.328 54.7448C124.187 54.5169 124.116 54.2497 124.116 53.9432C124.116 53.6177 124.185 53.341 124.324 53.1131C124.462 52.8825 124.664 52.7076 124.93 52.5882C125.196 52.4661 125.517 52.4051 125.894 52.4051C125.976 52.4051 126.064 52.4105 126.159 52.4214C126.257 52.4295 126.346 52.4404 126.427 52.4539C126.511 52.4648 126.575 52.477 126.619 52.4906H128.177V53.0236L127.412 53.166C127.485 53.2691 127.544 53.3871 127.587 53.52C127.63 53.6502 127.652 53.7926 127.652 53.9473C127.652 54.4138 127.491 54.7814 127.168 55.05C126.848 55.3158 126.406 55.4487 125.841 55.4487C125.706 55.4433 125.574 55.4325 125.447 55.4162C125.349 55.4759 125.275 55.5423 125.223 55.6156C125.171 55.6861 125.146 55.7661 125.146 55.8556C125.146 55.9289 125.171 55.9886 125.223 56.0347C125.275 56.0781 125.35 56.1106 125.451 56.1323C125.554 56.154 125.679 56.1649 125.825 56.1649H126.602C127.096 56.1649 127.473 56.2693 127.734 56.4782C127.994 56.6871 128.124 56.9936 128.124 57.3978C128.124 57.9105 127.913 58.3052 127.489 58.5819C127.066 58.8613 126.457 59.001 125.662 59.001ZM125.699 58.3296C126.033 58.3296 126.313 58.297 126.541 58.2319C126.769 58.1668 126.941 58.0732 127.058 57.9512C127.175 57.8318 127.233 57.6894 127.233 57.5239C127.233 57.3774 127.196 57.2649 127.123 57.1862C127.05 57.1075 126.94 57.0533 126.794 57.0234C126.647 56.9936 126.465 56.9787 126.248 56.9787H125.54C125.364 56.9787 125.208 57.0058 125.072 57.0601C124.937 57.117 124.831 57.1984 124.755 57.3042C124.682 57.41 124.645 57.5375 124.645 57.6867C124.645 57.8928 124.736 58.0515 124.918 58.1628C125.102 58.274 125.363 58.3296 125.699 58.3296ZM125.886 54.8221C126.166 54.8221 126.373 54.7461 126.509 54.5942C126.644 54.4396 126.712 54.2226 126.712 53.9432C126.712 53.6394 126.642 53.4115 126.501 53.2596C126.362 53.1077 126.156 53.0317 125.882 53.0317C125.614 53.0317 125.409 53.109 125.268 53.2637C125.129 53.4183 125.06 53.6475 125.06 53.9513C125.06 54.2253 125.129 54.4396 125.268 54.5942C125.409 54.7461 125.615 54.8221 125.886 54.8221ZM130.793 52.4092C131.195 52.4092 131.539 52.4919 131.827 52.6574C132.115 52.8229 132.336 53.0575 132.49 53.3613C132.645 53.6651 132.722 54.0286 132.722 54.4518V54.9645H129.715C129.726 55.4013 129.843 55.7376 130.065 55.9736C130.29 56.2096 130.605 56.3276 131.009 56.3276C131.297 56.3276 131.554 56.3005 131.782 56.2463C132.013 56.1893 132.25 56.1066 132.494 55.998V56.7752C132.269 56.881 132.04 56.9583 131.807 57.0072C131.573 57.056 131.294 57.0804 130.968 57.0804C130.526 57.0804 130.137 56.995 129.801 56.8241C129.467 56.6504 129.205 56.3927 129.015 56.0509C128.828 55.7091 128.735 55.2846 128.735 54.7773C128.735 54.2728 128.82 53.8442 128.991 53.4915C129.162 53.1389 129.402 52.8703 129.711 52.6859C130.02 52.5014 130.381 52.4092 130.793 52.4092ZM130.793 53.1294C130.492 53.1294 130.248 53.2271 130.061 53.4224C129.877 53.6177 129.768 53.9039 129.736 54.2809H131.786C131.784 54.0558 131.746 53.8564 131.672 53.6828C131.602 53.5092 131.493 53.3735 131.347 53.2759C131.203 53.1782 131.019 53.1294 130.793 53.1294ZM136.083 52.4092C136.159 52.4092 136.242 52.4132 136.331 52.4214C136.421 52.4295 136.498 52.4404 136.563 52.4539L136.474 53.3491C136.417 53.3328 136.346 53.3206 136.262 53.3125C136.181 53.3044 136.108 53.3003 136.042 53.3003C135.872 53.3003 135.709 53.3288 135.554 53.3857C135.4 53.44 135.263 53.5241 135.143 53.638C135.024 53.7492 134.93 53.8889 134.862 54.0571C134.795 54.2253 134.761 54.4206 134.761 54.6431V56.999H133.8V52.4946H134.549L134.679 53.2881H134.724C134.814 53.128 134.925 52.9816 135.058 52.8486C135.191 52.7157 135.343 52.6099 135.514 52.5313C135.687 52.4499 135.877 52.4092 136.083 52.4092Z" fill="white" fill-opacity="0.6"/>
<mask id="mask0_10438_2146" style="mask-type:alpha" maskUnits="userSpaceOnUse" x="37" y="35" width="21" height="21">
<rect x="37.332" y="35.999" width="20" height="20" fill="white"/>
</mask>
<g mask="url(#mask0_10438_2146)">
<path fill-rule="evenodd" clip-rule="evenodd" d="M53.3367 41.2431C53.6621 41.5685 53.6621 42.0962 53.3367 42.4216L45.8367 49.9216C45.5247 50.2336 45.0235 50.2483 44.6938 49.9552L40.9438 46.6219C40.5998 46.3161 40.5688 45.7894 40.8746 45.4454C41.1803 45.1014 41.7071 45.0704 42.051 45.3762L45.2138 48.1875L52.1581 41.2431C52.4836 40.9177 53.0112 40.9177 53.3367 41.2431Z" fill="#44AD4D"/>
</g>
</g>
<rect width="40" height="40" transform="translate(224 25.999)" fill="#294D73"/>
<mask id="mask1_10438_2146" style="mask-type:alpha" maskUnits="userSpaceOnUse" x="234" y="35" width="20" height="21">
<path d="M254 35.999H234V55.999H254V35.999Z" fill="white"/>
</mask>
<g mask="url(#mask1_10438_2146)">
<path fill-rule="evenodd" clip-rule="evenodd" d="M244.001 54.3327C248.604 54.3327 252.335 50.6017 252.335 45.9993C252.335 41.397 248.604 37.666 244.001 37.666C239.399 37.666 235.668 41.397 235.668 45.9993C235.668 50.6017 239.399 54.3327 244.001 54.3327ZM244.835 41.8327C244.835 42.2929 244.462 42.666 244.001 42.666C243.541 42.666 243.168 42.2929 243.168 41.8327C243.168 41.3724 243.541 40.9993 244.001 40.9993C244.462 40.9993 244.835 41.3724 244.835 41.8327ZM244.835 50.166C244.835 50.6263 244.462 50.9993 244.001 50.9993C243.541 50.9993 243.168 50.6263 243.168 50.166V45.166C243.168 44.7058 243.541 44.3327 244.001 44.3327C244.462 44.3327 244.835 44.7058 244.835 45.166V50.166Z" fill="white"/>
</g>
</g>
</g>
<g clip-path="url(#clip4_10438_2146)">
<g clip-path="url(#clip5_10438_2146)">
<g clip-path="url(#clip6_10438_2146)">
<rect width="198.333" height="40" transform="translate(24 69.333)" fill="#294D73"/>
<path d="M43.5869 93.833L42.7723 91.5202H39.5879L38.7733 93.833H37.332L40.431 85.4704H41.9463L45.0396 93.833H43.5869ZM42.4191 90.3467L41.6273 88.068C41.5969 87.9693 41.5532 87.8307 41.4963 87.6522C41.4393 87.4699 41.3823 87.2857 41.3254 87.0996C41.2684 86.9097 41.2209 86.7502 41.1829 86.6211C41.145 86.7768 41.0975 86.9515 41.0405 87.1452C40.9874 87.3351 40.9342 87.5136 40.881 87.6807C40.8317 87.8478 40.7937 87.9769 40.7671 88.068L39.9696 90.3467H42.4191ZM47.3467 93.833H46.0023V84.9691H47.3467V93.833ZM50.5994 84.9691V87.1053C50.5994 87.3522 50.5919 87.5952 50.5767 87.8345C50.5653 88.0699 50.5539 88.2541 50.5425 88.387H50.5994C50.7703 88.1136 51.0077 87.8838 51.3115 87.6978C51.6191 87.5079 52.0122 87.4129 52.4907 87.4129C53.2389 87.4129 53.8408 87.6883 54.2965 88.2389C54.7523 88.7858 54.9801 89.5966 54.9801 90.6714C54.9801 91.3854 54.8757 91.9854 54.6668 92.4715C54.458 92.9576 54.1636 93.326 53.7839 93.5767C53.4079 93.8235 52.9654 93.9469 52.4565 93.9469C51.978 93.9469 51.5907 93.8596 51.2944 93.6849C51.002 93.5064 50.7722 93.2994 50.6051 93.064H50.5083L50.2633 93.833H49.2607V84.9691H50.5994ZM52.1375 88.501C51.7578 88.501 51.4558 88.5769 51.2318 88.7288C51.0115 88.8808 50.852 89.1086 50.7533 89.4124C50.6545 89.7125 50.6032 90.0941 50.5994 90.5575V90.6771C50.5994 91.3797 50.7096 91.917 50.9299 92.2892C51.1539 92.6614 51.5603 92.8475 52.1489 92.8475C52.616 92.8475 52.9749 92.6595 53.2256 92.2835C53.4762 91.9038 53.6016 91.3607 53.6016 90.6543C53.6016 89.9403 53.4762 89.4029 53.2256 89.0422C52.9787 88.6814 52.616 88.501 52.1375 88.501ZM59.002 87.4072C59.7995 87.4072 60.4014 87.5838 60.8078 87.937C61.2179 88.2902 61.423 88.8409 61.423 89.589V93.833H60.4717L60.2153 92.9386H60.1698C59.9913 93.1665 59.8071 93.3545 59.6172 93.5026C59.4273 93.6507 59.207 93.7609 58.9564 93.833C58.7095 93.909 58.4076 93.9469 58.0506 93.9469C57.6746 93.9469 57.3385 93.8786 57.0423 93.7419C56.7461 93.6013 56.5125 93.3887 56.3416 93.1038C56.1707 92.819 56.0853 92.4582 56.0853 92.0215C56.0853 91.3721 56.3264 90.8841 56.8088 90.5575C57.2949 90.2308 58.0278 90.0505 59.0076 90.0163L60.1014 89.9764V89.646C60.1014 89.2093 59.9989 88.8978 59.7938 88.7118C59.5925 88.5257 59.3077 88.4326 58.9393 88.4326C58.6241 88.4326 58.3184 88.4782 58.0221 88.5693C57.7259 88.6605 57.4373 88.7725 57.1562 88.9054L56.7233 87.9598C57.0309 87.7965 57.3803 87.6636 57.7715 87.561C58.1664 87.4585 58.5766 87.4072 59.002 87.4072ZM60.0957 90.8195L59.2811 90.848C58.6127 90.8708 58.1437 90.9847 57.874 91.1898C57.6044 91.3949 57.4696 91.6759 57.4696 92.0329C57.4696 92.3443 57.5626 92.5722 57.7487 92.7165C57.9348 92.857 58.1797 92.9272 58.4836 92.9272C58.9469 92.9272 59.3305 92.7962 59.6343 92.5342C59.9419 92.2683 60.0957 91.8791 60.0957 91.3664V90.8195ZM66.5841 87.4072C67.2943 87.4072 67.8469 87.5914 68.2419 87.9598C68.6406 88.3244 68.84 88.9111 68.84 89.7201V93.833H67.5013V89.9707C67.5013 89.4808 67.4007 89.1143 67.1994 88.8713C66.9981 88.6244 66.6867 88.501 66.2651 88.501C65.6537 88.501 65.2284 88.689 64.9891 89.0649C64.7536 89.4409 64.6359 89.9859 64.6359 90.6999V93.833H63.2972V87.5269H64.3397L64.5277 88.3813H64.6017C64.7384 88.1611 64.9074 87.9807 65.1087 87.8402C65.3138 87.6959 65.5417 87.5876 65.7923 87.5155C66.0468 87.4433 66.3107 87.4072 66.5841 87.4072ZM72.0529 87.5269V93.833H70.7142V87.5269H72.0529ZM71.3921 85.1115C71.5972 85.1115 71.7738 85.1666 71.9219 85.2767C72.0738 85.3868 72.1497 85.5767 72.1497 85.8464C72.1497 86.1122 72.0738 86.3021 71.9219 86.416C71.7738 86.5262 71.5972 86.5812 71.3921 86.5812C71.1794 86.5812 70.999 86.5262 70.8509 86.416C70.7066 86.3021 70.6344 86.1122 70.6344 85.8464C70.6344 85.5767 70.7066 85.3868 70.8509 85.2767C70.999 85.1666 71.1794 85.1115 71.3921 85.1115ZM76.445 87.4072C77.2425 87.4072 77.8445 87.5838 78.2508 87.937C78.661 88.2902 78.866 88.8409 78.866 89.589V93.833H77.9147L77.6584 92.9386H77.6128C77.4343 93.1665 77.2501 93.3545 77.0602 93.5026C76.8703 93.6507 76.6501 93.7609 76.3994 93.833C76.1526 93.909 75.8506 93.9469 75.4937 93.9469C75.1177 93.9469 74.7816 93.8786 74.4854 93.7419C74.1891 93.6013 73.9556 93.3887 73.7847 93.1038C73.6138 92.819 73.5283 92.4582 73.5283 92.0215C73.5283 91.3721 73.7695 90.8841 74.2518 90.5575C74.7379 90.2308 75.4709 90.0505 76.4507 90.0163L77.5444 89.9764V89.646C77.5444 89.2093 77.4419 88.8978 77.2368 88.7118C77.0355 88.5257 76.7507 88.4326 76.3823 88.4326C76.0671 88.4326 75.7614 88.4782 75.4652 88.5693C75.1689 88.6605 74.8803 88.7725 74.5993 88.9054L74.1663 87.9598C74.474 87.7965 74.8234 87.6636 75.2145 87.561C75.6095 87.4585 76.0196 87.4072 76.445 87.4072ZM77.5387 90.8195L76.7241 90.848C76.0557 90.8708 75.5867 90.9847 75.3171 91.1898C75.0474 91.3949 74.9126 91.6759 74.9126 92.0329C74.9126 92.3443 75.0056 92.5722 75.1917 92.7165C75.3778 92.857 75.6228 92.9272 75.9266 92.9272C76.3899 92.9272 76.7735 92.7962 77.0773 92.5342C77.3849 92.2683 77.5387 91.8791 77.5387 91.3664V90.8195Z" fill="white"/>
</g>
<rect width="40" height="40" transform="translate(224 69.333)" fill="#294D73"/>
<mask id="mask2_10438_2146" style="mask-type:alpha" maskUnits="userSpaceOnUse" x="234" y="79" width="20" height="21">
<rect x="234" y="79.333" width="20" height="20" fill="white"/>
</mask>
<g mask="url(#mask2_10438_2146)">
<path fill-rule="evenodd" clip-rule="evenodd" d="M247.924 87.0771C247.598 86.7516 247.071 86.7516 246.745 87.0771L244.001 89.8212L241.257 87.0771C240.932 86.7516 240.404 86.7516 240.079 87.0771C239.753 87.4025 239.753 87.9302 240.079 88.2556L243.412 91.5889C243.737 91.9144 244.265 91.9144 244.591 91.5889L247.924 88.2556C248.249 87.9302 248.249 87.4025 247.924 87.0771Z" fill="white"/>
</g>
</g>
</g>
<path d="M144 -322.5C347.241 -322.5 512 -157.741 512 45.5C512 248.741 347.241 413.5 144 413.5C-59.2408 413.5 -224 248.741 -224 45.5C-224 -157.741 -59.2408 -322.5 144 -322.5ZM37 20.5C23.1929 20.5 12 31.6929 12 45.5C12 59.3071 23.1929 70.5 37 70.5H251C264.807 70.5 276 59.3071 276 45.5C276 31.6929 264.807 20.5 251 20.5H37Z" fill="black" fill-opacity="0.4"/>
</g>
<path d="M12 1H276C282.075 1 287 5.92487 287 12V79C287 85.0751 282.075 90 276 90H12C5.92487 90 1 85.0751 1 79V12C1 5.92487 5.92487 1 12 1Z" stroke="#304358" stroke-width="2"/>
<defs>
<clipPath id="clip0_10438_2146">
<path d="M0 12C0 5.37258 5.37258 0 12 0H276C282.627 0 288 5.37258 288 12V79C288 85.6274 282.627 91 276 91H12C5.37259 91 0 85.6274 0 79V12Z" fill="white"/>
</clipPath>
<clipPath id="clip1_10438_2146">
<rect width="240" height="40" fill="white" transform="translate(24 25.999)"/>
</clipPath>
<clipPath id="clip2_10438_2146">
<path d="M24 39.3324C24 31.9686 29.9695 25.999 37.3333 25.999H250.667C258.03 25.999 264 31.9686 264 39.3324V52.6657C264 60.0295 258.03 65.999 250.667 65.999H37.3333C29.9695 65.999 24 60.0295 24 52.6657V39.3324Z" fill="white"/>
</clipPath>
<clipPath id="clip3_10438_2146">
<rect width="198.333" height="40" fill="white" transform="translate(24 25.999)"/>
</clipPath>
<clipPath id="clip4_10438_2146">
<rect width="240" height="40" fill="white" transform="translate(24 69.333)"/>
</clipPath>
<clipPath id="clip5_10438_2146">
<path d="M24 82.6663C24 75.3025 29.9695 69.333 37.3333 69.333H250.667C258.03 69.333 264 75.3025 264 82.6663V95.9997C264 103.363 258.03 109.333 250.667 109.333H37.3333C29.9695 109.333 24 103.363 24 95.9997V82.6663Z" fill="white"/>
</clipPath>
<clipPath id="clip6_10438_2146">
<rect width="198.333" height="40" fill="white" transform="translate(24 69.333)"/>
</clipPath>
</defs>
</svg>
