<svg width="16" height="16" viewBox="0 0 16 16" version="1.1" xmlns="http://www.w3.org/2000/svg" xmlns:xlink="http://www.w3.org/1999/xlink"><title>icon close sml</title><desc>Created with Sketch.</desc><g id="Symbols" stroke="none" stroke-width="1" fill="none" fill-rule="evenodd" fill-opacity="1"><g id="Views/Login-Inputted-filltered-prev-IDs" transform="translate(-268.000000, -403.000000)" fill="#294D73"><g id="Input" transform="translate(24.000000, 338.000000)"><g id="suggestions" transform="translate(0.000000, 49.000000)"><g id="1"><path d="M253,24 L255.290281,21.7097195 C255.681035,21.3189651 255.684193,20.6841926 255.294624,20.2946243 L255.705376,20.7053757 C255.316406,20.3164062 254.682248,20.3177522 254.290281,20.7097195 L252,23 L249.709719,20.7097195 C249.317752,20.3177522 248.683594,20.3164062 248.294624,20.7053757 L248.705376,20.2946243 C248.315807,20.6841926 248.318965,21.3189651 248.709719,21.7097195 L251,24 L248.709719,26.2902805 C248.318965,26.6810349 248.315807,27.3158074 248.705376,27.7053757 L248.294624,27.2946243 C248.683594,27.6835938 249.317752,27.6822478 249.709719,27.2902805 L252,25 L254.290281,27.2902805 C254.682248,27.6822478 255.316406,27.6835938 255.705376,27.2946243 L255.294624,27.7053757 C255.684193,27.3158074 255.681035,26.6810349 255.290281,26.2902805 L253,24 Z M252,32 C247.58208,32 244,28.41792 244,24 C244,19.58208 247.58208,16 252,16 C256.41792,16 260,19.58208 260,24 C260,28.41792 256.41792,32 252,32 Z" id="icon-close-sml"/></g></g></g></g></g></svg>