<svg width="16" height="19" viewBox="0 0 16 19" fill="none" xmlns="http://www.w3.org/2000/svg">
  <g id="Language-Icon-Fireworks [Converted]">
    <path
      id="Fill 1"
      d="M7.99265 2.4425L1.80328 0.203491V14.0097L7.99265 11.9575V2.4425Z"
      fill="#000105" />
    <path
      id="Fill 2"
      d="M7.84454 2.43615L14.2711 0.197144V14.0033L7.84454 11.9512V2.43615Z"
      fill="#FFFFFE" />
    <path
      id="Fill 3"
      d="M0.19812 16.4269L7.84599 13.8142V2.43384L0.19812 5.04654V16.4269Z"
      fill="#FFFFFE" />
    <path
      id="Fill 4"
      d="M11.3289 16.5986L12.4104 18.4259L12.9836 16.7285L11.3289 16.5986Z"
      fill="#000105" />
    <path
      id="Fill 5"
      d="M2.79811 6.35674C2.75794 6.31636 2.85142 6.69085 2.9812 6.82544C3.04391 6.90299 3.12097 6.96705 3.20794 7.01393C3.29492 7.06081 3.39009 7.08958 3.48797 7.09859C3.70377 7.10051 3.91787 7.05936 4.11834 6.97745C4.32665 6.90182 4.50659 6.76116 4.63283 6.57526C4.66044 6.53201 4.67855 6.48313 4.68588 6.432C4.69322 6.38087 4.68962 6.32871 4.67532 6.27915C4.67325 6.2525 4.66589 6.22657 4.6537 6.20294C4.64151 6.17931 4.62473 6.15849 4.60441 6.14173C4.58409 6.12498 4.56064 6.11266 4.53551 6.10552C4.51037 6.09838 4.48408 6.09658 4.45824 6.10022C4.26471 6.13342 4.07368 6.18051 3.88658 6.24115C3.73208 6.28865 3.42308 6.38682 3.28325 6.41691C3.11919 6.44137 2.95174 6.42061 2.79811 6.35674Z"
      fill="#000105" />
    <path
      id="Fill 6"
      d="M6.65638 10.8388C6.59613 10.8166 5.34929 10.2846 5.17316 10.2006C5.0287 10.1294 4.67411 9.97578 4.50725 9.90611C4.97694 9.16267 5.27358 8.60292 5.31375 8.51741C5.38714 8.35907 5.88387 7.36386 5.89546 7.30211C5.91103 7.18725 5.91568 7.07111 5.90936 6.95533C5.89855 6.89991 5.71623 7.00679 5.46826 7.09309C5.22028 7.17939 4.74905 7.4945 4.56751 7.5325C4.38597 7.5705 3.80117 7.79852 3.50221 7.89986C3.20325 8.00121 2.63854 8.17855 2.40602 8.24268C2.17349 8.30681 1.96955 8.31156 1.83745 8.35194C1.84417 8.43517 1.86238 8.51701 1.89152 8.595C1.96461 8.70357 2.07004 8.78496 2.19203 8.82698C2.35326 8.85912 2.51903 8.85912 2.68026 8.82698C2.79662 8.79806 2.90565 8.74408 3.00008 8.66863C3.02557 8.62746 2.98695 8.4992 3.02943 8.46041C3.07192 8.42161 3.64126 8.28544 3.85602 8.22289C4.2316 8.0821 4.61523 7.96497 5.00475 7.87215C4.96921 7.9925 4.30949 9.33448 4.09473 9.73509C3.87997 10.1357 2.64472 11.8981 2.37821 12.2085C2.18122 12.4444 1.69608 13.0485 1.52844 13.1847C1.66253 13.1907 1.79667 13.1741 1.92551 13.1356C2.33034 12.792 2.69623 12.403 3.0163 11.9757C3.5203 11.363 3.9875 10.7194 4.41532 10.0486C4.49257 10.0803 5.08509 10.5775 5.24037 10.6883C5.39564 10.7992 6.01288 11.1499 6.14266 11.2077C6.27244 11.2655 6.78694 11.5078 6.80857 11.4262C6.80322 11.2206 6.75026 11.0193 6.65406 10.8388"
      fill="#000105" />
    <path
      id="Fill 7"
      d="M3.77635 17.4918C3.89224 17.5641 4.0119 17.63 4.1348 17.6889C4.39791 17.8264 4.66818 17.9491 4.94439 18.0563C5.3082 18.1967 5.68057 18.3125 6.05913 18.4031C6.26462 18.4506 6.49019 18.4917 6.70958 18.5258C6.72967 18.5258 7.31987 18.6002 7.43961 18.6002H8.03676C8.26851 18.5796 8.48791 18.5662 8.72043 18.5321C8.90661 18.5052 9.1121 18.4712 9.31063 18.4236C9.45664 18.3896 9.6096 18.3556 9.7556 18.3081C9.90161 18.2606 10.0546 18.213 10.2067 18.1584C10.3064 18.1244 10.4122 18.0792 10.5158 18.0357C10.6046 17.9953 10.7104 17.9486 10.8101 17.9066C10.9298 17.852 11.0689 17.7776 11.2017 17.7095C11.3076 17.6549 11.4273 17.5868 11.5401 17.5187C11.6266 17.4736 11.8252 17.3152 11.9318 17.3152C11.9843 17.3164 12.0343 17.3383 12.0714 17.3764C12.1085 17.4144 12.1299 17.4657 12.1311 17.5195C12.1311 17.7166 11.8723 17.7776 11.7525 17.8663C11.6328 17.9549 11.4737 18.0246 11.3408 18.0975C11.0824 18.2355 10.8165 18.3582 10.5443 18.4648C10.2036 18.5966 9.85561 18.7079 9.50222 18.7981C9.3763 18.8251 9.25038 18.8591 9.12368 18.8773C9.05725 18.8908 8.36739 19 8.17504 19H7.29978C7.06803 18.9794 6.82237 18.9525 6.58984 18.9209C6.38435 18.8868 6.16496 18.8464 5.95947 18.7981C5.80034 18.7641 5.62806 18.719 5.47511 18.6691C5.21174 18.5926 4.95257 18.5017 4.69873 18.3967C4.21072 18.2132 3.7443 17.9742 3.30821 17.6842C3.27956 17.6669 3.25646 17.6415 3.24177 17.611C3.22708 17.5804 3.22144 17.5462 3.22555 17.5124C3.22502 17.4863 3.22964 17.4605 3.23912 17.4363C3.2486 17.4121 3.26275 17.3902 3.28072 17.3718C3.29869 17.3534 3.3201 17.3389 3.34368 17.3291C3.36725 17.3194 3.3925 17.3147 3.41791 17.3152C3.54665 17.3518 3.66803 17.4116 3.77635 17.4918Z"
      fill="#000105" />
    <g id="Group 11">
      <g id="Clip path group">
        <mask
          id="mask0_519_2530"
          style="mask-type: luminance"
          maskUnits="userSpaceOnUse"
          x="0"
          y="0"
          width="15"
          height="17">
          <g id="clip-path">
            <path id="Clip 9" d="M0 0H14.4723V16.6263H0V0Z" fill="white" />
          </g>
        </mask>
        <g mask="url(#mask0_519_2530)">
          <g id="Group 11_2">
            <path
              id="Fill 8"
              d="M0.198536 16.6279C0.156998 16.6257 0.116933 16.6114 0.0830126 16.5867C0.0490921 16.562 0.0227135 16.528 0.00695261 16.4886C0.00749474 16.4857 0.00749474 16.4827 0.00695261 16.4798C0.00271452 16.4732 0.000311045 16.4656 0 16.4577L0 5.0259C0 5.0164 0.00695261 5.00531 0.0100427 4.99423C0.0158898 4.96527 0.0283306 4.93815 0.0463508 4.91505C0.09062 4.86341 0.150924 4.82902 0.217076 4.81767L0.251839 4.80738C0.322138 4.78284 7.72513 2.23743 7.83019 2.23743C7.90203 2.23743 8.04263 2.28889 8.04263 2.40765V13.8331C8.03539 13.8705 8.0195 13.9055 7.99628 13.9352C7.98174 13.9585 7.96114 13.9772 7.9368 13.9891C7.87268 14.0152 0.317503 16.6279 0.198536 16.6279ZM7.63783 2.72672L0.404797 5.19612V16.1315L7.63783 13.6621V2.72672Z"
              fill="#000105" />
            <path
              id="Fill 10"
              d="M14.2596 14.1998C14.0213 14.1421 13.7863 14.0707 13.5558 13.986H13.552L13.4438 13.9496L12.5523 13.6677C12.0209 13.4999 11.4708 13.3257 10.9355 13.1547L10.7501 13.0937C10.6242 13.0526 10.4975 13.0146 10.3785 12.9702C10.1916 12.914 10.0255 12.861 9.88718 12.8119L9.57277 12.7129C8.97175 12.5237 8.34988 12.3273 7.74423 12.1191C7.70212 12.0884 7.66964 12.0457 7.65076 11.9964L7.65076 2.38719V2.37531C7.66104 2.33978 7.68053 2.30777 7.70715 2.28268C7.75968 2.22805 9.77362 1.53925 10.7408 1.2083L10.9347 1.1418C11.2159 1.03887 14.1684 0.000123964 14.2596 0.000123964C14.2877 -0.000864301 14.3157 0.00406493 14.3418 0.0146068C14.368 0.0251486 14.3918 0.0410789 14.4117 0.0614123C14.4316 0.0817457 14.4472 0.10605 14.4576 0.132822C14.468 0.159593 14.4729 0.188263 14.472 0.217058V13.9757C14.4731 14.0049 14.4684 14.034 14.4581 14.0612C14.4479 14.0885 14.4324 14.1133 14.4125 14.1343C14.3927 14.1552 14.3689 14.1718 14.3426 14.1831C14.3163 14.1943 14.2881 14.2 14.2596 14.1998ZM14.0672 0.489413L8.04937 2.58433V11.7969L14.0672 13.7152V0.489413Z"
              fill="#000105" />
          </g>
        </g>
      </g>
    </g>
    <path
      id="Fill 12"
      d="M16 16.5993L7.95972 13.9724L7.99371 2.53821L16 5.15091V16.5993Z"
      fill="#000105" />
    <path
      id="Fill 13"
      d="M14.3965 13.0951L13.3327 12.7642L12.9503 11.3335L10.751 10.6502L10.2782 11.8196L9.21368 11.4847L11.4733 5.80249L12.5092 6.12393L14.3957 13.0911L14.3965 13.0951ZM11.9468 7.64801L11.1573 9.60279L12.6081 10.0533L11.9468 7.64801Z"
      fill="#FFFFFE" />
  </g>
</svg>
