<svg data-name="Icons/Copy" xmlns="http://www.w3.org/2000/svg" width="24" height="24" viewBox="0 0 24 24">
    <path data-name="Path 5" d="M0 0h24v24H0z" style="fill:none"/>
    <path data-name="Path 6" d="M13.789 1H3.684A1.689 1.689 0 0 0 2 2.684v11.79a.749.749 0 0 0 .829.736.812.812 0 0 0 .855-.736V2.684h10.105a.9.9 0 0 0 .832-.825.91.91 0 0 0-.832-.859zm2.526 3.368H7.053a1.689 1.689 0 0 0-1.685 1.685v11.789a1.689 1.689 0 0 0 1.684 1.684h9.263A1.689 1.689 0 0 0 18 17.842V6.053a1.689 1.689 0 0 0-1.684-1.685zm0 13.474H7.053V6.053h9.263z" transform="translate(2 1.737)" style="fill:#294d73"/>
</svg>
