<?xml version="1.0" encoding="UTF-8" standalone="no"?>
<!DOCTYPE svg PUBLIC "-//W3C//DTD SVG 1.1//EN"
 "http://www.w3.org/Graphics/SVG/1.1/DTD/svg11.dtd">
<!-- Generated by graphviz version 9.0.0 (20230911.1827)
 -->
<!-- Pages: 1 -->
<svg width="497pt" height="548pt"
 viewBox="0.00 0.00 497.00 548.00" xmlns="http://www.w3.org/2000/svg" xmlns:xlink="http://www.w3.org/1999/xlink">
<g id="graph0" class="graph" transform="scale(1 1) rotate(0) translate(4 544)">
<polygon fill="white" stroke="none" points="-4,4 -4,-544 493,-544 493,4 -4,4"/>
<!-- splash -->
<g id="node1" class="node">
<title>splash</title>
<polygon fill="none" stroke="black" points="163,-540 109,-540 109,-504 163,-504 163,-540"/>
<text text-anchor="middle" x="136" y="-516.95" font-family="Times,serif" font-size="14.00">Splash</text>
</g>
<!-- login -->
<g id="node2" class="node">
<title>login</title>
<polygon fill="none" stroke="black" points="176,-396 122,-396 122,-360 176,-360 176,-396"/>
<text text-anchor="middle" x="149" y="-372.95" font-family="Times,serif" font-size="14.00">Login</text>
</g>
<!-- splash&#45;&gt;login -->
<g id="edge2" class="edge">
<title>splash&#45;&gt;login</title>
<path fill="none" stroke="black" d="M143.89,-503.75C148.11,-493.58 152.86,-480.33 155,-468 158.49,-447.92 156.81,-424.96 154.34,-407.39"/>
<polygon fill="black" stroke="black" points="157.83,-407.01 152.81,-397.68 150.91,-408.11 157.83,-407.01"/>
</g>
<!-- connect -->
<g id="node3" class="node">
<title>connect</title>
<polygon fill="none" stroke="black" points="267.5,-252 206.5,-252 206.5,-216 267.5,-216 267.5,-252"/>
<text text-anchor="middle" x="237" y="-228.95" font-family="Times,serif" font-size="14.00">Connect</text>
</g>
<!-- splash&#45;&gt;connect -->
<g id="edge3" class="edge">
<title>splash&#45;&gt;connect</title>
<path fill="none" stroke="black" d="M157.16,-503.65C193.5,-472.3 266.52,-402.17 294,-324 299.31,-308.91 300.39,-302.67 294,-288 289.3,-277.22 281.22,-267.65 272.59,-259.71"/>
<polygon fill="black" stroke="black" points="274.92,-257.1 265.03,-253.3 270.4,-262.44 274.92,-257.1"/>
</g>
<!-- revoked -->
<g id="node6" class="node">
<title>revoked</title>
<polygon fill="none" stroke="black" points="70,-180 6,-180 6,-144 70,-144 70,-180"/>
<text text-anchor="middle" x="38" y="-156.95" font-family="Times,serif" font-size="14.00">Revoked</text>
</g>
<!-- splash&#45;&gt;revoked -->
<g id="edge4" class="edge">
<title>splash&#45;&gt;revoked</title>
<path fill="none" stroke="black" d="M108.66,-510.67C88.41,-501.88 61.27,-487.55 43,-468 13.01,-435.9 0,-422.93 0,-379 0,-379 0,-379 0,-305 0,-264.18 14.84,-218.93 25.97,-190.72"/>
<polygon fill="black" stroke="black" points="29.2,-192.08 29.74,-181.49 22.72,-189.43 29.2,-192.08"/>
</g>
<!-- privacy_policy -->
<g id="node7" class="node">
<title>privacy_policy</title>
<polygon fill="none" stroke="black" points="146.38,-468 51.62,-468 51.62,-432 146.38,-432 146.38,-468"/>
<text text-anchor="middle" x="99" y="-444.95" font-family="Times,serif" font-size="14.00">Privacy policy</text>
</g>
<!-- splash&#45;&gt;privacy_policy -->
<g id="edge1" class="edge">
<title>splash&#45;&gt;privacy_policy</title>
<path fill="none" stroke="black" d="M126.85,-503.7C122.78,-495.98 117.88,-486.71 113.33,-478.11"/>
<polygon fill="black" stroke="black" points="116.52,-476.65 108.75,-469.44 110.33,-479.92 116.52,-476.65"/>
</g>
<!-- login&#45;&gt;connect -->
<g id="edge10" class="edge">
<title>login&#45;&gt;connect</title>
<path fill="none" stroke="black" d="M176.5,-374.46C207.16,-369.98 255.42,-357.69 278,-324 291.35,-304.08 277.57,-279.12 262.49,-260.71"/>
<polygon fill="black" stroke="black" points="265.31,-258.61 256.09,-253.38 260.04,-263.22 265.31,-258.61"/>
</g>
<!-- too_many_devices -->
<g id="node4" class="node">
<title>too_many_devices</title>
<polygon fill="none" stroke="black" points="182.25,-324 65.75,-324 65.75,-288 182.25,-288 182.25,-324"/>
<text text-anchor="middle" x="124" y="-300.95" font-family="Times,serif" font-size="14.00">Too many devices</text>
</g>
<!-- login&#45;&gt;too_many_devices -->
<g id="edge8" class="edge">
<title>login&#45;&gt;too_many_devices</title>
<path fill="none" stroke="black" d="M136.9,-359.7C133.47,-352.24 130.05,-343.32 127.36,-334.97"/>
<polygon fill="black" stroke="black" points="130.78,-334.19 124.63,-325.56 124.06,-336.14 130.78,-334.19"/>
</g>
<!-- welcome -->
<g id="node5" class="node">
<title>welcome</title>
<polygon fill="none" stroke="black" points="269.25,-324 200.75,-324 200.75,-288 269.25,-288 269.25,-324"/>
<text text-anchor="middle" x="235" y="-300.95" font-family="Times,serif" font-size="14.00">Welcome</text>
</g>
<!-- login&#45;&gt;welcome -->
<g id="edge7" class="edge">
<title>login&#45;&gt;welcome</title>
<path fill="none" stroke="black" d="M170.26,-359.7C180.7,-351.2 193.46,-340.81 204.88,-331.51"/>
<polygon fill="black" stroke="black" points="206.97,-334.33 212.51,-325.3 202.55,-328.9 206.97,-334.33"/>
</g>
<!-- settings -->
<g id="node9" class="node">
<title>settings</title>
<polygon fill="none" stroke="black" points="364.75,-180 305.25,-180 305.25,-144 364.75,-144 364.75,-180"/>
<text text-anchor="middle" x="335" y="-156.95" font-family="Times,serif" font-size="14.00">Settings</text>
</g>
<!-- login&#45;&gt;settings -->
<g id="edge9" class="edge">
<title>login&#45;&gt;settings</title>
<path fill="none" stroke="black" d="M176.47,-374.56C209.21,-370.16 263.36,-357.9 294,-324 327.21,-287.25 334.32,-227.34 335.39,-191.89"/>
<polygon fill="black" stroke="black" points="338.89,-192.01 335.53,-181.97 331.89,-191.91 338.89,-192.01"/>
</g>
<!-- connect&#45;&gt;revoked -->
<g id="edge13" class="edge">
<title>connect&#45;&gt;revoked</title>
<path fill="none" stroke="black" d="M206.34,-222.22C172.8,-210.42 118.79,-191.42 81.02,-178.13"/>
<polygon fill="black" stroke="black" points="82.37,-174.9 71.77,-174.88 80.04,-181.5 82.37,-174.9"/>
</g>
<!-- account -->
<g id="node8" class="node">
<title>account</title>
<polygon fill="none" stroke="black" points="168.88,-180 107.12,-180 107.12,-144 168.88,-144 168.88,-180"/>
<text text-anchor="middle" x="138" y="-156.95" font-family="Times,serif" font-size="14.00">Account</text>
</g>
<!-- connect&#45;&gt;account -->
<g id="edge15" class="edge">
<title>connect&#45;&gt;account</title>
<path fill="none" stroke="black" d="M212.27,-215.52C200.01,-206.85 185.02,-196.25 171.73,-186.85"/>
<polygon fill="black" stroke="black" points="173.83,-184.05 163.65,-181.13 169.79,-189.77 173.83,-184.05"/>
</g>
<!-- connect&#45;&gt;settings -->
<g id="edge14" class="edge">
<title>connect&#45;&gt;settings</title>
<path fill="none" stroke="black" d="M261.48,-215.52C273.61,-206.85 288.45,-196.25 301.61,-186.85"/>
<polygon fill="black" stroke="black" points="303.5,-189.8 309.6,-181.14 299.43,-184.1 303.5,-189.8"/>
</g>
<!-- switch_location -->
<g id="node14" class="node">
<title>switch_location</title>
<polygon fill="none" stroke="black" points="287.38,-180 186.62,-180 186.62,-144 287.38,-144 287.38,-180"/>
<text text-anchor="middle" x="237" y="-156.95" font-family="Times,serif" font-size="14.00">Switch location</text>
</g>
<!-- connect&#45;&gt;switch_location -->
<g id="edge16" class="edge">
<title>connect&#45;&gt;switch_location</title>
<path fill="none" stroke="black" d="M237,-215.7C237,-208.41 237,-199.73 237,-191.54"/>
<polygon fill="black" stroke="black" points="240.5,-191.62 237,-181.62 233.5,-191.62 240.5,-191.62"/>
</g>
<!-- too_many_devices&#45;&gt;login -->
<g id="edge11" class="edge">
<title>too_many_devices&#45;&gt;login</title>
<path fill="none" stroke="black" d="M136,-324.1C139.44,-331.54 142.87,-340.44 145.57,-348.81"/>
<polygon fill="black" stroke="black" points="142.16,-349.62 148.31,-358.24 148.88,-347.66 142.16,-349.62"/>
</g>
<!-- welcome&#45;&gt;connect -->
<g id="edge12" class="edge">
<title>welcome&#45;&gt;connect</title>
<path fill="none" stroke="black" d="M235.49,-287.7C235.7,-280.41 235.95,-271.73 236.18,-263.54"/>
<polygon fill="black" stroke="black" points="239.68,-263.71 236.47,-253.62 232.68,-263.51 239.68,-263.71"/>
</g>
<!-- revoked&#45;&gt;login -->
<g id="edge5" class="edge">
<title>revoked&#45;&gt;login</title>
<path fill="none" stroke="black" d="M35.33,-180.19C31.4,-211.59 27.41,-279.12 57,-324 69.67,-343.22 91.87,-356.3 111.29,-364.66"/>
<polygon fill="black" stroke="black" points="109.72,-367.8 120.3,-368.26 112.32,-361.3 109.72,-367.8"/>
</g>
<!-- privacy_policy&#45;&gt;login -->
<g id="edge6" class="edge">
<title>privacy_policy&#45;&gt;login</title>
<path fill="none" stroke="black" d="M111.36,-431.7C117.05,-423.73 123.93,-414.1 130.24,-405.26"/>
<polygon fill="black" stroke="black" points="132.94,-407.51 135.9,-397.34 127.24,-403.44 132.94,-407.51"/>
</g>
<!-- report_problem -->
<g id="node10" class="node">
<title>report_problem</title>
<polygon fill="none" stroke="black" points="269.12,-108 166.88,-108 166.88,-72 269.12,-72 269.12,-108"/>
<text text-anchor="middle" x="218" y="-84.95" font-family="Times,serif" font-size="14.00">Report problem</text>
</g>
<!-- settings&#45;&gt;report_problem -->
<g id="edge19" class="edge">
<title>settings&#45;&gt;report_problem</title>
<path fill="none" stroke="black" d="M305.78,-143.52C290.87,-134.6 272.54,-123.63 256.49,-114.03"/>
<polygon fill="black" stroke="black" points="258.53,-111.17 248.15,-109.04 254.93,-117.18 258.53,-111.17"/>
</g>
<!-- split_tunneling -->
<g id="node12" class="node">
<title>split_tunneling</title>
<polygon fill="none" stroke="black" points="383.12,-108 286.88,-108 286.88,-72 383.12,-72 383.12,-108"/>
<text text-anchor="middle" x="335" y="-84.95" font-family="Times,serif" font-size="14.00">Split tunneling</text>
</g>
<!-- settings&#45;&gt;split_tunneling -->
<g id="edge18" class="edge">
<title>settings&#45;&gt;split_tunneling</title>
<path fill="none" stroke="black" d="M335,-143.7C335,-136.41 335,-127.73 335,-119.54"/>
<polygon fill="black" stroke="black" points="338.5,-119.62 335,-109.62 331.5,-119.62 338.5,-119.62"/>
</g>
<!-- vpn_settings -->
<g id="node13" class="node">
<title>vpn_settings</title>
<polygon fill="none" stroke="black" points="489,-108 401,-108 401,-72 489,-72 489,-108"/>
<text text-anchor="middle" x="445" y="-84.95" font-family="Times,serif" font-size="14.00">VPN settings</text>
</g>
<!-- settings&#45;&gt;vpn_settings -->
<g id="edge17" class="edge">
<title>settings&#45;&gt;vpn_settings</title>
<path fill="none" stroke="black" d="M362.47,-143.52C376.36,-134.68 393.4,-123.84 408.38,-114.3"/>
<polygon fill="black" stroke="black" points="410.04,-117.39 416.6,-109.07 406.28,-111.49 410.04,-117.39"/>
</g>
<!-- view_logs -->
<g id="node11" class="node">
<title>view_logs</title>
<polygon fill="none" stroke="black" points="253.75,-36 182.25,-36 182.25,0 253.75,0 253.75,-36"/>
<text text-anchor="middle" x="218" y="-12.95" font-family="Times,serif" font-size="14.00">View logs</text>
</g>
<!-- report_problem&#45;&gt;view_logs -->
<g id="edge20" class="edge">
<title>report_problem&#45;&gt;view_logs</title>
<path fill="none" stroke="black" d="M218,-71.7C218,-64.41 218,-55.73 218,-47.54"/>
<polygon fill="black" stroke="black" points="221.5,-47.62 218,-37.62 214.5,-47.62 221.5,-47.62"/>
</g>
</g>
</svg>
