<svg width="24" height="24" viewBox="0 0 24 24" fill="none" xmlns="http://www.w3.org/2000/svg">
<mask id="mask0_9294_11770" style="mask-type:alpha" maskUnits="userSpaceOnUse" x="0" y="0" width="24" height="24">
<rect width="24" height="24" fill="#D9D9D9"/>
</mask>
<g mask="url(#mask0_9294_11770)">
<path d="M12 21.325C11.7667 21.325 11.5333 21.2833 11.3 21.2C11.0667 21.1167 10.8583 20.9917 10.675 20.825C9.59167 19.825 8.63333 18.85 7.8 17.9C6.96667 16.95 6.27083 16.0292 5.7125 15.1375C5.15417 14.2458 4.72917 13.3875 4.4375 12.5625C4.14583 11.7375 4 10.95 4 10.2C4 8.48333 4.43333 6.94167 5.3 5.575C6.16667 4.20833 7.39167 3.20833 8.975 2.575C9.40833 2.39167 9.8875 2.25 10.4125 2.15C10.9375 2.05 11.4583 1.99167 11.975 1.975C12.2583 1.975 12.4958 2.06667 12.6875 2.25C12.8792 2.43333 12.975 2.66667 12.975 2.95C12.975 3.23333 12.8792 3.47917 12.6875 3.6875C12.4958 3.89583 12.2583 4 11.975 4C11.575 4 11.1833 4.0375 10.8 4.1125C10.4167 4.1875 10.0333 4.3 9.65 4.45C8.48333 4.93333 7.58333 5.7 6.95 6.75C6.31667 7.8 6 8.95 6 10.2C6 11.3833 6.49167 12.7375 7.475 14.2625C8.45833 15.7875 9.96667 17.4833 12 19.35C13.0167 18.4167 13.9 17.5292 14.65 16.6875C15.4 15.8458 16.025 15.0417 16.525 14.275C16.8583 13.7583 17.15 13.2292 17.4 12.6875C17.65 12.1458 17.825 11.5833 17.925 11C17.9917 10.6167 18.1375 10.35 18.3625 10.2C18.5875 10.05 18.825 9.99167 19.075 10.025C19.325 10.0583 19.5375 10.1583 19.7125 10.325C19.8875 10.4917 19.9583 10.7167 19.925 11C19.7917 12.0333 19.4958 13.0042 19.0375 13.9125C18.5792 14.8208 18.0417 15.6917 17.425 16.525C16.7083 17.475 15.9708 18.3208 15.2125 19.0625C14.4542 19.8042 13.825 20.3917 13.325 20.825C13.1417 20.9917 12.9333 21.1167 12.7 21.2C12.4667 21.2833 12.2333 21.325 12 21.325ZM12 12C12.55 12 13.0208 11.8042 13.4125 11.4125C13.8042 11.0208 14 10.55 14 10C14 9.45 13.8042 8.97917 13.4125 8.5875C13.0208 8.19583 12.55 8 12 8C11.45 8 10.9792 8.19583 10.5875 8.5875C10.1958 8.97917 10 9.45 10 10C10 10.55 10.1958 11.0208 10.5875 11.4125C10.9792 11.8042 11.45 12 12 12ZM18 5V7C18 7.28333 18.0958 7.52083 18.2875 7.7125C18.4792 7.90417 18.7167 8 19 8C19.2833 8 19.5208 7.90417 19.7125 7.7125C19.9042 7.52083 20 7.28333 20 7V5H22C22.2833 5 22.5208 4.90417 22.7125 4.7125C22.9042 4.52083 23 4.28333 23 4C23 3.71667 22.9042 3.47917 22.7125 3.2875C22.5208 3.09583 22.2833 3 22 3H20V1C20 0.716667 19.9042 0.479167 19.7125 0.2875C19.5208 0.0958333 19.2833 0 19 0C18.7167 0 18.4792 0.0958333 18.2875 0.2875C18.0958 0.479167 18 0.716667 18 1V3H16C15.7167 3 15.4792 3.09583 15.2875 3.2875C15.0958 3.47917 15 3.71667 15 4C15 4.28333 15.0958 4.52083 15.2875 4.7125C15.4792 4.90417 15.7167 5 16 5H18Z" fill="white"/>
</g>
</svg>
