<svg width="14" height="14" viewBox="0 0 14 14" fill="none" xmlns="http://www.w3.org/2000/svg">
<path d="M9.54268 8.16663C9.58935 7.78163 9.62435 7.39663 9.62435 6.99996C9.62435 6.60329 9.58935 6.21829 9.54268 5.83329H11.5143C11.6077 6.20663 11.666 6.59746 11.666 6.99996C11.666 7.40246 11.6077 7.79329 11.5143 8.16663M8.51018 11.41C8.86018 10.7625 9.12851 10.0625 9.31518 9.33329H11.036C10.4709 10.3065 9.57425 11.0436 8.51018 11.41ZM8.36435 8.16663H5.63435C5.57601 7.78163 5.54102 7.39663 5.54102 6.99996C5.54102 6.60329 5.57601 6.21246 5.63435 5.83329H8.36435C8.41685 6.21246 8.45768 6.60329 8.45768 6.99996C8.45768 7.39663 8.41685 7.78163 8.36435 8.16663ZM6.99935 11.6433C6.51518 10.9433 6.12435 10.1675 5.88518 9.33329H8.11351C7.87435 10.1675 7.48351 10.9433 6.99935 11.6433ZM4.66602 4.66663H2.96268C3.52189 3.69073 4.4179 2.95235 5.48268 2.58996C5.13268 3.23746 4.87018 3.93746 4.66602 4.66663ZM2.96268 9.33329H4.66602C4.87018 10.0625 5.13268 10.7625 5.48268 11.41C4.42 11.0438 3.52518 10.3064 2.96268 9.33329ZM2.48435 8.16663C2.39102 7.79329 2.33268 7.40246 2.33268 6.99996C2.33268 6.59746 2.39102 6.20663 2.48435 5.83329H4.45602C4.40935 6.21829 4.37435 6.60329 4.37435 6.99996C4.37435 7.39663 4.40935 7.78163 4.45602 8.16663M6.99935 2.35079C7.48351 3.05079 7.87435 3.83246 8.11351 4.66663H5.88518C6.12435 3.83246 6.51518 3.05079 6.99935 2.35079ZM11.036 4.66663H9.31518C9.13233 3.94423 8.862 3.24685 8.51018 2.58996C9.58351 2.95746 10.476 3.69829 11.036 4.66663ZM6.99935 1.16663C3.77352 1.16663 1.16602 3.79163 1.16602 6.99996C1.16602 8.54706 1.7806 10.0308 2.87456 11.1247C3.41623 11.6664 4.0593 12.0961 4.76703 12.3893C5.47476 12.6824 6.2333 12.8333 6.99935 12.8333C8.54644 12.8333 10.0302 12.2187 11.1241 11.1247C12.2181 10.0308 12.8327 8.54706 12.8327 6.99996C12.8327 6.23392 12.6818 5.47537 12.3886 4.76764C12.0955 4.05991 11.6658 3.41685 11.1241 2.87517C10.5825 2.33349 9.9394 1.90381 9.23167 1.61066C8.52394 1.31751 7.76539 1.16663 6.99935 1.16663Z" fill="white" fill-opacity="0.4"/>
</svg>
