<svg width="24" height="24" viewBox="0 0 24 24" fill="none" xmlns="http://www.w3.org/2000/svg">
<mask id="mask0_9294_11785" style="mask-type:alpha" maskUnits="userSpaceOnUse" x="0" y="0" width="24" height="24">
<rect width="24" height="24" fill="white"/>
</mask>
<g mask="url(#mask0_9294_11785)">
<path d="M12 21.3251C11.7667 21.3251 11.5333 21.2834 11.3 21.2001C11.0667 21.1167 10.8583 20.9917 10.675 20.8251C9.59167 19.8251 8.63333 18.8501 7.8 17.9001C6.96667 16.9501 6.27083 16.0292 5.7125 15.1376C5.15417 14.2459 4.72917 13.3876 4.4375 12.5626C4.14583 11.7376 4 10.9501 4 10.2001C4 8.48339 4.43333 6.94172 5.3 5.57505C6.16667 4.20839 7.39167 3.20839 8.975 2.57505C9.40833 2.39172 9.8875 2.25005 10.4125 2.15005C10.9375 2.05005 11.4583 1.99172 11.975 1.97505C12.2583 1.97505 12.4958 2.06672 12.6875 2.25005C12.8792 2.43339 12.975 2.66672 12.975 2.95005C12.975 3.23339 12.8792 3.47922 12.6875 3.68755C12.4958 3.89589 12.2583 4.00005 11.975 4.00005C11.575 4.00005 11.1833 4.03755 10.8 4.11255C10.4167 4.18755 10.0333 4.30005 9.65 4.45005C8.48333 4.93339 7.58333 5.70005 6.95 6.75005C6.31667 7.80005 6 8.95005 6 10.2001C6 11.3834 6.49167 12.7376 7.475 14.2626C8.45833 15.7876 9.96667 17.4834 12 19.3501C13.0167 18.4167 13.9 17.5292 14.65 16.6876C15.4 15.8459 16.025 15.0417 16.525 14.2751C16.8583 13.7584 17.15 13.2292 17.4 12.6876C17.65 12.1459 17.825 11.5834 17.925 11.0001C17.9917 10.6167 18.1375 10.3501 18.3625 10.2001C18.5875 10.0501 18.825 9.99172 19.075 10.0251C19.325 10.0584 19.5375 10.1584 19.7125 10.3251C19.8875 10.4917 19.9583 10.7167 19.925 11.0001C19.7917 12.0334 19.4958 13.0042 19.0375 13.9126C18.5792 14.8209 18.0417 15.6917 17.425 16.5251C16.7083 17.4751 15.9708 18.3209 15.2125 19.0626C14.4542 19.8042 13.825 20.3917 13.325 20.8251C13.1417 20.9917 12.9333 21.1167 12.7 21.2001C12.4667 21.2834 12.2333 21.3251 12 21.3251ZM12 12.0001C12.55 12.0001 13.0208 11.8042 13.4125 11.4126C13.8042 11.0209 14 10.5501 14 10.0001C14 9.45005 13.8042 8.97922 13.4125 8.58755C13.0208 8.19589 12.55 8.00005 12 8.00005C11.45 8.00005 10.9792 8.19589 10.5875 8.58755C10.1958 8.97922 10 9.45005 10 10.0001C10 10.5501 10.1958 11.0209 10.5875 11.4126C10.9792 11.8042 11.45 12.0001 12 12.0001Z" fill="white"/>
<path d="M20.4049 6.80505L19.0049 5.40505L17.6049 6.80505C17.4216 6.98839 17.1883 7.08005 16.9049 7.08005C16.6216 7.08005 16.3883 6.98839 16.2049 6.80505C16.0216 6.62172 15.9299 6.38839 15.9299 6.10505C15.9299 5.82172 16.0216 5.58839 16.2049 5.40505L17.6049 4.00505L16.2049 2.60505C16.0216 2.42172 15.9299 2.18839 15.9299 1.90505C15.9299 1.62172 16.0216 1.38839 16.2049 1.20505C16.3883 1.02172 16.6216 0.930054 16.9049 0.930054C17.1883 0.930054 17.4216 1.02172 17.6049 1.20505L19.0049 2.60505L20.4049 1.20505C20.5883 1.02172 20.8216 0.930054 21.1049 0.930054C21.3883 0.930054 21.6216 1.02172 21.8049 1.20505C21.9883 1.38839 22.0799 1.62172 22.0799 1.90505C22.0799 2.18839 21.9883 2.42172 21.8049 2.60505L20.4049 4.00505L21.8049 5.40505C21.9883 5.58839 22.0799 5.82172 22.0799 6.10505C22.0799 6.38839 21.9883 6.62172 21.8049 6.80505C21.6216 6.98839 21.3883 7.08005 21.1049 7.08005C20.8216 7.08005 20.5883 6.98839 20.4049 6.80505Z" fill="white"/>
</g>
</svg>
