<svg width="288" height="91" viewBox="0 0 288 91" fill="none" xmlns="http://www.w3.org/2000/svg">
<g clip-path="url(#clip0_8016_495)">
<path d="M0 12C0 5.37258 5.37258 0 12 0H276C282.627 0 288 5.37258 288 12V79C288 85.6274 282.627 91 276 91H12C5.37259 91 0 85.6274 0 79V12Z" fill="#192638"/>
<mask id="mask0_8016_495" style="mask-type:alpha" maskUnits="userSpaceOnUse" x="22" y="-12" width="14" height="14">
<rect x="22.125" y="-11.6875" width="13.125" height="13.125" fill="white"/>
</mask>
<g mask="url(#mask0_8016_495)">
<path d="M28.6875 0.343751C27.9401 0.343751 27.2337 0.200196 26.5684 -0.0869131C25.903 -0.374022 25.3219 -0.765949 24.8252 -1.26269C24.3285 -1.75944 23.9365 -2.34049 23.6494 -3.00586C23.3623 -3.67122 23.2188 -4.3776 23.2188 -5.125C23.2188 -5.88151 23.3623 -6.59017 23.6494 -7.25098C23.9365 -7.91178 24.3285 -8.49056 24.8252 -8.9873C25.3219 -9.48405 25.903 -9.87598 26.5684 -10.1631C27.2337 -10.4502 27.9401 -10.5938 28.6875 -10.5938C29.444 -10.5938 30.1527 -10.4502 30.8135 -10.1631C31.4743 -9.87598 32.0531 -9.48405 32.5498 -8.9873C33.0466 -8.49056 33.4385 -7.91178 33.7256 -7.25098C34.0127 -6.59017 34.1563 -5.88151 34.1563 -5.125C34.1563 -4.3776 34.0127 -3.67122 33.7256 -3.00586C33.4385 -2.34049 33.0466 -1.75944 32.5498 -1.26269C32.0531 -0.765949 31.4743 -0.374022 30.8135 -0.0869131C30.1527 0.200196 29.444 0.343751 28.6875 0.343751ZM28.6875 -0.777342C28.9245 -1.10547 29.1296 -1.44726 29.3027 -1.80273C29.4759 -2.1582 29.6172 -2.53646 29.7266 -2.9375H27.6484C27.7578 -2.53646 27.8991 -2.1582 28.0723 -1.80273C28.2454 -1.44726 28.4505 -1.10547 28.6875 -0.777342ZM27.2656 -0.996092C27.1016 -1.29687 26.958 -1.60905 26.835 -1.93262C26.7119 -2.25618 26.6094 -2.59114 26.5273 -2.9375H24.9141C25.1784 -2.48177 25.5088 -2.08529 25.9053 -1.74804C26.3018 -1.41081 26.7552 -1.16015 27.2656 -0.996092ZM30.1094 -0.996092C30.6198 -1.16015 31.0732 -1.41081 31.4697 -1.74804C31.8662 -2.08529 32.1966 -2.48177 32.4609 -2.9375H30.8477C30.7656 -2.59114 30.6631 -2.25618 30.54 -1.93262C30.417 -1.60905 30.2734 -1.29687 30.1094 -0.996092ZM24.4492 -4.03125H26.3086C26.2813 -4.21354 26.2607 -4.39355 26.2471 -4.57129C26.2334 -4.74902 26.2266 -4.93359 26.2266 -5.125C26.2266 -5.31641 26.2334 -5.50098 26.2471 -5.67871C26.2607 -5.85644 26.2813 -6.03646 26.3086 -6.21875H24.4492C24.4036 -6.03646 24.3695 -5.85644 24.3467 -5.67871C24.3239 -5.50098 24.3125 -5.31641 24.3125 -5.125C24.3125 -4.93359 24.3239 -4.74902 24.3467 -4.57129C24.3695 -4.39355 24.4036 -4.21354 24.4492 -4.03125ZM27.4023 -4.03125H29.9727C30 -4.21354 30.0205 -4.39355 30.0342 -4.57129C30.0479 -4.74902 30.0547 -4.93359 30.0547 -5.125C30.0547 -5.31641 30.0479 -5.50098 30.0342 -5.67871C30.0205 -5.85644 30 -6.03646 29.9727 -6.21875H27.4023C27.375 -6.03646 27.3545 -5.85644 27.3408 -5.67871C27.3271 -5.50098 27.3203 -5.31641 27.3203 -5.125C27.3203 -4.93359 27.3271 -4.74902 27.3408 -4.57129C27.3545 -4.39355 27.375 -4.21354 27.4023 -4.03125ZM31.0664 -4.03125H32.9258C32.9714 -4.21354 33.0055 -4.39355 33.0283 -4.57129C33.0511 -4.74902 33.0625 -4.93359 33.0625 -5.125C33.0625 -5.31641 33.0511 -5.50098 33.0283 -5.67871C33.0055 -5.85644 32.9714 -6.03646 32.9258 -6.21875H31.0664C31.0938 -6.03646 31.1143 -5.85644 31.1279 -5.67871C31.1416 -5.50098 31.1484 -5.31641 31.1484 -5.125C31.1484 -4.93359 31.1416 -4.74902 31.1279 -4.57129C31.1143 -4.39355 31.0938 -4.21354 31.0664 -4.03125ZM30.8477 -7.3125H32.4609C32.1966 -7.76823 31.8662 -8.16471 31.4697 -8.50195C31.0732 -8.83919 30.6198 -9.08984 30.1094 -9.25391C30.2734 -8.95312 30.417 -8.64095 30.54 -8.31738C30.6631 -7.99381 30.7656 -7.65885 30.8477 -7.3125ZM27.6484 -7.3125H29.7266C29.6172 -7.71354 29.4759 -8.0918 29.3027 -8.44727C29.1296 -8.80273 28.9245 -9.14453 28.6875 -9.47266C28.4505 -9.14453 28.2454 -8.80273 28.0723 -8.44727C27.8991 -8.0918 27.7578 -7.71354 27.6484 -7.3125ZM24.9141 -7.3125H26.5273C26.6094 -7.65885 26.7119 -7.99381 26.835 -8.31738C26.958 -8.64095 27.1016 -8.95312 27.2656 -9.25391C26.7552 -9.08984 26.3018 -8.83919 25.9053 -8.50195C25.5088 -8.16471 25.1784 -7.76823 24.9141 -7.3125Z" fill="white" fill-opacity="0.6"/>
</g>
<path d="M29.1563 3.3125C29.1563 3.05362 28.9464 2.84375 28.6875 2.84375C28.4286 2.84375 28.2187 3.05362 28.2187 3.3125H28.6875H29.1563ZM28.6875 3.3125H28.2187V6.125H28.6875H29.1563V3.3125H28.6875Z" fill="white" fill-opacity="0.6"/>
<path d="M9 21.125C9 12.8407 15.7157 6.125 24 6.125H264C272.284 6.125 279 12.8407 279 21.125V69.875C279 78.1593 272.284 84.875 264 84.875H24C15.7157 84.875 9 78.1593 9 69.875V21.125Z" fill="#101823"/>
<path d="M28.6875 6.125V9.875" stroke="white" stroke-opacity="0.6" stroke-width="0.9375"/>
<path d="M28.6875 9.875L28.6875 43.875" stroke="white" stroke-opacity="0.6" stroke-width="0.9375"/>
<mask id="path-11-inside-1_8016_495" fill="white">
<path d="M12.75 21.125C12.75 14.9118 17.7868 9.875 24 9.875H237.75C243.963 9.875 249 14.9118 249 21.125V32.375C249 38.5882 243.963 43.625 237.75 43.625H24C17.7868 43.625 12.75 38.5882 12.75 32.375V21.125Z"/>
</mask>
<path d="M12.75 21.125C12.75 14.9118 17.7868 9.875 24 9.875H237.75C243.963 9.875 249 14.9118 249 21.125V32.375C249 38.5882 243.963 43.625 237.75 43.625H24C17.7868 43.625 12.75 38.5882 12.75 32.375V21.125Z" fill="#101823"/>
<path d="M24 9.875V10.8125H237.75V9.875V8.9375H24V9.875ZM249 21.125H248.063V32.375H249H249.938V21.125H249ZM237.75 43.625V42.6875H24V43.625V44.5625H237.75V43.625ZM12.75 32.375H13.6875V21.125H12.75H11.8125V32.375H12.75ZM24 43.625V42.6875C18.3046 42.6875 13.6875 38.0704 13.6875 32.375H12.75H11.8125C11.8125 39.106 17.269 44.5625 24 44.5625V43.625ZM249 32.375H248.063C248.063 38.0704 243.445 42.6875 237.75 42.6875V43.625V44.5625C244.481 44.5625 249.938 39.106 249.938 32.375H249ZM237.75 9.875V10.8125C243.445 10.8125 248.063 15.4296 248.063 21.125H249H249.938C249.938 14.394 244.481 8.9375 237.75 8.9375V9.875ZM24 9.875V8.9375C17.269 8.9375 11.8125 14.394 11.8125 21.125H12.75H13.6875C13.6875 15.4296 18.3046 10.8125 24 10.8125V9.875Z" fill="#F8F7F1" fill-opacity="0.4" mask="url(#path-11-inside-1_8016_495)"/>
<path d="M28.2187 16.4375C28.2187 16.6964 28.4286 16.9063 28.6875 16.9063C28.9464 16.9063 29.1563 16.6964 29.1563 16.4375H28.6875H28.2187ZM28.6875 9.875H28.2187V16.4375H28.6875H29.1563V9.875H28.6875Z" fill="white" fill-opacity="0.6"/>
<mask id="mask1_8016_495" style="mask-type:alpha" maskUnits="userSpaceOnUse" x="20" y="18" width="18" height="18">
<rect x="20.25" y="18.3125" width="16.875" height="16.875" fill="white"/>
</mask>
<g mask="url(#mask1_8016_495)">
<path d="M28.6875 31.918C30.1172 30.6055 31.1777 29.4131 31.8691 28.3408C32.5605 27.2686 32.9063 26.3164 32.9063 25.4844C32.9063 24.207 32.499 23.1611 31.6846 22.3467C30.8701 21.5322 29.8711 21.125 28.6875 21.125C27.5039 21.125 26.5049 21.5322 25.6904 22.3467C24.876 23.1611 24.4688 24.207 24.4688 25.4844C24.4688 26.3164 24.8145 27.2686 25.5059 28.3408C26.1973 29.4131 27.2578 30.6055 28.6875 31.918ZM28.6875 33.3066C28.5234 33.3066 28.3594 33.2773 28.1953 33.2188C28.0313 33.1602 27.8848 33.0723 27.7559 32.9551C26.9941 32.252 26.3203 31.5664 25.7344 30.8984C25.1484 30.2305 24.6592 29.583 24.2666 28.9561C23.874 28.3291 23.5752 27.7256 23.3701 27.1455C23.165 26.5654 23.0625 26.0117 23.0625 25.4844C23.0625 23.7266 23.6279 22.3262 24.7588 21.2832C25.8896 20.2402 27.1992 19.7188 28.6875 19.7188C30.1758 19.7188 31.4854 20.2402 32.6162 21.2832C33.7471 22.3262 34.3125 23.7266 34.3125 25.4844C34.3125 26.0117 34.21 26.5654 34.0049 27.1455C33.7998 27.7256 33.501 28.3291 33.1084 28.9561C32.7158 29.583 32.2266 30.2305 31.6406 30.8984C31.0547 31.5664 30.3809 32.252 29.6191 32.9551C29.4902 33.0723 29.3438 33.1602 29.1797 33.2188C29.0156 33.2773 28.8516 33.3066 28.6875 33.3066ZM28.6875 26.75C29.0742 26.75 29.4053 26.6123 29.6807 26.3369C29.9561 26.0615 30.0938 25.7305 30.0938 25.3438C30.0938 24.957 29.9561 24.626 29.6807 24.3506C29.4053 24.0752 29.0742 23.9375 28.6875 23.9375C28.3008 23.9375 27.9697 24.0752 27.6943 24.3506C27.4189 24.626 27.2813 24.957 27.2813 25.3438C27.2813 25.7305 27.4189 26.0615 27.6943 26.3369C27.9697 26.6123 28.3008 26.75 28.6875 26.75Z" fill="white" fill-opacity="0.6"/>
</g>
<path d="M29.1563 37.0625C29.1563 36.8036 28.9464 36.5937 28.6875 36.5937C28.4286 36.5937 28.2187 36.8036 28.2187 37.0625H28.6875H29.1563ZM28.6875 37.0625H28.2187V43.625H28.6875H29.1563V37.0625H28.6875Z" fill="white" fill-opacity="0.6"/>
<path d="M47.4439 28.757C47.4439 29.3124 47.3051 29.7867 47.0273 30.1797C46.7539 30.5685 46.3694 30.8655 45.8738 31.0706C45.3782 31.2756 44.795 31.3782 44.1242 31.3782C43.7696 31.3782 43.4342 31.3611 43.118 31.3269C42.8019 31.2927 42.5114 31.2436 42.2465 31.1795C41.9816 31.1154 41.7487 31.0364 41.5479 30.9424V29.8978C41.8683 30.0302 42.2593 30.1541 42.7207 30.2695C43.1821 30.3806 43.6649 30.4361 44.1691 30.4361C44.639 30.4361 45.0364 30.3741 45.3611 30.2502C45.6858 30.1221 45.9315 29.9405 46.0981 29.7055C46.269 29.4662 46.3544 29.18 46.3544 28.8467C46.3544 28.5263 46.2839 28.2593 46.1429 28.0457C46.002 27.8278 45.767 27.6312 45.438 27.4561C45.1133 27.2766 44.6689 27.0865 44.105 26.8857C43.7076 26.7447 43.3573 26.5909 43.054 26.4243C42.7506 26.2534 42.4964 26.0611 42.2913 25.8475C42.0862 25.6338 41.9303 25.386 41.8235 25.1041C41.7209 24.8221 41.6697 24.4995 41.6697 24.1364C41.6697 23.6365 41.7957 23.2092 42.0478 22.8546C42.3041 22.4957 42.6566 22.2223 43.1052 22.0343C43.5581 21.842 44.0772 21.7459 44.6625 21.7459C45.1624 21.7459 45.6238 21.7929 46.0468 21.8869C46.4741 21.9809 46.865 22.1069 47.2196 22.265L46.8799 23.2007C46.5424 23.0597 46.1835 22.9422 45.8033 22.8482C45.4273 22.7542 45.0385 22.7072 44.6369 22.7072C44.2353 22.7072 43.8956 22.767 43.6179 22.8867C43.3445 23.002 43.1351 23.1665 42.9899 23.3801C42.8446 23.5937 42.772 23.848 42.772 24.1428C42.772 24.4717 42.8403 24.7452 42.9771 24.9631C43.118 25.181 43.3402 25.3754 43.6436 25.5463C43.9512 25.7129 44.3571 25.8881 44.8612 26.0718C45.4124 26.2726 45.8802 26.4862 46.2647 26.7126C46.6492 26.9348 46.9419 27.2083 47.1427 27.533C47.3435 27.8534 47.4439 28.2614 47.4439 28.757ZM54.9164 31.2372L53.6667 27.1484C53.6112 26.9733 53.5578 26.8024 53.5065 26.6357C53.4595 26.4648 53.4147 26.3025 53.3719 26.1487C53.3335 25.9906 53.2972 25.8453 53.263 25.7129C53.2331 25.5762 53.2075 25.4587 53.1861 25.3604H53.1412C53.1241 25.4587 53.1006 25.5762 53.0707 25.7129C53.0408 25.8453 53.0045 25.9906 52.9618 26.1487C52.9233 26.3068 52.8806 26.4734 52.8336 26.6486C52.7866 26.8195 52.7332 26.9925 52.6734 27.1677L51.366 31.2372H50.1676L48.2322 24.2133H49.3345L50.347 28.0905C50.4154 28.3469 50.4795 28.6011 50.5393 28.8531C50.6034 29.101 50.6568 29.3359 50.6995 29.5581C50.7465 29.776 50.7807 29.9661 50.8021 30.1285H50.8533C50.879 30.0217 50.9067 29.8935 50.9366 29.744C50.9708 29.5944 51.0071 29.4363 51.0456 29.2697C51.0883 29.0988 51.1332 28.9301 51.1802 28.7634C51.2272 28.5925 51.2742 28.4323 51.3212 28.2828L52.6157 24.2133H53.7629L55.0126 28.2764C55.0767 28.4814 55.1386 28.6951 55.1984 28.9172C55.2625 29.1394 55.3202 29.3552 55.3715 29.5645C55.4227 29.7696 55.459 29.9533 55.4804 30.1157H55.5317C55.5488 29.9704 55.5808 29.791 55.6278 29.5773C55.6748 29.3637 55.7282 29.1287 55.788 28.8724C55.8521 28.616 55.9183 28.3554 55.9867 28.0905L57.0121 24.2133H58.0952L56.1533 31.2372H54.9164ZM62.0814 24.0979C62.6795 24.0979 63.1922 24.2303 63.6194 24.4952C64.0467 24.7601 64.3735 25.1318 64.6 25.6104C64.8264 26.0846 64.9396 26.64 64.9396 27.2766V27.9367H60.0883C60.1011 28.7613 60.3062 29.3893 60.7035 29.8209C61.1008 30.2524 61.6605 30.4681 62.3826 30.4681C62.8269 30.4681 63.22 30.4276 63.5618 30.3464C63.9036 30.2652 64.2582 30.1456 64.6256 29.9875V30.9232C64.271 31.0812 63.9185 31.1966 63.5682 31.2692C63.2221 31.3419 62.812 31.3782 62.3377 31.3782C61.6627 31.3782 61.0731 31.2415 60.5689 30.968C60.069 30.6903 59.6802 30.2844 59.4025 29.7504C59.1248 29.2163 58.986 28.5626 58.986 27.7893C58.986 27.0331 59.112 26.3794 59.3641 25.8282C59.6204 25.2728 59.9793 24.8456 60.4407 24.5465C60.9064 24.2474 61.4533 24.0979 62.0814 24.0979ZM62.0685 24.9695C61.5003 24.9695 61.0474 25.1553 60.7099 25.527C60.3724 25.8987 60.1716 26.4178 60.1075 27.0844H63.8245C63.8203 26.6656 63.754 26.2982 63.6259 25.9821C63.502 25.6616 63.3118 25.4138 63.0555 25.2386C62.7991 25.0592 62.4702 24.9695 62.0685 24.9695ZM69.2463 31.3782C68.3576 31.3782 67.6527 31.0748 67.1314 30.4681C66.6144 29.8615 66.356 28.96 66.356 27.7637C66.356 26.5546 66.6209 25.6424 67.1506 25.0272C67.6804 24.4077 68.3854 24.0979 69.2655 24.0979C69.6372 24.0979 69.9619 24.147 70.2396 24.2453C70.5173 24.3436 70.7566 24.476 70.9574 24.6426C71.1582 24.805 71.327 24.9908 71.4637 25.2002H71.5406C71.5235 25.0677 71.5064 24.8862 71.4893 24.6555C71.4722 24.4247 71.4637 24.2368 71.4637 24.0915V21.2781H72.5275V31.25H71.6688L71.5085 30.2502H71.4637C71.3312 30.4596 71.1625 30.6497 70.9574 30.8206C70.7566 30.9915 70.5152 31.1282 70.2332 31.2308C69.9555 31.329 69.6265 31.3782 69.2463 31.3782ZM69.4129 30.4938C70.1649 30.4938 70.6968 30.2802 71.0087 29.8529C71.3206 29.4257 71.4765 28.7912 71.4765 27.9495V27.7573C71.4765 26.8643 71.327 26.1786 71.0279 25.7001C70.7331 25.2216 70.1948 24.9823 69.4129 24.9823C68.7592 24.9823 68.27 25.2344 67.9453 25.7385C67.6206 26.2384 67.4583 26.922 67.4583 27.7893C67.4583 28.6523 67.6185 29.3188 67.9389 29.7888C68.2636 30.2588 68.7549 30.4938 69.4129 30.4938ZM77.4879 24.0979C78.086 24.0979 78.5987 24.2303 79.0259 24.4952C79.4532 24.7601 79.78 25.1318 80.0065 25.6104C80.2329 26.0846 80.3461 26.64 80.3461 27.2766V27.9367H75.4948C75.5076 28.7613 75.7127 29.3893 76.11 29.8209C76.5073 30.2524 77.067 30.4681 77.7891 30.4681C78.2334 30.4681 78.6265 30.4276 78.9683 30.3464C79.3101 30.2652 79.6647 30.1456 80.0321 29.9875V30.9232C79.6775 31.0812 79.325 31.1966 78.9747 31.2692C78.6286 31.3419 78.2184 31.3782 77.7442 31.3782C77.0692 31.3782 76.4796 31.2415 75.9754 30.968C75.4755 30.6903 75.0867 30.2844 74.809 29.7504C74.5313 29.2163 74.3925 28.5626 74.3925 27.7893C74.3925 27.0331 74.5185 26.3794 74.7706 25.8282C75.0269 25.2728 75.3858 24.8456 75.8472 24.5465C76.3129 24.2474 76.8598 24.0979 77.4879 24.0979ZM77.475 24.9695C76.9068 24.9695 76.4539 25.1553 76.1164 25.527C75.7789 25.8987 75.5781 26.4178 75.514 27.0844H79.231C79.2267 26.6656 79.1605 26.2982 79.0324 25.9821C78.9085 25.6616 78.7183 25.4138 78.462 25.2386C78.2056 25.0592 77.8767 24.9695 77.475 24.9695ZM85.4795 24.0979C86.3126 24.0979 86.9428 24.303 87.3701 24.7131C87.7973 25.119 88.0109 25.7727 88.0109 26.6742V31.25H86.9599V26.7447C86.9599 26.1594 86.8253 25.7214 86.5562 25.4309C86.2913 25.1404 85.8832 24.9951 85.3321 24.9951C84.5545 24.9951 84.0076 25.2151 83.6915 25.6552C83.3753 26.0953 83.2172 26.734 83.2172 27.5714V31.25H82.1534V24.2261H83.0121L83.1724 25.2386H83.23C83.3796 24.9908 83.5697 24.7836 83.8004 24.617C84.0311 24.4461 84.2896 24.3179 84.5759 24.2325C84.8621 24.1428 85.1633 24.0979 85.4795 24.0979Z" fill="white"/>
<g clip-path="url(#clip1_8016_495)">
<g clip-path="url(#clip2_8016_495)">
<mask id="mask2_8016_495" style="mask-type:alpha" maskUnits="userSpaceOnUse" x="252" y="15" width="24" height="23">
<rect x="252.75" y="15.5" width="22.5" height="22.5" fill="#D9D9D9"/>
</mask>
<g mask="url(#mask2_8016_495)">
<path d="M264.938 30.5C265.203 30.5 265.426 30.5898 265.605 30.7695C265.785 30.9492 265.875 31.1719 265.875 31.4375C265.875 31.7031 265.785 31.9258 265.605 32.1055C265.426 32.2852 265.203 32.375 264.938 32.375H263.062C262.797 32.375 262.574 32.2852 262.395 32.1055C262.215 31.9258 262.125 31.7031 262.125 31.4375C262.125 31.1719 262.215 30.9492 262.395 30.7695C262.574 30.5898 262.797 30.5 263.062 30.5H264.938ZM267.454 25.8125C268.096 26.2391 268.83 26.5367 269.621 26.6699C269.623 26.6962 269.625 26.7228 269.625 26.75C269.625 27.0156 269.535 27.2383 269.355 27.418C269.176 27.5977 268.953 27.6875 268.688 27.6875H259.312C259.047 27.6875 258.824 27.5977 258.645 27.418C258.465 27.2383 258.375 27.0156 258.375 26.75C258.375 26.4844 258.465 26.2617 258.645 26.082C258.824 25.9023 259.047 25.8125 259.312 25.8125H267.454ZM264.938 21.125C264.938 21.7827 265.052 22.4133 265.26 23H256.5C256.234 23 256.012 22.9102 255.832 22.7305C255.652 22.5508 255.562 22.3281 255.562 22.0625C255.563 21.7969 255.652 21.5742 255.832 21.3945C256.012 21.2148 256.234 21.125 256.5 21.125H264.938Z" fill="white"/>
<path d="M273.375 21.125C273.375 22.6783 272.116 23.9375 270.563 23.9375C269.009 23.9375 267.75 22.6783 267.75 21.125C267.75 19.5717 269.009 18.3125 270.563 18.3125C272.116 18.3125 273.375 19.5717 273.375 21.125Z" fill="white"/>
</g>
</g>
</g>
<path d="M28.6875 43.625V47.375" stroke="white" stroke-opacity="0.6" stroke-width="0.9375"/>
<path d="M28.6875 47.375L28.6875 81.375" stroke="white" stroke-opacity="0.6" stroke-width="0.9375"/>
<mask id="path-24-inside-2_8016_495" fill="white">
<path d="M12.75 58.625C12.75 52.4118 17.7868 47.375 24 47.375H237.75C243.963 47.375 249 52.4118 249 58.625V69.875C249 76.0882 243.963 81.125 237.75 81.125H24C17.7868 81.125 12.75 76.0882 12.75 69.875V58.625Z"/>
</mask>
<path d="M12.75 58.625C12.75 52.4118 17.7868 47.375 24 47.375H237.75C243.963 47.375 249 52.4118 249 58.625V69.875C249 76.0882 243.963 81.125 237.75 81.125H24C17.7868 81.125 12.75 76.0882 12.75 69.875V58.625Z" fill="#1F3A57"/>
<path d="M24 47.375V48.3125H237.75V47.375V46.4375H24V47.375ZM249 58.625H248.063V69.875H249H249.938V58.625H249ZM237.75 81.125V80.1875H24V81.125V82.0625H237.75V81.125ZM12.75 69.875H13.6875V58.625H12.75H11.8125V69.875H12.75ZM24 81.125V80.1875C18.3046 80.1875 13.6875 75.5704 13.6875 69.875H12.75H11.8125C11.8125 76.606 17.269 82.0625 24 82.0625V81.125ZM249 69.875H248.063C248.063 75.5704 243.445 80.1875 237.75 80.1875V81.125V82.0625C244.481 82.0625 249.938 76.606 249.938 69.875H249ZM237.75 47.375V48.3125C243.445 48.3125 248.063 52.9296 248.063 58.625H249H249.938C249.938 51.894 244.481 46.4375 237.75 46.4375V47.375ZM24 47.375V46.4375C17.269 46.4375 11.8125 51.894 11.8125 58.625H12.75H13.6875C13.6875 52.9296 18.3046 48.3125 24 48.3125V47.375Z" fill="#F8F7F1" fill-opacity="0.4" mask="url(#path-24-inside-2_8016_495)"/>
<path d="M28.2187 53.9375C28.2187 54.1964 28.4286 54.4063 28.6875 54.4063C28.9464 54.4063 29.1563 54.1964 29.1563 53.9375H28.6875H28.2187ZM28.6875 47.375H28.2187V53.9375H28.6875H29.1563V47.375H28.6875Z" fill="white" fill-opacity="0.6"/>
<mask id="mask3_8016_495" style="mask-type:alpha" maskUnits="userSpaceOnUse" x="20" y="55" width="18" height="18">
<rect x="20.25" y="55.8125" width="16.875" height="16.875" fill="white"/>
</mask>
<g mask="url(#mask3_8016_495)">
<path d="M28.6875 70.8066C28.5234 70.8066 28.3594 70.7773 28.1953 70.7188C28.0313 70.6602 27.8848 70.5723 27.7559 70.4551C26.9941 69.752 26.3203 69.0664 25.7344 68.3984C25.1484 67.7305 24.6592 67.083 24.2666 66.4561C23.874 65.8291 23.5752 65.2256 23.3701 64.6455C23.165 64.0654 23.0625 63.5117 23.0625 62.9844C23.0625 61.7773 23.3672 60.6934 23.9766 59.7324C24.5859 58.7715 25.4473 58.0684 26.5605 57.623C26.8652 57.4941 27.2021 57.3945 27.5713 57.3242C27.9404 57.2539 28.3066 57.2129 28.6699 57.2012C28.8691 57.2012 29.0361 57.2656 29.1709 57.3945C29.3057 57.5234 29.373 57.6875 29.373 57.8867C29.373 58.0859 29.3057 58.2588 29.1709 58.4053C29.0361 58.5518 28.8691 58.625 28.6699 58.625C28.3887 58.625 28.1133 58.6514 27.8438 58.7041C27.5742 58.7568 27.3047 58.8359 27.0352 58.9414C26.2148 59.2813 25.582 59.8203 25.1367 60.5586C24.6914 61.2969 24.4688 62.1055 24.4688 62.9844C24.4688 63.8164 24.8145 64.7686 25.5059 65.8408C26.1973 66.9131 27.2578 68.1055 28.6875 69.418C29.4023 68.7617 30.0234 68.1377 30.5508 67.5459C31.0781 66.9541 31.5176 66.3887 31.8691 65.8496C32.1035 65.4863 32.3086 65.1143 32.4844 64.7334C32.6602 64.3525 32.7832 63.957 32.8535 63.5469C32.9004 63.2773 33.0029 63.0898 33.1611 62.9844C33.3193 62.8789 33.4863 62.8379 33.6621 62.8613C33.8379 62.8848 33.9873 62.9551 34.1104 63.0723C34.2334 63.1895 34.2832 63.3477 34.2598 63.5469C34.166 64.2734 33.958 64.9561 33.6357 65.5947C33.3135 66.2334 32.9355 66.8457 32.502 67.4316C31.998 68.0996 31.4795 68.6943 30.9463 69.2158C30.4131 69.7373 29.9707 70.1504 29.6191 70.4551C29.4902 70.5723 29.3438 70.6602 29.1797 70.7188C29.0156 70.7773 28.8516 70.8066 28.6875 70.8066ZM28.6875 64.25C29.0742 64.25 29.4053 64.1123 29.6807 63.8369C29.9561 63.5615 30.0938 63.2305 30.0938 62.8438C30.0938 62.457 29.9561 62.126 29.6807 61.8506C29.4053 61.5752 29.0742 61.4375 28.6875 61.4375C28.3008 61.4375 27.9697 61.5752 27.6943 61.8506C27.4189 62.126 27.2813 62.457 27.2813 62.8438C27.2813 63.2305 27.4189 63.5615 27.6943 63.8369C27.9697 64.1123 28.3008 64.25 28.6875 64.25ZM32.9063 59.3281V60.7344C32.9063 60.9336 32.9736 61.1006 33.1084 61.2354C33.2432 61.3701 33.4102 61.4375 33.6094 61.4375C33.8086 61.4375 33.9756 61.3701 34.1104 61.2354C34.2451 61.1006 34.3125 60.9336 34.3125 60.7344V59.3281H35.7188C35.918 59.3281 36.085 59.2607 36.2197 59.126C36.3545 58.9912 36.4219 58.8242 36.4219 58.625C36.4219 58.4258 36.3545 58.2588 36.2197 58.124C36.085 57.9893 35.918 57.9219 35.7188 57.9219H34.3125V56.5156C34.3125 56.3164 34.2451 56.1494 34.1104 56.0146C33.9756 55.8799 33.8086 55.8125 33.6094 55.8125C33.4102 55.8125 33.2432 55.8799 33.1084 56.0146C32.9736 56.1494 32.9063 56.3164 32.9063 56.5156V57.9219H31.5C31.3008 57.9219 31.1338 57.9893 30.999 58.124C30.8643 58.2588 30.7969 58.4258 30.7969 58.625C30.7969 58.8242 30.8643 58.9912 30.999 59.126C31.1338 59.2607 31.3008 59.3281 31.5 59.3281H32.9063Z" fill="white"/>
</g>
<path d="M29.1563 74.5625C29.1563 74.3036 28.9464 74.0937 28.6875 74.0937C28.4286 74.0937 28.2187 74.3036 28.2187 74.5625H28.6875H29.1563ZM28.6875 74.5625H28.2187V81.125H28.6875H29.1563V74.5625H28.6875Z" fill="white" fill-opacity="0.6"/>
<path d="M47.4439 66.257C47.4439 66.8124 47.3051 67.2867 47.0273 67.6797C46.7539 68.0685 46.3694 68.3655 45.8738 68.5706C45.3782 68.7756 44.795 68.8782 44.1242 68.8782C43.7696 68.8782 43.4342 68.8611 43.118 68.8269C42.8019 68.7927 42.5114 68.7436 42.2465 68.6795C41.9816 68.6154 41.7487 68.5364 41.5479 68.4424V67.3978C41.8683 67.5302 42.2593 67.6541 42.7207 67.7695C43.1821 67.8806 43.6649 67.9361 44.1691 67.9361C44.639 67.9361 45.0364 67.8741 45.3611 67.7502C45.6858 67.6221 45.9315 67.4405 46.0981 67.2055C46.269 66.9662 46.3544 66.68 46.3544 66.3467C46.3544 66.0263 46.2839 65.7593 46.1429 65.5457C46.002 65.3278 45.767 65.1312 45.438 64.9561C45.1133 64.7766 44.6689 64.5865 44.105 64.3857C43.7076 64.2447 43.3573 64.0909 43.054 63.9243C42.7506 63.7534 42.4964 63.5611 42.2913 63.3475C42.0862 63.1338 41.9303 62.886 41.8235 62.6041C41.7209 62.3221 41.6697 61.9995 41.6697 61.6364C41.6697 61.1365 41.7957 60.7092 42.0478 60.3546C42.3041 59.9957 42.6566 59.7223 43.1052 59.5343C43.5581 59.342 44.0772 59.2459 44.6625 59.2459C45.1624 59.2459 45.6238 59.2929 46.0468 59.3869C46.4741 59.4809 46.865 59.6069 47.2196 59.765L46.8799 60.7007C46.5424 60.5597 46.1835 60.4422 45.8033 60.3482C45.4273 60.2542 45.0385 60.2072 44.6369 60.2072C44.2353 60.2072 43.8956 60.267 43.6179 60.3867C43.3445 60.502 43.1351 60.6665 42.9899 60.8801C42.8446 61.0937 42.772 61.348 42.772 61.6428C42.772 61.9717 42.8403 62.2452 42.9771 62.4631C43.118 62.681 43.3402 62.8754 43.6436 63.0463C43.9512 63.2129 44.3571 63.3881 44.8612 63.5718C45.4124 63.7726 45.8802 63.9862 46.2647 64.2126C46.6492 64.4348 46.9419 64.7083 47.1427 65.033C47.3435 65.3534 47.4439 65.7614 47.4439 66.257ZM54.9164 68.7372L53.6667 64.6484C53.6112 64.4733 53.5578 64.3024 53.5065 64.1357C53.4595 63.9648 53.4147 63.8025 53.3719 63.6487C53.3335 63.4906 53.2972 63.3453 53.263 63.2129C53.2331 63.0762 53.2075 62.9587 53.1861 62.8604H53.1412C53.1241 62.9587 53.1006 63.0762 53.0707 63.2129C53.0408 63.3453 53.0045 63.4906 52.9618 63.6487C52.9233 63.8068 52.8806 63.9734 52.8336 64.1486C52.7866 64.3195 52.7332 64.4925 52.6734 64.6677L51.366 68.7372H50.1676L48.2322 61.7133H49.3345L50.347 65.5905C50.4154 65.8469 50.4795 66.1011 50.5393 66.3531C50.6034 66.601 50.6568 66.8359 50.6995 67.0581C50.7465 67.276 50.7807 67.4661 50.8021 67.6285H50.8533C50.879 67.5217 50.9067 67.3935 50.9366 67.244C50.9708 67.0944 51.0071 66.9363 51.0456 66.7697C51.0883 66.5988 51.1332 66.4301 51.1802 66.2634C51.2272 66.0925 51.2742 65.9323 51.3212 65.7828L52.6157 61.7133H53.7629L55.0126 65.7764C55.0767 65.9814 55.1386 66.1951 55.1984 66.4172C55.2625 66.6394 55.3202 66.8552 55.3715 67.0645C55.4227 67.2696 55.459 67.4533 55.4804 67.6157H55.5317C55.5488 67.4704 55.5808 67.291 55.6278 67.0773C55.6748 66.8637 55.7282 66.6287 55.788 66.3724C55.8521 66.116 55.9183 65.8554 55.9867 65.5905L57.0121 61.7133H58.0952L56.1533 68.7372H54.9164ZM62.0814 61.5979C62.6795 61.5979 63.1922 61.7303 63.6194 61.9952C64.0467 62.2601 64.3735 62.6318 64.6 63.1104C64.8264 63.5846 64.9396 64.14 64.9396 64.7766V65.4367H60.0883C60.1011 66.2613 60.3062 66.8893 60.7035 67.3209C61.1008 67.7524 61.6605 67.9681 62.3826 67.9681C62.8269 67.9681 63.22 67.9276 63.5618 67.8464C63.9036 67.7652 64.2582 67.6456 64.6256 67.4875V68.4232C64.271 68.5812 63.9185 68.6966 63.5682 68.7692C63.2221 68.8419 62.812 68.8782 62.3377 68.8782C61.6627 68.8782 61.0731 68.7415 60.5689 68.468C60.069 68.1903 59.6802 67.7844 59.4025 67.2504C59.1248 66.7163 58.986 66.0626 58.986 65.2893C58.986 64.5331 59.112 63.8794 59.3641 63.3282C59.6204 62.7728 59.9793 62.3456 60.4407 62.0465C60.9064 61.7474 61.4533 61.5979 62.0814 61.5979ZM62.0685 62.4695C61.5003 62.4695 61.0474 62.6553 60.7099 63.027C60.3724 63.3987 60.1716 63.9178 60.1075 64.5844H63.8245C63.8203 64.1656 63.754 63.7982 63.6259 63.4821C63.502 63.1616 63.3118 62.9138 63.0555 62.7386C62.7991 62.5592 62.4702 62.4695 62.0685 62.4695ZM69.2463 68.8782C68.3576 68.8782 67.6527 68.5748 67.1314 67.9681C66.6144 67.3615 66.356 66.46 66.356 65.2637C66.356 64.0546 66.6209 63.1424 67.1506 62.5272C67.6804 61.9077 68.3854 61.5979 69.2655 61.5979C69.6372 61.5979 69.9619 61.647 70.2396 61.7453C70.5173 61.8436 70.7566 61.976 70.9574 62.1426C71.1582 62.305 71.327 62.4908 71.4637 62.7002H71.5406C71.5235 62.5677 71.5064 62.3862 71.4893 62.1555C71.4722 61.9247 71.4637 61.7368 71.4637 61.5915V58.7781H72.5275V68.75H71.6688L71.5085 67.7502H71.4637C71.3312 67.9596 71.1625 68.1497 70.9574 68.3206C70.7566 68.4915 70.5152 68.6282 70.2332 68.7308C69.9555 68.829 69.6265 68.8782 69.2463 68.8782ZM69.4129 67.9938C70.1649 67.9938 70.6968 67.7802 71.0087 67.3529C71.3206 66.9257 71.4765 66.2912 71.4765 65.4495V65.2573C71.4765 64.3643 71.327 63.6786 71.0279 63.2001C70.7331 62.7216 70.1948 62.4823 69.4129 62.4823C68.7592 62.4823 68.27 62.7344 67.9453 63.2385C67.6206 63.7384 67.4583 64.422 67.4583 65.2893C67.4583 66.1523 67.6185 66.8188 67.9389 67.2888C68.2636 67.7588 68.7549 67.9938 69.4129 67.9938ZM77.4879 61.5979C78.086 61.5979 78.5987 61.7303 79.0259 61.9952C79.4532 62.2601 79.78 62.6318 80.0065 63.1104C80.2329 63.5846 80.3461 64.14 80.3461 64.7766V65.4367H75.4948C75.5076 66.2613 75.7127 66.8893 76.11 67.3209C76.5073 67.7524 77.067 67.9681 77.7891 67.9681C78.2334 67.9681 78.6265 67.9276 78.9683 67.8464C79.3101 67.7652 79.6647 67.6456 80.0321 67.4875V68.4232C79.6775 68.5812 79.325 68.6966 78.9747 68.7692C78.6286 68.8419 78.2184 68.8782 77.7442 68.8782C77.0692 68.8782 76.4796 68.7415 75.9754 68.468C75.4755 68.1903 75.0867 67.7844 74.809 67.2504C74.5313 66.7163 74.3925 66.0626 74.3925 65.2893C74.3925 64.5331 74.5185 63.8794 74.7706 63.3282C75.0269 62.7728 75.3858 62.3456 75.8472 62.0465C76.3129 61.7474 76.8598 61.5979 77.4879 61.5979ZM77.475 62.4695C76.9068 62.4695 76.4539 62.6553 76.1164 63.027C75.7789 63.3987 75.5781 63.9178 75.514 64.5844H79.231C79.2267 64.1656 79.1605 63.7982 79.0324 63.4821C78.9085 63.1616 78.7183 62.9138 78.462 62.7386C78.2056 62.5592 77.8767 62.4695 77.475 62.4695ZM85.4795 61.5979C86.3126 61.5979 86.9428 61.803 87.3701 62.2131C87.7973 62.619 88.0109 63.2727 88.0109 64.1742V68.75H86.9599V64.2447C86.9599 63.6594 86.8253 63.2214 86.5562 62.9309C86.2913 62.6404 85.8832 62.4951 85.3321 62.4951C84.5545 62.4951 84.0076 62.7151 83.6915 63.1552C83.3753 63.5953 83.2172 64.234 83.2172 65.0714V68.75H82.1534V61.7261H83.0121L83.1724 62.7386H83.23C83.3796 62.4908 83.5697 62.2836 83.8004 62.117C84.0311 61.9461 84.2896 61.8179 84.5759 61.7325C84.8621 61.6428 85.1633 61.5979 85.4795 61.5979Z" fill="white"/>
<g clip-path="url(#clip3_8016_495)">
<g clip-path="url(#clip4_8016_495)">
<mask id="mask4_8016_495" style="mask-type:alpha" maskUnits="userSpaceOnUse" x="252" y="53" width="24" height="23">
<rect x="252.75" y="53" width="22.5" height="22.5" fill="#D9D9D9"/>
</mask>
<g mask="url(#mask4_8016_495)">
<path d="M263.063 69.875C262.797 69.875 262.574 69.7852 262.395 69.6055C262.215 69.4258 262.125 69.2031 262.125 68.9375C262.125 68.6719 262.215 68.4492 262.395 68.2695C262.574 68.0898 262.797 68 263.063 68H264.938C265.203 68 265.426 68.0898 265.605 68.2695C265.785 68.4492 265.875 68.6719 265.875 68.9375C265.875 69.2031 265.785 69.4258 265.605 69.6055C265.426 69.7852 265.203 69.875 264.938 69.875H263.063ZM259.313 65.1875C259.047 65.1875 258.824 65.0977 258.645 64.918C258.465 64.7383 258.375 64.5156 258.375 64.25C258.375 63.9844 258.465 63.7617 258.645 63.582C258.824 63.4023 259.047 63.3125 259.313 63.3125H268.688C268.953 63.3125 269.176 63.4023 269.355 63.582C269.535 63.7617 269.625 63.9844 269.625 64.25C269.625 64.5156 269.535 64.7383 269.355 64.918C269.176 65.0977 268.953 65.1875 268.688 65.1875H259.313ZM256.5 60.5C256.234 60.5 256.012 60.4102 255.832 60.2305C255.652 60.0508 255.562 59.8281 255.562 59.5625C255.562 59.2969 255.652 59.0742 255.832 58.8945C256.012 58.7148 256.234 58.625 256.5 58.625H271.5C271.766 58.625 271.988 58.7148 272.168 58.8945C272.348 59.0742 272.438 59.2969 272.438 59.5625C272.438 59.8281 272.348 60.0508 272.168 60.2305C271.988 60.4102 271.766 60.5 271.5 60.5H256.5Z" fill="white"/>
</g>
</g>
</g>
<path d="M28.6875 81.125V84.875" stroke="white" stroke-opacity="0.6" stroke-width="0.9375"/>
<path d="M28.2187 87.6875C28.2187 87.9464 28.4286 88.1563 28.6875 88.1563C28.9464 88.1563 29.1563 87.9464 29.1563 87.6875H28.6875H28.2187ZM28.6875 84.875H28.2187V87.6875H28.6875H29.1563V84.875H28.6875Z" fill="white" fill-opacity="0.6"/>
<circle opacity="0.8" cx="260" cy="43.5" r="300" fill="url(#paint0_radial_8016_495)"/>
</g>
<path d="M12 1H276C282.075 1 287 5.92487 287 12V79C287 85.0751 282.075 90 276 90H12C5.92487 90 1 85.0751 1 79V12C1 5.92487 5.92487 1 12 1Z" stroke="#304358" stroke-width="2"/>
<defs>
<radialGradient id="paint0_radial_8016_495" cx="0" cy="0" r="1" gradientUnits="userSpaceOnUse" gradientTransform="translate(260 43.5) rotate(90) scale(300)">
<stop stop-color="#101823" stop-opacity="0"/>
<stop offset="0.254808" stop-color="#101823" stop-opacity="0.5"/>
<stop offset="1" stop-color="#101823"/>
</radialGradient>
<clipPath id="clip0_8016_495">
<path d="M0 12C0 5.37258 5.37258 0 12 0H276C282.627 0 288 5.37258 288 12V79C288 85.6274 282.627 91 276 91H12C5.37259 91 0 85.6274 0 79V12Z" fill="white"/>
</clipPath>
<clipPath id="clip1_8016_495">
<rect width="22.5" height="33.75" fill="white" transform="translate(252.75 9.875)"/>
</clipPath>
<clipPath id="clip2_8016_495">
<rect width="22.5" height="22.5" fill="white" transform="translate(252.75 15.5)"/>
</clipPath>
<clipPath id="clip3_8016_495">
<rect width="22.5" height="33.75" fill="white" transform="translate(252.75 47.375)"/>
</clipPath>
<clipPath id="clip4_8016_495">
<rect width="22.5" height="22.5" fill="white" transform="translate(252.75 53)"/>
</clipPath>
</defs>
</svg>
