<svg width="24" height="24" viewBox="0 0 24 24" fill="none" xmlns="http://www.w3.org/2000/svg">
<mask id="mask0_10868_6022" style="mask-type:alpha" maskUnits="userSpaceOnUse" x="0" y="0" width="24" height="24">
<rect width="24" height="24" fill="white"/>
</mask>
<g mask="url(#mask0_10868_6022)">
<path d="M4.96582 4.00146C5.16992 4.01389 5.34596 4.09355 5.49316 4.24072L19.4219 18.1704C19.5979 18.3465 19.6817 18.5519 19.6738 18.7866C19.6699 19.0253 19.5823 19.2307 19.4102 19.4028C19.238 19.575 19.0326 19.6635 18.7939 19.6675C18.5553 19.6714 18.3499 19.5867 18.1777 19.4146L15.9424 17.1792H7.63574C7.3979 17.1792 7.19527 17.0928 7.0293 16.9214C6.86339 16.7444 6.78038 16.5394 6.78027 16.3071C6.78027 16.0638 6.86117 15.8566 7.02148 15.6851C7.1875 15.5135 7.39225 15.4272 7.63574 15.4272H14.1904L11.6426 12.8794H5.9668C5.72895 12.8794 5.52404 12.793 5.35254 12.6216C5.18663 12.4501 5.10362 12.2451 5.10352 12.0073C5.10352 11.7695 5.18668 11.5646 5.35254 11.3931C5.52409 11.216 5.72884 11.1274 5.9668 11.1274H9.88965L7.34961 8.5874H4.26562L4.17969 8.5835C3.98306 8.56481 3.80925 8.48045 3.65918 8.33057C3.49327 8.1536 3.41026 7.94528 3.41016 7.70752C3.41016 7.46968 3.49332 7.26476 3.65918 7.09326C3.8252 6.91618 4.02767 6.82764 4.26562 6.82764H5.58984L4.24805 5.48584C4.08383 5.32159 4.00204 5.1179 4.00195 4.87549C4.00977 4.6331 4.09767 4.42745 4.26562 4.25928C4.43388 4.09102 4.63826 4.0044 4.87695 4.00049L4.96582 4.00146ZM15.8828 11.1274C16.7687 11.6672 17.8054 11.9822 18.915 11.9976C18.9151 12.0007 18.916 12.0042 18.916 12.0073C18.9159 12.2451 18.8329 12.4501 18.667 12.6216C18.5011 12.7929 18.2992 12.8793 18.0615 12.8794H17.5391L15.7871 11.1274H15.8828ZM13.0586 6.82764C13.1445 7.44979 13.3245 8.0414 13.5859 8.5874H13.2471L11.4873 6.82764H13.0586Z" fill="white"/>
<path d="M22 6C22 7.65685 20.6569 9 19 9C17.3431 9 16 7.65685 16 6C16 4.34315 17.3431 3 19 3C20.6569 3 22 4.34315 22 6Z" fill="white"/>
</g>
</svg>
