<svg width="24" height="24" viewBox="0 0 24 24" fill="none" xmlns="http://www.w3.org/2000/svg">
<mask id="mask0_10768_10532" style="mask-type:alpha" maskUnits="userSpaceOnUse" x="0" y="0" width="24" height="24">
<rect width="24" height="24" fill="white"/>
</mask>
<g mask="url(#mask0_10768_10532)">
<path d="M2.78809 3.20068C3.06298 3.20073 3.30006 3.30058 3.5 3.50049L20.5 20.5005C20.7 20.7005 20.8008 20.934 20.8008 21.2007C20.8007 21.4672 20.6999 21.7 20.5 21.8999C20.3001 22.0998 20.063 22.2006 19.7881 22.2007C19.5131 22.2007 19.2752 22.0999 19.0752 21.8999L13.9844 16.8169C13.994 16.8758 14 16.937 14 17.0005C13.9999 17.2836 13.9044 17.5208 13.7129 17.7124C13.5212 17.9041 13.2833 18.0005 13 18.0005H11C10.7168 18.0004 10.4797 17.904 10.2881 17.7124C10.0965 17.5208 10.0001 17.2837 10 17.0005C10 16.7172 10.0964 16.4793 10.2881 16.2876C10.4796 16.0961 10.7169 16.0006 11 16.0005H13C13.0623 16.0005 13.1228 16.0049 13.1807 16.0142L10.1504 12.9878V13.0005H7C6.71684 13.0004 6.47966 12.904 6.28809 12.7124C6.09652 12.5208 6.00006 12.2837 6 12.0005C6 11.7172 6.09642 11.4793 6.28809 11.2876C6.47964 11.0961 6.71692 11.0006 7 11.0005H8.15918L5.15039 7.99561V8.00049H4C3.71684 8.0004 3.47966 7.90398 3.28809 7.7124C3.09652 7.52081 3.00006 7.28367 3 7.00049C3 6.71715 3.09642 6.47926 3.28809 6.2876C3.31375 6.26194 3.33988 6.23755 3.36719 6.21533L2.0752 4.92529C1.87524 4.72531 1.77539 4.48737 1.77539 4.2124C1.77547 3.93764 1.87543 3.70036 2.0752 3.50049C2.2752 3.30049 2.51309 3.20068 2.78809 3.20068ZM15.6777 11.1616C16.3863 11.5445 17.1681 11.8083 17.9971 11.9272C17.9985 11.9512 18 11.9758 18 12.0005C17.9999 12.2836 17.9044 12.5208 17.7129 12.7124C17.5212 12.9041 17.2833 13.0005 17 13.0005H16.25C15.9668 13.0004 15.7253 12.904 15.5254 12.7124C15.3256 12.5208 15.2256 12.2836 15.2256 12.0005C15.2256 11.7339 15.3211 11.5003 15.5127 11.3003C15.5638 11.247 15.6189 11.2007 15.6777 11.1616ZM12.0723 6.00049C12.1734 6.70671 12.3793 7.37874 12.6748 8.00049H11.25C10.9668 8.0004 10.7253 7.90398 10.5254 7.7124C10.3256 7.52082 10.2256 7.28363 10.2256 7.00049C10.2256 6.73388 10.3211 6.50026 10.5127 6.30029C10.7043 6.10038 10.9502 6.00058 11.25 6.00049H12.0723Z" fill="white"/>
</g>
</svg>
