<svg width="343" height="108" viewBox="0 0 343 108" fill="none" xmlns="http://www.w3.org/2000/svg">
<g clip-path="url(#clip0_7529_55147)">
<path d="M0 12C0 5.37258 5.37258 0 12 0H331C337.627 0 343 5.37258 343 12V96C343 102.627 337.627 108 331 108H12C5.37258 108 0 102.627 0 96V12Z" fill="#192638"/>
<mask id="mask0_7529_55147" style="mask-type:alpha" maskUnits="userSpaceOnUse" x="21" y="-6" width="18" height="18">
<rect x="21.3008" y="-5.26904" width="16.9506" height="16.9506" fill="white"/>
</mask>
<g mask="url(#mask0_7529_55147)">
<path d="M27.3955 9.7725C26.8718 9.7725 26.4477 9.61811 26.1233 9.30932C25.7989 9.00054 25.6367 8.59408 25.6367 8.08986V-1.67729C25.6367 -2.18147 25.7989 -2.58795 26.1233 -2.89671C26.4477 -3.20548 26.8718 -3.35986 27.3955 -3.35986H32.2029C32.7188 -3.35986 33.1331 -3.20548 33.4457 -2.89671C33.7584 -2.58795 33.9148 -2.18147 33.9148 -1.67729V8.084C33.9148 8.5921 33.7584 9.00054 33.4457 9.30932C33.1331 9.61811 32.7188 9.7725 32.2029 9.7725H27.3955ZM27.6476 8.41235H31.9098C32.1286 8.41235 32.2986 8.35175 32.4198 8.23056C32.5449 8.11331 32.6074 7.94917 32.6074 7.73814V-1.32553C32.6074 -1.54049 32.5449 -1.7066 32.4198 -1.82385C32.2986 -1.9411 32.1286 -1.99973 31.9098 -1.99973H31.13C31.0323 -1.99973 30.9835 -1.95478 30.9835 -1.86489V-1.69487C30.9835 -1.56589 30.9444 -1.46037 30.8662 -1.37829C30.788 -1.29621 30.6825 -1.25517 30.5496 -1.25517H29.0077C28.8749 -1.25517 28.7674 -1.29621 28.6853 -1.37829C28.6071 -1.46037 28.568 -1.56589 28.568 -1.69487V-1.86489C28.568 -1.95478 28.5211 -1.99973 28.4273 -1.99973H27.6476C27.4248 -1.99973 27.2509 -1.9411 27.1258 -1.82385C27.0047 -1.7066 26.9441 -1.54049 26.9441 -1.32553V7.73814C26.9441 7.95306 27.0047 8.11918 27.1258 8.23642C27.2509 8.35373 27.4248 8.41235 27.6476 8.41235ZM28.4977 7.93159C28.4078 7.93159 28.3335 7.90228 28.2749 7.84366C28.2163 7.78892 28.187 7.71469 28.187 7.6209C28.187 7.5271 28.2163 7.4528 28.2749 7.39807C28.3335 7.33945 28.4078 7.31014 28.4977 7.31014H31.0597C31.1496 7.31014 31.2238 7.33945 31.2824 7.39807C31.3411 7.4528 31.3704 7.5271 31.3704 7.6209C31.3704 7.71469 31.3411 7.78892 31.2824 7.84366C31.2238 7.90228 31.1496 7.93159 31.0597 7.93159H28.4977Z" fill="white"/>
</g>
<path d="M30.2482 13.5649C30.2482 13.3049 30.0374 13.0941 29.7773 13.0941C29.5173 13.0941 29.3065 13.3049 29.3065 13.5649H29.7773H30.2482ZM29.7773 13.5649H29.3065V14.5649H29.7773H30.2482V13.5649H29.7773Z" fill="white" fill-opacity="0.6"/>
<path d="M49.2581 7.64795V3.93586L46.1976 -0.977727H47.423L49.7483 2.85391H49.8439L52.1692 -0.977727H53.3946L50.3341 3.93586V7.64795H49.2581ZM56.0307 7.76152C55.421 7.76152 54.8929 7.62802 54.4466 7.36102C54.0043 7.09004 53.6615 6.70548 53.4185 6.20735C53.1794 5.70921 53.0598 5.11743 53.0598 4.432V4.42005C53.0598 3.73063 53.1794 3.13685 53.4185 2.63872C53.6615 2.14059 54.0043 1.75802 54.4466 1.49102C54.8929 1.22402 55.421 1.09052 56.0307 1.09052C56.6444 1.09052 57.1724 1.22402 57.6147 1.49102C58.0571 1.75802 58.3978 2.14059 58.6369 2.63872C58.88 3.13685 59.0015 3.73063 59.0015 4.42005V4.432C59.0015 5.11743 58.88 5.70921 58.6369 6.20735C58.3978 6.70548 58.0571 7.09004 57.6147 7.36102C57.1724 7.62802 56.6444 7.76152 56.0307 7.76152ZM56.0307 6.84097C56.4371 6.84097 56.7819 6.74533 57.0648 6.55405C57.3477 6.36277 57.5629 6.0878 57.7104 5.72914C57.8618 5.37048 57.9375 4.9381 57.9375 4.432V4.42005C57.9375 3.90996 57.8618 3.47558 57.7104 3.11693C57.5629 2.75827 57.3477 2.4853 57.0648 2.298C56.7819 2.10671 56.4371 2.01107 56.0307 2.01107C55.6242 2.01107 55.2795 2.10671 54.9965 2.298C54.7136 2.4853 54.4964 2.75827 54.345 3.11693C54.1975 3.47558 54.1238 3.90996 54.1238 4.42005V4.432C54.1238 4.9381 54.1975 5.37048 54.345 5.72914C54.4964 6.0878 54.7136 6.36277 54.9965 6.55405C55.2795 6.74533 55.6242 6.84097 56.0307 6.84097ZM62.3967 7.76152C61.9105 7.76152 61.5021 7.66987 61.1713 7.48655C60.8406 7.29926 60.5915 7.02827 60.4241 6.6736C60.2607 6.31494 60.179 5.88256 60.179 5.37646V1.2041H61.2191V5.1254C61.2191 5.70324 61.3307 6.13362 61.5539 6.41656C61.781 6.6995 62.1516 6.84097 62.6657 6.84097C62.9487 6.84097 63.1977 6.79913 63.4129 6.71544C63.6321 6.63176 63.8154 6.51221 63.9629 6.35679C64.1103 6.19739 64.2199 6.0061 64.2916 5.78294C64.3673 5.55579 64.4052 5.30075 64.4052 5.01781V1.2041H65.4453V7.64795H64.4052V6.68556H64.3096C64.2059 6.9127 64.0645 7.10797 63.8851 7.27136C63.7058 7.43076 63.4906 7.55231 63.2396 7.63599C62.9925 7.71968 62.7115 7.76152 62.3967 7.76152ZM67.0113 7.64795V1.2041H68.0514V2.16051H68.1471C68.2706 1.82178 68.4798 1.55877 68.7747 1.37147C69.0696 1.18417 69.4343 1.09052 69.8686 1.09052C69.9683 1.09052 70.0659 1.0965 70.1615 1.10846C70.2612 1.11643 70.3369 1.1244 70.3887 1.13237V2.14258C70.2811 2.12265 70.1755 2.10871 70.0719 2.10074C69.9722 2.08878 69.8646 2.0828 69.7491 2.0828C69.4183 2.0828 69.1254 2.14856 68.8704 2.28006C68.6153 2.41157 68.4141 2.59489 68.2666 2.83C68.1232 3.06512 68.0514 3.34009 68.0514 3.65491V7.64795H67.0113ZM76.7427 7.76152C76.2007 7.76152 75.7265 7.62404 75.32 7.34907C74.9135 7.0741 74.5987 6.68755 74.3756 6.18941C74.1524 5.6873 74.0408 5.10149 74.0408 4.432V4.42005C74.0408 3.74657 74.1524 3.16076 74.3756 2.66263C74.5987 2.1645 74.9115 1.77795 75.314 1.50298C75.7205 1.22801 76.1967 1.09052 76.7427 1.09052C77.0376 1.09052 77.3145 1.13834 77.5736 1.23399C77.8366 1.32564 78.0697 1.45516 78.2729 1.62253C78.4762 1.7899 78.6356 1.98916 78.7512 2.22029H78.8468V-1.35432H79.8869V7.64795H78.8468V6.6198H78.7512C78.6196 6.85891 78.4543 7.06414 78.255 7.23549C78.0558 7.40287 77.8286 7.53238 77.5736 7.62404C77.3185 7.7157 77.0416 7.76152 76.7427 7.76152ZM76.9818 6.84097C77.3723 6.84097 77.7091 6.74334 77.992 6.54807C78.2749 6.3528 78.4921 6.07584 78.6436 5.71718C78.795 5.35454 78.8707 4.92615 78.8707 4.432V4.42005C78.8707 3.92191 78.795 3.49352 78.6436 3.13486C78.4921 2.77621 78.2749 2.49924 77.992 2.30398C77.7091 2.10871 77.3723 2.01107 76.9818 2.01107C76.5913 2.01107 76.2545 2.10871 75.9716 2.30398C75.6926 2.49526 75.4774 2.77023 75.326 3.12888C75.1785 3.48754 75.1048 3.91793 75.1048 4.42005V4.432C75.1048 4.93013 75.1785 5.36052 75.326 5.72316C75.4774 6.08182 75.6926 6.35878 75.9716 6.55405C76.2545 6.74533 76.5913 6.84097 76.9818 6.84097ZM84.1369 7.76152C83.5232 7.76152 82.9952 7.62603 82.5528 7.35505C82.1145 7.08406 81.7757 6.7015 81.5366 6.20735C81.3015 5.70921 81.1839 5.12341 81.1839 4.44993V4.44396C81.1839 3.77845 81.3015 3.19464 81.5366 2.69252C81.7757 2.1904 82.1125 1.79787 82.5468 1.51493C82.9812 1.23199 83.4893 1.09052 84.0711 1.09052C84.6569 1.09052 85.1591 1.22601 85.5775 1.497C85.9999 1.76798 86.3227 2.14657 86.5459 2.63274C86.773 3.11494 86.8866 3.67683 86.8866 4.31843V4.7249H81.7219V3.89402H86.3546L85.8405 4.65317V4.24072C85.8405 3.73461 85.7648 3.31817 85.6134 2.9914C85.4619 2.66462 85.2527 2.42153 84.9857 2.26213C84.7187 2.09874 84.4119 2.01705 84.0652 2.01705C83.7185 2.01705 83.4076 2.10273 83.1326 2.27409C82.8617 2.44146 82.6465 2.69053 82.4871 3.02129C82.3277 3.35205 82.248 3.75852 82.248 4.24072V4.65317C82.248 5.11145 82.3257 5.50398 82.4811 5.83076C82.6365 6.15355 82.8577 6.40262 83.1446 6.57796C83.4315 6.74932 83.7703 6.835 84.1608 6.835C84.4517 6.835 84.7048 6.79515 84.9199 6.71544C85.1351 6.63574 85.3125 6.53412 85.452 6.41059C85.5914 6.28705 85.6891 6.16152 85.7449 6.034L85.7688 5.9802H86.8089L86.7969 6.02802C86.7411 6.2472 86.6415 6.4604 86.498 6.66762C86.3586 6.87086 86.1772 7.05617 85.9541 7.22354C85.7309 7.38693 85.4659 7.51843 85.1591 7.61806C84.8562 7.7137 84.5155 7.76152 84.1369 7.76152ZM89.8275 7.64795L87.4424 1.2041H88.5423L90.3057 6.51221H90.4013L92.1647 1.2041H93.2646L90.8795 7.64795H89.8275ZM94.2867 7.64795V1.2041H95.3268V7.64795H94.2867ZM94.8127 -0.0392436C94.6174 -0.0392436 94.4481 -0.108982 94.3046 -0.24846C94.1651 -0.391922 94.0954 -0.561287 94.0954 -0.756556C94.0954 -0.955809 94.1651 -1.12517 94.3046 -1.26465C94.4481 -1.40413 94.6174 -1.47387 94.8127 -1.47387C95.0119 -1.47387 95.1813 -1.40413 95.3208 -1.26465C95.4603 -1.12517 95.53 -0.955809 95.53 -0.756556C95.53 -0.561287 95.4603 -0.391922 95.3208 -0.24846C95.1813 -0.108982 95.0119 -0.0392436 94.8127 -0.0392436ZM99.5469 7.76152C98.9451 7.76152 98.4231 7.62404 97.9807 7.34907C97.5384 7.0741 97.1957 6.68556 96.9526 6.18344C96.7095 5.68132 96.5879 5.08954 96.5879 4.40809V4.39614C96.5879 3.72664 96.7075 3.14482 96.9466 2.65068C97.1897 2.15653 97.5324 1.77396 97.9747 1.50298C98.4171 1.22801 98.9391 1.09052 99.5409 1.09052C100.063 1.09052 100.513 1.18218 100.892 1.36549C101.27 1.54881 101.573 1.79588 101.8 2.10671C102.028 2.41356 102.173 2.75827 102.237 3.14084L102.243 3.1767H101.209L101.203 3.15877C101.123 2.83997 100.942 2.56898 100.659 2.34582C100.376 2.12265 100.003 2.01107 99.5409 2.01107C99.1543 2.01107 98.8196 2.10871 98.5366 2.30398C98.2537 2.49924 98.0345 2.77621 97.8791 3.13486C97.7277 3.48953 97.652 3.90996 97.652 4.39614V4.40809C97.652 4.90224 97.7297 5.33263 97.8851 5.69925C98.0405 6.06189 98.2597 6.34284 98.5426 6.54209C98.8256 6.74135 99.1583 6.84097 99.5409 6.84097C99.9753 6.84097 100.33 6.74732 100.605 6.56003C100.88 6.37273 101.077 6.09975 101.197 5.7411L101.209 5.70523L102.237 5.69925L102.225 5.76501C102.137 6.15156 101.982 6.49627 101.759 6.79913C101.535 7.09801 101.241 7.33313 100.874 7.50449C100.507 7.67584 100.065 7.76152 99.5469 7.76152ZM106.015 7.76152C105.401 7.76152 104.873 7.62603 104.43 7.35505C103.992 7.08406 103.653 6.7015 103.414 6.20735C103.179 5.70921 103.062 5.12341 103.062 4.44993V4.44396C103.062 3.77845 103.179 3.19464 103.414 2.69252C103.653 2.1904 103.99 1.79787 104.424 1.51493C104.859 1.23199 105.367 1.09052 105.949 1.09052C106.535 1.09052 107.037 1.22601 107.455 1.497C107.878 1.76798 108.2 2.14657 108.424 2.63274C108.651 3.11494 108.764 3.67683 108.764 4.31843V4.7249H103.6V3.89402H108.232L107.718 4.65317V4.24072C107.718 3.73461 107.642 3.31817 107.491 2.9914C107.34 2.66462 107.13 2.42153 106.863 2.26213C106.596 2.09874 106.29 2.01705 105.943 2.01705C105.596 2.01705 105.285 2.10273 105.01 2.27409C104.739 2.44146 104.524 2.69053 104.365 3.02129C104.205 3.35205 104.126 3.75852 104.126 4.24072V4.65317C104.126 5.11145 104.203 5.50398 104.359 5.83076C104.514 6.15355 104.735 6.40262 105.022 6.57796C105.309 6.74932 105.648 6.835 106.038 6.835C106.329 6.835 106.582 6.79515 106.798 6.71544C107.013 6.63574 107.19 6.53412 107.33 6.41059C107.469 6.28705 107.567 6.16152 107.623 6.034L107.646 5.9802H108.687L108.675 6.02802C108.619 6.2472 108.519 6.4604 108.376 6.66762C108.236 6.87086 108.055 7.05617 107.832 7.22354C107.609 7.38693 107.344 7.51843 107.037 7.61806C106.734 7.7137 106.393 7.76152 106.015 7.76152Z" fill="white" fill-opacity="0.6"/>
<path d="M10 29.5159C10 21.1945 16.7458 14.4487 25.0672 14.4487H317.937C326.258 14.4487 333.004 21.1946 333.004 29.516V78.4845C333.004 86.8059 326.258 93.5517 317.936 93.5517H25.0672C16.7458 93.5517 10 86.8059 10 78.4845V29.5159Z" fill="#101823"/>
<path d="M29.7734 14.4487V18.2155" stroke="white" stroke-opacity="0.6" stroke-width="0.941702"/>
<path d="M29.7734 18.2153L29.7734 52.2153" stroke="white" stroke-opacity="0.6" stroke-width="0.941702"/>
<path d="M13.7656 29.5158C13.7656 23.2747 18.825 18.2153 25.066 18.2153H317.935C324.176 18.2153 329.236 23.2747 329.236 29.5158V40.8162C329.236 47.0572 324.176 52.1166 317.935 52.1166H25.066C18.825 52.1166 13.7656 47.0572 13.7656 40.8162V29.5158Z" fill="#1C344E"/>
<path d="M29.3065 24.8072C29.3065 25.0673 29.5173 25.2781 29.7773 25.2781C30.0374 25.2781 30.2482 25.0673 30.2482 24.8072H29.7773H29.3065ZM29.7773 18.2153H29.3065V24.8072H29.7773H30.2482V18.2153H29.7773Z" fill="white"/>
<mask id="mask1_7529_55147" style="mask-type:alpha" maskUnits="userSpaceOnUse" x="21" y="26" width="18" height="18">
<rect x="21.3008" y="26.6904" width="16.9506" height="16.9506" fill="white"/>
</mask>
<g mask="url(#mask1_7529_55147)">
<path d="M29.7752 41.7518C29.6104 41.7518 29.4456 41.7223 29.2808 41.6635C29.116 41.6046 28.9689 41.5163 28.8394 41.3986C28.0743 40.6924 27.3974 40.0037 26.8089 39.3328C26.2203 38.6618 25.7288 38.0115 25.3345 37.3817C24.9402 36.7519 24.64 36.1457 24.434 35.563C24.228 34.9803 24.125 34.4242 24.125 33.8944C24.125 32.682 24.4311 31.5932 25.0432 30.6279C25.6553 29.6627 26.5205 28.9564 27.6387 28.5091C27.9448 28.3796 28.2832 28.2796 28.654 28.2089C29.0248 28.1383 29.3926 28.0971 29.7576 28.0853C29.9577 28.0853 30.1254 28.1501 30.2608 28.2796C30.3961 28.409 30.4638 28.5738 30.4638 28.7739C30.4638 28.9741 30.3961 29.1477 30.2608 29.2948C30.1254 29.442 29.9577 29.5155 29.7576 29.5155C29.475 29.5155 29.1984 29.542 28.9277 29.595C28.6569 29.648 28.3862 29.7274 28.1155 29.8334C27.2915 30.1747 26.6558 30.7162 26.2085 31.4578C25.7612 32.1994 25.5376 33.0116 25.5376 33.8944C25.5376 34.7302 25.8848 35.6866 26.5793 36.7637C27.2738 37.8408 28.3391 39.0385 29.7752 40.3569C30.4933 39.6977 31.1171 39.0709 31.6468 38.4764C32.1766 37.882 32.618 37.314 32.9711 36.7725C33.2065 36.4076 33.4125 36.0339 33.5891 35.6513C33.7657 35.2687 33.8893 34.8715 33.9599 34.4595C34.007 34.1887 34.11 34.0004 34.2689 33.8944C34.4278 33.7885 34.5955 33.7473 34.7721 33.7708C34.9487 33.7944 35.0988 33.865 35.2224 33.9827C35.346 34.1004 35.396 34.2594 35.3725 34.4595C35.2783 35.1893 35.0693 35.875 34.7456 36.5165C34.4219 37.158 34.0423 37.7731 33.6068 38.3616C33.1006 39.0326 32.5797 39.63 32.0441 40.1538C31.5085 40.6776 31.0642 41.0926 30.711 41.3986C30.5815 41.5163 30.4344 41.6046 30.2696 41.6635C30.1048 41.7223 29.94 41.7518 29.7752 41.7518ZM29.7752 35.1657C30.1637 35.1657 30.4962 35.0274 30.7728 34.7508C31.0495 34.4742 31.1878 34.1416 31.1878 33.7532C31.1878 33.3647 31.0495 33.0322 30.7728 32.7556C30.4962 32.479 30.1637 32.3406 29.7752 32.3406C29.3868 32.3406 29.0542 32.479 28.7776 32.7556C28.501 33.0322 28.3627 33.3647 28.3627 33.7532C28.3627 34.1416 28.501 34.4742 28.7776 34.7508C29.0542 35.0274 29.3868 35.1657 29.7752 35.1657ZM34.0129 30.2218V31.6344C34.0129 31.8345 34.0806 32.0022 34.2159 32.1376C34.3513 32.273 34.519 32.3406 34.7191 32.3406C34.9193 32.3406 35.087 32.273 35.2224 32.1376C35.3577 32.0022 35.4254 31.8345 35.4254 31.6344V30.2218H36.838C37.0381 30.2218 37.2058 30.1541 37.3412 30.0188C37.4766 29.8834 37.5443 29.7156 37.5443 29.5155C37.5443 29.3154 37.4766 29.1477 37.3412 29.0123C37.2058 28.8769 37.0381 28.8093 36.838 28.8093H35.4254V27.3967C35.4254 27.1966 35.3577 27.0289 35.2224 26.8935C35.087 26.7581 34.9193 26.6904 34.7191 26.6904C34.519 26.6904 34.3513 26.7581 34.2159 26.8935C34.0806 27.0289 34.0129 27.1966 34.0129 27.3967V28.8093H32.6003C32.4002 28.8093 32.2325 28.8769 32.0971 29.0123C31.9617 29.1477 31.894 29.3154 31.894 29.5155C31.894 29.7156 31.9617 29.8834 32.0971 30.0188C32.2325 30.1541 32.4002 30.2218 32.6003 30.2218H34.0129Z" fill="white"/>
</g>
<path d="M30.2482 45.5249C30.2482 45.2649 30.0374 45.0541 29.7773 45.0541C29.5173 45.0541 29.3065 45.2649 29.3065 45.5249H29.7773H30.2482ZM29.7773 45.5249H29.3065V52.1168H29.7773H30.2482V45.5249H29.7773Z" fill="white"/>
<path d="M51.0928 40.9469C50.2173 40.9469 49.4565 40.8114 48.8103 40.5405C48.1693 40.2695 47.6638 39.8917 47.2938 39.407C46.9238 38.9224 46.7154 38.3569 46.6685 37.7108L46.6606 37.6013H48.6149L48.6227 37.6795C48.6539 37.9974 48.779 38.2736 48.9979 38.5081C49.222 38.7426 49.519 38.9276 49.889 39.0631C50.259 39.1934 50.6811 39.2585 51.1553 39.2585C51.6087 39.2585 52.01 39.1881 52.3591 39.0474C52.7083 38.9067 52.9819 38.7139 53.1799 38.469C53.3779 38.2189 53.4769 37.9322 53.4769 37.6091V37.6013C53.4769 37.1948 53.318 36.8639 53.0001 36.6086C52.6822 36.348 52.1585 36.1396 51.4289 35.9832L50.2173 35.7331C49.0604 35.4882 48.2188 35.0973 47.6925 34.5606C47.1713 34.0186 46.9108 33.3281 46.9108 32.4891V32.4813C46.9108 31.809 47.088 31.2202 47.4423 30.7147C47.8019 30.2092 48.2944 29.8157 48.9197 29.5343C49.5503 29.2477 50.272 29.1044 51.085 29.1044C51.9188 29.1044 52.6405 29.2451 53.2503 29.5265C53.86 29.8027 54.3394 30.1805 54.6886 30.6599C55.0377 31.1394 55.2331 31.6813 55.2748 32.2859L55.2826 32.3875H53.3597L53.3441 32.2937C53.2972 31.9966 53.1747 31.7387 52.9767 31.5198C52.7839 31.2957 52.5259 31.1185 52.2028 30.9883C51.8797 30.858 51.5019 30.7928 51.0694 30.7928C50.6577 30.7928 50.2903 30.858 49.9672 30.9883C49.6441 31.1133 49.3887 31.2905 49.2011 31.5198C49.0187 31.7491 48.9275 32.0253 48.9275 32.3484V32.3562C48.9275 32.7523 49.0813 33.0806 49.3887 33.3411C49.7014 33.6017 50.2095 33.8049 50.913 33.9508L52.1246 34.2088C52.9167 34.3756 53.5603 34.597 54.0554 34.8732C54.5505 35.1494 54.9126 35.4934 55.1419 35.9051C55.3764 36.3115 55.4937 36.8014 55.4937 37.3746V37.3824C55.4937 38.112 55.3139 38.7426 54.9543 39.2741C54.6 39.8057 54.0919 40.2174 53.43 40.5092C52.7734 40.801 51.9943 40.9469 51.0928 40.9469ZM58.8144 40.6655L56.4928 32.1217H58.447L59.8619 38.5472H60.0026L61.6441 32.1217H63.4967L65.146 38.5472H65.2868L66.7016 32.1217H68.6324L66.3108 40.6655H64.2784L62.6134 34.4746H62.4805L60.8233 40.6655H58.8144ZM73.2507 40.8375C72.4012 40.8375 71.6717 40.6577 71.0619 40.2981C70.4574 39.9386 69.991 39.4279 69.6627 38.766C69.3344 38.1042 69.1703 37.3199 69.1703 36.4132V36.4053C69.1703 35.509 69.3318 34.7273 69.6549 34.0603C69.9832 33.3932 70.447 32.8773 71.0463 32.5125C71.6456 32.1425 72.3491 31.9575 73.1569 31.9575C73.9698 31.9575 74.6681 32.1373 75.2518 32.4969C75.8406 32.8513 76.294 33.3489 76.6119 33.9899C76.9298 34.6309 77.0887 35.3813 77.0887 36.2412V36.8822H70.1474V35.5768H76.1351L75.2127 36.7962V36.0223C75.2127 35.4543 75.1267 34.9827 74.9547 34.6075C74.7828 34.2323 74.543 33.9508 74.2356 33.7632C73.9333 33.5756 73.5816 33.4818 73.1803 33.4818C72.779 33.4818 72.4221 33.5808 72.1094 33.7789C71.8019 33.9717 71.557 34.2583 71.3746 34.6387C71.1974 35.0139 71.1088 35.4751 71.1088 36.0223V36.804C71.1088 37.3303 71.1974 37.7811 71.3746 38.1563C71.5518 38.5263 71.8019 38.8129 72.125 39.0162C72.4533 39.2142 72.8416 39.3132 73.2897 39.3132C73.6389 39.3132 73.9385 39.2637 74.1887 39.1647C74.444 39.0605 74.6499 38.938 74.8062 38.7973C74.9626 38.6514 75.072 38.5133 75.1345 38.383L75.158 38.3283H77.0028L76.9871 38.3986C76.9194 38.6748 76.7943 38.9562 76.6119 39.2429C76.4347 39.5243 76.1924 39.7874 75.8849 40.0324C75.5827 40.2721 75.2127 40.4675 74.7749 40.6186C74.3372 40.7645 73.8291 40.8375 73.2507 40.8375ZM81.7383 40.8062C81.0296 40.8062 80.412 40.629 79.8857 40.2747C79.3594 39.9151 78.9529 39.4044 78.6663 38.7426C78.3797 38.0808 78.2363 37.3017 78.2363 36.4053V36.3897C78.2363 35.4829 78.377 34.7013 78.6585 34.0446C78.9451 33.3828 79.3489 32.8747 79.8701 32.5204C80.3964 32.1608 81.0191 31.981 81.7383 31.981C82.1291 31.981 82.4939 32.0435 82.8327 32.1686C83.1714 32.2885 83.4684 32.4604 83.7238 32.6845C83.9843 32.9086 84.1876 33.1744 84.3335 33.4818H84.4742V28.8152H86.4128V40.6655H84.4742V39.3288H84.3335C84.1772 39.6363 83.9713 39.9021 83.716 40.1262C83.4658 40.345 83.174 40.5144 82.8405 40.6343C82.507 40.7489 82.1396 40.8062 81.7383 40.8062ZM82.348 39.1647C82.791 39.1647 83.1714 39.0553 83.4893 38.8364C83.8124 38.6123 84.0599 38.2944 84.2319 37.8827C84.4091 37.4658 84.4977 36.9734 84.4977 36.4053V36.3897C84.4977 35.8165 84.4091 35.324 84.2319 34.9123C84.0599 34.5006 83.8124 34.1827 83.4893 33.9587C83.1714 33.7346 82.791 33.6225 82.348 33.6225C81.9103 33.6225 81.5298 33.7346 81.2068 33.9587C80.8889 34.1775 80.6439 34.4954 80.472 34.9123C80.3 35.324 80.214 35.8165 80.214 36.3897V36.4053C80.214 36.9786 80.3 37.471 80.472 37.8827C80.6439 38.2944 80.8889 38.6123 81.2068 38.8364C81.5246 39.0553 81.9051 39.1647 82.348 39.1647ZM92.1489 40.8375C91.2995 40.8375 90.5699 40.6577 89.9602 40.2981C89.3557 39.9386 88.8893 39.4279 88.5609 38.766C88.2326 38.1042 88.0685 37.3199 88.0685 36.4132V36.4053C88.0685 35.509 88.23 34.7273 88.5531 34.0603C88.8814 33.3932 89.3452 32.8773 89.9445 32.5125C90.5438 32.1425 91.2473 31.9575 92.0551 31.9575C92.868 31.9575 93.5663 32.1373 94.15 32.4969C94.7389 32.8513 95.1923 33.3489 95.5101 33.9899C95.828 34.6309 95.987 35.3813 95.987 36.2412V36.8822H89.0456V35.5768H95.0333L94.1109 36.7962V36.0223C94.1109 35.4543 94.0249 34.9827 93.853 34.6075C93.681 34.2323 93.4413 33.9508 93.1338 33.7632C92.8316 33.5756 92.4798 33.4818 92.0785 33.4818C91.6773 33.4818 91.3203 33.5808 91.0076 33.7789C90.7002 33.9717 90.4552 34.2583 90.2728 34.6387C90.0957 35.0139 90.0071 35.4751 90.0071 36.0223V36.804C90.0071 37.3303 90.0957 37.7811 90.2728 38.1563C90.45 38.5263 90.7002 38.8129 91.0233 39.0162C91.3516 39.2142 91.7398 39.3132 92.188 39.3132C92.5371 39.3132 92.8368 39.2637 93.0869 39.1647C93.3423 39.0605 93.5481 38.938 93.7044 38.7973C93.8608 38.6514 93.9702 38.5133 94.0327 38.383L94.0562 38.3283H95.901L95.8853 38.3986C95.8176 38.6748 95.6925 38.9562 95.5101 39.2429C95.333 39.5243 95.0906 39.7874 94.7832 40.0324C94.4809 40.2721 94.1109 40.4675 93.6732 40.6186C93.2354 40.7645 92.7273 40.8375 92.1489 40.8375ZM97.5567 40.6655V32.1217H99.5031V33.4349H99.636C99.8392 32.9711 100.147 32.6089 100.558 32.3484C100.97 32.0878 101.483 31.9575 102.098 31.9575C103.052 31.9575 103.782 32.2337 104.287 32.7861C104.792 33.3385 105.045 34.1228 105.045 35.139V40.6655H103.099V35.5924C103.099 34.9253 102.958 34.4251 102.677 34.0915C102.401 33.758 101.968 33.5913 101.379 33.5913C100.993 33.5913 100.66 33.6773 100.379 33.8492C100.097 34.0212 99.8809 34.2635 99.7298 34.5762C99.5786 34.8889 99.5031 35.2589 99.5031 35.6862V40.6655H97.5567Z" fill="white"/>
<g clip-path="url(#clip1_7529_55147)">
<g clip-path="url(#clip2_7529_55147)">
<mask id="mask2_7529_55147" style="mask-type:alpha" maskUnits="userSpaceOnUse" x="297" y="23" width="23" height="24">
<rect x="297.219" y="23.8657" width="22.6008" height="22.6008" fill="white"/>
</mask>
<g mask="url(#mask2_7529_55147)">
<path d="M304.408 40.0425C304.184 40.0425 303.994 39.9618 303.838 39.8002C303.682 39.6335 303.603 39.4406 303.603 39.2218C303.603 38.9925 303.679 38.7971 303.83 38.6355C303.986 38.474 304.179 38.3932 304.408 38.3932H312.647C312.877 38.3932 313.07 38.474 313.226 38.6355C313.387 38.7971 313.468 38.9925 313.468 39.2218C313.468 39.4459 313.387 39.6387 313.226 39.8002C313.07 39.9618 312.877 40.0425 312.647 40.0425H304.408ZM302.837 35.9934C302.613 35.9934 302.42 35.9126 302.259 35.7511C302.102 35.5895 302.024 35.3967 302.024 35.1726C302.024 34.9486 302.102 34.7557 302.259 34.5942C302.42 34.4274 302.613 34.3441 302.837 34.3441H314.226C314.451 34.3441 314.641 34.4248 314.797 34.5864C314.953 34.7479 315.032 34.9433 315.032 35.1726C315.032 35.3967 314.953 35.5895 314.797 35.7511C314.641 35.9126 314.451 35.9934 314.226 35.9934H302.837ZM301.235 31.9521C301.016 31.9521 300.826 31.8713 300.664 31.7098C300.508 31.543 300.43 31.3476 300.43 31.1235C300.43 30.8994 300.508 30.7066 300.664 30.5451C300.821 30.3783 301.011 30.2949 301.235 30.2949H315.79C316.024 30.2949 316.217 30.3757 316.368 30.5372C316.525 30.6988 316.603 30.8942 316.603 31.1235C316.603 31.3528 316.525 31.5482 316.368 31.7098C316.212 31.8713 316.019 31.9521 315.79 31.9521H301.235Z" fill="white"/>
</g>
</g>
</g>
<path d="M29.7734 52.1167V55.8835" stroke="white" stroke-opacity="0.6" stroke-width="0.941702"/>
<path d="M29.7734 55.8838L29.7734 89.8838" stroke="white" stroke-opacity="0.6" stroke-width="0.941702"/>
<path d="M13.7656 67.1842C13.7656 60.9432 18.825 55.8838 25.066 55.8838H317.935C324.176 55.8838 329.236 60.9432 329.236 67.1842V78.4846C329.236 84.7257 324.176 89.7851 317.935 89.7851H25.066C18.825 89.7851 13.7656 84.7257 13.7656 78.4846V67.1842Z" fill="#101823"/>
<path d="M29.3065 62.4757C29.3065 62.7357 29.5173 62.9466 29.7773 62.9466C30.0374 62.9466 30.2482 62.7357 30.2482 62.4757H29.7773H29.3065ZM29.7773 55.8838H29.3065V62.4757H29.7773H30.2482V55.8838H29.7773Z" fill="white" fill-opacity="0.6"/>
<mask id="mask3_7529_55147" style="mask-type:alpha" maskUnits="userSpaceOnUse" x="21" y="64" width="18" height="18">
<rect x="21.3008" y="64.3589" width="16.9506" height="16.9506" fill="white"/>
</mask>
<g mask="url(#mask3_7529_55147)">
<path d="M29.7752 78.0254C31.2113 76.707 32.2766 75.5093 32.9711 74.4322C33.6656 73.3551 34.0129 72.3987 34.0129 71.563C34.0129 70.2799 33.6038 69.2293 32.7857 68.4112C31.9676 67.5931 30.9641 67.184 29.7752 67.184C28.5863 67.184 27.5828 67.5931 26.7647 68.4112C25.9466 69.2293 25.5376 70.2799 25.5376 71.563C25.5376 72.3987 25.8848 73.3551 26.5793 74.4322C27.2738 75.5093 28.3391 76.707 29.7752 78.0254ZM29.7752 79.4203C29.6104 79.4203 29.4456 79.3908 29.2808 79.332C29.116 79.2731 28.9689 79.1849 28.8394 79.0671C28.0743 78.3609 27.3974 77.6722 26.8089 77.0013C26.2203 76.3303 25.7288 75.68 25.3345 75.0502C24.9402 74.4204 24.64 73.8142 24.434 73.2315C24.228 72.6489 24.125 72.0927 24.125 71.563C24.125 69.7973 24.693 68.3906 25.8289 67.3429C26.9648 66.2953 28.2803 65.7715 29.7752 65.7715C31.2702 65.7715 32.5856 66.2953 33.7215 67.3429C34.8575 68.3906 35.4254 69.7973 35.4254 71.563C35.4254 72.0927 35.3224 72.6489 35.1164 73.2315C34.9104 73.8142 34.6103 74.4204 34.2159 75.0502C33.8216 75.68 33.3301 76.3303 32.7416 77.0013C32.153 77.6722 31.4762 78.3609 30.711 79.0671C30.5815 79.1849 30.4344 79.2731 30.2696 79.332C30.1048 79.3908 29.94 79.4203 29.7752 79.4203ZM29.7752 72.8342C30.1637 72.8342 30.4962 72.6959 30.7728 72.4193C31.0495 72.1427 31.1878 71.8101 31.1878 71.4217C31.1878 71.0332 31.0495 70.7007 30.7728 70.4241C30.4962 70.1475 30.1637 70.0091 29.7752 70.0091C29.3868 70.0091 29.0542 70.1475 28.7776 70.4241C28.501 70.7007 28.3627 71.0332 28.3627 71.4217C28.3627 71.8101 28.501 72.1427 28.7776 72.4193C29.0542 72.6959 29.3868 72.8342 29.7752 72.8342Z" fill="white" fill-opacity="0.6"/>
</g>
<path d="M30.2482 83.1934C30.2482 82.9333 30.0374 82.7225 29.7773 82.7225C29.5173 82.7225 29.3065 82.9333 29.3065 83.1934H29.7773H30.2482ZM29.7773 83.1934H29.3065V89.7853H29.7773H30.2482V83.1934H29.7773Z" fill="white" fill-opacity="0.6"/>
<path d="M51.0928 78.6154C50.2173 78.6154 49.4565 78.4799 48.8103 78.2089C48.1693 77.9379 47.6638 77.5601 47.2938 77.0755C46.9238 76.5908 46.7154 76.0254 46.6685 75.3792L46.6606 75.2698H48.6149L48.6227 75.3479C48.6539 75.6658 48.779 75.942 48.9979 76.1765C49.222 76.411 49.519 76.596 49.889 76.7315C50.259 76.8618 50.6811 76.9269 51.1553 76.9269C51.6087 76.9269 52.01 76.8566 52.3591 76.7159C52.7083 76.5752 52.9819 76.3824 53.1799 76.1374C53.3779 75.8873 53.4769 75.6007 53.4769 75.2776V75.2698C53.4769 74.8633 53.318 74.5324 53.0001 74.277C52.6822 74.0165 52.1585 73.808 51.4289 73.6517L50.2173 73.4015C49.0604 73.1566 48.2188 72.7658 47.6925 72.229C47.1713 71.687 46.9108 70.9966 46.9108 70.1575V70.1497C46.9108 69.4775 47.088 68.8886 47.4423 68.3831C47.8019 67.8776 48.2944 67.4842 48.9197 67.2028C49.5503 66.9162 50.272 66.7728 51.085 66.7728C51.9188 66.7728 52.6405 66.9136 53.2503 67.195C53.86 67.4712 54.3394 67.849 54.6886 68.3284C55.0377 68.8078 55.2331 69.3498 55.2748 69.9543L55.2826 70.0559H53.3597L53.3441 69.9621C53.2972 69.6651 53.1747 69.4071 52.9767 69.1883C52.7839 68.9642 52.5259 68.787 52.2028 68.6567C51.8797 68.5264 51.5019 68.4613 51.0694 68.4613C50.6577 68.4613 50.2903 68.5264 49.9672 68.6567C49.6441 68.7818 49.3887 68.959 49.2011 69.1883C49.0187 69.4176 48.9275 69.6937 48.9275 70.0168V70.0247C48.9275 70.4207 49.0813 70.749 49.3887 71.0096C49.7014 71.2701 50.2095 71.4734 50.913 71.6193L52.1246 71.8773C52.9167 72.044 53.5603 72.2655 54.0554 72.5417C54.5505 72.8179 54.9126 73.1618 55.1419 73.5735C55.3764 73.98 55.4937 74.4698 55.4937 75.0431V75.0509C55.4937 75.7805 55.3139 76.411 54.9543 76.9426C54.6 77.4741 54.0919 77.8858 53.43 78.1776C52.7734 78.4695 51.9943 78.6154 51.0928 78.6154ZM58.8144 78.334L56.4928 69.7902H58.447L59.8619 76.2156H60.0026L61.6441 69.7902H63.4967L65.146 76.2156H65.2868L66.7016 69.7902H68.6324L66.3108 78.334H64.2784L62.6134 72.143H62.4805L60.8233 78.334H58.8144ZM73.2507 78.506C72.4012 78.506 71.6717 78.3262 71.0619 77.9666C70.4574 77.607 69.991 77.0963 69.6627 76.4345C69.3344 75.7727 69.1703 74.9884 69.1703 74.0816V74.0738C69.1703 73.1775 69.3318 72.3958 69.6549 71.7287C69.9832 71.0617 70.447 70.5458 71.0463 70.181C71.6456 69.811 72.3491 69.626 73.1569 69.626C73.9698 69.626 74.6681 69.8058 75.2518 70.1654C75.8406 70.5197 76.294 71.0174 76.6119 71.6584C76.9298 72.2994 77.0887 73.0498 77.0887 73.9096V74.5506H70.1474V73.2452H76.1351L75.2127 74.4646V73.6908C75.2127 73.1227 75.1267 72.6511 74.9547 72.2759C74.7828 71.9007 74.543 71.6193 74.2356 71.4317C73.9333 71.2441 73.5816 71.1503 73.1803 71.1503C72.779 71.1503 72.4221 71.2493 72.1094 71.4473C71.8019 71.6401 71.557 71.9268 71.3746 72.3072C71.1974 72.6824 71.1088 73.1436 71.1088 73.6908V74.4725C71.1088 74.9988 71.1974 75.4496 71.3746 75.8248C71.5518 76.1948 71.8019 76.4814 72.125 76.6846C72.4533 76.8827 72.8416 76.9817 73.2897 76.9817C73.6389 76.9817 73.9385 76.9322 74.1887 76.8331C74.444 76.7289 74.6499 76.6065 74.8062 76.4658C74.9626 76.3198 75.072 76.1817 75.1345 76.0515L75.158 75.9967H77.0028L76.9871 76.0671C76.9194 76.3433 76.7943 76.6247 76.6119 76.9113C76.4347 77.1927 76.1924 77.4559 75.8849 77.7008C75.5827 77.9405 75.2127 78.136 74.7749 78.2871C74.3372 78.433 73.8291 78.506 73.2507 78.506ZM81.7383 78.4747C81.0296 78.4747 80.412 78.2975 79.8857 77.9431C79.3594 77.5836 78.9529 77.0729 78.6663 76.411C78.3797 75.7492 78.2363 74.9701 78.2363 74.0738V74.0582C78.2363 73.1514 78.377 72.3697 78.6585 71.7131C78.9451 71.0513 79.3489 70.5432 79.8701 70.1888C80.3964 69.8292 81.0191 69.6495 81.7383 69.6495C82.1291 69.6495 82.4939 69.712 82.8327 69.8371C83.1714 69.9569 83.4684 70.1289 83.7238 70.353C83.9843 70.5771 84.1876 70.8428 84.3335 71.1503H84.4742V66.4836H86.4128V78.334H84.4742V76.9973H84.3335C84.1772 77.3048 83.9713 77.5705 83.716 77.7946C83.4658 78.0135 83.174 78.1829 82.8405 78.3027C82.507 78.4174 82.1396 78.4747 81.7383 78.4747ZM82.348 76.8331C82.791 76.8331 83.1714 76.7237 83.4893 76.5048C83.8124 76.2808 84.0599 75.9629 84.2319 75.5512C84.4091 75.1343 84.4977 74.6418 84.4977 74.0738V74.0582C84.4977 73.4849 84.4091 72.9925 84.2319 72.5808C84.0599 72.1691 83.8124 71.8512 83.4893 71.6271C83.1714 71.403 82.791 71.291 82.348 71.291C81.9103 71.291 81.5298 71.403 81.2068 71.6271C80.8889 71.846 80.6439 72.1639 80.472 72.5808C80.3 72.9925 80.214 73.4849 80.214 74.0582V74.0738C80.214 74.647 80.3 75.1395 80.472 75.5512C80.6439 75.9629 80.8889 76.2808 81.2068 76.5048C81.5246 76.7237 81.9051 76.8331 82.348 76.8331ZM92.1489 78.506C91.2995 78.506 90.5699 78.3262 89.9602 77.9666C89.3557 77.607 88.8893 77.0963 88.5609 76.4345C88.2326 75.7727 88.0685 74.9884 88.0685 74.0816V74.0738C88.0685 73.1775 88.23 72.3958 88.5531 71.7287C88.8814 71.0617 89.3452 70.5458 89.9445 70.181C90.5438 69.811 91.2473 69.626 92.0551 69.626C92.868 69.626 93.5663 69.8058 94.15 70.1654C94.7389 70.5197 95.1923 71.0174 95.5101 71.6584C95.828 72.2994 95.987 73.0498 95.987 73.9096V74.5506H89.0456V73.2452H95.0333L94.1109 74.4646V73.6908C94.1109 73.1227 94.0249 72.6511 93.853 72.2759C93.681 71.9007 93.4413 71.6193 93.1338 71.4317C92.8316 71.2441 92.4798 71.1503 92.0785 71.1503C91.6773 71.1503 91.3203 71.2493 91.0076 71.4473C90.7002 71.6401 90.4552 71.9268 90.2728 72.3072C90.0957 72.6824 90.0071 73.1436 90.0071 73.6908V74.4725C90.0071 74.9988 90.0957 75.4496 90.2728 75.8248C90.45 76.1948 90.7002 76.4814 91.0233 76.6846C91.3516 76.8827 91.7398 76.9817 92.188 76.9817C92.5371 76.9817 92.8368 76.9322 93.0869 76.8331C93.3423 76.7289 93.5481 76.6065 93.7044 76.4658C93.8608 76.3198 93.9702 76.1817 94.0327 76.0515L94.0562 75.9967H95.901L95.8853 76.0671C95.8176 76.3433 95.6925 76.6247 95.5101 76.9113C95.333 77.1927 95.0906 77.4559 94.7832 77.7008C94.4809 77.9405 94.1109 78.136 93.6732 78.2871C93.2354 78.433 92.7273 78.506 92.1489 78.506ZM97.5567 78.334V69.7902H99.5031V71.1034H99.636C99.8392 70.6396 100.147 70.2774 100.558 70.0168C100.97 69.7563 101.483 69.626 102.098 69.626C103.052 69.626 103.782 69.9022 104.287 70.4546C104.792 71.007 105.045 71.7913 105.045 72.8075V78.334H103.099V73.2608C103.099 72.5938 102.958 72.0935 102.677 71.76C102.401 71.4265 101.968 71.2597 101.379 71.2597C100.993 71.2597 100.66 71.3457 100.379 71.5177C100.097 71.6897 99.8809 71.932 99.7298 72.2447C99.5786 72.5573 99.5031 72.9273 99.5031 73.3546V78.334H97.5567Z" fill="white" fill-opacity="0.6"/>
<g clip-path="url(#clip3_7529_55147)">
<g clip-path="url(#clip4_7529_55147)">
<mask id="mask4_7529_55147" style="mask-type:alpha" maskUnits="userSpaceOnUse" x="297" y="61" width="23" height="24">
<rect x="297.219" y="61.5342" width="22.6008" height="22.6008" fill="white"/>
</mask>
<g mask="url(#mask4_7529_55147)">
<path d="M312.647 76.0615C312.877 76.0616 313.069 76.1424 313.226 76.3037C313.387 76.4653 313.468 76.6613 313.468 76.8906C313.468 77.1146 313.387 77.3073 313.226 77.4688C313.069 77.6302 312.877 77.7108 312.647 77.7109H304.408C304.184 77.7109 303.994 77.6302 303.838 77.4688C303.682 77.3021 303.603 77.1094 303.603 76.8906C303.603 76.6613 303.679 76.4653 303.83 76.3037C303.986 76.1424 304.179 76.0615 304.408 76.0615H312.647ZM312.177 72.0127C313.011 72.5208 313.986 72.8181 315.03 72.833C315.03 72.8356 315.031 72.8382 315.031 72.8408C315.031 73.0649 314.953 73.2584 314.797 73.4199C314.641 73.5813 314.45 73.662 314.227 73.6621H302.837C302.613 73.6621 302.42 73.5813 302.259 73.4199C302.102 73.2584 302.024 73.0649 302.024 72.8408C302.025 72.6169 302.103 72.4241 302.259 72.2627C302.42 72.0961 302.613 72.0127 302.837 72.0127H312.177ZM309.517 67.9639C309.597 68.5498 309.767 69.1069 310.014 69.6211H301.234C301.016 69.6211 300.826 69.5395 300.664 69.3779C300.508 69.2112 300.43 69.016 300.43 68.792C300.43 68.568 300.508 68.3754 300.664 68.2139C300.82 68.0471 301.01 67.9639 301.234 67.9639H309.517Z" fill="white"/>
<path d="M317.935 67.1845C317.935 68.7447 316.671 70.0096 315.11 70.0096C313.55 70.0096 312.285 68.7447 312.285 67.1845C312.285 65.6242 313.55 64.3594 315.11 64.3594C316.671 64.3594 317.935 65.6242 317.935 67.1845Z" fill="white"/>
</g>
</g>
</g>
<path d="M29.7734 89.7847V93.5515" stroke="white" stroke-opacity="0.6" stroke-width="0.941702"/>
<path d="M29.3065 94.5513C29.3065 94.8113 29.5173 95.0221 29.7773 95.0221C30.0374 95.0221 30.2482 94.8113 30.2482 94.5513H29.7773H29.3065ZM29.7773 93.5513H29.3065V94.5513H29.7773H30.2482V93.5513H29.7773Z" fill="white" fill-opacity="0.6"/>
<mask id="mask5_7529_55147" style="mask-type:alpha" maskUnits="userSpaceOnUse" x="21" y="96" width="18" height="18">
<rect x="21.3008" y="96.4346" width="16.9506" height="16.9506" fill="white"/>
</mask>
<g mask="url(#mask5_7529_55147)">
<path d="M29.7776 111.973C28.8124 111.973 27.9001 111.787 27.0408 111.417C26.1815 111.046 25.4311 110.54 24.7895 109.898C24.148 109.256 23.6418 108.506 23.271 107.647C22.9002 106.787 22.7148 105.875 22.7148 104.91C22.7148 103.933 22.9002 103.018 23.271 102.164C23.6418 101.311 24.148 100.563 24.7895 99.9219C25.4311 99.2803 26.1815 98.7742 27.0408 98.4034C27.9001 98.0326 28.8124 97.8472 29.7776 97.8472C30.7546 97.8472 31.6698 98.0326 32.5233 98.4034C33.3767 98.7742 34.1241 99.2803 34.7657 99.9219C35.4072 100.563 35.9134 101.311 36.2842 102.164C36.655 103.018 36.8404 103.933 36.8404 104.91C36.8404 105.875 36.655 106.787 36.2842 107.647C35.9134 108.506 35.4072 109.256 34.7657 109.898C34.1241 110.54 33.3767 111.046 32.5233 111.417C31.6698 111.787 30.7546 111.973 29.7776 111.973ZM29.7776 110.525C30.0837 110.101 30.3485 109.66 30.5722 109.201C30.7958 108.741 30.9783 108.253 31.1195 107.735H28.4357C28.5769 108.253 28.7594 108.741 28.983 109.201C29.2067 109.66 29.4716 110.101 29.7776 110.525ZM27.9413 110.242C27.7294 109.854 27.544 109.451 27.3851 109.033C27.2262 108.615 27.0938 108.182 26.9878 107.735H24.9043C25.2457 108.324 25.6724 108.836 26.1844 109.271C26.6965 109.707 27.2821 110.03 27.9413 110.242ZM31.6139 110.242C32.2731 110.03 32.8587 109.707 33.3708 109.271C33.8828 108.836 34.3095 108.324 34.6509 107.735H32.5674C32.4615 108.182 32.329 108.615 32.1701 109.033C32.0112 109.451 31.8258 109.854 31.6139 110.242ZM24.304 106.322H26.7053C26.67 106.087 26.6435 105.855 26.6258 105.625C26.6082 105.395 26.5994 105.157 26.5994 104.91C26.5994 104.663 26.6082 104.424 26.6258 104.195C26.6435 103.965 26.67 103.733 26.7053 103.497H24.304C24.2451 103.733 24.201 103.965 24.1715 104.195C24.1421 104.424 24.1274 104.663 24.1274 104.91C24.1274 105.157 24.1421 105.395 24.1715 105.625C24.201 105.855 24.2451 106.087 24.304 106.322ZM28.1179 106.322H31.4374C31.4727 106.087 31.4992 105.855 31.5168 105.625C31.5345 105.395 31.5433 105.157 31.5433 104.91C31.5433 104.663 31.5345 104.424 31.5168 104.195C31.4992 103.965 31.4727 103.733 31.4374 103.497H28.1179C28.0825 103.733 28.0561 103.965 28.0384 104.195C28.0207 104.424 28.0119 104.663 28.0119 104.91C28.0119 105.157 28.0207 105.395 28.0384 105.625C28.0561 105.855 28.0825 106.087 28.1179 106.322ZM32.8499 106.322H35.2512C35.3101 106.087 35.3542 105.855 35.3837 105.625C35.4131 105.395 35.4278 105.157 35.4278 104.91C35.4278 104.663 35.4131 104.424 35.3837 104.195C35.3542 103.965 35.3101 103.733 35.2512 103.497H32.8499C32.8852 103.733 32.9117 103.965 32.9294 104.195C32.947 104.424 32.9559 104.663 32.9559 104.91C32.9559 105.157 32.947 105.395 32.9294 105.625C32.9117 105.855 32.8852 106.087 32.8499 106.322ZM32.5674 102.085H34.6509C34.3095 101.496 33.8828 100.984 33.3708 100.549C32.8587 100.113 32.2731 99.7894 31.6139 99.5775C31.8258 99.966 32.0112 100.369 32.1701 100.787C32.329 101.205 32.4615 101.638 32.5674 102.085ZM28.4357 102.085H31.1195C30.9783 101.567 30.7958 101.078 30.5722 100.619C30.3485 100.16 30.0837 99.7188 29.7776 99.295C29.4716 99.7188 29.2067 100.16 28.983 100.619C28.7594 101.078 28.5769 101.567 28.4357 102.085ZM24.9043 102.085H26.9878C27.0938 101.638 27.2262 101.205 27.3851 100.787C27.544 100.369 27.7294 99.966 27.9413 99.5775C27.2821 99.7894 26.6965 100.113 26.1844 100.549C25.6724 100.984 25.2457 101.496 24.9043 102.085Z" fill="white" fill-opacity="0.6"/>
</g>
<path d="M46.885 109.352V100.726H47.961V109.352H46.885ZM49.6526 109.352V102.908H50.6927V103.876H50.7883C50.9517 103.533 51.1868 103.268 51.4937 103.081C51.8005 102.89 52.1911 102.794 52.6653 102.794C53.3906 102.794 53.9465 103.001 54.333 103.416C54.7236 103.826 54.9188 104.414 54.9188 105.179V109.352H53.8787V105.43C53.8787 104.848 53.7552 104.418 53.5081 104.139C53.265 103.856 52.8865 103.715 52.3724 103.715C52.0297 103.715 51.7328 103.788 51.4817 103.936C51.2307 104.083 51.0354 104.293 50.8959 104.564C50.7604 104.834 50.6927 105.159 50.6927 105.538V109.352H49.6526ZM58.7145 109.399C58.053 109.399 57.5728 109.266 57.2739 108.999C56.979 108.732 56.8316 108.292 56.8316 107.678V103.768H55.8154V102.908H56.8316V101.24H57.9075V102.908H59.3183V103.768H57.9075V107.415C57.9075 107.793 57.9793 108.066 58.1227 108.234C58.2662 108.397 58.5053 108.479 58.84 108.479C58.9317 108.479 59.0094 108.477 59.0732 108.473C59.1409 108.469 59.2226 108.463 59.3183 108.455V109.34C59.2186 109.356 59.119 109.369 59.0194 109.381C58.9198 109.393 58.8181 109.399 58.7145 109.399ZM63.0422 109.465C62.4285 109.465 61.9005 109.33 61.4581 109.059C61.0198 108.788 60.6811 108.405 60.442 107.911C60.2068 107.413 60.0893 106.827 60.0893 106.154V106.148C60.0893 105.482 60.2068 104.898 60.442 104.396C60.6811 103.894 61.0178 103.501 61.4522 103.219C61.8865 102.936 62.3946 102.794 62.9765 102.794C63.5623 102.794 64.0644 102.93 64.4828 103.201C64.9052 103.472 65.228 103.85 65.4512 104.336C65.6783 104.819 65.7919 105.38 65.7919 106.022V106.429H60.6273V105.598H65.2599L64.7458 106.357V105.944C64.7458 105.438 64.6701 105.022 64.5187 104.695C64.3672 104.368 64.158 104.125 63.891 103.966C63.624 103.802 63.3172 103.721 62.9705 103.721C62.6238 103.721 62.3129 103.806 62.038 103.978C61.767 104.145 61.5518 104.394 61.3924 104.725C61.233 105.056 61.1533 105.462 61.1533 105.944V106.357C61.1533 106.815 61.231 107.208 61.3864 107.534C61.5418 107.857 61.763 108.106 62.0499 108.282C62.3369 108.453 62.6756 108.539 63.0661 108.539C63.357 108.539 63.6101 108.499 63.8253 108.419C64.0405 108.339 64.2178 108.238 64.3573 108.114C64.4968 107.991 64.5944 107.865 64.6502 107.738L64.6741 107.684H65.7142L65.7022 107.732C65.6465 107.951 65.5468 108.164 65.4034 108.371C65.2639 108.574 65.0826 108.76 64.8594 108.927C64.6362 109.091 64.3712 109.222 64.0644 109.322C63.7615 109.417 63.4208 109.465 63.0422 109.465ZM67.0292 109.352V102.908H68.0693V103.864H68.1649C68.2885 103.525 68.4977 103.262 68.7926 103.075C69.0875 102.888 69.4521 102.794 69.8865 102.794C69.9861 102.794 70.0837 102.8 70.1794 102.812C70.279 102.82 70.3547 102.828 70.4065 102.836V103.846C70.2989 103.826 70.1933 103.812 70.0897 103.804C69.9901 103.792 69.8825 103.786 69.7669 103.786C69.4362 103.786 69.1433 103.852 68.8882 103.984C68.6332 104.115 68.4319 104.298 68.2845 104.534C68.141 104.769 68.0693 105.044 68.0693 105.359V109.352H67.0292ZM71.4346 109.352V102.908H72.4747V103.876H72.5703C72.7337 103.533 72.9688 103.268 73.2757 103.081C73.5825 102.89 73.9731 102.794 74.4473 102.794C75.1726 102.794 75.7285 103.001 76.115 103.416C76.5056 103.826 76.7008 104.414 76.7008 105.179V109.352H75.6607V105.43C75.6607 104.848 75.5372 104.418 75.2901 104.139C75.047 103.856 74.6685 103.715 74.1544 103.715C73.8117 103.715 73.5148 103.788 73.2637 103.936C73.0127 104.083 72.8174 104.293 72.6779 104.564C72.5424 104.834 72.4747 105.159 72.4747 105.538V109.352H71.4346ZM80.8372 109.465C80.2235 109.465 79.6955 109.33 79.2532 109.059C78.8148 108.788 78.4761 108.405 78.237 107.911C78.0019 107.413 77.8843 106.827 77.8843 106.154V106.148C77.8843 105.482 78.0019 104.898 78.237 104.396C78.4761 103.894 78.8128 103.501 79.2472 103.219C79.6816 102.936 80.1897 102.794 80.7715 102.794C81.3573 102.794 81.8594 102.93 82.2778 103.201C82.7003 103.472 83.0231 103.85 83.2462 104.336C83.4734 104.819 83.5869 105.38 83.5869 106.022V106.429H78.4223V105.598H83.0549L82.5409 106.357V105.944C82.5409 105.438 82.4651 105.022 82.3137 104.695C82.1623 104.368 81.9531 104.125 81.6861 103.966C81.4191 103.802 81.1122 103.721 80.7655 103.721C80.4188 103.721 80.108 103.806 79.833 103.978C79.562 104.145 79.3468 104.394 79.1874 104.725C79.028 105.056 78.9483 105.462 78.9483 105.944V106.357C78.9483 106.815 79.026 107.208 79.1815 107.534C79.3369 107.857 79.558 108.106 79.845 108.282C80.1319 108.453 80.4706 108.539 80.8612 108.539C81.1521 108.539 81.4051 108.499 81.6203 108.419C81.8355 108.339 82.0128 108.238 82.1523 108.114C82.2918 107.991 82.3894 107.865 82.4452 107.738L82.4691 107.684H83.5092L83.4973 107.732C83.4415 107.951 83.3419 108.164 83.1984 108.371C83.0589 108.574 82.8776 108.76 82.6544 108.927C82.4313 109.091 82.1663 109.222 81.8594 109.322C81.5566 109.417 81.2158 109.465 80.8372 109.465ZM87.1136 109.399C86.4521 109.399 85.9719 109.266 85.673 108.999C85.3781 108.732 85.2307 108.292 85.2307 107.678V103.768H84.2145V102.908H85.2307V101.24H86.3067V102.908H87.7174V103.768H86.3067V107.415C86.3067 107.793 86.3784 108.066 86.5219 108.234C86.6653 108.397 86.9044 108.479 87.2392 108.479C87.3308 108.479 87.4085 108.477 87.4723 108.473C87.54 108.469 87.6217 108.463 87.7174 108.455V109.34C87.6177 109.356 87.5181 109.369 87.4185 109.381C87.3189 109.393 87.2172 109.399 87.1136 109.399Z" fill="white" fill-opacity="0.6"/>
<path d="M309 -314C512.241 -314 677 -149.241 677 54C677 257.241 512.241 422 309 422C105.759 422 -59 257.241 -59 54C-59 -149.241 105.759 -314 309 -314ZM309 10C284.699 10 265 29.6995 265 54C265 78.3005 284.699 98 309 98C333.301 98 353 78.3005 353 54C353 29.6995 333.301 10 309 10Z" fill="black" fill-opacity="0.4"/>
</g>
<path d="M12 1H331C337.075 1 342 5.92487 342 12V96C342 102.075 337.075 107 331 107H12C5.92487 107 1 102.075 1 96V12C1 5.92487 5.92487 1 12 1Z" stroke="#304358" stroke-width="2"/>
<defs>
<clipPath id="clip0_7529_55147">
<path d="M0 12C0 5.37258 5.37258 0 12 0H331C337.627 0 343 5.37258 343 12V96C343 102.627 337.627 108 331 108H12C5.37258 108 0 102.627 0 96V12Z" fill="white"/>
</clipPath>
<clipPath id="clip1_7529_55147">
<rect width="41.4349" height="33.9013" fill="white" transform="translate(287.801 18.2153)"/>
</clipPath>
<clipPath id="clip2_7529_55147">
<rect width="41.4349" height="33.9013" fill="white" transform="translate(287.801 18.2153)"/>
</clipPath>
<clipPath id="clip3_7529_55147">
<rect width="41.4349" height="33.9013" fill="white" transform="translate(287.801 55.8838)"/>
</clipPath>
<clipPath id="clip4_7529_55147">
<rect width="41.4349" height="33.9013" fill="white" transform="translate(287.801 55.8838)"/>
</clipPath>
</defs>
</svg>
