<svg width="24" height="24" viewBox="0 0 24 24" fill="none" xmlns="http://www.w3.org/2000/svg">
<mask id="mask0_9294_11429" style="mask-type:alpha" maskUnits="userSpaceOnUse" x="0" y="0" width="24" height="24">
<path d="M24 0H0V24H24V0Z" fill="#D9D9D9"/>
</mask>
<g mask="url(#mask0_9294_11429)">
<path d="M7.43148 18.2754L5.35628 19.0639C5.22347 19.1193 5.10173 19.0888 4.99105 18.9726C4.88037 18.8619 4.8527 18.7374 4.90804 18.5991L5.72982 16.5737L15.2674 7.03608L16.969 8.74604L7.43148 18.2754ZM17.8074 7.91597L16.0975 6.206L17.0354 5.27632C17.2679 5.04943 17.5086 4.92768 17.7576 4.91108C18.0122 4.89448 18.2446 4.99409 18.4549 5.20991L18.8118 5.56684C19.0276 5.78266 19.13 6.01509 19.1189 6.26411C19.1079 6.5076 18.9861 6.74832 18.7537 6.98628L17.8074 7.91597Z" fill="white"/>
</g>
</svg>
