<svg width="24" height="24" viewBox="0 0 24 24" fill="none" xmlns="http://www.w3.org/2000/svg">
<mask id="mask0_10039_7240" style="mask-type:alpha" maskUnits="userSpaceOnUse" x="0" y="0" width="24" height="24">
<rect width="24" height="24" fill="white"/>
</mask>
<g mask="url(#mask0_10039_7240)">
<path d="M12 21.325C11.7667 21.325 11.5333 21.2833 11.3 21.2C11.0667 21.1167 10.8583 20.9917 10.675 20.825C9.59167 19.825 8.63333 18.85 7.8 17.9C6.96667 16.95 6.27083 16.0292 5.7125 15.1375C5.15417 14.2458 4.72917 13.3875 4.4375 12.5625C4.14583 11.7375 4 10.95 4 10.2C4 8.48334 4.43333 6.94167 5.3 5.57501C6.16667 4.20834 7.39167 3.20834 8.975 2.575C9.40833 2.39167 9.8875 2.25 10.4125 2.15C10.9375 2.05 11.4583 1.99167 11.975 1.975C12.2583 1.975 12.4958 2.06667 12.6875 2.25C12.8792 2.43334 12.975 2.66667 12.975 2.95C12.975 3.23334 12.8792 3.47917 12.6875 3.6875C12.4958 3.89584 12.2583 4 11.975 4C11.575 4 11.1833 4.0375 10.8 4.1125C10.4167 4.18751 10.0333 4.3 9.65 4.45001C8.48333 4.93334 7.58333 5.7 6.95 6.75C6.31667 7.8 6 8.95 6 10.2C6 11.3833 6.49167 12.7375 7.475 14.2625C8.45833 15.7875 9.96667 17.4833 12 19.35C13.0167 18.4167 13.9 17.5292 14.65 16.6875C15.4 15.8458 16.025 15.0417 16.525 14.275C16.8583 13.7583 17.15 13.2292 17.4 12.6875C17.65 12.1458 17.825 11.5833 17.925 11C17.9917 10.6167 18.1375 10.35 18.3625 10.2C18.5875 10.05 18.825 9.99167 19.075 10.025C19.325 10.0583 19.5375 10.1583 19.7125 10.325C19.8875 10.4917 19.9583 10.7167 19.925 11C19.7917 12.0333 19.4958 13.0042 19.0375 13.9125C18.5792 14.8208 18.0417 15.6917 17.425 16.525C16.7083 17.475 15.9708 18.3208 15.2125 19.0625C14.4542 19.8042 13.825 20.3917 13.325 20.825C13.1417 20.9917 12.9333 21.1167 12.7 21.2C12.4667 21.2833 12.2333 21.325 12 21.325ZM12 12C12.55 12 13.0208 11.8042 13.4125 11.4125C13.8042 11.0208 14 10.55 14 10C14 9.45 13.8042 8.97917 13.4125 8.58751C13.0208 8.19584 12.55 8 12 8C11.45 8 10.9792 8.19584 10.5875 8.58751C10.1958 8.97917 10 9.45 10 10C10 10.55 10.1958 11.0208 10.5875 11.4125C10.9792 11.8042 11.45 12 12 12Z" fill="white"/>
<path d="M3.77607 16.2936C3.86225 16.1252 4.10734 16.1252 4.19352 16.2936L5.04118 17.9494C5.06382 17.9935 5.10108 18.0291 5.14623 18.0511L6.84066 18.8795C7.0125 18.9639 7.01271 19.2041 6.84066 19.2883L5.14623 20.1157C5.10098 20.1378 5.06381 20.1741 5.04118 20.2184L4.19352 21.8741C4.10721 22.042 3.86237 22.042 3.77607 21.8741L2.92841 20.2184C2.90583 20.1742 2.86938 20.1378 2.82427 20.1157L1.12893 19.2883C0.956917 19.2041 0.957126 18.9639 1.12893 18.8795L2.82427 18.0511C2.86925 18.0291 2.90583 17.9933 2.92841 17.9494L3.77607 16.2936ZM18.7988 0.756319C18.885 0.5879 19.1301 0.5879 19.2162 0.756319L20.2201 2.71646C20.2427 2.76051 20.2792 2.79612 20.3242 2.81822L22.331 3.79918C22.5029 3.88357 22.5031 4.12379 22.331 4.20799L20.3242 5.18806C20.2792 5.21013 20.2427 5.24579 20.2201 5.28982L19.2162 7.25085C19.1299 7.41869 18.8851 7.41869 18.7988 7.25085L17.7949 5.28982C17.7723 5.24579 17.7359 5.21013 17.6908 5.18806L15.684 4.20799C15.5119 4.12379 15.5122 3.88357 15.684 3.79918L17.6908 2.81822C17.7359 2.79613 17.7723 2.76052 17.7949 2.71646L18.7988 0.756319Z" fill="white"/>
</g>
</svg>
