<svg width="24" height="24" viewBox="0 0 24 24" fill="none" xmlns="http://www.w3.org/2000/svg">
<mask id="mask0_10868_6019" style="mask-type:alpha" maskUnits="userSpaceOnUse" x="0" y="0" width="24" height="24">
<rect width="24" height="24" fill="white"/>
</mask>
<g mask="url(#mask0_10868_6019)">
<path d="M7.6333 17.1782C7.39535 17.1782 7.19336 17.0924 7.02734 16.9209C6.86133 16.7438 6.77832 16.5391 6.77832 16.3066C6.77832 16.0632 6.85856 15.8556 7.01904 15.6841C7.18506 15.5125 7.38981 15.4268 7.6333 15.4268H16.3823C16.6258 15.4268 16.8306 15.5125 16.9966 15.6841C17.1681 15.8556 17.2539 16.0632 17.2539 16.3066C17.2539 16.5446 17.1681 16.7493 16.9966 16.9209C16.8306 17.0924 16.6258 17.1782 16.3823 17.1782H7.6333ZM5.96484 12.8784C5.72689 12.8784 5.52214 12.7926 5.35059 12.6211C5.18457 12.4495 5.10156 12.2448 5.10156 12.0068C5.10156 11.7689 5.18457 11.5641 5.35059 11.3926C5.52214 11.2155 5.72689 11.127 5.96484 11.127H18.0591C18.297 11.127 18.499 11.2127 18.665 11.3843C18.8311 11.5558 18.9141 11.7633 18.9141 12.0068C18.9141 12.2448 18.8311 12.4495 18.665 12.6211C18.499 12.7926 18.297 12.8784 18.0591 12.8784H5.96484ZM4.26318 8.58691C4.03076 8.58691 3.82878 8.50114 3.65723 8.32959C3.49121 8.15251 3.4082 7.94499 3.4082 7.70703C3.4082 7.46908 3.49121 7.26432 3.65723 7.09277C3.82324 6.91569 4.02523 6.82715 4.26318 6.82715H19.7192C19.9683 6.82715 20.173 6.91292 20.3335 7.08447C20.4995 7.25602 20.5825 7.46354 20.5825 7.70703C20.5825 7.95052 20.4995 8.15804 20.3335 8.32959C20.1675 8.50114 19.9627 8.58691 19.7192 8.58691H4.26318Z" fill="white"/>
</g>
</svg>
