<svg width="24" height="24" viewBox="0 0 24 24" fill="none" xmlns="http://www.w3.org/2000/svg">
<mask id="mask0_9294_11430" style="mask-type:alpha" maskUnits="userSpaceOnUse" x="0" y="0" width="24" height="24">
<rect width="24" height="24" fill="#D9D9D9"/>
</mask>
<g mask="url(#mask0_9294_11430)">
<path d="M7.63794 17.1756C7.39998 17.1756 7.198 17.0898 7.03198 16.9183C6.86596 16.7411 6.78296 16.5364 6.78296 16.304C6.78296 16.0605 6.8632 15.8529 7.02368 15.6814C7.1897 15.5098 7.39445 15.4241 7.63794 15.4241H16.3869C16.6304 15.4241 16.8352 15.5098 17.0012 15.6814C17.1727 15.8529 17.2585 16.0605 17.2585 16.304C17.2585 16.5419 17.1727 16.7467 17.0012 16.9183C16.8352 17.0898 16.6304 17.1756 16.3869 17.1756H7.63794ZM5.96948 12.8757C5.73152 12.8757 5.52677 12.79 5.35522 12.6184C5.18921 12.4469 5.1062 12.2421 5.1062 12.0042C5.1062 11.7662 5.18921 11.5614 5.35522 11.3899C5.52677 11.2128 5.73152 11.1243 5.96948 11.1243H18.0637C18.3016 11.1243 18.5036 11.21 18.6696 11.3816C18.8357 11.5531 18.9187 11.7607 18.9187 12.0042C18.9187 12.2421 18.8357 12.4469 18.6696 12.6184C18.5036 12.79 18.3016 12.8757 18.0637 12.8757H5.96948ZM4.26782 8.58423C4.0354 8.58423 3.83341 8.49845 3.66186 8.3269C3.49585 8.14982 3.41284 7.9423 3.41284 7.70435C3.41284 7.46639 3.49585 7.26164 3.66186 7.09009C3.82788 6.913 4.02987 6.82446 4.26782 6.82446H19.7238C19.9729 6.82446 20.1776 6.91024 20.3381 7.08179C20.5041 7.25334 20.5871 7.46086 20.5871 7.70435C20.5871 7.94783 20.5041 8.15535 20.3381 8.3269C20.1721 8.49845 19.9673 8.58423 19.7238 8.58423H4.26782Z" fill="white"/>
</g>
</svg>
