<svg width="24" height="24" viewBox="0 0 24 24" fill="none" xmlns="http://www.w3.org/2000/svg">
<mask id="mask0_8337_9220" style="mask-type:alpha" maskUnits="userSpaceOnUse" x="0" y="0" width="24" height="24">
<rect width="24" height="24" fill="#D9D9D9"/>
</mask>
<g mask="url(#mask0_8337_9220)">
<path d="M11 18C10.7167 18 10.4792 17.9042 10.2875 17.7125C10.0958 17.5208 10 17.2833 10 17C10 16.7167 10.0958 16.4792 10.2875 16.2875C10.4792 16.0958 10.7167 16 11 16H13C13.2833 16 13.5208 16.0958 13.7125 16.2875C13.9042 16.4792 14 16.7167 14 17C14 17.2833 13.9042 17.5208 13.7125 17.7125C13.5208 17.9042 13.2833 18 13 18H11ZM7 13C6.71667 13 6.47917 12.9042 6.2875 12.7125C6.09583 12.5208 6 12.2833 6 12C6 11.7167 6.09583 11.4792 6.2875 11.2875C6.47917 11.0958 6.71667 11 7 11H17C17.2833 11 17.5208 11.0958 17.7125 11.2875C17.9042 11.4792 18 11.7167 18 12C18 12.2833 17.9042 12.5208 17.7125 12.7125C17.5208 12.9042 17.2833 13 17 13H7ZM4 8C3.71667 8 3.47917 7.90417 3.2875 7.7125C3.09583 7.52083 3 7.28333 3 7C3 6.71667 3.09583 6.47917 3.2875 6.2875C3.47917 6.09583 3.71667 6 4 6H20C20.2833 6 20.5208 6.09583 20.7125 6.2875C20.9042 6.47917 21 6.71667 21 7C21 7.28333 20.9042 7.52083 20.7125 7.7125C20.5208 7.90417 20.2833 8 20 8H4Z" fill="white"/>
</g>
</svg>
