<svg width="18" height="18" viewBox="0 0 18 18" fill="none" xmlns="http://www.w3.org/2000/svg">
<mask id="mask0_10156_10749" style="mask-type:alpha" maskUnits="userSpaceOnUse" x="0" y="0" width="18" height="18">
<rect width="18" height="18" fill="#D9D9D9"/>
</mask>
<g mask="url(#mask0_10156_10749)">
<path d="M9 15.9938C8.825 15.9938 8.65 15.9625 8.475 15.9C8.3 15.8375 8.14375 15.7438 8.00625 15.6188C7.19375 14.8688 6.475 14.1375 5.85 13.425C5.225 12.7125 4.70313 12.0219 4.28438 11.3532C3.86563 10.6844 3.54688 10.0407 3.32812 9.42191C3.10937 8.80316 3 8.21253 3 7.65003C3 6.36253 3.325 5.20628 3.975 4.18128C4.625 3.15628 5.54375 2.40628 6.73125 1.93128C7.05625 1.79378 7.41563 1.68753 7.80938 1.61253C8.20313 1.53753 8.59375 1.49378 8.98125 1.48128C9.19375 1.48128 9.37188 1.55003 9.51562 1.68753C9.65937 1.82503 9.73125 2.00003 9.73125 2.21253C9.73125 2.42503 9.65937 2.60941 9.51562 2.76566C9.37188 2.92191 9.19375 3.00003 8.98125 3.00003C8.68125 3.00003 8.3875 3.02816 8.1 3.08441C7.8125 3.14066 7.525 3.22503 7.2375 3.33753C6.3625 3.70003 5.6875 4.27503 5.2125 5.06253C4.7375 5.85003 4.5 6.71253 4.5 7.65003C4.5 8.53753 4.86875 9.55316 5.60625 10.6969C6.34375 11.8407 7.475 13.1125 9 14.5125C9.7625 13.8125 10.425 13.1469 10.9875 12.5157C11.55 11.8844 12.0188 11.2813 12.3938 10.7063C12.6438 10.3188 12.8625 9.92191 13.05 9.51566C13.2375 9.10941 13.3688 8.68753 13.4438 8.25003C13.4938 7.96253 13.6031 7.76253 13.7719 7.65003C13.9406 7.53753 14.1188 7.49379 14.3063 7.51879C14.4938 7.54379 14.6531 7.61878 14.7844 7.74378C14.9156 7.86878 14.9688 8.03753 14.9438 8.25003C14.8438 9.02503 14.6219 9.75316 14.2781 10.4344C13.9344 11.1157 13.5313 11.7688 13.0688 12.3938C12.5313 13.1063 11.9781 13.7407 11.4094 14.2969C10.8406 14.8532 10.3687 15.2938 9.99375 15.6188C9.85625 15.7438 9.7 15.8375 9.525 15.9C9.35 15.9625 9.175 15.9938 9 15.9938ZM9 9.00003C9.4125 9.00003 9.76563 8.85316 10.0594 8.55941C10.3531 8.26566 10.5 7.91253 10.5 7.50003C10.5 7.08753 10.3531 6.73441 10.0594 6.44066C9.76563 6.14691 9.4125 6.00003 9 6.00003C8.5875 6.00003 8.23438 6.14691 7.94063 6.44066C7.64688 6.73441 7.5 7.08753 7.5 7.50003C7.5 7.91253 7.64688 8.26566 7.94063 8.55941C8.23438 8.85316 8.5875 9.00003 9 9.00003Z" fill="white"/>
<path d="M2.83206 12.2202C2.89669 12.0939 3.0805 12.0939 3.14514 12.2202L3.78089 13.4621C3.79787 13.4951 3.82581 13.5218 3.85967 13.5384L5.13049 14.1596C5.25937 14.2229 5.25953 14.4031 5.13049 14.4662L3.85967 15.0868C3.82573 15.1034 3.79786 15.1306 3.78089 15.1638L3.14514 16.4056C3.08041 16.5315 2.89678 16.5315 2.83206 16.4056L2.1963 15.1638C2.17937 15.1307 2.15204 15.1034 2.11821 15.0868L0.846701 14.4662C0.717688 14.4031 0.717845 14.2229 0.846701 14.1596L2.11821 13.5384C2.15194 13.5218 2.17937 13.495 2.1963 13.4621L2.83206 12.2202ZM14.0991 0.56727C14.1637 0.440955 14.3475 0.440956 14.4122 0.56727L15.1651 2.03738C15.182 2.07042 15.2094 2.09712 15.2432 2.11369L16.7483 2.84942C16.8772 2.91271 16.8773 3.09287 16.7483 3.15602L15.2432 3.89108C15.2094 3.90763 15.182 3.93438 15.1651 3.96739L14.4122 5.43817C14.3474 5.56405 14.1638 5.56405 14.0991 5.43817L13.3462 3.96739C13.3292 3.93437 13.3019 3.90763 13.2681 3.89108L11.763 3.15602C11.634 3.09287 11.6341 2.91271 11.763 2.84942L13.2681 2.11369C13.3019 2.09713 13.3292 2.07042 13.3462 2.03738L14.0991 0.56727Z" fill="white"/>
</g>
</svg>
