<svg width="14" height="14" viewBox="0 0 14 14" fill="none" xmlns="http://www.w3.org/2000/svg">
<mask id="mask0_10003_8330" style="mask-type:alpha" maskUnits="userSpaceOnUse" x="0" y="0" width="14" height="14">
<rect width="14" height="14" fill="white"/>
</mask>
<g mask="url(#mask0_10003_8330)">
<path d="M6.99992 12.4396C6.86381 12.4396 6.7277 12.4153 6.59159 12.3667C6.45547 12.3181 6.33395 12.2451 6.227 12.1479C5.59506 11.5646 5.03603 10.9958 4.54992 10.4417C4.06381 9.8875 3.6579 9.35035 3.33221 8.83021C3.00652 8.31007 2.7586 7.80938 2.58846 7.32813C2.41832 6.84688 2.33325 6.3875 2.33325 5.95C2.33325 4.94861 2.58603 4.04931 3.09159 3.25208C3.59714 2.45486 4.31172 1.87153 5.23534 1.50208C5.48811 1.39514 5.76763 1.3125 6.07388 1.25417C6.38013 1.19583 6.68395 1.16181 6.98534 1.15208C7.15061 1.15208 7.28916 1.20556 7.40096 1.3125C7.51277 1.41945 7.56867 1.55556 7.56867 1.72083C7.56867 1.88611 7.51277 2.02951 7.40096 2.15104C7.28916 2.27257 7.15061 2.33333 6.98534 2.33333C6.752 2.33333 6.52353 2.35521 6.29992 2.39896C6.07631 2.44271 5.8527 2.50833 5.62909 2.59583C4.94853 2.87778 4.42353 3.325 4.05409 3.9375C3.68464 4.55 3.49992 5.22083 3.49992 5.95C3.49992 6.64028 3.78672 7.43021 4.36034 8.31979C4.93395 9.20938 5.81381 10.1986 6.99992 11.2875C7.59297 10.7431 8.10825 10.2253 8.54575 9.73438C8.98325 9.2434 9.34784 8.77431 9.6395 8.32708C9.83395 8.0257 10.0041 7.71701 10.1499 7.40104C10.2958 7.08507 10.3978 6.75695 10.4562 6.41667C10.4951 6.19306 10.5801 6.0375 10.7114 5.95C10.8426 5.8625 10.9812 5.82847 11.127 5.84792C11.2728 5.86736 11.3968 5.92569 11.4989 6.02292C11.601 6.12014 11.6423 6.25139 11.6228 6.41667C11.5451 7.01944 11.3725 7.58576 11.1051 8.11563C10.8378 8.64549 10.5242 9.15347 10.1645 9.63958C9.74645 10.1938 9.31624 10.6872 8.87388 11.1198C8.43152 11.5524 8.0645 11.8951 7.77284 12.1479C7.66589 12.2451 7.54436 12.3181 7.40825 12.3667C7.27214 12.4153 7.13603 12.4396 6.99992 12.4396ZM6.99992 7C7.32075 7 7.59541 6.88576 7.82388 6.65729C8.05235 6.42882 8.16659 6.15417 8.16659 5.83333C8.16659 5.5125 8.05235 5.23785 7.82388 5.00938C7.59541 4.7809 7.32075 4.66667 6.99992 4.66667C6.67909 4.66667 6.40443 4.7809 6.17596 5.00938C5.94749 5.23785 5.83325 5.5125 5.83325 5.83333C5.83325 6.15417 5.94749 6.42882 6.17596 6.65729C6.40443 6.88576 6.67909 7 6.99992 7Z" fill="white" fill-opacity="0.6"/>
<path d="M13.1557 2.75544L11.9045 3.38104C11.8763 3.39515 11.8534 3.41804 11.8393 3.44626L11.2137 4.69746C11.1599 4.80495 11.0066 4.80495 10.9528 4.69746L10.3272 3.44626C10.3131 3.41804 10.2902 3.39515 10.262 3.38104L9.0108 2.75544C8.90331 2.7017 8.90331 2.54831 9.0108 2.49457L10.262 1.86896C10.2902 1.85485 10.3131 1.83197 10.3272 1.80375L10.9528 0.552544C11.0066 0.445058 11.1599 0.445058 11.2137 0.552544L11.8393 1.80375C11.8534 1.83197 11.8763 1.85485 11.9045 1.86896L13.1557 2.49457C13.2632 2.54831 13.2632 2.7017 13.1557 2.75544Z" fill="white" fill-opacity="0.6"/>
<path d="M4.40571 11.5054L3.34896 12.0338C3.32073 12.0479 3.29785 12.0708 3.28374 12.099L2.75536 13.1558C2.70162 13.2633 2.54823 13.2633 2.49448 13.1558L1.96611 12.099C1.95199 12.0708 1.92911 12.0479 1.90089 12.0338L0.844129 11.5054C0.736643 11.4517 0.736643 11.2983 0.844129 11.2446L1.90089 10.7162C1.92911 10.7021 1.95199 10.6792 1.96611 10.651L2.49448 9.59421C2.54823 9.48672 2.70162 9.48672 2.75536 9.59421L3.28374 10.651C3.29785 10.6792 3.32073 10.7021 3.34896 10.7162L4.40571 11.2446C4.5132 11.2983 4.5132 11.4517 4.40571 11.5054Z" fill="white" fill-opacity="0.6"/>
</g>
</svg>
