<svg width="14" height="14" viewBox="0 0 14 14" fill="none" xmlns="http://www.w3.org/2000/svg">
<mask id="mask0_10156_10755" style="mask-type:alpha" maskUnits="userSpaceOnUse" x="0" y="0" width="14" height="14">
<rect width="14" height="14" fill="#D9D9D9"/>
</mask>
<g mask="url(#mask0_10156_10755)">
<path d="M5.03409 12.4232C4.60153 12.4232 4.25128 12.2956 3.98335 12.0406C3.71542 11.7856 3.58145 11.4499 3.58145 11.0334V2.96647C3.58145 2.55005 3.71542 2.21433 3.98335 1.95931C4.25128 1.70429 4.60153 1.57678 5.03409 1.57678H9.00463C9.43071 1.57678 9.77289 1.70429 10.0311 1.95931C10.2894 2.21433 10.4185 2.55005 10.4185 2.96647V11.0286C10.4185 11.4482 10.2894 11.7856 10.0311 12.0406C9.77289 12.2956 9.43071 12.4232 9.00463 12.4232H5.03409ZM5.2423 11.2998H8.76252C8.94329 11.2998 9.08371 11.2497 9.18379 11.1496C9.28709 11.0528 9.33874 10.9172 9.33874 10.7429V3.257C9.33874 3.07945 9.28709 2.94226 9.18379 2.84542C9.08371 2.74858 8.94329 2.70015 8.76252 2.70015H8.11852C8.03782 2.70015 7.99747 2.73728 7.99747 2.81152V2.95194C7.99747 3.05847 7.96518 3.14563 7.90063 3.21342C7.83606 3.28121 7.74891 3.3151 7.63915 3.3151H6.36567C6.25592 3.3151 6.16715 3.28121 6.09936 3.21342C6.03479 3.14563 6.00251 3.05847 6.00251 2.95194V2.81152C6.00251 2.73728 5.96377 2.70015 5.8863 2.70015H5.2423C5.0583 2.70015 4.91465 2.74858 4.81135 2.84542C4.71128 2.94226 4.66124 3.07945 4.66124 3.257V10.7429C4.66124 10.9204 4.71128 11.0576 4.81135 11.1545C4.91465 11.2514 5.0583 11.2998 5.2423 11.2998ZM5.94441 10.9027C5.87016 10.9027 5.80883 10.8785 5.76041 10.8301C5.71198 10.7849 5.68777 10.7236 5.68777 10.6461C5.68777 10.5686 5.71198 10.5073 5.76041 10.4621C5.80883 10.4136 5.87016 10.3894 5.94441 10.3894H8.06041C8.13466 10.3894 8.19599 10.4136 8.24441 10.4621C8.29284 10.5073 8.31705 10.5686 8.31705 10.6461C8.31705 10.7236 8.29284 10.7849 8.24441 10.8301C8.19599 10.8785 8.13466 10.9027 8.06041 10.9027H5.94441Z" fill="white" fill-opacity="0.4"/>
</g>
</svg>
