<svg width="14" height="14" viewBox="0 0 14 14" fill="none" xmlns="http://www.w3.org/2000/svg">
<path d="M5.03412 12.4232C4.60156 12.4232 4.25131 12.2957 3.98338 12.0406C3.71545 11.7856 3.58148 11.4499 3.58148 11.0335V2.9665C3.58148 2.55008 3.71545 2.21436 3.98338 1.95934C4.25131 1.70432 4.60156 1.57681 5.03412 1.57681H9.00466C9.43074 1.57681 9.77292 1.70432 10.0312 1.95934C10.2894 2.21436 10.4186 2.55008 10.4186 2.9665V11.0286C10.4186 11.4483 10.2894 11.7856 10.0312 12.0406C9.77292 12.2957 9.43074 12.4232 9.00466 12.4232H5.03412ZM5.24233 11.2998H8.76255C8.94332 11.2998 9.08374 11.2498 9.18382 11.1497C9.28712 11.0528 9.33877 10.9173 9.33877 10.743V3.25702C9.33877 3.07948 9.28712 2.94229 9.18382 2.84544C9.08374 2.7486 8.94332 2.70018 8.76255 2.70018H8.11855C8.03785 2.70018 7.9975 2.7373 7.9975 2.81155V2.95197C7.9975 3.0585 7.96521 3.14565 7.90066 3.21344C7.83609 3.28124 7.74894 3.31513 7.63918 3.31513H6.3657C6.25595 3.31513 6.16718 3.28124 6.09939 3.21344C6.03482 3.14565 6.00254 3.0585 6.00254 2.95197V2.81155C6.00254 2.7373 5.9638 2.70018 5.88633 2.70018H5.24233C5.05833 2.70018 4.91468 2.7486 4.81138 2.84544C4.71131 2.94229 4.66127 3.07948 4.66127 3.25702V10.743C4.66127 10.9205 4.71131 11.0577 4.81138 11.1545C4.91468 11.2514 5.05833 11.2998 5.24233 11.2998ZM5.94444 10.9027C5.87019 10.9027 5.80886 10.8785 5.76044 10.8301C5.71201 10.7849 5.68781 10.7236 5.68781 10.6461C5.68781 10.5687 5.71201 10.5073 5.76044 10.4621C5.80886 10.4137 5.87019 10.3895 5.94444 10.3895H8.06044C8.13469 10.3895 8.19602 10.4137 8.24444 10.4621C8.29287 10.5073 8.31708 10.5687 8.31708 10.6461C8.31708 10.7236 8.29287 10.7849 8.24444 10.8301C8.19602 10.8785 8.13469 10.9027 8.06044 10.9027H5.94444Z" fill="white" fill-opacity="0.6"/>
</svg>
