<svg width="14" height="14" viewBox="0 0 14 14" fill="none" xmlns="http://www.w3.org/2000/svg">
<mask id="mask0_11609_29268" style="mask-type:alpha" maskUnits="userSpaceOnUse" x="0" y="0" width="14" height="14">
<rect width="14" height="14" fill="#D9D9D9"/>
</mask>
<g mask="url(#mask0_11609_29268)">
<path d="M4.08268 13.4167C3.76185 13.4167 3.4872 13.3025 3.25872 13.074C3.03025 12.8455 2.91602 12.5709 2.91602 12.25V1.75004C2.91602 1.42921 3.03025 1.15455 3.25872 0.926082C3.4872 0.69761 3.76185 0.583374 4.08268 0.583374H9.91602C10.2368 0.583374 10.5115 0.69761 10.74 0.926082C10.9684 1.15455 11.0827 1.42921 11.0827 1.75004V12.25C11.0827 12.5709 10.9684 12.8455 10.74 13.074C10.5115 13.3025 10.2368 13.4167 9.91602 13.4167H4.08268ZM4.08268 11.6667V12.25H9.91602V11.6667H4.08268ZM4.08268 10.5H9.91602V3.50004H4.08268V10.5ZM4.08268 2.33337H9.91602V1.75004H4.08268V2.33337Z" fill="white" fill-opacity="0.4"/>
</g>
</svg>
