<svg width="19" height="22" viewBox="0 0 19 22" fill="none" xmlns="http://www.w3.org/2000/svg">
<path d="M8 21.325C7.76667 21.325 7.53333 21.2833 7.3 21.2C7.06667 21.1167 6.85833 20.9917 6.675 20.825C5.59167 19.825 4.63333 18.85 3.8 17.9C2.96667 16.95 2.27083 16.0292 1.7125 15.1375C1.15417 14.2458 0.729167 13.3875 0.4375 12.5625C0.145833 11.7375 0 10.95 0 10.2C0 8.48333 0.433333 6.94167 1.3 5.575C2.16667 4.20833 3.39167 3.20833 4.975 2.575C5.40833 2.39167 5.8875 2.25 6.4125 2.15C6.9375 2.05 7.45833 1.99167 7.975 1.975C8.25833 1.975 8.49583 2.06667 8.6875 2.25C8.87917 2.43333 8.975 2.66667 8.975 2.95C8.975 3.23333 8.87917 3.47917 8.6875 3.6875C8.49583 3.89583 8.25833 4 7.975 4C7.575 4 7.18333 4.0375 6.8 4.1125C6.41667 4.1875 6.03333 4.3 5.65 4.45C4.48333 4.93333 3.58333 5.7 2.95 6.75C2.31667 7.8 2 8.95 2 10.2C2 11.3833 2.49167 12.7375 3.475 14.2625C4.45833 15.7875 5.96667 17.4833 8 19.35C9.01667 18.4167 9.9 17.5292 10.65 16.6875C11.4 15.8458 12.025 15.0417 12.525 14.275C12.8583 13.7583 13.15 13.2292 13.4 12.6875C13.65 12.1458 13.825 11.5833 13.925 11C13.9917 10.6167 14.1375 10.35 14.3625 10.2C14.5875 10.05 14.825 9.99167 15.075 10.025C15.325 10.0583 15.5375 10.1583 15.7125 10.325C15.8875 10.4917 15.9583 10.7167 15.925 11C15.7917 12.0333 15.4958 13.0042 15.0375 13.9125C14.5792 14.8208 14.0417 15.6917 13.425 16.525C12.7083 17.475 11.9708 18.3208 11.2125 19.0625C10.4542 19.8042 9.825 20.3917 9.325 20.825C9.14167 20.9917 8.93333 21.1167 8.7 21.2C8.46667 21.2833 8.23333 21.325 8 21.325ZM8 12C8.55 12 9.02083 11.8042 9.4125 11.4125C9.80417 11.0208 10 10.55 10 10C10 9.45 9.80417 8.97917 9.4125 8.5875C9.02083 8.19583 8.55 8 8 8C7.45 8 6.97917 8.19583 6.5875 8.5875C6.19583 8.97917 6 9.45 6 10C6 10.55 6.19583 11.0208 6.5875 11.4125C6.97917 11.8042 7.45 12 8 12ZM14 5V7C14 7.28333 14.0958 7.52083 14.2875 7.7125C14.4792 7.90417 14.7167 8 15 8C15.2833 8 15.5208 7.90417 15.7125 7.7125C15.9042 7.52083 16 7.28333 16 7V5H18C18.2833 5 18.5208 4.90417 18.7125 4.7125C18.9042 4.52083 19 4.28333 19 4C19 3.71667 18.9042 3.47917 18.7125 3.2875C18.5208 3.09583 18.2833 3 18 3H16V1C16 0.716667 15.9042 0.479167 15.7125 0.2875C15.5208 0.0958333 15.2833 0 15 0C14.7167 0 14.4792 0.0958333 14.2875 0.2875C14.0958 0.479167 14 0.716667 14 1V3H12C11.7167 3 11.4792 3.09583 11.2875 3.2875C11.0958 3.47917 11 3.71667 11 4C11 4.28333 11.0958 4.52083 11.2875 4.7125C11.4792 4.90417 11.7167 5 12 5H14Z" fill="white"/>
</svg>
