<svg width="15" height="19" viewBox="0 0 15 19" fill="none" xmlns="http://www.w3.org/2000/svg">
<path d="M12.0278 5.354C11.5353 5.354 11.0871 5.23503 10.6831 4.99707C10.2791 4.75358 9.9554 4.42985 9.71191 4.02588C9.47396 3.61637 9.35498 3.16536 9.35498 2.67285C9.35498 2.18034 9.47396 1.7321 9.71191 1.32812C9.9554 0.924154 10.2791 0.60319 10.6831 0.365234C11.0871 0.121745 11.5353 0 12.0278 0C12.5203 0 12.9686 0.121745 13.3726 0.365234C13.7821 0.60319 14.1058 0.924154 14.3438 1.32812C14.5872 1.7321 14.709 2.18034 14.709 2.67285C14.709 3.16536 14.5872 3.61637 14.3438 4.02588C14.1058 4.42985 13.7821 4.75358 13.3726 4.99707C12.9686 5.23503 12.5203 5.354 12.0278 5.354ZM12.0278 4.05078C12.4207 4.05078 12.7472 3.91797 13.0073 3.65234C13.2729 3.38118 13.4058 3.05469 13.4058 2.67285C13.4058 2.28548 13.2729 1.96175 13.0073 1.70166C12.7417 1.43604 12.4152 1.30322 12.0278 1.30322C11.6515 1.30322 11.3278 1.43604 11.0566 1.70166C10.791 1.96175 10.6582 2.28548 10.6582 2.67285C10.6582 3.05469 10.791 3.38118 11.0566 3.65234C11.3223 3.91797 11.646 4.05078 12.0278 4.05078ZM9.72852 2.00049V3.33691H4.37451C3.43929 3.33691 2.69775 3.54167 2.1499 3.95117C1.60758 4.36068 1.33643 4.9113 1.33643 5.60303C1.33643 6.30583 1.64909 6.88688 2.27441 7.34619C2.90527 7.8055 3.84326 8.0988 5.08838 8.22607L9.81982 8.72412C11.4302 8.8846 12.6476 9.31901 13.4722 10.0273C14.2967 10.7357 14.709 11.6543 14.709 12.7832C14.709 13.5192 14.5291 14.1584 14.1694 14.7007C13.8153 15.2375 13.3089 15.6525 12.6504 15.9458C11.9974 16.2391 11.2254 16.3857 10.3345 16.3857H9.89453V17.606C9.89453 17.7996 9.85303 17.9546 9.77002 18.0708C9.68701 18.187 9.5791 18.2507 9.44629 18.2617C9.31348 18.2783 9.17513 18.2285 9.03125 18.1123L6.59912 16.1699C6.4165 16.026 6.32243 15.8711 6.31689 15.7051C6.31689 15.5391 6.41097 15.3813 6.59912 15.2319L9.02295 13.2979C9.17236 13.1761 9.31348 13.1208 9.44629 13.1318C9.5791 13.1429 9.68701 13.2093 9.77002 13.3311C9.85303 13.4473 9.89453 13.605 9.89453 13.8042V15.0493H10.3345C11.2642 15.0493 12.0029 14.8446 12.5508 14.4351C13.0986 14.0256 13.3726 13.4749 13.3726 12.7832C13.3726 12.0804 13.0571 11.4993 12.4263 11.04C11.8009 10.5807 10.8657 10.2874 9.62061 10.1602L4.87256 9.66211C3.26774 9.50163 2.05306 9.06722 1.22852 8.35889C0.409505 7.65055 0 6.73193 0 5.60303C0 4.86702 0.177083 4.23063 0.53125 3.69385C0.890951 3.15153 1.3973 2.73372 2.05029 2.44043C2.70329 2.14714 3.47803 2.00049 4.37451 2.00049H9.72852ZM2.68115 18.3862C2.18864 18.3862 1.7404 18.2645 1.33643 18.021C0.932454 17.783 0.608724 17.4593 0.365234 17.0498C0.127279 16.6458 0.00830078 16.1976 0.00830078 15.7051C0.00830078 15.2126 0.127279 14.7643 0.365234 14.3604C0.608724 13.9564 0.932454 13.6354 1.33643 13.3975C1.7404 13.154 2.18864 13.0322 2.68115 13.0322C3.17367 13.0322 3.62191 13.154 4.02588 13.3975C4.42985 13.6354 4.75081 13.9564 4.98877 14.3604C5.23226 14.7643 5.354 15.2126 5.354 15.7051C5.354 16.1976 5.23226 16.6458 4.98877 17.0498C4.75081 17.4593 4.42985 17.783 4.02588 18.021C3.62191 18.2645 3.17367 18.3862 2.68115 18.3862ZM2.68115 17.083C3.06852 17.083 3.39225 16.9474 3.65234 16.6763C3.91797 16.4106 4.05078 16.0869 4.05078 15.7051C4.05078 15.3177 3.91797 14.994 3.65234 14.7339C3.39225 14.4683 3.06852 14.3354 2.68115 14.3354C2.29932 14.3354 1.97559 14.4683 1.70996 14.7339C1.44434 14.994 1.31152 15.3177 1.31152 15.7051C1.31152 16.0869 1.44434 16.4106 1.70996 16.6763C1.97559 16.9474 2.29932 17.083 2.68115 17.083Z" fill="white"/>
</svg>
