<svg width="18" height="18" viewBox="0 0 18 18" fill="none" xmlns="http://www.w3.org/2000/svg">
<path d="M1.5 3.45V7.05C1.5 7.725 1.875 8.25 2.4 8.25H15.675C16.125 8.25 16.575 7.725 16.575 7.05V3.45C16.5 2.775 16.125 2.25 15.6 2.25H2.4C1.875 2.25 1.5 2.775 1.5 3.45ZM7.5 6V4.5H6.75V6H7.5ZM3.75 6H5.25V4.5H3.75V6ZM15 6.75H3V3.75H15V6.75ZM1.5 10.95V14.55C1.5 15.225 1.875 15.75 2.4 15.75H15.675C16.125 15.75 16.575 15.225 16.575 14.55V10.95C16.575 10.275 16.2 9.75 15.675 9.75H2.4C1.875 9.75 1.5 10.275 1.5 10.95ZM7.5 13.5V12H6.75V13.5H7.5ZM3.75 13.5H5.25V12H3.75V13.5ZM15 14.25H3V11.25H15V14.25Z" fill="white"/>
</svg>
