<svg width="32" height="32" viewBox="0 0 32 32" fill="none" xmlns="http://www.w3.org/2000/svg">
<mask id="mask0_11003_1950" style="mask-type:alpha" maskUnits="userSpaceOnUse" x="0" y="0" width="32" height="32">
<rect width="32" height="32" fill="white"/>
</mask>
<g mask="url(#mask0_11003_1950)">
<path d="M5.33333 13.9789C5.33333 12.7793 5.55863 11.6606 6.00924 10.6228C6.45984 9.5794 7.08506 8.66156 7.88488 7.86927C8.69034 7.0714 9.61971 6.44928 10.673 6.00292C11.7263 5.55656 12.8556 5.33337 14.061 5.33337C15.2607 5.33337 16.3872 5.55656 17.4405 6.00292C18.4994 6.44928 19.4288 7.0714 20.2286 7.86927C21.0285 8.66156 21.6537 9.5794 22.1043 10.6228C22.5605 11.6606 22.7886 12.7793 22.7886 13.9789C22.7886 14.9274 22.6366 15.8368 22.3324 16.7072C22.0282 17.5721 21.6058 18.356 21.0651 19.059L26.2696 24.2312C26.3991 24.3707 26.4977 24.5242 26.5653 24.6916C26.6329 24.8645 26.6667 25.0459 26.6667 25.2356C26.6667 25.4978 26.6075 25.7377 26.4892 25.9553C26.371 26.1729 26.202 26.3459 25.9823 26.4742C25.7683 26.6025 25.5233 26.6667 25.2473 26.6667C25.0557 26.6667 24.8699 26.6304 24.6896 26.5579C24.515 26.491 24.3573 26.3905 24.2165 26.2566L18.9867 21.0676C18.2882 21.5531 17.5222 21.9325 16.6886 22.2059C15.855 22.4793 14.9791 22.616 14.061 22.616C12.8556 22.616 11.7263 22.3928 10.673 21.9464C9.61971 21.4945 8.69034 20.8724 7.88488 20.0801C7.08506 19.2878 6.45984 18.3699 6.00924 17.3266C5.55863 16.2832 5.33333 15.1673 5.33333 13.9789ZM7.30191 13.9789C7.30191 14.8995 7.47652 15.7643 7.82574 16.5733C8.18059 17.3768 8.66499 18.0854 9.27894 18.6991C9.89852 19.3129 10.6167 19.7927 11.4334 20.1387C12.2501 20.4846 13.126 20.6576 14.061 20.6576C14.9904 20.6576 15.8606 20.4846 16.6717 20.1387C17.4884 19.7927 18.2066 19.3129 18.8261 18.6991C19.4457 18.0854 19.9301 17.3768 20.2793 16.5733C20.6286 15.7643 20.8032 14.8995 20.8032 13.9789C20.8032 13.0527 20.6286 12.185 20.2793 11.376C19.9301 10.567 19.4457 9.85558 18.8261 9.24183C18.2066 8.62809 17.4884 8.14825 16.6717 7.80232C15.8606 7.45639 14.9904 7.28342 14.061 7.28342C13.126 7.28342 12.2501 7.45639 11.4334 7.80232C10.6167 8.14825 9.89852 8.62809 9.27894 9.24183C8.66499 9.85558 8.18059 10.567 7.82574 11.376C7.47652 12.185 7.30191 13.0527 7.30191 13.9789Z" fill="white"/>
</g>
</svg>
